<svg xmlns="http://www.w3.org/2000/svg" viewBox="0 0 1000 1000"><defs><style>.cls-1{opacity:0.2;}.cls-2{fill:#fff;}.cls-3{fill:#d5d4ce;}.cls-4{fill:#f5f5f4;}</style></defs><g id="レイヤー_7" data-name="レイヤー 7"><path class="cls-1" d="M417.5,775.38c-10-.19-20.69-2.94-27.89-10.28-2-1.88-3.17-4.39-4.84-6.5a5.33,5.33,0,0,0-4.93-1.61c-7.87,1-15.69,2.57-23.64,2.77a160.94,160.94,0,0,1-21.51-.62c-4.64-.47-9.4-.79-13.93-2-13-3.48-12.91-13.66-6.07-23.62,11.11-15.34,31.72-22.52,50-23.92,25.39-1.74,50.6,3,75.95,3.28,37.32-.14,74.55-3.53,111.8-5.52,10.3-.72,20.66-1.52,30.93-2.64,21.46-2.72,42.94-6.13,64.59-6.9,8-.34,16.06.45,24,1.13a111.37,111.37,0,0,0,12.12,0c7.36-.3,14.75-.68,22.08-1.39,12.89-1,29.13-1.39,39.22,7.85a32.31,32.31,0,0,1,9.09,17.94,14.42,14.42,0,0,1-.71,9c-1.52,3.25-4.94,4.92-8,6.38-7.18,3.34-15.13,4.18-22.85,5.43a28,28,0,0,0-9.19,3.35c-9.44,6.09-19.69,6.08-30.51,6.26-12.18.06-25.11,1.62-36.55-3.52-2.63-1.11-4.43-3.24-6-5.51a5.16,5.16,0,0,0-4-2.32,65.64,65.64,0,0,0-7.62,1,284.06,284.06,0,0,1-40.57,3.5c-15.88.37-31.78,1.44-47.65,2-14.79.2-29.68.63-44.25,3.42-16.35,2.73-32.67,6.75-47.44,14.47a62.59,62.59,0,0,1-10.36,4.93A69.42,69.42,0,0,1,417.5,775.38Z"/></g><g id="レイヤー_6" data-name="レイヤー 6"><path class="cls-2" d="M409.85,755.53c-3-.15-5.88-1.6-8.43-3.14a30.32,30.32,0,0,1-5.84-5.42c-2-2-4.39-3.7-5.66-6.33a25.59,25.59,0,0,1-2.6-8.26c-.3-2.08.54-4.71-1.18-6.33-.7-.56-1.68-.32-2.49-.22-3.3.56-6,2.62-9,4a41.24,41.24,0,0,1-7.07,2.16,35.9,35.9,0,0,1-8.34,1.32,25.23,25.23,0,0,1-9-1.92,33,33,0,0,1-6.81-4.08c-2.94-2.21-6.12-4.38-8.15-7.52a20.88,20.88,0,0,1-2.91-9.36c-.53-4.7-.5-9.47-1.07-14.17-.66-6.23-1.54-12.45-2.78-18.6-1-5.57-2.48-11.11-2.91-16.77-.49-7.38,1-14.74.48-22.12a59.39,59.39,0,0,0-1.25-8.7c-.5-2.07-1.24-4.08-1.85-6.11-.84-2.9-.66-6-.58-8.93.08-2.73.25-5.46.38-8.18a22.08,22.08,0,0,0-.08-5.14,4,4,0,0,0-1.49-2.87,15.32,15.32,0,0,0-3-1.1c-1.19-.28-2.72-.87-3.84-.25a7,7,0,0,0-2.57,1,39,39,0,0,0-4.21,2.87,59,59,0,0,1-8.39,5.71,58.39,58.39,0,0,1-17.33,5.77,34,34,0,0,1-7.87,0,33.25,33.25,0,0,1-5.17-.67c-4.69-1.17-8.65-4.13-12.63-6.73-3.25-2.23-5.61-4-9.69-2.6-6.83,1.81-16.13,1.51-22-2.79l-.14-.1c-6.27-5.08-11.34-11.46-15.76-18.17-1.77-2.71-3.55-5.42-5.39-8.08-1.31-1.85-2.74-3.63-4-5.54-3.16-5.35-5.08-11.32-7.49-17-1.23-3-2.41-6.08-3.8-9a13.68,13.68,0,0,0-3-4.3,10.91,10.91,0,0,0-2.92-1.55,13.91,13.91,0,0,1-5.89-4.45c-6.72-7.51-7.25-14-7.1-23.69a63.94,63.94,0,0,1,2.24-17.47c2.12-6.18,4.88-12.16,6.41-18.54,1.69-6.17,2.84-12.53,5.1-18.54A147.61,147.61,0,0,1,196,427.76a108,108,0,0,1,10.41-13.14c2.95-3.32,5.88-6.74,9.15-9.75,6.6-6.15,15.29-11.83,22.93-16.68a59.56,59.56,0,0,1,7.59-2.71c5.49-1.82,11-3.64,16.6-5.1,8.54-2.08,17-4.54,25.64-6.28,4.18-.83,8.46-1,12.69-1.44,5-.19,9.94-.47,14.91-.35a77.65,77.65,0,0,1,12.37,1c4,.46,8,1.14,11.9,2a77.66,77.66,0,0,1,27.5,10.1c2.46,1.26,5.09,2.19,7.54,3.45,3.24,1.6,6.4,3.34,9.65,4.89a13.76,13.76,0,0,1,3.72,2.66c1.13.85,2.39,1.54,3.56,2.35,1.64,1,3.51,1.66,5,2.85a11.39,11.39,0,0,1,1.62,1.48,2.71,2.71,0,0,0,1.43,1c4.78-.08,9.55-1.09,14.25-1.94,3.27-.58,6.58-1,9.88-1.36,2.63-.19,5.28-.38,7.9-.7a16.43,16.43,0,0,0,4-.55c4.32-1.18,8.3-3.29,12.47-4.89,5.19-1.85,10.54-3.26,15.76-5.05,3.71-1.28,7.34-2.83,11.09-4,7-2.27,14.12-4.47,21.3-6.21,4.11-.93,8.31-1.58,12.41-2.52a155,155,0,0,0,17.43-5.06c4.41-1.35,8.63-3.46,13.2-4.21s9.41-.24,14.1-.36a32.77,32.77,0,0,0,8.09-.65c2.4-.61,4.81-1.27,7.24-1.78a18.45,18.45,0,0,1,6.81-.61c3.57.4,7,1.88,10.61,2,3.32-2.34,5-6.13,7.13-9.46,2.1-2.73,4.64-5.13,7-7.66A43.13,43.13,0,0,1,615,338.41c8.16-3.53,17.09-4.67,25.51-7.41,2.32-.71,4.67-1.35,7-2.05a43.35,43.35,0,0,1,7.25-1.78c5-.52,10.37.14,14.67,2.89,4.63,2.87,8.94,7.59,14.81,7.24,2.32-.15,4.41-1.34,6.42-2.42s4-2.3,6.12-3.23a10.85,10.85,0,0,1,5.11-1.2c2.33.21,4.63.8,7,.86,5.2,0,10-2.08,15-3.23a86.62,86.62,0,0,0,10.53-3.27c2.89-1.07,5.72-2.52,8.82-2.81A25.72,25.72,0,0,1,759,325.33c2.67,1.93,4.68,4.62,6.66,7.21,1.58,2.24,2.79,4.77,4.89,6.6a27.91,27.91,0,0,1,4.67,5.57,27.4,27.4,0,0,1,1.93,5h0a32,32,0,0,0,4.62,8.29l.1.13a23.3,23.3,0,0,1,2.42,4.12,28.23,28.23,0,0,1,1.14,4.72A124.77,124.77,0,0,1,787,381.5c.47,2.78-.72,4.93-2.47,7-.38.86-.54,1.83-.92,2.7A44.82,44.82,0,0,1,781,396c-1.57,2.46-3.2,4.89-4.79,7.34-3,4.46-6.43,9.9-5.5,15.52.72,2.69,2.79,5.2,2,8.12a15,15,0,0,1-3.19,5.43c-1.07,1.31-2.52,2.47-3,4.16h0a2.74,2.74,0,0,0,0,1l-.08.24c.29.24.35.7.57,1a10.77,10.77,0,0,0,1.09,1.45c1,1.13,2.32,2,3.45,3.06,2.23,1.94,4.49,3.86,6.8,5.7a21.75,21.75,0,0,1,6,7.82c3.49,6.18,4.49,13.29,6.33,20.05,1.37,5,4.54,9.24,6,14.2.68,1.92.33,4,.16,6A48.25,48.25,0,0,1,794,508a67.67,67.67,0,0,0-2.43,9.17,66.36,66.36,0,0,0-.92,9.65,27.07,27.07,0,0,1-1.87,8.43,60.93,60.93,0,0,1-6,10.2,63,63,0,0,0-3.39,6.78c-1.58,3.36-3.36,6.62-5,9.92-1.33,2.52-2.4,5.19-4,7.58-3.2,5.45-7.62,10-11.71,14.81-2.17,2.77-4,5.85-6.19,8.59-1.49,2.17-2.72,4.51-4.1,6.75-1.77,3-4.62,5.53-3,9.29,2.2,6.53,5.66,12.53,8.48,18.79,1.27,3,3.94,5.63,3.75,9.07-.2,2.64-1,5.19-1.12,7.84a31.07,31.07,0,0,0,.9,6.79h0a95.9,95.9,0,0,1,1.35,10.68c0,3.54,0,7.09,0,10.63s-.12,7.24-.41,10.84a33.21,33.21,0,0,1-1.9,9.86,60.92,60.92,0,0,1-8.83,15.73,20.79,20.79,0,0,1-3.61,3.21c-1.7,1.37-3.48,2.63-5.23,3.92a43.92,43.92,0,0,1-9.81,6.06c-2,.83-4.14,1.25-6.16,2-1.45.5-2.94,1-4.38,1.52-.48.17-1,.38-1.47.58-.25,0-.6.4-.86.24l-.12.19c-2.91,1.46-5.54,3.43-8.31,5.13-1.27.76-2.65,1.35-4,2a19.67,19.67,0,0,1-3,1.33c-2.59.81-5.37.66-8,1.42a31.5,31.5,0,0,0-4.18,1.69c-2,.76-4.15,1.4-6.23,2s-4.15.34-6.18.8c-1.58.29-3,1.06-4.54,1.49a7,7,0,0,1-3.91-.28,10.53,10.53,0,0,1-5.11-5.65c-1.1-2.39-1.78-5.1-3.55-7.12-2.94-3.11-6.6-5.76-8.35-9.78-.87-1.71-.84-3.68-1.09-5.53-.27-2.38-.73-4.73-1.15-7.07-.51-3.63-1.18-7.24-1.73-10.86a151.63,151.63,0,0,0-2.23-15.9h0c-1.38-4.92-3.29-9.67-4.86-14.54a77.46,77.46,0,0,1-2.69-8.27,67.73,67.73,0,0,1-1.61-10.4c-.1-6.79.32-13.57.62-20.35a47.35,47.35,0,0,0-1.94-13.9c-.88-2.74-1.69-5.5-2.53-8.25a56.57,56.57,0,0,1-2.13-8.21c-1.09-6.15-.85-12.57-3-18.51-.76-1.76-1.68-4.1-3.83-4.38a9.6,9.6,0,0,0-4.62,2c-3.88,2.83-7,6.47-10.58,9.68a63.81,63.81,0,0,1-7.66,5.27c-1.94,1.2-3.86,2.44-5.86,3.53-2.26,1.2-4.63,2.25-6.93,3.39a49.93,49.93,0,0,1-11,4c-2.78.56-5.64.37-8.44.72a29.6,29.6,0,0,0-9.55,3c-2.14.9-4.37,1.57-6.48,2.55a60.67,60.67,0,0,1-6.74,2.88,27.36,27.36,0,0,1-6.52,1.26c-1.68.17-3.45.83-5,.89-2.64.74-5.28,1.6-7.93,2.36-1.87.47-3.86.4-5.67,1.09a4.84,4.84,0,0,0-2.84,2.57,29.51,29.51,0,0,0-1.16,5.51c-.79,4.72-1.49,9.47-1.84,14.25-.36,5.76-.38,11.53-.43,17.3-.21,5.55,0,11.39-2.35,16.54-.8,1.74-1.81,3.39-2.73,5.06-.59,1.13-1,2.35-1.59,3.48-.63,1.34-1.34,2.65-1.94,4-.74,1.75-1.34,3.56-2.07,5.32-1,2.55-2.23,5-3.28,7.57a82.71,82.71,0,0,1-9.68,16.23,56.63,56.63,0,0,1-5,6.25c-1,1.14-2.27,2.09-3.35,3.19-1.51,1.58-2.76,3.46-4.64,4.65-1.05.78-2.27,1.28-3.36,2a12.23,12.23,0,0,0-3.13,3.51c-1,1.41-1.81,2.93-2.82,4.32a8.76,8.76,0,0,1-2.18,1.79c-3.45,2.21-6.61,4.88-10.22,6.83a34.86,34.86,0,0,1-6.33,2.34,25.89,25.89,0,0,1-8,1.2c-4.29.15-8,2.7-12.21,3.28s-8.56-.86-12.51.56l-.22-.07C413.68,754.79,411.82,755.57,409.85,755.53Z"/></g><g id="レイヤー_5" data-name="レイヤー 5"><path class="cls-3" d="M405.23,757.35c-2.45.16-4.6-1.65-4.06-4.21a4.3,4.3,0,0,1,3-3.39,19.46,19.46,0,0,1,6.71-.64,13.24,13.24,0,0,0-6.44-1.59,59.9,59.9,0,0,1-6.14.08c-3.27-.39-6-2.63-7.77-5.29-3.89-5.8-4.13-13-6-19.54-1.35-3.54-4.44-6.16-7.56-8.17-3.34-1.84-7.24-2.17-10.95-2.64-5.21-.61-4.82.1-7.46,4.17-3.38,4.93-9.77,14.53-16.11,14.91-4.49.19-7.65-3.39-9.11-7.3a39.87,39.87,0,0,1-1.82-8.46q-.76-5-1.42-10.11c-.68-4.35-1.34-8.73-2.17-13.07-1.21-5.68-2.59-11.34-3.66-17.06-1.24-7.09-.86-14.34-.65-21.5.3-5.09.56-10.41-.25-15.36-.54-1.47-.93-3-1.59-4.45a20.68,20.68,0,0,1-2-6.31c-1.12-8-1.31-17,3.89-23.73,3.48-4.23,9.34-5.44,14.58-5.48.28-1.54,1.26-14,2.49-14.85a31.28,31.28,0,0,1,3.9-5.75,70.42,70.42,0,0,1,5.49-5,58.6,58.6,0,0,1,5.53-3.84,31.42,31.42,0,0,0,4.36-3.61,46.94,46.94,0,0,0,8.92-12.21A42.37,42.37,0,0,0,373,540.65c.66-3.45.63-7,1.54-10.41,1.5-5.1,4.2,6.29,4.86,7.42.63,1.57,1.5,3.34,3.14,4h0c2.51.17,4.75-1.34,6.64-2.84a41.77,41.77,0,0,0,4.2-3.65c6-6.76,10.85-14.53,15.44-22.29,1.83-3,3.45-6.23,5-9.41.83-1.32,4.58-10.75,6.32-8.29h0c2.89,5.58,6.46,11,7.61,17.31a44.22,44.22,0,0,1-.13,9.55c-.71,7.18-3.15,14.49-1.34,21.7a10.52,10.52,0,0,0,5.58,7.47c3.8,2.45,8.44,5.45,8.85,10.38.07,3.58-2.81,6.33-5,8.81a31.47,31.47,0,0,1-8.8,6.66,8.58,8.58,0,0,0-3.64,3.39,8.82,8.82,0,0,0-.91,3.9,9.09,9.09,0,0,0,.77,2.64,6.18,6.18,0,0,0,2.51,3.24,26.64,26.64,0,0,0,2.55,1h0c5.35,2,12.46,6.42,12.05,12.93a5.7,5.7,0,0,1-2.06,3.14c-1.09,1-2.24,2-3.38,2.91a33.69,33.69,0,0,0-7.08,8.11c-2.94,4.35-6.41,10.13-6.11,15.55.19,4.6,5.06,5.31,8.4,7,2.95,1.3,6,4.32,5.3,7.79-.42,2.05-2.16,3.3-3.74,4.47-2.62,2.06-5.47,3.81-8.23,5.67a38.63,38.63,0,0,0-4.55,3.35,5.54,5.54,0,0,0-.66,3.42,25.07,25.07,0,0,0,1.39,5.28c.81,3,2.1,5.94,2.3,9.06.15,3.79-2.79,6.8-5.22,9.37-4,3.77-8.85,7.46-10.27,13.07a7.76,7.76,0,0,0,.2,4.95c.32.75.78,1.44,1.06,2.21,1.27,3.54.26,5.16-2,7.83a59.82,59.82,0,0,0-5,7.07c-1.37,2.46-4,6.53.56,7.16,3.12.86,6.68.89,9.29,3,2,1.57,3.28,3.9,5.21,5.58,2.52,2.57,5.79,2.1,9,1.25,1.41-.36,2.68-1.15,4.08-1.55a16.26,16.26,0,0,1,6.68-.69,30.32,30.32,0,0,0,3.52.67,7.09,7.09,0,0,0,3.16-.78c1.79-1,3.25-2.57,5.13-3.44a9,9,0,0,1,4-.7c2.1-.12,4.51-.5,5.68-2.46,2.25-3.16,4.68-11.65,9.54-10.53,2.34.48,4.66,1.45,7.08,1.2a4.89,4.89,0,0,0,3.3-2.27A15.85,15.85,0,0,1,479.5,718c2.64-1.67,2.64,2.34,2,3.92a11.66,11.66,0,0,1-3,5,15.77,15.77,0,0,1-4.73,3.5c-1.62.62-3.38,1-4.73,2.2-2.46,2-4.82,4.19-7.28,6.22a68.41,68.41,0,0,1-7.36,6c-1.39,1-2.81,1.93-4.23,2.85a8.26,8.26,0,0,1-4.45,1.74,12.43,12.43,0,0,0-5.12.91c-5.4,2.49-9.62,5.9-16,4.53-2.46-.43-4.89-1.15-7.39-1.34v0c-.84-.12-1.88.14-2.63.07a18.08,18.08,0,0,0-4.69,1.61C408.45,756.13,407,757.33,405.23,757.35Z"/></g><g id="レイヤー_4" data-name="レイヤー 4"><path class="cls-4" d="M348.29,735.9a4,4,0,0,1-2.49-.7,21.15,21.15,0,0,0-2.35-1.76c-.87-.45-1.88-.63-2.75-1.09a5.48,5.48,0,0,1-2.06-2.38A33.89,33.89,0,0,0,337,726.2c-.6-1-1.45-1.88-2.07-2.88a12.43,12.43,0,0,1-1.41-8.82c.78-2.39,2-4.62,2.68-7,1.57-6.87,1.15-14,1.32-21a99.77,99.77,0,0,1,1.44-13.1c.49-3.65.77-7.35.9-11a66.34,66.34,0,0,0-1.69-16.72c-1-4.36-1.88-8.75-3-13.07-.73-2.93-1.84-5.76-2.7-8.65a26.37,26.37,0,0,0-1.66-4.5,28.55,28.55,0,0,0-3-4.17A12.57,12.57,0,0,1,325.1,610a16.14,16.14,0,0,1-.52-6.33c.27-1.47,1.42-2.54,2.3-3.66a16.05,16.05,0,0,1,2-2.17c.85-.56,1.8-1,2.67-1.5,10.06-5.22,16-5.82,20.57-17.64a32.12,32.12,0,0,1-3.64,5.52c-1.17,1.41-3.58,3.87-5.6,3.49-1.48-.73-2.11-2.54-3.31-3.62a11.65,11.65,0,0,0-4.8-2.78,53.2,53.2,0,0,1-9.39-3.64c-2.76-1.45-5.25-3.44-8.23-4.41a2.62,2.62,0,0,1-.48-.13c-3.4-.75-6.94-.62-10.37-1.23a68.59,68.59,0,0,1-16.6-4.57,45.63,45.63,0,0,1-8-4.67c-4.5-3.18-8.31-7.25-12.95-10.24a19.55,19.55,0,0,0-9.22-3.86c-4.55-.27-8.89,1.51-12.89,3.49a27.64,27.64,0,0,1-11.48,3.72,23.46,23.46,0,0,1-9.81-2.14,21.35,21.35,0,0,1-12-10.94c-1.19-2.63-1.88-5.49-3.27-8a82.5,82.5,0,0,0-4.75-7.13l-1.63-2.21c-.22-.4-.86-.87-.85-1.33l.14-.08c1.2.91,10.71,7.53,11.87,7.8,4.37,2.08,9,3.83,13.92,3.87,4.63,0,9.22-.94,13.85-1,12-.25,23.93.33,35.89-.19,3.72-.18,7.43-.67,11.13-1.1,1.75-.11,3.73-.28,5.29.66,1.1.92,1.1,2.57,1.44,3.87,2.38,12,5.79,15.61,17.86,17.69,2.65.66,5.58,1.27,7.56,3.29a53.66,53.66,0,0,0,4,4.77c3.45,3,8.26,4,12.74,3.63a73.89,73.89,0,0,0,9.64-.82,64.37,64.37,0,0,0,6.39-1.64c2.05-.58,4.05-1.37,6.06-2.08a13.47,13.47,0,0,1,2-.68c1.43,0-1.39,3.59-1.68,4.05a63.47,63.47,0,0,1-4.75,5.23,25.89,25.89,0,0,0-2.21,3.25c0,.27-.22.54-.28.79,2.46-4.64,7.23-7.2,11.06-10.55a40.21,40.21,0,0,0,6.55-8.3c1.42-2.2,2.59-4.57,4-6.75a9.73,9.73,0,0,1,2.06-1.89,4,4,0,0,1,.44-.27l12.72-2,.15.18c-2.37,6.3-4.75,12.6-.38,18.65,1.7,2.26,3.6,4.39,5.23,6.71,2,2.82,2.9,4.95-.18,7.41-2.9,2.5-6.08,4.94-8,8.32-1.78,4-2.49,9.09-.8,13.28a25.94,25.94,0,0,0,3.17,5.34,13.25,13.25,0,0,0,3.48,3.6c2.49,1.63,5.51,1.92,8.35,2.49a37.86,37.86,0,0,1,7.7,2.64c2.74-1.74,5.69-3.19,8.37-5a32.56,32.56,0,0,0,5.77-5.48c1.3-1.21,6.34-9,8-7l.11.13c.94,1.58.17,3.58-.35,5.19-1.9,5.19-6.17,9-8.74,13.85-2.07,3.44-3.09,7.33-4.23,11.14a21.66,21.66,0,0,1-3.94,6.63c-1.86,2.39-4,4.64-5.4,7.32-3.3,6.12-4.12,13.07-5.89,19.69a23.6,23.6,0,0,0-.09,3.37,24.66,24.66,0,0,1-.7,6.23l-.17.11.06.21a54.4,54.4,0,0,1-3,6.49c-1.83,4.72-1.72,9.9-2.34,14.86-.54,4.46-1.55,8.86-1.92,13.35-.28,3.26,0,6.56-.17,9.82h0c0,4.18-2.46,5.23-5.32,7.53s-5.94,4.74-9.51,6.06c-2.54,1-5.35,1-7.95,1.85-1.7.5-3.32,1.27-5.06,1.63a13.28,13.28,0,0,1-5.47-.2l-.15,0a9.62,9.62,0,0,0-4.46-.19C353.91,732.77,351.82,736.08,348.29,735.9Z"/><path class="cls-4" d="M696.53,473.89c-1.34-.09-2-2.8-2.35-3.9a40.24,40.24,0,0,1-1-6.08,15.4,15.4,0,0,0-.92-4.16,16.53,16.53,0,0,0-2.62-3,5.79,5.79,0,0,0-4.86-1.81v0c-1.62.27-3.23.95-4.91.85-4.12-.38-8-1.85-12-3s-8-1.51-11.21-4c-1.38-1.07-2.64-2.32-4.08-3.31-3.12-2.25-5.76-2.85-9.44-1.62-2.82.91-5.53,2.21-8.44,2.81a19.27,19.27,0,0,1-5.2,0c-8.82-1.11-11-5.84-11.55-14.06-.29-3.65-.47-7.49-2.07-10.85a9.62,9.62,0,0,0-4-3.66c-2.07-1-4.42-1.43-6.61-2.18-2.4-.87-5.68-1.48-6.57-4.22a9.41,9.41,0,0,1,.19-3.3c.35-2.07.92-4.11,1.08-6.2a12,12,0,0,0-1.74-7.74,15.18,15.18,0,0,0-7.29-6.05c-2.81-1.23-6.13-2-8.13-4.48-2.41-3,1-6.11,3.1-8.13,2.5-2.23,5.81-3.28,8.89-4.44l10.47,8,.58.14c.86.22,1.76.45,2.62.69,1.93.67,4.52,1.29,5.19,3.47a3.64,3.64,0,0,1,.11.66l-.12.17.13.15c-.14,2-.82,3.88-1,5.86a5.63,5.63,0,0,0,.95,4.49,4.08,4.08,0,0,0,3,2.16c2.54.44,5.1-.3,7.65-.1,1.32.09,4.46.69,4.33,2.36l.16.13,0,.17c-.07,1.8-1.06,3.45-1.69,5.11a47.35,47.35,0,0,0-3.35,9,15.78,15.78,0,0,0-.19,7.26,14.81,14.81,0,0,0,4.55,6.73,27.07,27.07,0,0,0,8.07,3.48c1.72.44,3.52.49,5.27.78,7.17.82,13.38,5.45,20.7,5.48,9.06,0,16.74-5.13,25.48,0,5.6,2.82,12.27,9.8,18.8,9,3.11-.78,6-2.36,9.09-3.19a28.39,28.39,0,0,1,9.63-1.35c1.92.16,7.79.83,5.5,3.74a31.46,31.46,0,0,0-3.66,3.26c-2.3,2.52-4.19,5.49-7,7.45-4.61,3.37-10.21,5-15,8.12a8.55,8.55,0,0,0-2.2,1.66c-1.12,1.5-2.05,3.16-3.14,4.69C698.94,472,698.06,473.64,696.53,473.89Z"/><path class="cls-4" d="M667.06,740.45c-2,0-4.3-2.28-5.39-3.85-1.11-1.8-1.07-4-1.28-6a4.47,4.47,0,0,0-2.13-2.73,28.84,28.84,0,0,1-2.62-2.31c-5.72-6-7.68-14.57-8.42-22.61-.45-4.28-.06-8.61-.61-12.88-.49-5-2.51-9.68-3.85-14.5a106.92,106.92,0,0,0-4.13-12.82,116.17,116.17,0,0,1-3.45-12.16,136.23,136.23,0,0,1-3.63-23.08,65.49,65.49,0,0,1-.29-9.5c.12-2.39.49-4.77.63-7.17a25.52,25.52,0,0,0-.69-8.83c-1.05-4.44-2.73-8.72-3.85-13.15-1.43-5-2.24-10.2-3.73-15.19l.06-.21a17.46,17.46,0,0,1-2.88,5.25c-1.7,1.48-3.91,2.27-5.81,3.47-3.11,1.58-6.16,3.3-9.31,4.79A69.55,69.55,0,0,0,595,593.21c-3,1.92-5.77,4.07-8.82,5.83-4.54,2.47-9.35,4.45-13.84,7-7,4-14.72,7.24-22.8,8.36-3.39.38-6.83-.07-10.22.36-3.88.35-7.78.85-11.69.88-.05-.61-13.28,4-13.56,3.63a30.69,30.69,0,0,0-1.71-2.85c-2.15-3.45-4.63-6.72-6.88-10.1-3.58-6.24,1.89-6.46,6.61-7.23a6,6,0,0,0,4.15-4.64c.39-2.84-.39-5.71-.85-8.51-.75-3-.25-4,2.77-4.79,4.72-1.25,9.71-.19,14.45-1.16,3.08-1,5-3.85,6.72-6.41,1-1.37,1.8-3.1,3.27-4.07,3.94-1.84,8.62-.32,12.64-1.95,6.19-2.25,10.81-7.29,14.41-12.62,4.2-5.69,7.25-12.12,10.18-18.52a42.62,42.62,0,0,1,2.84-5.34,6.83,6.83,0,0,1,2.67-2.71,24.4,24.4,0,0,1,8.8-1.43c2.28.1,4.51.65,6.78.82a69.83,69.83,0,0,0,9.37.25c2.1-.26,4.13-1.21,6.27-.87l-.09-.16c.53-1.53,3.88-11.76,5.12-11.61l.45,13c1.14-3.48,2.14-7.06,4-10.25,2.81-4.92,7.27-8.65,11.7-12.09a44.72,44.72,0,0,1,19.17-7.94c2.24-.27,4.67-.83,6.85,0,4.58,3-.86,9.47-3.22,12.29-3.08,3.62-6.42,7.11-9.22,10.95a66.55,66.55,0,0,0-10.1,20.43c-3.24,13.42-2.47,27.76,1.08,41a66.38,66.38,0,0,0,5.42,14.85c2.46,4.78-.25,10.11-1.66,14.8a65,65,0,0,0-3.18,13.4,113.29,113.29,0,0,0-.47,16.78,85.49,85.49,0,0,0,2.11,12.32c.79,3.37,1.59,6.83,3.31,9.86a19.33,19.33,0,0,0,3.45,3.94c1,.88,2.16,1.52,3.1,2.45a13.21,13.21,0,0,1,3.24,5.43,29.34,29.34,0,0,1,1.51,8.75c-.24,3.28-1.09,6.49-1.25,9.78a23.56,23.56,0,0,0-.12,4.28,26.74,26.74,0,0,0,1.39,5.36,40.31,40.31,0,0,0,7.41,13.92c3.59,3.85,6.22-4.24,9-5.57,1.51-.75,2.71.91,3.63,1.87,1.09,1.28,2.08,2.65,3.21,3.89a6.55,6.55,0,0,0,4.39,2.09,25,25,0,0,0,4.06-.11c2.65-.14,4.92,1.5,7.07,2.83a12.08,12.08,0,0,0,3,1.63c2.26.61,4.62-.34,6.58-1.44,2.36-1.4,4-3.64,6.16-5.33,2.49-2,5.92-1.37,8.82-.85a27.56,27.56,0,0,0,11.37,1c3.54-.42-.17,3.47-1.43,4.07a20,20,0,0,1-4.62,1.81c-1.8.59-3.62,1.2-5.39,1.89-2.4.94-4.61,2.3-7,3.33A49.09,49.09,0,0,1,709,732a86.63,86.63,0,0,1-8.8,2.25c-2.34.46-4.8.33-7.1,1-3.33,1.27-5.92,4.63-9.71,4.44-1.12-.06-2.2-.46-3.32-.5a17.16,17.16,0,0,0-3.91.37C673.17,740,670.11,740.27,667.06,740.45Z"/><path class="cls-3" d="M275.87,609.35a52.85,52.85,0,0,1-15.31-2.11,55.64,55.64,0,0,1-8-3.7,14.91,14.91,0,0,0-4.74-1.5,16.6,16.6,0,0,0-2.34-.11c0-.16-12-6-11.53-6.28,0,0-.16-.18-.16-.18-1.57-2-2-4.61-2.55-7-.57-3.11-1-6.51.41-9.48a9.88,9.88,0,0,1,2.76-3,26.85,26.85,0,0,1,4.21-2.89,25.57,25.57,0,0,1,7.84-2.55,35.66,35.66,0,0,1,7.59,0,19.13,19.13,0,0,1,7.06,2.88,18.83,18.83,0,0,1,5.15,6.51c.95,1.88,2.11,3.67,2.87,5.63a17.61,17.61,0,0,1,.79,3.12,5.54,5.54,0,0,1,.14.55l-.08.22.16.14a6.81,6.81,0,0,0,2.48,4.2,14.18,14.18,0,0,0,6.87,1.84h0l.18.05c4.26-.08,7.69-3.05,11.41-4.77,1.37-.7,2.8-1.32,4.1-2.15,1.89-1.18,3.7-2.51,5.66-3.57,1.59-.79,3.27-1.38,4.89-2.09a23,23,0,0,1,7.59-2.19c2-.08,4.28.42,5.47,2.21.64.75,1,1.72,1.59,2.49a9,9,0,0,0,1.88,1.87,4,4,0,0,1,1.21,2.39,6.28,6.28,0,0,1-2.68,5.09c-1.71,1.22-3.88,1.44-5.9,1.69a13.51,13.51,0,0,0-3,.69,20.17,20.17,0,0,0-4.05,2.74,60.06,60.06,0,0,1-5.62,4.17,38.08,38.08,0,0,1-6.92,3.12C288.94,609.13,282.34,609.25,275.87,609.35Z"/></g><g id="レイヤー_3" data-name="レイヤー 3"><path d="M572,608.23h0Z"/><path d="M764,584.18l-.17.18-.16.2Z"/><path d="M799.92,501c-.45-3.22-1.14-6.4-1.81-9.59-.29-1.41-.53-2.83-.77-4.25s-.56-2.79-.8-4.19c-.61-3.58-.7-7.23-1.35-10.8a22.77,22.77,0,0,0-2-6,41.37,41.37,0,0,0-3.1-5.15,96,96,0,0,0-7.1-9c-1.23-1.38-2.51-2.72-3.82-4s-2.67-2.55-3.91-3.93l.33.38A21.66,21.66,0,0,0,771,440a8.07,8.07,0,0,0-.82-.43c0-1.36-.13-2.71-.23-3.92a10.43,10.43,0,0,0,1.38-.43,13.33,13.33,0,0,0,2.91-1.49,7.4,7.4,0,0,0,3.14-6.18,27.6,27.6,0,0,0-1.73-8.62c-.44-1.16-.87-2.31-1.3-3.47-.24-.63-.49-1.25-.74-1.87.41-.28.82-.57,1.22-.88,1.13-.85,2.19-1.79,3.24-2.73a38.8,38.8,0,0,0,6.27-6.54,32.23,32.23,0,0,0,3.1-5.53,61,61,0,0,0,2.17-6.17,43.39,43.39,0,0,0,1.74-12.56,68.35,68.35,0,0,0-1.05-12,59.06,59.06,0,0,0-3.54-12.23c-.76-1.77-1.63-3.51-2.45-5.26s-1.71-3.77-2.71-5.57A50.53,50.53,0,0,0,773.9,334c-1.34-1.42-2.75-2.78-4.21-4.07a48.25,48.25,0,0,0-4.91-4,28.54,28.54,0,0,0-5.49-3.16,32.12,32.12,0,0,0-6.62-1.74c-1.88-.32-3.76-.7-5.66-.91a36.66,36.66,0,0,0-6-.21,59.8,59.8,0,0,0-11.94,1.38A63.89,63.89,0,0,0,718,325a49.59,49.59,0,0,0-5.29,2.82,23.22,23.22,0,0,0-3.12,2.36,28.41,28.41,0,0,0-3.8-2.16,15.09,15.09,0,0,0-7.26-1.48,26.28,26.28,0,0,0-5.68,1.16c-3,.85-6,1.74-8.54,3.62a25,25,0,0,0-2.3,2,21.21,21.21,0,0,0-2.18-2.05,30.11,30.11,0,0,0-4.29-2.89,36.89,36.89,0,0,0-10.43-3.51A72.8,72.8,0,0,0,652.54,323a53.84,53.84,0,0,0-5.82.12c-2,.12-3.94.28-5.9.57A117.33,117.33,0,0,0,629.08,326c-1.85.48-3.68,1-5.51,1.53-2,.56-4,1.09-5.91,1.75a62.39,62.39,0,0,0-11.17,4.83,29.76,29.76,0,0,0-4.83,3.28,42.8,42.8,0,0,0-4.18,4.44,51.4,51.4,0,0,0-3.6,4.74,45.51,45.51,0,0,0-3,4.89,27.16,27.16,0,0,0-2.2,5.72c-.71-.12-1.42-.25-2.14-.35-8-1.16-15.91.82-23.78,2-3.89.6-7.79,1.13-11.69,1.7s-7.62,1.39-11.44,2.06c-4.06.7-8.09,1.45-12.12,2.35a103,103,0,0,0-10.78,2.84c-3.66,1.22-7.19,2.73-10.79,4.09s-7.48,2.7-11.23,4-7.54,2.79-11.29,4.21-7.48,2.66-11.22,4S465,387,461.41,388.63s-7.08,3.21-10.75,4.52c-2.83.9-5.68,1.74-8.53,2.56s-5.56,1.56-8.38,2.17c-1.14.2-2.26.39-3.41.52-1.87.09-3.75,0-5.62,0s-3.75.08-5.62.22c-2.05.15-4.08.43-6.12.66-.69.08-1.38.11-2.06.22a5.58,5.58,0,0,0-1.37.41,3.86,3.86,0,0,0-2.21,1.95,57.76,57.76,0,0,0-7.62-4.13,64.07,64.07,0,0,1-6.14-3.61c-1.87-1.22-3.76-2.43-5.61-3.68-1.13-.77-2.25-1.56-3.42-2.28s-2.23-1.31-3.34-2c-2.14-1.29-4.19-2.71-6.4-3.87-4.38-2.29-9-4.1-13.56-6-1.85-.76-3.72-1.48-5.63-2.08s-3.78-1.09-5.65-1.7-3.77-1.32-5.69-1.88-3.7-1-5.58-1.36A98.12,98.12,0,0,0,327,367.58c-4-.32-8.1-.38-12.16-.39s-8.37.26-12.56.62c-3.5.29-6.92,1-10.4,1.51-1.81.26-3.64.47-5.46.8-2.15.4-4.29.9-6.43,1.41-3.61.86-7.22,1.77-10.86,2.54a71.57,71.57,0,0,0-7.1,1.48c-2.4.72-4.69,1.69-7,2.64-1.87.76-3.79,1.42-5.63,2.23s-3.73,1.7-5.58,2.59c-3.49,1.68-7,3.32-10.43,5.16l-5.29,2.88c-1.53.84-3.07,1.65-4.52,2.63s-3,2.22-4.56,3.34-2.85,2.05-4.25,3.11c-1.56,1.17-3.12,2.33-4.58,3.62s-2.92,2.59-4.35,3.93-2.81,2.64-4.14,4a48.34,48.34,0,0,0-3.92,4.76,109.17,109.17,0,0,0-6.57,9.45c-1.94,3.3-3.73,6.69-5.43,10.12a44.47,44.47,0,0,0-2.37,5.5c-.51,1.51-.93,3-1.33,4.58-.88,3.39-1.71,6.79-2.4,10.21-.74,3.63-1.37,7.28-2,10.93-.23,1.35-.41,2.7-.58,4.05a3.94,3.94,0,0,0-2.07,3.42v.14c-.07.26-.14.51-.22.76-1,2.61-2.33,5.06-3.36,7.65a72.77,72.77,0,0,0-2.86,9.14,86.1,86.1,0,0,0-2.69,18.68,37.09,37.09,0,0,0,.17,5.27,25.38,25.38,0,0,0,1.25,5.23,54.81,54.81,0,0,0,2.1,5.14c.76,1.65,1.54,3.32,2.44,4.9,1.88,3.27,4.42,6.48,8.23,7.47a23.54,23.54,0,0,0,3.81.66,21.32,21.32,0,0,0,.51,2.6,64.71,64.71,0,0,0,2.94,8.21c1,2.38,2,4.78,3.07,7.14,1,2.21,1.94,4.45,3,6.63l-.07-.13c.86,1.71,1.65,3.48,2.63,5.14.79,1.31,1.67,2.57,2.48,3.87s1.68,2.75,2.63,4c.47.64,1,1.23,1.52,1.82a10.89,10.89,0,0,0,2.5,2.24l.09,0a14.63,14.63,0,0,0,.53,2.24,27.87,27.87,0,0,0,2.62,5.91,30.81,30.81,0,0,0,8.84,9.52,43,43,0,0,0,10,4.91,39.31,39.31,0,0,0,5,1.5,34,34,0,0,0,6.28.77h1a27.19,27.19,0,0,0,8.36-1.2,22,22,0,0,0,2.75-1,10.74,10.74,0,0,0,1.34-.74c.13.21.28.43.43.64a17,17,0,0,0,3.3,3.2,24.61,24.61,0,0,0,2.68,2,25.28,25.28,0,0,0,4.14,1.88,20.33,20.33,0,0,0,3,1,31.06,31.06,0,0,0,4.08.58c3.51.28,7,.42,10.55.47h.57a45.92,45.92,0,0,0,10.19-1.12c1.21-.27,2.43-.5,3.61-.86,1.47-.44,2.9-1,4.32-1.55a29,29,0,0,0,11.62-8c.25-.3.47-.61.69-.93a8.16,8.16,0,0,0,1,.52,16.06,16.06,0,0,0,5.76.91l1.18,0a19,19,0,0,0-.36,2.46,38.24,38.24,0,0,0,0,7.86,52.78,52.78,0,0,0,1.3,7.38c.55,2.12,1.35,4.14,2.08,6.19a29.86,29.86,0,0,1,.83,2.9,27.06,27.06,0,0,1,.33,2.69,22.4,22.4,0,0,1,0,2.32c-.06.72-.17,1.44-.3,2.15a94,94,0,0,0-2.08,10.33c-.2,1.89-.25,3.79-.3,5.69s-.06,3.8.06,5.7a84.76,84.76,0,0,0,1.65,10.61c.64,3.38,1.47,6.72,2.18,10.09a.5.5,0,0,1,0-.12,2.56,2.56,0,0,0,.05.27c0,.08,0,.16.05.24l0-.17a110.29,110.29,0,0,1,1.65,14.15q.29,4.46.5,8.91.12,2.6.15,5.19c0,1.48.08,3,0,4.43-.17,1.82-.56,3.59-.8,5.4-.1.7-.16,1.39-.2,2.09a7.71,7.71,0,0,0,0,1.86,5.86,5.86,0,0,0,4.38,4.63,8.24,8.24,0,0,0,1.72.28c-.05.54-.1,1.08-.14,1.62a7.11,7.11,0,0,0,2.89,7,8.27,8.27,0,0,0,3.38,1.3,10.44,10.44,0,0,0,2.37.19,7,7,0,0,0,.79-.08,7.35,7.35,0,0,0,.78,1.16,7.71,7.71,0,0,0,4.15,2.58,11.51,11.51,0,0,0,1.94.3h.27a5.48,5.48,0,0,0,3.25-1.12,11,11,0,0,0,2.22-2.29,5.76,5.76,0,0,0,2,1.12,8.07,8.07,0,0,0,1.89.34,10.7,10.7,0,0,0,2.4,0,8.78,8.78,0,0,0,3.06-1.1,5.39,5.39,0,0,0,1.49-1.31,7.78,7.78,0,0,0,2.61.59h.42c2.27,0,4.41-.95,6.61-1.45a20,20,0,0,0,2.17-.49,18.06,18.06,0,0,0,2.89-1.26,17.23,17.23,0,0,0,2.95-2c0,.35,0,.7,0,1a21.6,21.6,0,0,0,.24,4.47,24.88,24.88,0,0,0,1.27,4.56,15,15,0,0,0,4.37,6.44,15.94,15.94,0,0,0,5.91,2.53c.68.18,1.36.39,2.05.52a12.41,12.41,0,0,0,1.86,3.75,17.32,17.32,0,0,0,2.29,2.69,8.48,8.48,0,0,0,3.5,2,10.11,10.11,0,0,0,3.09.51,10.82,10.82,0,0,0,3.83-.89,12.76,12.76,0,0,0,3.3-1.9,12.09,12.09,0,0,0,1.18-1.08,13.75,13.75,0,0,0,2.33,2c1.68,1.14,3.67,2.29,5.76,2.29a5.69,5.69,0,0,0,.91-.08,6.64,6.64,0,0,0,3.91-2.4c1.13.3,2.27.57,3.4.8a12.49,12.49,0,0,0,2.36.22,14,14,0,0,0,2.14-.16,20.24,20.24,0,0,0,6.06-2.16,12.79,12.79,0,0,0,3.11-2.9c1.73-.07,3.46,0,5.19-.24a23.11,23.11,0,0,0,4.1-.83,14.49,14.49,0,0,0,4.18-2.22,39.75,39.75,0,0,0,3.21-2.72,21,21,0,0,0,2.67-2.74,38.43,38.43,0,0,0,3.85-6.31c.13-.27.27-.52.42-.78.52-.08,1-.15,1.54-.26a23.46,23.46,0,0,0,5.21-1.67,26.17,26.17,0,0,0,5-3.24,52.44,52.44,0,0,0,4.33-3.83c1.35-1.34,2.6-2.77,3.88-4.17,2.7-2.94,5.36-5.92,7-9.61a33.39,33.39,0,0,0,1.61-5.36c.41-1.65.67-3.36,1.16-5l.08-.17c.28-.51.58-1,.9-1.48.54-.74,1.11-1.45,1.69-2.16,2.19-2.44,4.61-4.66,6.39-7.44a20.71,20.71,0,0,0,2.18-4.49,14.25,14.25,0,0,0,.34-5.63c0,.17,0,.35,0,.53,0-.28,0-.54,0-.81a1.87,1.87,0,0,1,0-.25c0-.13.06-.27.1-.4.25-.63.53-1.24.82-1.86,1.48-2.74,3.36-5.24,4.66-8.07a25.52,25.52,0,0,0,2.06-8.51c.24-3.07.23-6.14.18-9.2-.05-2.69-.23-5.35-.42-8a40.16,40.16,0,0,1-.12-4.39c0-.49.11-1,.19-1.46a38.6,38.6,0,0,0,1.07-4.71,60.8,60.8,0,0,0,.24-6.18,54.84,54.84,0,0,0-.15-5.59,17.24,17.24,0,0,0-1.14-4.22l-.08-.29.82,0,.93,0c1.07,0,2.14-.07,3.2-.15,2.42-.19,4.84-.47,7.24-.87s4.6-.91,6.9-1.39l-.13,0,.17,0,.34-.07-.32.06c2.37-.45,4.73-.91,7.08-1.5,2-.52,4.06-1.08,6.12-1.53,1.78-.33,3.56-.58,5.35-.87,2-.31,3.91-.73,5.83-1.2,3.55-.86,7-2,10.46-3.22l-.2.07.79-.27c3.17-1.14,6.23-2.55,9.33-3.88,3.5-1.49,6.92-3.06,10.27-4.87,3-1.64,6-3.34,8.91-5.23s5.58-4,8.41-5.9c3.19-2.08,6.4-4.14,9.58-6.25,1.45-1,2.93-1.89,4.34-2.9,0,3.26-.06,6.53,0,9.79a29.76,29.76,0,0,0,.49,5.5,35.88,35.88,0,0,0,1.73,5.72c1.05,2.74,2.29,5.4,3.27,8.16a52.52,52.52,0,0,1,1.52,5.49,56.57,56.57,0,0,1,.83,6.35,64.09,64.09,0,0,1,.11,7.59c-.13,1.61-.3,3.22-.43,4.83a98.42,98.42,0,0,0-.31,11.9,67.63,67.63,0,0,0,1.73,11.84c.4,1.82.81,3.65,1.38,5.42.32,1,.67,2,1,3a2,2,0,0,0,.08.22c0,.05,0,.1,0,.14l1,3c0-.1-.08-.2-.11-.3L636,670l-.17-.48c1.62,4.64,3.7,9.09,5.37,13.71a75.06,75.06,0,0,1,2.34,8.49,65,65,0,0,1,.9,7.5c.15,2.42.21,4.84.24,7.26a37.85,37.85,0,0,0,.35,5.73,33.89,33.89,0,0,0,1.39,5.55,37.71,37.71,0,0,0,2.5,5.58,15,15,0,0,0,3.09,4.12A20.86,20.86,0,0,0,660.4,732c-.07.56-.13,1.1-.17,1.61-.16,2.49-.07,5,1.24,7.21a8.31,8.31,0,0,0,4.33,3.61,11.09,11.09,0,0,0,3.31.77,6.63,6.63,0,0,0,4.18-1.42,7.1,7.1,0,0,0,2.3,1.54,6.65,6.65,0,0,0,2.48.57,3.89,3.89,0,0,0,.68-.05,7.08,7.08,0,0,0,2.15-.72,7.59,7.59,0,0,0,2.54-2.53c.14-.17.27-.35.4-.52a8.93,8.93,0,0,0,3.74,2.21,7.51,7.51,0,0,0,5.55-.37,11.15,11.15,0,0,0,4-4.29,5.39,5.39,0,0,0,.52.3,11.75,11.75,0,0,0,2.14.88,5.27,5.27,0,0,0,1.56.23,5.61,5.61,0,0,0,2.61-.65,14.22,14.22,0,0,0,3.29-2.85,9.2,9.2,0,0,0,1.21-1.37c.17-.25.33-.5.48-.76.94-.27,1.92-.48,2.89-.68,1.47-.29,3-.45,4.44-.78a44.28,44.28,0,0,0,6.43-2.19,13.4,13.4,0,0,0,2.87-1.53c.74-.54,1.44-1.13,2.16-1.71s1.65-1.2,2.44-1.85l0,0-.09.07.1-.08.15-.08.29-.13a20.1,20.1,0,0,0,2-.63,13.53,13.53,0,0,0,3.22-1.94,57.12,57.12,0,0,0,6.43-6.3c1.22-1.31,2.37-2.69,3.64-4s2.73-2.57,4-3.95,2.66-2.91,4-4.37a39.61,39.61,0,0,0,3.77-4.8c.94-1.44,1.86-2.92,2.7-4.43a28.9,28.9,0,0,0,2.31-5.36,15.78,15.78,0,0,0,.81-3.52c.09-1.09.14-2.19.15-3.28,0-2.27.07-4.56,0-6.82a98.65,98.65,0,0,0-.58-10.6c-.25-1.83-.59-3.63-.92-5.44a49.7,49.7,0,0,0-1.21-5.54c-.91-3-2.15-5.9-3.25-8.84a9.27,9.27,0,0,0,1.84-1.91,11.94,11.94,0,0,0,1.9-4.35,11.48,11.48,0,0,0,.36-4.12,10.89,10.89,0,0,0-1.22-3.74,32.93,32.93,0,0,0-4.86-6.18c-.81-.89-1.61-1.79-2.45-2.65s-1.62-1.59-2.42-2.4l-.16-.2c-.09-.15-.18-.3-.26-.45s-.22-.5-.31-.75-.07-.24-.1-.35c-.16-.93-.22-1.87-.35-2.8a35.49,35.49,0,0,0-.8-3.82c-.5-2-1.05-4-1.48-6,0-.08,0-.16,0-.24l0-.11c.08-.22.17-.44.26-.66.35-.66.73-1.29,1.14-1.91,1.38-2,2.93-3.82,4.32-5.78.74-1,1.46-2.06,2.25-3s1.42-2.06,2.1-3.11,1.51-2.1,2.34-3.1c1.35-1.52,2.76-3,4.11-4.54,3.24-3.7,6.06-7.74,8.93-11.73a55.14,55.14,0,0,0,4-6.44c1-1.94,2.06-3.88,3.27-5.73,1.46-2.09,3-4.16,4.57-6.17a85.64,85.64,0,0,0,5.2-7.07,18.84,18.84,0,0,0,1.85-3.53,14.34,14.34,0,0,0,.88-4.39c.17-2.61-.61-5.13-.88-7.7v-.12a.68.68,0,0,0,0-.14c.09-.35.2-.7.31-1,1.08-3,2.48-5.84,3.62-8.81.57-1.48,1-3,1.48-4.53s1.05-3.3,1.59-5a29.74,29.74,0,0,0,1.29-5.6A21.14,21.14,0,0,0,799.92,501ZM408.76,750.36l-.65.38c-.32.15-.64.29-1,.41l-.4.11h0l-.32,0c-.24-.05-.48-.12-.72-.19l-.08,0h0l-.4-.42c-.35-.41-.69-.83-1-1.27q-.2-.3-.36-.6h.7a9.65,9.65,0,0,0,1.26.7,6.67,6.67,0,0,0,2.66.58,5.5,5.5,0,0,0,.91-.09c-.08.08-.14.16-.22.23Zm261-15.11c-.28.56-.52,1.12-.79,1.68l-.12.22-.18-.06-.32-.13-.05-.06a1.74,1.74,0,0,0-.11-.18.87.87,0,0,0-.07-.17c0-.06,0-.12,0-.18s0-.23,0-.35c0-.61,0-1.23,0-1.84,0-.18,0-.36,0-.53,0,.17,0,.35,0,.52,0-.36.09-.72.15-1.09a5.62,5.62,0,0,0,1.85-.51l.9-.48A3.78,3.78,0,0,0,673,732c.06.09.09.19.15.28.17.25.36.49.56.73-.1,0-.19,0-.28,0A4.31,4.31,0,0,0,669.73,735.25Zm11.65-1.77A14.36,14.36,0,0,0,678,736.8c-.25-.55-.51-1.11-.8-1.64a4.49,4.49,0,0,0-.37-.49h.22a5.59,5.59,0,0,0,3.81-1.69c.21-.19.42-.39.62-.6a5.38,5.38,0,0,0,1,.6A3.48,3.48,0,0,0,681.38,733.48ZM792.3,505.24c-.07.59-.16,1.17-.27,1.75-.46,1.95-1.12,3.83-1.74,5.73-.55,1.7-1,3.42-1.6,5.12-1.1,3-2.5,5.9-3.65,8.88a18.39,18.39,0,0,0-.8,2.41A10.52,10.52,0,0,0,784,533c.2,1.65.59,3.28.76,4.93,0,.46,0,.91,0,1.37,0,.25-.07.49-.11.73s-.13.47-.19.7-.27.64-.42.95c-.43.78-.9,1.53-1.39,2.27-2.52,3.63-5.4,7-8,10.59a56.07,56.07,0,0,0-3.77,6.09c-1.07,2-2.15,4-3.38,5.88-1.47,2.09-3,4.14-4.46,6.2s-2.94,4.06-4.59,5.93l.33-.37-.82.92c-1.62,1.8-3.3,3.54-4.85,5.4a56,56,0,0,0-3.57,5.09c-.7,1-1.44,1.88-2.12,2.85s-1.42,2-2.17,2.92a48.08,48.08,0,0,0-4.09,5.76,11.66,11.66,0,0,0-1.75,5.54,16.27,16.27,0,0,0,.7,3.77c.5,2,1.06,4,1.52,6.08.29,1.65.34,3.35.75,5a11.57,11.57,0,0,0,2.42,4.74c1.14,1.32,2.51,2.47,3.71,3.77s2.12,2.32,3.17,3.5c.54.63,1,1.28,1.53,2,.14.22.28.45.41.68l.21.51a1.55,1.55,0,0,1,.07.23c0,.09,0,.18,0,.27v.23l-.09.58c-.1.41-.21.81-.34,1.21l-.21.52-.24.41,0,0a.94.94,0,0,0-.1.1l-.18.14,0,0a6.39,6.39,0,0,0-2.26,1.3,4.49,4.49,0,0,0-1.28,3.66,13.64,13.64,0,0,0,.92,3.32c1,2.54,1.94,5.05,2.86,7.59a32.84,32.84,0,0,1,.94,3.36,91.06,91.06,0,0,1,1.67,10.61c.18,3.2.19,6.42.19,9.62,0,2,0,4-.08,5.95,0,.32-.06.64-.12,1-.18.76-.42,1.5-.67,2.23s-.52,1.33-.81,2c-1,2-2.25,3.92-3.48,5.8-.54.77-1.13,1.49-1.74,2.21-1.36,1.53-2.71,3.07-4.11,4.57-.79.83-1.57,1.68-2.41,2.46s-1.46,1.34-2.15,2c-1.37,1.43-2.68,2.92-4,4.37s-2.46,2.71-3.82,4c-.66.57-1.33,1.13-2,1.65-.16.09-.31.19-.47.27l-.48.2a16.55,16.55,0,0,0-2.06.68,10.89,10.89,0,0,0-2.56,1.68l.37-.33c-.5.43-1,.77-1.57,1.15-.91.68-1.75,1.43-2.65,2.1-.16.1-.32.2-.49.29-1.1.5-2.25.92-3.38,1.33a25.65,25.65,0,0,1-3,.86c-1,.19-2.1.32-3.14.52s-2.31.51-3.45.78a9,9,0,0,0-3.5,1.42,8.86,8.86,0,0,0-1.88,2.44l-.14.18c-.33.37-.68.73-1,1.08-.37-.2-.74-.42-1.11-.64-.17-.14-.33-.3-.51-.43a4.06,4.06,0,0,0-1.94-.83,4,4,0,0,0-4.14,2.43,4,4,0,0,0-2.56,1.82c-.25.39-.48.79-.72,1.18l-.3.39h0l-.09-.06-.45-.35c-.65-.61-1.23-1.27-1.87-1.9a6.8,6.8,0,0,0-1.43-1.1,8.38,8.38,0,0,0,2.85-1.42,3.92,3.92,0,0,0,.7-5.48,3.82,3.82,0,0,0-3.64-1.45l-.24-.36A4.7,4.7,0,0,0,681,722.5a4.13,4.13,0,0,0-1.85.77v-1a3.92,3.92,0,1,0-7.83,0v0h0c0,.53,0,1.07,0,1.61-.15,0-.28-.06-.43-.07a5.35,5.35,0,0,0-3.28,1.09l.06,0c-.23.15-.46.3-.71.44-.9-.09-1.8-.24-2.7-.41s-1.88-.46-2.8-.76c-.59-.22-1.17-.47-1.74-.74s-.88-.48-1.32-.75-.68-.51-1-.79-.46-.44-.68-.68-.32-.4-.47-.61c-.31-.51-.59-1-.86-1.55-.6-1.2-1.16-2.41-1.64-3.66s-.66-2.2-.91-3.33a25.83,25.83,0,0,1-.39-2.64c-.15-3.83-.11-7.65-.39-11.48-.13-1.83-.25-3.68-.55-5.49s-.64-3.42-1.06-5.11a87.18,87.18,0,0,0-3.32-10.23c-1.24-3.24-2.67-6.39-3.85-9.65l0,.11,0-.15-.12-.33a1.07,1.07,0,0,1,.07.19c-.12-.37-.25-.73-.38-1.1l.09.26c-.4-1.17-.81-2.35-1.22-3.52a2.09,2.09,0,0,0,.08.23c0-.1-.07-.19-.1-.29a3,3,0,0,0-.14-.39c-.06-.19-.13-.38-.2-.57l0,.08a75.32,75.32,0,0,1-2.42-9.07l0,.17-.06-.3c0-.07,0-.14,0-.21l0,.14a62.78,62.78,0,0,1-1.05-7.07A96.48,96.48,0,0,1,638,635c.27-3.53.76-7,.68-10.59a71,71,0,0,0-.87-10.4A53,53,0,0,0,635,604c-1-2.71-2.25-5.35-3.25-8.08a24.6,24.6,0,0,1-.69-2.45c-.17-.92-.3-1.84-.38-2.78-.17-3.38,0-6.79,0-10.17,0-4,0-7.89,0-11.84a74.68,74.68,0,0,0-1-11.85c-.64-3.55-1.57-7-2.32-10.58a85.56,85.56,0,0,1-1.43-9.68c-.16-3-.12-6-.09-9,0-2.82,0-5.64.21-8.45q.1-1.15.24-2.31a3.91,3.91,0,0,0-7.75-1.06,97.6,97.6,0,0,0-.51,10.4c0,3.48-.11,7,.08,10.46.38,7,2.21,13.73,3.66,20.52a56.42,56.42,0,0,1,.85,6.47c.07,1.13.13,2.26.16,3.4,0,.72,0,1.45,0,2.18a3.3,3.3,0,0,0-.39.26l-2.08,1.84a35.48,35.48,0,0,1-3.17,2.43l.16-.11-.17.11-.24.17.21-.15c-3.26,2.17-6.52,4.33-9.83,6.44-3.51,2.24-6.83,4.72-10.27,7.08a134.49,134.49,0,0,1-12.27,7.07l0,0c-2.7,1.31-5.47,2.46-8.22,3.66-2.46,1.06-4.92,2.14-7.43,3.08h0l-.28.1-.53.18a105.73,105.73,0,0,1-11.7,3.4c-3.12.6-6.27,1-9.37,1.64s-5.93,1.55-8.93,2.2c-2.42.47-4.84,1-7.26,1.49a86.32,86.32,0,0,1-9.61,1.3c-1.16.07-2.31.11-3.47.07a3.85,3.85,0,0,0-2.21-.7,4.21,4.21,0,0,0-3,1.22,4.35,4.35,0,0,0-.51,0,3.94,3.94,0,0,0-3.35,4.41c.21,1.32.39,2.68.71,4,.19.76.43,1.49.68,2.22a17,17,0,0,1,.53,1.81,4.6,4.6,0,0,1,.06.52,82.76,82.76,0,0,1,0,8.77c-.05.57-.11,1.13-.21,1.7-.23.94-.55,1.87-.75,2.83a21.78,21.78,0,0,0-.47,4.63c0,2.39.27,4.78.44,7.16a101.53,101.53,0,0,1,0,12,32.54,32.54,0,0,1-.45,3.25c-.18.84-.4,1.66-.66,2.47-.22.56-.45,1.1-.71,1.64-1.07,2-2.38,3.83-3.5,5.79a23.58,23.58,0,0,0-1.45,2.94,11.74,11.74,0,0,0-.89,2.94,14.69,14.69,0,0,0,0,2.89c0-.17,0-.35,0-.53,0,.74.09,1.48.07,2.21v0c0,.08-.05.17-.08.25-.18.45-.37.9-.57,1.34s-.62,1.11-.95,1.64-1,1.29-1.48,1.91c-2.6,2.87-5.53,5.51-7.38,9a10.73,10.73,0,0,0-1,2.4c-.11.42-.19.84-.29,1.25-.18.83-.37,1.67-.57,2.5-.38,1.64-.79,3.29-1.31,4.9-.15.38-.31.75-.48,1.12-.35.63-.73,1.25-1.13,1.86q-1,1.41-2.13,2.73a101.08,101.08,0,0,1-7.72,8c-1.08.92-2.18,1.78-3.34,2.59q-.84.54-1.71,1c-.31.14-.61.27-.93.39-.92.3-1.85.54-2.79.75-.72.13-1.45.2-2.16.37a5.94,5.94,0,0,0-2.37,1.21,13.33,13.33,0,0,0-3.1,4.56,31,31,0,0,1-1.75,2.93c-.33.46-.66.91-1,1.35a32.19,32.19,0,0,1-2.47,2.34c-.67.58-1.36,1.14-2.08,1.67-.28.18-.57.35-.86.52l-.43.18c-.43.12-.87.23-1.31.33-.95.17-1.9.31-2.86.39-2.26.09-4.68-.23-6.72.93a16.73,16.73,0,0,0-3.25,3c-.72.32-1.43.66-2.16,1l-.77.2c-.3.05-.61.09-.92.12s-.54,0-.82,0-.57-.08-.86-.13l-.64-.15c.14-.59.25-1.19.37-1.79a3.92,3.92,0,1,0-7.76-1.06c-.05.29-.11.58-.16.87s-.1.41-.16.61c-.49.91-1,1.82-1.57,2.69l-.35-.21c-.28-.2-.55-.41-.82-.63-.41-.38-.8-.77-1.17-1.18-.52-.61-1-1.24-1.57-1.81a4.93,4.93,0,0,0-4.16-1.57,4.31,4.31,0,0,0-1.48.49,3.75,3.75,0,0,0-.45-2.57,4.07,4.07,0,0,0-4.12-1.9,6.05,6.05,0,0,0-1.23-.66,6,6,0,0,0-2.4-.41h-.05a3.63,3.63,0,0,0-1.28-.23,3.88,3.88,0,0,0-2.37.84,3.92,3.92,0,0,0-4.54.69l-.09.08c-.82-.21-1.63-.45-2.43-.71-.23-.08-.45-.18-.67-.28L393,741l-.13-.1-.23-.23q-.3-.36-.57-.75c-.21-.33-.41-.66-.6-1-.24-.51-.45-1-.64-1.55a21,21,0,0,1-.59-2.06c-.09-.51-.16-1-.2-1.53a29.88,29.88,0,0,1,0-3.14c0-.26.05-.51.09-.77s.18-.63.28-1,.33-.88.52-1.31.48-.8.73-1.19c1-1.41,2.18-2.63,3.23-4a17.79,17.79,0,0,0,2.57-4.42,35,35,0,0,0,1.7-7c.29-1.87.45-3.74.81-5.59.2-1,.41-1.91.61-2.87,0,0,0,0,0,.08s.05-.23.07-.35l0-.16v.07a47.84,47.84,0,0,0,.89-5.82A76.72,76.72,0,0,0,401.2,686a45,45,0,0,1,0-5.32c0-.47.09-.93.17-1.4a34,34,0,0,1,1-3.4c.53-1.5,1.07-3,1.71-4.47.57-1.28,1.19-2.54,1.68-3.86a16.72,16.72,0,0,0,1.11-4.83c.07-1.13,0-2.28,0-3.42a38,38,0,0,0-.52-6.12c-.3-1.78-.69-3.55-.85-5.34a39.79,39.79,0,0,1,.08-4.37,29.3,29.3,0,0,1,.44-3.22c.23-1,.55-2.06.85-3.08.38-1.25.72-2.51,1.12-3.75a53.54,53.54,0,0,1,2.26-5.37c.67-1.3,1.38-2.59,2.15-3.83a3.9,3.9,0,0,0-3.57-6.32,4.69,4.69,0,0,0-3.36,2.68c-.65,1.1-1.29,2.21-1.88,3.35a46.3,46.3,0,0,0-2.61,6,3.72,3.72,0,0,0-2.51,1h-.23c-.91-.08-1.82-.21-2.72-.38a26.7,26.7,0,0,1-2.65-.75c-1.38-.49-2.75-1-4.14-1.45a18.1,18.1,0,0,0-4.12-.74l.24,0a23.28,23.28,0,0,1-2.63-.31c-1-.22-1.9-.5-2.88-.64-1.3-.19-2.61-.21-3.92-.27a33,33,0,0,1-3.28-.4c-.93-.21-1.84-.46-2.75-.69s-1.64-.39-2.45-.64l-.41-.17-.26-.15c-.64-.47-1.24-1-1.84-1.47l.18.18a3.81,3.81,0,0,0-3.11-1,3.93,3.93,0,0,0-3.34,4.41,4.37,4.37,0,0,0,1.77,2.78c.33.27.66.57,1,.84a12.52,12.52,0,0,0,4.77,2.34c2,.5,4,1.11,6.07,1.41,1.86.28,3.74.33,5.61.45.43,0,.86.09,1.28.16.89.2,1.78.45,2.69.62a30,30,0,0,0,3,.31,10.89,10.89,0,0,1,1.13.14c.55.13,1.09.3,1.63.48l-.23-.08.35.12.13,0-.12,0c1.43.52,2.85,1.06,4.3,1.51a29.4,29.4,0,0,0,4.26.93,21.91,21.91,0,0,0,2.57.24,33.75,33.75,0,0,0-.59,4.58,31.41,31.41,0,0,0,.28,7.75c.34,1.88.76,3.79.93,5.71a51.39,51.39,0,0,1,.07,5.55c0,.21,0,.4-.07.6-.09.39-.2.77-.32,1.15-.75,2.06-1.77,4-2.54,6a51.91,51.91,0,0,0-2.32,7c-.85,3.87-.54,7.91-.27,11.82l0-.52a69.31,69.31,0,0,1,.2,7.35v0a44.83,44.83,0,0,1-.71,4.6l0-.09a2,2,0,0,0-.05.24l-.06.28v-.06l-.06.29c0-.12,0-.23.07-.34h0c-.41,2-.9,3.94-1.15,5.95-.24,1.77-.45,3.53-.78,5.28-.21.95-.45,1.9-.75,2.82-.13.36-.27.71-.43,1.06s-.4.68-.61,1c-1,1.36-2.14,2.55-3.15,3.88a24.49,24.49,0,0,0-1.8,2.71,3.08,3.08,0,0,0-.58-.56,3.91,3.91,0,0,0-2.92-.78,4.05,4.05,0,0,0-2.56,1.49l0,0,0,0c-.26.29-.52.56-.8.82s-.61.48-.92.7-.92.56-1.39.81-.7.31-1.05.45l-.57.14c-.86.17-1.71.33-2.54.57s-1.66.51-2.49.73a3.75,3.75,0,0,0-2.34-1.25h-.35a4.11,4.11,0,0,0-2.51-1.44,3.92,3.92,0,0,0-2.92.78,4.12,4.12,0,0,0-1.49,2.57v.08l-.12.53c0-.76,0-1.51-.09-2.27a4.29,4.29,0,0,0-4.12-4.23,4.12,4.12,0,0,0-3.36,1.78,9.92,9.92,0,0,0-1,1.85c-.42,1-.84,2-1.31,2.92a19.58,19.58,0,0,1-1.06,1.82l-.09.14c-.06-.21-.12-.42-.17-.63s-.05-.32-.07-.49v-.2c0-.11,0-.22.05-.34a5.13,5.13,0,0,0,.6-2.94,4,4,0,0,0-2.35-3.08,3.93,3.93,0,0,0-3.91.51,5.54,5.54,0,0,0-1.76,2.89c-.13.24-.27.47-.42.7a1.77,1.77,0,0,1-.16.22h-.08v-.05h0l0-.42v0c.06-.76.13-1.52.26-2.27a3.9,3.9,0,0,0-2.2-7.13,5.41,5.41,0,0,0-1.83.31,3.73,3.73,0,0,0-1.7-.4h-.38a57.46,57.46,0,0,0,.91-7.28c0-6.81-.38-13.63-.87-20.43a104.87,104.87,0,0,0-1.2-10.75c-.64-3.62-1.55-7.18-2.3-10.77a90.88,90.88,0,0,1-1.87-11.34,79.65,79.65,0,0,1,.1-8.74A41.35,41.35,0,0,1,329,644c.88-4.07,2.19-8.1,1.93-12.32a29.15,29.15,0,0,0-.87-6c-.48-1.73-1.15-3.4-1.75-5.09a39.33,39.33,0,0,1-1.28-4.55,50.66,50.66,0,0,1-.81-5.75,39.33,39.33,0,0,1,.06-4.06c.05-.7.13-1.39.23-2.08a3.93,3.93,0,0,0,.56-2,3.81,3.81,0,0,0-.26-1.35,45.7,45.7,0,0,0,5-1.31,47.1,47.1,0,0,0,10.76-4.9,44.53,44.53,0,0,0,7.71-6.24,34.1,34.1,0,0,0,6.84-9.81,22.9,22.9,0,0,0,2-6.41,4,4,0,0,0,0-.6,45.46,45.46,0,0,0,4.57-3,32.77,32.77,0,0,0,7.8-8.59,34.44,34.44,0,0,0,3.46-7.4,14.39,14.39,0,0,0,2.26-.28,27.84,27.84,0,0,0,5.39-1.9,39.42,39.42,0,0,0,8-5.26c1.38-1.07,2.78-2.13,4.13-3.24a46,46,0,0,0,4-3.52,61.06,61.06,0,0,0,5.6-7.56c1-1.49,2.1-3,3.05-4.51s1.9-3.22,2.83-4.83c2-3.46,3.75-7,5.42-10.6.8-1.74,1.6-3.47,2.29-5.24.75-1.94,1.38-3.91,2-5.89a27,27,0,0,0,1.25-7.78,3.91,3.91,0,0,0-7.82,0c0,.36,0,.71,0,1.06-.07.72-.18,1.43-.31,2.14a57.93,57.93,0,0,1-1.69,5.78,96.55,96.55,0,0,1-4.71,10.74c-1.11,2.18-2.27,4.34-3.5,6.45-1.07,1.87-2.13,3.73-3.31,5.53s-2.39,3.45-3.58,5.17c-.9,1.29-1.79,2.59-2.81,3.79-.28.31-.58.6-.89.89-1.62,1.41-3.28,2.77-5,4.1s-3.45,2.73-5.27,4c-.75.5-1.51,1-2.31,1.41a30.11,30.11,0,0,1-2.94,1.19c0-.2.06-.41.08-.62a41.57,41.57,0,0,0,.16-5.58,65.28,65.28,0,0,0-1.48-9.84h0v0c0-.16-.07-.33-.1-.49,0,.08,0,.17.05.25a25.09,25.09,0,0,1-.39-3.12v0c0-.33,0-.67,0-1a3.91,3.91,0,0,0-7.82,0,39.13,39.13,0,0,0,1.06,7.84,55.82,55.82,0,0,1,.89,6.28,38.05,38.05,0,0,1-.08,4.53c-.07.92-.19,1.83-.35,2.74,0,.16-.06.32-.08.48s-.05.2-.08.3c-.29,1.14-.63,2.26-1,3.37A48.61,48.61,0,0,1,366,554a27.88,27.88,0,0,1-1.5,2.52c-.65.94-1.35,1.85-2.09,2.72-.62.68-1.24,1.33-1.91,1.95-.83.7-1.69,1.34-2.57,2a54.39,54.39,0,0,1-5,2.91c-1,.47-1.93.89-2.92,1.26-.44.13-.88.25-1.32.35a21.53,21.53,0,0,1-2.26.31c-1.91.09-3.83,0-5.74,0-1.73,0-3.45-.09-5.18-.2a78.78,78.78,0,0,1-9.07-1.24,46.79,46.79,0,0,1-4.65-1.23c-.9-.34-1.79-.71-2.66-1.12s-1.54-.87-2.28-1.36c-1.06-.74-2.07-1.53-3-2.36a68,68,0,0,1-5.17-5.3,54,54,0,0,1-3.41-4.41l.13.19-.16-.23-.12-.18a.71.71,0,0,0,.1.14,42.55,42.55,0,0,1-2.37-4c-.45-.93-.9-1.86-1.26-2.83-.14-.45-.26-.91-.36-1.37-.17-.93-.29-1.86-.38-2.8a47.31,47.31,0,0,1,.09-5.19q.14-1.7.42-3.39a20.42,20.42,0,0,1,.58-2c.43-1.16.92-2.29,1.45-3.4l.27-.48a4.05,4.05,0,0,0,1.69-2.68A3.93,3.93,0,0,0,302,518a3.67,3.67,0,0,0-1.93.23,4.1,4.1,0,0,0-1.49.81,8.15,8.15,0,0,0-1.43,1.67,23.29,23.29,0,0,0-2,4.08,26.33,26.33,0,0,0-1.37,4.43c-.35.1-.7.18-1.05.3l.48-.16c-.84.28-1.71.51-2.57.71-1.52.27-3.08.46-4.62.58-1.69.09-3.39.05-5.09.05h-7.37c-2.52,0-5,0-7.55-.15-1.83-.14-3.64-.37-5.47-.5h-.09c-1.32-.09-2.63-.19-3.95-.27l.54,0c-1.73-.12-3.43-.4-5.15-.57s-3.5-.26-5.25-.37l-3-.22c-2.16-.16-4.32-.41-6.48-.57a71.19,71.19,0,0,1-7.71-.81,104.28,104.28,0,0,1-12.24-3.41c-.75-.28-1.49-.6-2.21-1-.89-.46-1.74-1-2.58-1.5-1.32-.92-2.57-1.93-3.84-2.92s-2.83-2.14-4.18-3.3c-2-1.79-4-3.66-5.77-5.65-.59-.7-1.15-1.43-1.67-2.18s-1.05-1.67-1.52-2.54c-.12-.26-.24-.53-.35-.8a3.91,3.91,0,0,0-7.67,1.08,6.2,6.2,0,0,0,.72,2.57,27.06,27.06,0,0,0,2.08,3.67A39.7,39.7,0,0,0,196,518a68.28,68.28,0,0,0,5.76,5.13c1.62,1.24,3.21,2.55,4.87,3.74a31.51,31.51,0,0,0,8.21,4.43c3.2,1.11,6.46,2,9.74,2.85l.88.21c-.05.09-.13.16-.18.25l-.19.38-.24.32a4.59,4.59,0,0,0-1,1.47,4.37,4.37,0,0,0,1.4,5,9.9,9.9,0,0,0,2.51,1.52,23.15,23.15,0,0,0,5.38,1.46,14.09,14.09,0,0,0,2.15.2,7.38,7.38,0,0,0,1.74-.2,3.76,3.76,0,0,0,1.68-1,5,5,0,0,0,2.26-.89,4.49,4.49,0,0,0,1.82-4.23,4.22,4.22,0,0,0-.27-1,3.7,3.7,0,0,0-.18-1.29l1.65.14,5.24.35H249c1.58.11,3.14.3,4.71.5,1.27.16,2.55.24,3.83.32l2.83.21-.53,0c.87.06,1.74.11,2.61.22a87.1,87.1,0,0,0,10.6.52l2.4,0a10.86,10.86,0,0,0-.56,1.43,4.08,4.08,0,0,0,1.24,4.25,5.15,5.15,0,0,0,1.29,1.67A8,8,0,0,0,282,547.4c.74.06,1.51.12,2.26.12a10.27,10.27,0,0,0,1.47-.1,18,18,0,0,0,3.23-.83,21.57,21.57,0,0,0,3-1.2,6,6,0,0,0,1.6-1.2,16.63,16.63,0,0,0,.93,3.11,45.83,45.83,0,0,0,2.2,4.51,59.75,59.75,0,0,0,14.88,16.83,30.56,30.56,0,0,0,9.77,4.66,64.91,64.91,0,0,0,11.42,2c3.74.35,7.48.43,11.23.44h.74a25.08,25.08,0,0,0,4.58-.32c.23,0,.45-.11.67-.16-.16.37-.3.76-.48,1.13-.46.88-1,1.73-1.49,2.55s-1.3,1.72-2,2.54q-1.57,1.74-3.31,3.31c-1,.89-2.11,1.71-3.23,2.49l.19-.13-.23.15-.19.13.16-.1c-1.1.72-2.2,1.41-3.36,2-2,1-4,1.76-6.11,2.52a58.08,58.08,0,0,1-6,1.54,49,49,0,0,1-5,.73q-1.1,0-2.19,0l-1.11-.14c-.29-.07-.58-.14-.87-.23l-.17-.07-.07,0-.21-.17a5,5,0,0,0,.13-.65,3.91,3.91,0,1,0-7.75-1.06l0,.25,0,.09c-.18.48-.4,1-.62,1.44-.39.76-.8,1.54-1.27,2.27-.31.43-.64.85-1,1.25s-.49.49-.75.73a28.38,28.38,0,0,1-2.46,1.91c-.78.5-1.57,1-2.39,1.38a46.84,46.84,0,0,1-5,2.06,49,49,0,0,1-5.21,1.3,40.21,40.21,0,0,1-4.88.63,94.4,94.4,0,0,1-11-.21,42.58,42.58,0,0,1-4.78-.52c-.41-.09-.81-.21-1.21-.34-1.12-.41-2.23-.83-3.3-1.34-.36-.2-.71-.41-1.06-.63-.71-.51-1.41-1.07-2.08-1.64-.33-.3-.65-.6-1-.93-.1-.12-.2-.24-.29-.37s-.16-.25-.23-.38a16.72,16.72,0,0,0,2.75-3.42,13.86,13.86,0,0,0,1.59-4.09c.09-.15.2-.3.29-.46a11.23,11.23,0,0,0,1.6-4.47c.07-.74.1-1.48.1-2.22a3.88,3.88,0,0,0-1.22-2.8,3.92,3.92,0,0,0-3.51-2.31,3.75,3.75,0,0,0-2-.6h-.1c-1-.1-2-.21-3.08-.24-1.72,0-3.45,0-5.18,0a51.48,51.48,0,0,0-5.42.23,18.37,18.37,0,0,0-4.26,1.08c-2.6,1-3.87,3.45-4.21,6.08a6.73,6.73,0,0,0,.49,3.91,16.74,16.74,0,0,0,2.64,3.68,32.27,32.27,0,0,0,5.19,4.8,3.37,3.37,0,0,1-.34.09c-.79.14-1.58.23-2.37.29a26.67,26.67,0,0,1-7-.46c-1.16-.27-2.3-.61-3.43-1a56.9,56.9,0,0,1-6.18-2.61c-.93-.49-1.83-1-2.71-1.59s-1.52-1.11-2.25-1.73-1.27-1.22-1.87-1.87c-.68-.8-1.31-1.63-1.91-2.49s-.95-1.59-1.38-2.41-.7-1.56-1-2.36c-.13-.43-.25-.85-.35-1.28s-.12-.67-.16-1a3.93,3.93,0,0,0-2.41-3.54,4,4,0,0,0-1.35-1.42c-.27-.26-.51-.53-.76-.81a20.94,20.94,0,0,1-1.43-1.83c-.89-1.34-1.72-2.74-2.6-4.08a51.58,51.58,0,0,1-2.8-4.76,1.24,1.24,0,0,0,.1.2l-.15-.29-.08-.16,0,.09c-.4-.8-.79-1.61-1.19-2.41h0l-.21-.44.11.22c-.66-1.34-1.24-2.71-1.82-4.09s-1.25-2.78-1.84-4.18c-1.3-3.06-2.65-6.1-3.76-9.23a33.77,33.77,0,0,1-1-3.44c-.08-.47-.14-1-.19-1.43s0-.77,0-1.16a3.9,3.9,0,0,0-1.32-2.89,2.39,2.39,0,0,0-.2-.43,3.94,3.94,0,0,0-5.25-1.45c-.64-.07-1.28-.16-1.91-.27l-.9-.23-.4-.17-.21-.12-.25-.2c-.21-.2-.41-.4-.61-.61-.38-.47-.75-.95-1.1-1.44-.54-.84-1-1.71-1.47-2.59-1.13-2.29-2.2-4.6-3.1-7-.31-.93-.59-1.86-.81-2.82-.11-.6-.19-1.2-.24-1.81a57.12,57.12,0,0,1,.08-6.54,90.22,90.22,0,0,1,1.51-10.33l-.06.25.06-.26,0-.24c0,.08,0,.16,0,.23.23-1.08.51-2.14.78-3.22,0,1.1,0,2.19,0,3.28,0,.71,0,1.41.08,2.12a10.21,10.21,0,0,0,.25,2.47,4,4,0,0,0,3.79,2.87,3.63,3.63,0,0,0,1-.14,3.94,3.94,0,0,0,2.78-4.63c-.1-1.85-.11-3.69-.11-5.53,0-2.29-.07-4.6.06-6.89.12-1.43.29-2.86.3-4.29,0-2.88,0-5.75.21-8.61a86.86,86.86,0,0,1,1.19-8.65c.52-2.95,1-5.91,1.62-8.85l0,.11c0-.07,0-.15.05-.22l.06-.29,0,.12c.54-2.51,1.15-5,1.76-7.5.51-2.06,1-4.11,1.71-6.13A48.8,48.8,0,0,1,193,439l-.1.19.21-.42h0a120.13,120.13,0,0,1,6.26-11.19c1.11-1.6,2.28-3.16,3.43-4.74s2.29-3.16,3.54-4.65a107.14,107.14,0,0,1,8.13-7.82c2.08-1.8,4.25-3.46,6.47-5.08,1.14-.83,2.28-1.64,3.4-2.48s2-1.56,3.07-2.3c1.92-1.25,4-2.33,6-3.42,2.26-1.23,4.51-2.47,6.8-3.64,3.55-1.75,7.11-3.49,10.71-5.13,1.8-.82,3.64-1.51,5.47-2.23,2.08-.81,4.12-1.7,6.21-2.49,1.33-.43,2.68-.78,4.06-1.08,3.4-.65,6.79-1.33,10.15-2.14s6.67-1.64,10-2.35,6.61-1,9.9-1.58a106.27,106.27,0,0,1,10.84-1.19,148.81,148.81,0,0,1,17.92.07A103,103,0,0,1,337.35,377a75.25,75.25,0,0,1,8.3,2.34c2.89,1,5.85,1.79,8.76,2.75,2.68,1,5.3,2.09,7.93,3.19s5.13,2.13,7.62,3.35c2.11,1.08,4.08,2.32,6.08,3.58s4.3,2.52,6.37,3.91c2.65,1.8,5.32,3.54,8,5.28,1.36.87,2.74,1.7,4.15,2.47s2.77,1.39,4.15,2.07,2.86,1.5,4.22,2.37c.31.22.61.46.9.7s.45.44.67.66l.39.5c.17.28.34.57.5.86s.35.79.5,1.2c.19.58.36,1.17.5,1.77.07.44.12.88.16,1.33.06,1.39.08,2.77.08,4.15a3.91,3.91,0,1,0,7.82,0c0-1.42,0-2.83-.09-4.25a19,19,0,0,0-1.8-7.31c-.11-.23-.25-.43-.36-.65l.17-.06c1.17-.17,2.35-.25,3.52-.39,1.48-.18,3-.34,4.45-.45,2.18-.13,4.37-.13,6.57-.13h1.8a47.38,47.38,0,0,0,12.14-2.08c3.56-1,7.1-2,10.63-3.11a89.39,89.39,0,0,0,11.45-4.54c3.6-1.65,7.19-3.28,10.91-4.66s7.36-2.55,11-3.91,7.43-2.82,11.16-4.19,7.57-2.62,11.32-4c3.52-1.32,7-2.8,10.52-4.06a145.05,145.05,0,0,1,15.34-4c3.79-.76,7.62-1.35,11.41-2.08s7.69-1.35,11.57-1.92,7.7-1.07,11.53-1.75a110.39,110.39,0,0,1,11.42-1.59c1.44-.07,2.87-.09,4.3,0,1.61.14,3.22.4,4.82.68a.8.8,0,0,1,0,.15,15.76,15.76,0,0,0,1.39,3.64,30.51,30.51,0,0,0,3.24,5.22,24.51,24.51,0,0,0,2.75,3.18,15.41,15.41,0,0,0,2.73,1.95,15.83,15.83,0,0,0,2.6,1.31,57.22,57.22,0,0,0,6.42,1.95c1.11.27,2.23.51,3.37.71a30.52,30.52,0,0,0-4.58,7.67,9.92,9.92,0,0,0-.71,5.85,8.89,8.89,0,0,0,2.78,4.43,7.72,7.72,0,0,0,3.51,1.72,10.21,10.21,0,0,0,2.4.27,20.29,20.29,0,0,0,5.42-.9c1.51-.43,3-.95,4.45-1.46a3.91,3.91,0,0,0,0-7.21,4.1,4.1,0,0,0-3,0l-1.54.54.21-.08c-1.26.41-2.52.78-3.81,1.08-.45.08-.9.14-1.36.19H614l-.44-.05-.17,0-.18-.19,0,0,0-.15c.09-.37.2-.74.31-1.11s.26-.61.4-.92c.53-1,1.1-2,1.71-3,.93-1.32,1.93-2.58,3-3.82.54-.6,1.08-1.2,1.64-1.79a9.93,9.93,0,0,0,2.15-2.64,3.92,3.92,0,0,0-2.56-5.29,16.13,16.13,0,0,0-2.95-.17c-2-.18-3.9-.5-5.83-.85s-4-1-6-1.58c-.64-.24-1.28-.49-1.91-.78s-1-.6-1.53-.92c-.2-.14-.39-.29-.58-.44l-.5-.51c-.72-.85-1.39-1.73-2-2.63s-1.18-1.84-1.7-2.82c-.25-.53-.49-1.06-.71-1.6-.08-.24-.15-.49-.21-.73,0,.12,0,.24.07.36,0-.1,0-.21-.07-.31s0-.25,0-.37,0-.45,0-.68c.08-.88.2-1.74.36-2.61s.36-1.48.59-2.21c.22-.56.46-1.11.71-1.65.85-1.61,1.8-3.14,2.8-4.66a65.09,65.09,0,0,1,4.62-5.84c.57-.64,1.17-1.26,1.8-1.85a17.09,17.09,0,0,1,1.53-1.16,47,47,0,0,1,4.48-2.55c2.18-1,4.43-1.91,6.69-2.74,2.65-.88,5.35-1.61,8-2.37s5.09-1.4,7.67-1.95c2-.4,4-.79,6-1.12s3.8-.49,5.71-.63a62.42,62.42,0,0,1,6.27-.1,76.87,76.87,0,0,1,8.53,1.24c2.31.48,4.61,1,6.86,1.69,1.06.38,2.08.82,3.1,1.3.64.37,1.28.75,1.9,1.15.77.57,1.53,1.15,2.26,1.77.32.31.64.63.94.95a7.94,7.94,0,0,0,3.54,2.9,3.28,3.28,0,0,0,1.2.13l.34.14A4,4,0,0,0,686.3,340c.08-.1.15-.2.23-.29.41-.43.83-.83,1.25-1.23s1.09-.87,1.66-1.28c.26-.15.52-.3.79-.44s.83-.35,1.24-.5c2.17-.71,4.34-1.35,6.57-1.85l.81-.11c.33,0,.66,0,1,0l.51.07c.34.07.67.16,1,.26.57.22,1.13.45,1.69.71.88.48,1.74,1,2.57,1.53a8,8,0,0,0,3.52,1.82,4.79,4.79,0,0,0,3.77-1.05c.65-.57,1.27-1.15,1.9-1.73.47-.39,1-.77,1.44-1.13,1.18-.76,2.39-1.43,3.63-2.07a47.68,47.68,0,0,1,4.6-1.95c1.33-.42,2.67-.79,4-1.18s2.54-.72,3.83-1a63.27,63.27,0,0,1,6.58-.7,53.17,53.17,0,0,1,5.92-.11c2.83.33,5.65.8,8.44,1.34.79.18,1.56.39,2.33.64q.75.3,1.47.63c.81.43,1.58.89,2.35,1.38a52.59,52.59,0,0,1,4.21,3.26q3.36,3,6.41,6.34a56.62,56.62,0,0,1,3.72,4.85c.65,1,1.23,2.1,1.79,3.18,1.71,3.54,3.47,7.09,4.89,10.76a71,71,0,0,1,2.08,7.86,59.33,59.33,0,0,1,.86,6.52c.13,2.51.17,5,.07,7.49-.13,1.45-.31,2.87-.56,4.3-.44,2-1,3.95-1.61,5.9-.5,1.32-1,2.61-1.61,3.88-.34.64-.69,1.27-1.06,1.9-.55.79-1.13,1.55-1.75,2.3-1.62,1.72-3.37,3.32-5.14,4.89-.83.7-1.68,1.37-2.57,2a11.35,11.35,0,0,0-3,2.28,4.81,4.81,0,0,0-.95,3.44,9,9,0,0,0,.77,2.68c.9,2.16,1.73,4.37,2.52,6.58.25.83.46,1.68.65,2.53s.31,1.77.4,2.67v.1l-.16.08c-.35.17-.7.32-1.06.46l-.46.13-.51.07h-.31a4.55,4.55,0,0,0-2.73.57,5.23,5.23,0,0,0-2.25,4.49,28,28,0,0,0,.14,3.77,10,10,0,0,0-2.73-2.54,4.69,4.69,0,0,0-3.81-.52,5.83,5.83,0,0,0-2.8,2,13,13,0,0,0-1.25,2.17l-.06,0-.26.15c-.65.31-1.32.6-2,.86-.38.11-.77.22-1.15.31l-.52.08h0l-.13-.05c-.34-.18-.66-.37-1-.58a3.91,3.91,0,0,0-4,6.76,11.67,11.67,0,0,0,2.79,1.37,9.48,9.48,0,0,0,2.65.32,11.3,11.3,0,0,0,3.15-.58,24.89,24.89,0,0,0,3.44-1.37,10.51,10.51,0,0,0,2.72-1.86c1,1.56,2.09,3.08,4,3.66a5,5,0,0,0,1.5.2c.48,0,1-.05,1.42-.09a12.07,12.07,0,0,0,1.68-.3,5.46,5.46,0,0,0,1.1-.4l.2.11.39.31c.33.31.63.64.93,1,.69.79,1.36,1.59,2.08,2.34s1.62,1.63,2.45,2.43c1.55,1.51,3,3.06,4.49,4.68a104.5,104.5,0,0,1,6.46,8.24c.71,1.07,1.39,2.16,2,3.28.31.67.61,1.35.87,2.05s.46,1.49.64,2.25c.7,4,.78,8.1,1.59,12.09.41,2,.72,4,1.1,6s.8,3.92,1.2,5.88a56,56,0,0,1,1,6.16C792.34,504.06,792.33,504.65,792.3,505.24Z"/><path d="M636.38,420.83c-.48.2-1,.38-1.45.56-.94.29-1.88.52-2.83.74q-.4.08-.81.12h-.42l-.18,0-.09-.16c-.07-.17-.15-.35-.21-.52s-.07-.24-.1-.37a2.91,2.91,0,0,1,0-.31c0-.21,0-.42,0-.63.09-.84.25-1.67.39-2.5.22-1,.46-1.94.76-2.9a104.13,104.13,0,0,1,4.46-10.49c.6-1.12,1.22-2.21,1.9-3.27l.24-.31.32-.34a3.9,3.9,0,0,0-1.94-7.29c-2.52,0-4.29,2.34-5.54,4.23a47,47,0,0,0-2.74,5,84.55,84.55,0,0,0-3.92,9.44,32.16,32.16,0,0,0-1.38,5.4,15.49,15.49,0,0,0-.38,3.52,11.68,11.68,0,0,0,1.34,5.08,7.87,7.87,0,0,0,4,3.66,8.19,8.19,0,0,0,3.18.58,14.37,14.37,0,0,0,3.1-.37,33,33,0,0,0,5.39-1.68,3.91,3.91,0,1,0-3-7.2Z"/><path d="M234.48,245a4.1,4.1,0,0,0,.4-3c0-.16-.07-.33-.11-.49-.69-3.56-1.2-7.16-1.77-10.75-.12-.77-.27-1.53-.4-2.3.49-.21,1-.43,1.49-.62a75.35,75.35,0,0,1,8.2-2.25,93.69,93.69,0,0,1,10.56-1.44,37.68,37.68,0,0,1,3.83-.1c.42,0,.84.1,1.27.17.25.05.5.12.75.19l.27.11v.08c0,.66,0,1.32,0,2a62,62,0,0,1-1,6.35c-.73,3.1-1.58,6.14-2.56,9.17.05-.17.11-.32.17-.48l-.35,1,0-.08c0,.11-.07.21-.11.31l-.06.18,0-.07-.43,1.23c-1.75,5-3.82,9.9-5.87,14.79a4,4,0,0,0,2.08,5.12,3.71,3.71,0,0,0,1.49.3,4,4,0,0,0,3.64-2.37c2.29-5.47,4.54-11,6.49-16.56l-.06.15.45-1.28c.78-2.31,1.45-4.66,2.07-7a56.93,56.93,0,0,0,1.48-7.44,24,24,0,0,0,.21-6.67,7.56,7.56,0,0,0-2.07-4.11c-2.17-2.31-5.77-2.93-8.8-2.9a78.62,78.62,0,0,0-11.56,1.07A68.92,68.92,0,0,0,232.83,220l-1.59.56-.12-.73a4,4,0,0,0-4.41-3.34,3.93,3.93,0,0,0-3.35,4.4c.25,1.36.46,2.73.7,4.1a4.57,4.57,0,0,0-1,2.73,3.93,3.93,0,0,0,2,3.39c.07.47.16,1,.24,1.42.62,3.86,1.17,7.72,2,11.54a3.88,3.88,0,0,0,3.84,2.86,3.62,3.62,0,0,0,1-.13A3.93,3.93,0,0,0,234.48,245Z"/><path d="M263,244.21l0,.08,0,0Z"/><path d="M271.81,284.46a6,6,0,0,0-1.42-2.57,6.41,6.41,0,0,0-1.69-1.24,5.48,5.48,0,0,0-1.44-.39,7.45,7.45,0,0,0-2.49.16c-1,.17-1.93.39-2.88.63-3.81,1-7.59,2.13-11.32,3.37-2,.66-4,1.34-5.94,2s-4.17,1.37-6.31,1.86l-.11,0a3.62,3.62,0,0,0-1.09,0,4,4,0,0,0-3.34,4.41,3.9,3.9,0,0,0,1.91,2.87,5,5,0,0,0,2.59.58,19.38,19.38,0,0,0,5.34-1.19c2.68-.84,5.33-1.74,8-2.63,4.26-1.42,8.55-2.83,12.93-3.85q-.1,1.08-.3,2.16c-.32,1.44-.74,2.85-1.19,4.26s-1.22,2.94-1.89,4.39a101,101,0,0,1-5.24,9.15l-.41.58a3.89,3.89,0,0,0,3.13,6.28,3.68,3.68,0,0,0,3.06-1.51,81.17,81.17,0,0,0,5-8.12,49.19,49.19,0,0,0,4.74-11.37,22.24,22.24,0,0,0,1-6.3A12.75,12.75,0,0,0,271.81,284.46Z"/></g></svg>