<svg xmlns="http://www.w3.org/2000/svg" viewBox="0 0 1000 1000"><defs><style>.cls-1{opacity:0.2;}.cls-2{fill:#fff;}.cls-3{fill:#f5f5f4;}.cls-4{fill:#e1e0dd;}</style></defs><g id="レイヤー_7" data-name="レイヤー 7"><path class="cls-1" d="M402.85,792.12c-7.61-.2-15.33-1.11-22.47-3.89-4.09-1.52-8.2-3.52-11.17-6.8s-4.3-7.77-7.28-11.07c-3.78-3.83-10.1-3.83-15.08-3.07-8,1.4-15.91,3-23.84,4.63a107.86,107.86,0,0,1-13.13,2,59.39,59.39,0,0,1-12.85.36c-4.2-.41-8.59-1.2-12.08-3.71a15.29,15.29,0,0,1-5.86-14.25c.37-5.65,2.38-10.7,6.65-14.52,3-2.76,6.86-4.46,10.47-6.31,4.08-2,8.09-4.19,12.28-6C319.85,725,337,724,349.08,721.89a140.41,140.41,0,0,1,21.38-4.15c10-.81,20-1.88,29.91-2.89q22.38-2.15,44.68-5.25c12.64-1.47,25.31-3.68,38.07-3.8,8.16-.12,16.45-.28,24.59-.92,9.41-.88,18.9-1.7,28.36-1.64,9.48-.31,19,0,28.46.5,8.26.09,16.58,0,24.84-.15a226,226,0,0,0,24.53-1.72c8.34-1.27,16.63-3,25.06-3.64,8.78-.48,17.68,0,26.35-1.74s16.79-5.7,25.4-7.84c4.44-1.22,9-2.27,13.35-3.8,4.14-1.43,8.18-3.27,12.37-4.56,10.88-3.17,22-5.94,33.27-7.12,10.22-.54,25.94,1.44,34.12,7.38,5.67,4.4,2.38,12,0,17.34a41.57,41.57,0,0,1-4.33,7.26,68.94,68.94,0,0,1-6.22,6.46,60.64,60.64,0,0,1-26.73,15.76c-6.45,2-13,3.77-19.44,5.88a220.9,220.9,0,0,1-28.24,6.41,67.81,67.81,0,0,1-22.46-1c-5.35-1.26-10.64-2.87-16-3.93-5.68-1.37-11.5-2.13-17.27-3.06-5.24-.8-10.2-2.9-15.5-3.4-12-1.55-24.07-.21-36.1-.49-6.46-.18-12.92-.86-19.34-1.59a78.44,78.44,0,0,0-14.68-1c-10.25.22-20.42,2.08-30.42,4.27a141,141,0,0,0-31.82,10.85c-5.68,2.8-11.49,5.65-16.49,9.6s-9.45,8.63-14.54,12.5c-7.36,5.56-15.48,10-23.52,14.55-5,2.74-9.52,6.5-14.6,9.22C418.89,789.69,410.91,792.24,402.85,792.12Z"/></g><g id="レイヤー_6" data-name="レイヤー 6"><path class="cls-2" d="M431.19,771c-12.2-.55-19-6-18.91-18.56,0-6.33.3-12.68.51-19,.42-14,1.34-27.93,1.47-41.9.26-8.56.51-17.18-.53-25.7a68.35,68.35,0,0,0-4.05-15.77,87.84,87.84,0,0,0-4.33-10.71,47.15,47.15,0,0,0-21.58-21.14c-6.71-3.06-13.49-6.09-20.12-9.32-5-2.21-10.16-4-15.15-6.08s-10-4.34-15.22-5.79a90.81,90.81,0,0,0-18.55-3c-4.6-.33-9.29-.47-13.81-1.47a54.48,54.48,0,0,1-11.89-4.4c-7.42-3.75-15.12-7-22.34-11.11-3.37-1.86-6.5-4.11-9.82-6.05-3.54-2-7.28-3.68-10.89-5.58a46.14,46.14,0,0,1-11.33-9c-3.81-3.87-7.41-8.19-9.42-13.28a40.31,40.31,0,0,1-2-14.71c0-3.92,0-7.86-.3-11.78-.39-11-4-21.54-7.8-31.77-1.57-4.51-2.74-9.17-4.3-13.68-1.68-5.16-3.63-10.25-5-15.5a39.55,39.55,0,0,1-1.4-9.31c-.26-5.11.14-10.44,2.43-15.1,1.24-2.78,3.06-5.25,4.51-7.92a56.57,56.57,0,0,0,4.22-9.64c1.87-4.8,2.87-9.89,4.79-14.67a45,45,0,0,1,5.68-9.48A85.56,85.56,0,0,1,237.22,377c.44-.14,12.62-10.92,13.2-10.72.39-.08.9-.26,1.29-.35a67.63,67.63,0,0,1,8.1-1.54c1.53-.15,2.84-1.32,4.2-2a92,92,0,0,1,8.45-4.17,135.89,135.89,0,0,1,18.08-5c4.76-.9,9.51-2.05,14.39-2.12,5.77-.25,11.56.69,17.33.55A110.68,110.68,0,0,1,349,352.91c6.68,1.31,13.16,3.54,19.73,5.3,5.49,1.62,11.14,2.61,16.71,3.9,4.27,1,8.46,2.37,12.62,3.75,3.89,1.11,7.88,1.82,11.82,2.74A46.11,46.11,0,0,1,420.93,372a103.74,103.74,0,0,1,12.84,7.33,68.61,68.61,0,0,1,6.55,5.48c2.83,2.53,5.74,5.13,7.48,8.56,2.15.85,4.52.37,6.74.11a76.81,76.81,0,0,0,11.59-2.63c6.09-1.85,12.45-2.57,18.61-4.19a71.19,71.19,0,0,1,12.12-2.12c5.41-.33,10.84-.1,16.26-.29a101.86,101.86,0,0,0,14.47-1.41c3.38-.56,6.81-1,10.14-1.85,6.66-1.53,12.71-4.92,19.36-6.5,2.59-.58,5.24-.91,7.84-1.47a12,12,0,0,0,5.13-2c1.64-1.31,2.27-3.43,3.35-5.17a116.84,116.84,0,0,1,7.87-10.77c2.72-3.32,5.34-6.87,8.87-9.38,6.76-4.42,14.94-5.71,22.4-8.5a70.32,70.32,0,0,0,6.83-3,10.07,10.07,0,0,0,4-4.68c.89-2.2,1.41-4.54,2.33-6.73a8.46,8.46,0,0,1,2.31-3.52,17.74,17.74,0,0,1,4.56-1.9,33.56,33.56,0,0,1,6.78-1.51c4.64-.45,9.21.85,13.62,2.14a12.84,12.84,0,0,0,7.51.31,36.93,36.93,0,0,0,5.36-2.89,86.79,86.79,0,0,1,14-6.46,63.62,63.62,0,0,1,10.67-3.39c5.81-.88,11.74-1,17.61-1.34a83.87,83.87,0,0,1,16.31.49,50.87,50.87,0,0,1,6.74,1c2.4.64,4.7,2.33,4.51,5.07a44,44,0,0,1-.79,4.42c-.3,1.82-.39,4.42,1.69,5.21,2.73,1,5.77,1.14,8.56,2.11a15.37,15.37,0,0,1,5.37,3.16c2.85,2.19,5,5.11,7.28,7.83a68,68,0,0,1,10.52,14.63,13.85,13.85,0,0,1,1.61,4.51c.17,3.22-1.14,6.28-1.51,9.45-.7,3.64,2.2,6.34,4.23,9a17.78,17.78,0,0,1,3.6,6.78c.9,3.91.18,7.94-.37,11.85a72.32,72.32,0,0,1-3.39,15.59c-1.15,3.54-2.89,6.83-4.34,10.23a35.4,35.4,0,0,0-1.24,6.11,29,29,0,0,0,.24,7.45c.64,3.51,2.51,6.59,3.5,10,1.23,4.16,2.35,8.38,3.76,12.49,1.79,5,3.34,10,4.85,15.05a104.23,104.23,0,0,1,4.92,23.87,123.85,123.85,0,0,1-.32,15.29c-.71,10.76-3,21.4-2.85,32.21-.28,8.71-.78,17.41-1,26.11a262.08,262.08,0,0,0-.57,26.88c.13,3.45.47,6.9.88,10.32a52,52,0,0,0,1.15,7.15,43.28,43.28,0,0,0,4.15,7.88,92.6,92.6,0,0,1,7.24,13,20.12,20.12,0,0,1,1.52,7.59,112.29,112.29,0,0,1,.27,12c0,4.32-.51,8.62-.85,12.92-.48,5-.93,10.07-1.82,15a61.14,61.14,0,0,1-4,12c-1.19,2.52-2.92,4.74-4.35,7.12a62,62,0,0,1-4,5.73,25,25,0,0,1-8.88,6.39,20.57,20.57,0,0,0-7.84,5.45c-3.72,3.86-6.63,11.44-12.77,11.33a31.79,31.79,0,0,1-5.77-1.63c-3.27-1.15-6.73-1.77-9.95-3.05-4.4-1.88-8.15-4.93-12.27-7.32-10.79-6.33-16.67-7.84-24.24-18.83-6.24-9.11-11.47-18.88-17-28.43-5.37-8.68-11-17.25-15.67-26.32-2.62-4.84-5.42-9.62-8.33-14.3a55.49,55.49,0,0,0-9.8-12.74c-4.47-4.39-10.26-7.24-14.5-11.88-4.58-4.42-10.19-13.93-16.45-15.18-2.58-.46-5,.94-7.28,2-6.64,3.47-11.7,9.3-18.27,12.89a54.37,54.37,0,0,1-14.45,6.14c-3.51,1-7.15,1.43-10.7,2.26-5.42,1.13-10,4.54-14.62,7.34-5.31,3.25-9.71,7.85-15.35,10.62-2.29,1.29-4.87,2-7.07,3.48a5.15,5.15,0,0,0-2.54,2.66c-.91,3.35-.88,6.88-1.08,10.32-.36,6.13.36,12.25.57,18.37a83.4,83.4,0,0,1-2.67,21.5c-.91,3.49-1.52,7.09-2.57,10.54-.79,2.45-1.9,4.8-2.84,7.19-3.87,9.74-9.9,18.45-16.75,26.33-4.14,5.07-6.53,11.49-11.76,15.67-3.85,3.18-8.63,5-12.76,7.77-3.56,2.18-7,4.6-10.56,6.76a115.36,115.36,0,0,1-14.56,7.34C444.55,767.08,438.32,770.87,431.19,771Z"/></g><g id="レイヤー_5" data-name="レイヤー 5"><path class="cls-3" d="M424.68,774.33c-3.54,0-7.21-.15-10.51-1.56A35.4,35.4,0,0,1,404.08,766a25.6,25.6,0,0,1-4.88-5.66,12.52,12.52,0,0,1-1.47-9c.82-4.68,3-9,5-13.19a19.72,19.72,0,0,0,2.35-12.38c-.28-4.52-.59-9.06-1-13.57a115.82,115.82,0,0,1-1.17-13c-.06-3.87.25-7.74.47-11.6.29-3.44.37-7-1.24-10.17-2.61-6.33-8.08-10.63-12.91-15.2-11.22-10.93-24.09-20-35.77-30.36-8.23-6.62-16-13.91-22-22.7-2-2.93-3.6-6.08-5.55-9a55.85,55.85,0,0,0-5-6.09c-2.47-2.48-5-5.14-8.25-6.62a29.21,29.21,0,0,0-7.1-1.71c-3.19-.48-6.42-.74-9.62-1.12a39.12,39.12,0,0,1-14.44-4.95,73.42,73.42,0,0,0-10.3-5.07c-3-1.17-5.93-2.48-9-3.46-3.19-1.17-6.66-1.54-9.71-3.06-2.65-1.3-4.68-3.48-6.81-5.47A26.66,26.66,0,0,0,240,558.7a44,44,0,0,1-7.64-4.34,13.37,13.37,0,0,1-3.63-3.52,8,8,0,0,1-.64-6.25c1.18-3.89,5.94-4.42,9.39-4.92a33.84,33.84,0,0,1,18.35,3.65c4,1.87,7.55,4.65,11.2,7.16A17.89,17.89,0,0,0,277.53,553c2.91-.11,5.76-.9,8.65-1.21,6.58-.79,13.28-1.31,19.86-.39,4.17.5,8.35.83,12.51,1.38,3.3.39,6.59,1.16,9.93,1,4.19-.18,7.9-3.18,9.73-6.83a21.66,21.66,0,0,0,1.46-6.8,26.51,26.51,0,0,0,.05-6.6,32,32,0,0,0-2.24-6.19A138.17,138.17,0,0,1,331.92,512a165.61,165.61,0,0,1-3.06-18.26c-.46-5.42-2.36-17.29-3.24-22.7a75.62,75.62,0,0,1,2.14-9c4.56-14.13,13.52-8.41,17.61,2.49,4.07,10.68,3.75,22.48,7.76,33.19,3.81,11.3,10.14,22.28,20.26,29,2.77,1.76,5.78,3.64,9.14,3.86,7.45-.24,10.85-8.72,12.48-14.9.57-2.24,1-4.53,1.62-6.77.68-2.55,1.73-6.23,4.95-6.12,3.74.5,6.76,3.27,9,6.14a9.27,9.27,0,0,0,1.63,1.68c.8.6,1.64-.24,2.21-.74,2.26-2.12,4-5.09,7.11-6.08,3.55-.7,6.59,2.24,8.83,4.62,3.82,4.21,5.3,9.94,6,15.44.94,7.69.61,15.54,2,23.17,1.12,8.4,7.43,8.79,13.85,5.48,7-3.24,13.3-6.92,19.24.42a24,24,0,0,1,4.9,10.39,38.4,38.4,0,0,1-1.7,15.6c-3.78,10.81-11.79,19.54-16.22,30-3.55,8.19-5,19.06-3.34,27.87,1.13,5.87,4.36,11,6.69,16.42,4.86,10-.63,20.58-4.59,29.87a151.67,151.67,0,0,0-6.83,23.17c-1.26,6.79-5.34,30.34-1.64,35.27,1.72,2.18,4.76,2.77,7.41,2.58,7.59-.64,13.39-6.29,19.3-10.53,7-6,11.37-9.73,21-10.75a39.37,39.37,0,0,0,10.11-3c1.5-.7.68.62.28,1.32-.51,1-1,1.95-1.57,2.91a40.46,40.46,0,0,0-2.75,6c-1,3-1.7,6-3.14,8.82a38,38,0,0,1-4.88,7.61,32.49,32.49,0,0,1-8,7.94c-5.3,3.33-11.51,4.79-17.22,7.24-5.42,2.28-10.48,5.35-16,7.32a48.07,48.07,0,0,1-7.88,1.6c-3.59.67-7.06,1.87-10.6,2.79A47.79,47.79,0,0,1,424.68,774.33Z"/><path class="cls-3" d="M301.51,544.15c-12.23.19-21.33-4.83-29.63-13.49-3.92-3.85-7.47-8.72-12.93-10.4a12.52,12.52,0,0,0-5.38-.23,63.29,63.29,0,0,0-7.6,1.34c-4.46,1-9.44,1.41-13.74-.42-4.24-2.13-4.8-7.39-6-11.49-.86-3.45-1.74-6.92-2.64-10.36a50.55,50.55,0,0,1-1.87-9.36c-.14-2.38.1-8.29,3.5-7.89a11,11,0,0,1,3.49,2.2c2.8,2.31,5.5,4.79,8.48,6.86,5.9,3.84,12.08,7.32,18.14,10.91.48,0,15.91-1.56,15.93-.88,3.4,1.05,6.16,3.4,8.58,5.92a27.63,27.63,0,0,0,4.13,3.59,13.9,13.9,0,0,0,5.75,1.85c4.12.24,8.21-.71,12.32-.86a22,22,0,0,1,13.15,3,17,17,0,0,1,7.52,10.33c1.16,3.83,1.24,8.17-1.15,11.57a16.59,16.59,0,0,1-8.41,6.43A52.17,52.17,0,0,1,301.51,544.15Z"/><path class="cls-3" d="M738,728.81c-5.28-.3-9.53-3.9-14.13-6.12a23.32,23.32,0,0,0-3.84-1.58,30.92,30.92,0,0,1-5.15-1.66c-9.1-4.59-13.8-14.2-20.69-21.26-1.26-1.25-2.6-2.83-4.41-3.21-3.81-.67-6.95,2-9.21,4.71-2.08,2.3-3.74,5.12-6.34,6.88-8.13,4.35-17.69,1.91-26.43,1.42-3.94-.5-8-.66-11.8-1.76a34,34,0,0,1-9.71-4.76,42.43,42.43,0,0,1-8.62-8.93c-2.94-4.08-4.16-9-5.2-13.9-.9-4.21-1.92-8.41-3.22-12.52a86.68,86.68,0,0,0-3.13-8.36c-1.56-3.93-3-7.92-4.45-11.92-1.76-4.84-3.19-9.8-4.52-14.76a71,71,0,0,1-2.16-8.71c-.61-4.43-.66-8.92-.84-13.38a36.43,36.43,0,0,0-1.53-8.66,11.22,11.22,0,0,0-5.5-6.38c-3-1.45-6.45,0-8.94,1.82-2.73,1.83-4.69,4.53-6.92,6.89a42.73,42.73,0,0,1-5.41,4.82,25.57,25.57,0,0,1-3.83,2.8c-2.73,1.52-5.77,2.36-8.6,3.65a120,120,0,0,1-18.4,5.55,48.3,48.3,0,0,1-7.95,1.21,19.9,19.9,0,0,1-3.18.11,3.5,3.5,0,0,1-2.12-1.78c-1.37-2.37-1.62-5.2-2.15-7.84a34.89,34.89,0,0,0-2.84-9.83c-1.88-4-4.22-7.7-5.88-11.75-2.53-6-3.51-12.53-4.2-19-.37-3.84-.6-7.77-.65-11.62,0-1.64-.62-7,2.2-4.14,5,5.93,7.44,13.85,13.13,19.23,6.35,4.51,8.42-8.25,8.91-12.36a78.08,78.08,0,0,0,.35-10c.09-1.38-.36-3,.29-4.27,1.3-1.07,4.56,2.45,5.66,3.24,3,2.56,5.85,5.46,9.33,7.35,5,2.1,5.24-7.73,5.81-10.78.79-6.56,1-13.24,1.2-19.84-.29-8.16,9.29,5.07,10.56,6.91,2.31,3.3,4.42,6.84,6.83,10.06,1.43,1.64,3.25,5,5.85,4,3.47-2.43,3.41-7.63,4-11.44,1.42-14.24-1.12-28.7-5.1-42.35-2.15-6.8-5.56-13.18-8-19.86-.69-2.56-3.63-7.79-1.17-8.48,5.92,1.4,12.84,16.15,16,21.44,3.52,6.3,7,12.77,10.34,19.17,1.73,3.3,3.47,6.68,5.36,9.88,1.19,1.85,2.3,4,4.16,5.27,5.13,1.84,4.51-11.34,4.29-14.27-.89-13.64-6.12-26.5-10.94-39.14-.61-1.58-1.16-3.26-1.68-4.88-.31-1.22-1.12-3,.43-3.63,4-.64,8.14,4.1,10.64,6.79,6.29,7,10.38,15.5,15,23.58,2,3.53,4.07,7.06,6.18,10.53.55.9,1.12,1.81,1.72,2.67.43.54.9,1.3,1.67,1.33,2.23-1.06,2.74-10.06,4.76-12.22,1.27-1,3-.29,4.34.19,5.36,2.3,9,7.18,13.27,11a55.53,55.53,0,0,0,5.94,5,10.78,10.78,0,0,0,5.88,1.49l12.44-8.61c16.49,3.13,15.72,16.23,13.79,29.69a261.1,261.1,0,0,0-1.56,27.1c.06,8.58.07,17.72,4.44,25.39,1.35,2.31,2.77,5,5.37,6.11,3.83.38,4.47,5,5,8a129,129,0,0,1,.88,13.75A63.85,63.85,0,0,0,705.89,629c1.14,4.48,6.44,12,9.42,4.36,1.87-5.58,1.8-11.73,1.93-17.55.07-7.7-.36-15.49-.61-23.19,0-3.08-.51-6.56,1.13-9.32,2.75-3.41,6.55-1.24,8.59,1.75,2.93,4.18,4.45,9.25,5.48,14.21,1.36,7.8,2.14,15.88,1,23.75a7.89,7.89,0,0,1-.81,2.74c-.61,1-1.45,1.84-2,2.86-2.52,4.74-3,12-2.3,17.31a25.48,25.48,0,0,0,2,6.22c.56,1.16,1,2.56,2,3.38,2.14,1.07,4.68-5.77,8.84-4.23,5.29,2.91,4.68,11.28,5.24,16.51.36,4.24,1,8.49,1.2,12.73.24,5.06.35,10.21,1.9,15.08.75,2.89,3.23,9.55,5.57,3.46,1.42-4.36,1.21-9.1,2.39-13.52a47.89,47.89,0,0,1,4.23-10.14c1-1.64,1.77-3.54,3.17-4.86,4.72-3.13,7.39,5.22,8,8.63,1.24,6.75.68,13.66,1.19,20.46a26.6,26.6,0,0,0,.71,3.85,3.9,3.9,0,0,1-1.25,2.35,35.51,35.51,0,0,1-3.48,3.35c-4.88,4-9.22,8.78-15,11.51a70.29,70.29,0,0,0-7.71,4.79,17.23,17.23,0,0,1-3.4,2.24A13,13,0,0,1,738,728.81Z"/><path class="cls-3" d="M664,501.35a2.65,2.65,0,0,1-1.78-1c-.6-.56-1.2-1.17-1.75-1.79a51.16,51.16,0,0,1-8.92-15.33c-1.15-3.39-2.06-6.9-2.92-10.37-1.14-4.43-2.26-10.39-7.18-12-4.36-.68-6.44,8.09-11.08,6.26-5-3.4-7.48-10.5-8.61-16.23-1.21-5,.19-20.25-8.57-17-5.62,1.51-4.67-4.9-4.2-8.41.59-4,1.41-8,1.83-12a18.57,18.57,0,0,0-.12-5.86c-.78-2.41-1.89-4.74-2.11-7.29-.31-2.76,1.07-4.53,3.06-6.23a40.69,40.69,0,0,0,3.92-4.48c3.93-4.95,6.46-11.2,6-17.59-.39-3-1.73-5.81-3-8.54-4.76-8.92-7.34-12.65-5.41-23.35a.17.17,0,0,1,.26-.05c1,1.33,7.87,13.38,9.2,13.7,1.65,1.47,3.41,2.89,5,4.46a18.34,18.34,0,0,1,5.6,14c-.47,5-3,9.55-4.76,14.17-3.37,7.49,0,14.25,2.27,21.44a41.41,41.41,0,0,1,1.85,7.1,66.69,66.69,0,0,1,.4,8.83c.16,8,1.44,11.84,7.8,16.86,5.39,4.28,11.16,8.55,17.94,10.25,4.47,1.06,9,2,13.42,3.2,3.45.87,7,1.67,10.09,3.53,7.93,5,16.57,11.37,15.37,21.9-.41,3.1-1,9.7-5,10a5.63,5.63,0,0,1-4.17-3.6c-.84-2.07-1.35-4.26-2-6.39a20.83,20.83,0,0,0-2.72-6,14.76,14.76,0,0,0-2.83-2.46c-3.19-2.19-7.12-4-11.06-3.09-2,.44-4.17,1.71-4.28,3.93C665,477.3,669.29,499.33,664,501.35Z"/></g><g id="レイヤー_4" data-name="レイヤー 4"><path class="cls-4" d="M403.32,763.18c-1.58,0-2.13-3.42-2.63-4.62a20.94,20.94,0,0,1-.76-7.68,40.43,40.43,0,0,1,2.74-13.24c1.31-4,2.75-8,2.64-12.24,0-2.87-.32-5.77-.28-8.65,0-2.49.32-5,.37-7.49.15-7,1.13-14,.82-21.06,0-1.69-.29-4.37-2.38-4.64-.54.06-.79.66-1,1.07-.37.66-.68,1.37-1,2-1.17,2.42-2.14,4.94-3.15,7.43-1.76,4.08-4,8-5.67,12.1-1.88,4.57-3.28,9.35-5.23,13.9-1.14,3.51-2,7.11-3.1,10.65-1.18,4.2-2.64,7.39-6.89,9.22-3.71,1.83-7.75,3.39-11.93,3.44a29.75,29.75,0,0,1-7.8-.94c-3-.68-6.17-1.42-9.16-.34-4.54,1.19-8.21,5-13.09,4.87a20.22,20.22,0,0,1-6.81-1.38,23.22,23.22,0,0,1-9.1-4.54,12.66,12.66,0,0,1-4.23-5.61,26.73,26.73,0,0,1-1.39-6.18c-.13-3,0-6.12-.06-9.17-.1-11.47.25-23-.9-34.41a51.66,51.66,0,0,0-1.78-10.19,39.3,39.3,0,0,1-1.23-4.89,23.48,23.48,0,0,1,.12-3.84c.67-8.39,1.7-16.8,1.21-25.23-.46-9.5-2.29-18.88-3.13-28.35-.28-3.56-1-7.07-1.4-10.62s-.94-7.23-3.41-9.85a12.49,12.49,0,0,0-3.49-2c-3.7-1.28-7.61-2-11.2-3.59-3.75-1.62-7.45-3.39-11.24-4.92-2.8-1-5.72-1.73-8.56-2.63a65.48,65.48,0,0,1-10-4.19,68.18,68.18,0,0,1-7.65-4.16,98.27,98.27,0,0,1-12.35-8.78,56,56,0,0,1-7-6.32,17.35,17.35,0,0,1-3.41-6.41,1.11,1.11,0,0,0,0-.17,1.63,1.63,0,0,1,.51-1.62h0a7.73,7.73,0,0,1,3.45-1.48,30.55,30.55,0,0,1,5-.69A20.65,20.65,0,0,1,252,550.67a16.3,16.3,0,0,1,4.24,7.06c2.09,6.22,3.5,11.2,10.41,13.4a14.21,14.21,0,0,0,7.76.4,58.9,58.9,0,0,0,9.67-2.48c3.58-1,7.4-2.67,11.15-1.65,1.82.52,3.1,2,4.23,3.46a18.3,18.3,0,0,0,3.89,3.72c3.46,1.85,7.23-.56,10.17-2.39,2.34-1.55,4.49-3.42,6.95-4.8a24.58,24.58,0,0,1,6-2.1c4.16-1.15,9.25-1.64,12-5.36a19.66,19.66,0,0,0,2.09-5.77c.81-3.09,1.45-6.33,2.41-9.35,2.25,1.48,11.12,6.65,12.74,8.64,2.91,2.66,6.54,6.42,10.86,5h0c1.62-.71,3-1.85,4.74-2.4,3.34-1.15,6.89-1.66,10.19-2.94,3-1.12,5.87-2.57,8.77-3.92a31.8,31.8,0,0,0,5.18-3.68c2.4-1.94,4.72-4,7.15-5.9s5.19-4.21,8.51-4c3.05.09,5.39,2.26,7,4.65,1.86,2.4,2.53,5.39,2.91,8.33a98.37,98.37,0,0,1,.66,11c0,2.71.47,5.5-.12,8.17a44.7,44.7,0,0,1-4.48,11.6c-3.52,6.71-14,13.2-12.37,21.4a17.48,17.48,0,0,0,6.23,9.77c2.46,1.49,5.53,1.47,8.31,1.76,5.93.7,23.28-2.55,23.05,6.68-.88,5.7-3.29,11-5.1,16.48-1.57,4.83-2.48,9.87-4.08,14.69-.93,2.85-2.33,5.56-3.51,8.3a75,75,0,0,0-2.73,8.11c-1.45,5.29-3.37,10.71-2.86,16.27a34.34,34.34,0,0,0,1.45,7.45c.7,2,1.65,3.88,2.46,5.8,2.44,5.15,2.48,8.78.33,14.12-1.39,3.56-3.74,6.67-5.74,9.9-3.29,5.42-6.63,10.91-8.95,16.83-2.16,5.78-4.05,11.69-6.1,17.51C406.53,757,405.85,762.56,403.32,763.18Z"/><path class="cls-4" d="M744.58,730.2a25.82,25.82,0,0,1-6.09-1.05,34.92,34.92,0,0,0-6.65-1.07c-4-.23-8,.33-12,.15-4.06-.38-8.35-1.26-11.57-3.93-3.76-2.95-6.15-7.21-8.23-11.43-1.12-2.25-2.26-4.49-3.21-6.81h0c-.92-2-1.74-4.15-3.46-5.58-4.72-3.19-10.24,1.37-14.17,4-3.14,2.09-5.83,5.17-9.58,6a37.89,37.89,0,0,1-10,.71A46.63,46.63,0,0,1,649.19,709a31.15,31.15,0,0,0-12.45-1.05v0c-2.23.2-4-1.3-5.58-2.71a20.09,20.09,0,0,1-4.57-5.79C623,694,622.68,690,625.15,684a11.83,11.83,0,0,0,1-4.28c-.87-5.91-7.21-8.43-11-12.27-2.22-2.28-2.83-5.57-3.19-8.62a27.6,27.6,0,0,0-.83-5.88c-1.39-4.14-4.64-7.2-7.81-10a15.87,15.87,0,0,1-4-8.44,55,55,0,0,0-2.2-8.26c-1.1-2.71-2.48-5.32-3.33-8.13a58.09,58.09,0,0,1-1.74-6.78c-.4-1.59-.41-3.4-1.35-4.79h0a2.53,2.53,0,0,0-.66-.9c-5-3.81-11.81-.55-16.92,1.47-4.11,1.77-8.26,3.5-12.46,5a103.43,103.43,0,0,0-15.63,6.36c-4.27,2.18-8.42,4.76-13.12,5.88a23.39,23.39,0,0,1-3.88.62,4.91,4.91,0,0,1-3.09-1.33,11.94,11.94,0,0,1-2.56-4.38c.08.09-5.74-15.32-5.95-15.82l.12-.19c15,2.1,18.17,2.24,26.46-11.2.78-1.26,1.55-2.57,2.3-3.83.56-1,1.28-2.31,2.65-2.17,1.88.17,3.54,1.3,5.19,2.13a53.79,53.79,0,0,0,6.91,3.37c4.47,1.71,8.06-1.84,10.4-5.24,2.86-3.83,5.13-8.09,7.7-12.1,1.07-1.54,2-3.3,3.55-4.43,5.22-3,11.61,2.16,17.13-2.59,2.35-1.91,3.94-4.64,5.55-7.16,2.43-3.91,4.62-8,6.93-12a83.8,83.8,0,0,1,5.68-8.54c3.49-4.16,6.5,4.09,8.08,6.39,3.13,6.38,9.38,0,12-3.51,4-4.94,7-10.69,11.55-15.16a4.08,4.08,0,0,1,5-.38c6.93,4.26,6.09,22.14,6.5,29.68.07,6.22,1.18,12.41,2.18,18.54s1.86,12.58,2.4,18.9c.55,5.65.86,11.33,1,17,.28,5.4-.59,14.8,3.25,18.9,2,1.85,4.94,1.42,7.38.95,1.48-.33,3.48-.93,4.21.89,1.13,3.75.4,7.89.53,11.75.08,3.12-.28,6.49,1,9.41,2,4.06,7.12,4.56,11.14,5.07,3.06.38,4.7,3.45,5.78,6,2.18,5.54,3.19,11.52,5,17.17,1.32,4.3,3.65,4.82,7.69,5.77,4.22,1.2,6.31,5.57,7.92,9.29,1.13,2.5,1.88,5.19,3.09,7.65a12.84,12.84,0,0,0,4.09,4.6,11.77,11.77,0,0,0,4.48,1.5c5.36.89,11.43-.5,16.15,2.79a14.5,14.5,0,0,1,3.9,5.72,9,9,0,0,1,1.06,5A8.75,8.75,0,0,1,749,729,8,8,0,0,1,744.58,730.2Z"/></g><g id="レイヤー_3" data-name="レイヤー 3"><path d="M406.31,750.53h0Z"/><path d="M210,493.65a.52.52,0,0,0,0-.11l0-.18C210,493.46,210,493.56,210,493.65Z"/><path d="M802.36,646c-.14-1-.33-2-.54-2.91a81.33,81.33,0,0,0-3.08-10q-2.07-5.72-4.3-11.35c-1.43-3.6-2.89-7.2-4.23-10.83a89.48,89.48,0,0,1-2.62-9.83,149.6,149.6,0,0,1-2.1-17.79c-.27-4.23-.54-8.45-.84-12.68v.08a94.06,94.06,0,0,1,0-10.62,126.9,126.9,0,0,1,1.76-15.67c1-4.69,2.53-9.2,3.83-13.82.7-2.48,1.34-5,1.8-7.52a43.45,43.45,0,0,0,.65-7.46c0-4.92-.21-9.85-.52-14.75a121.34,121.34,0,0,0-1.74-15.67,221.87,221.87,0,0,0-7.92-30.53A98.57,98.57,0,0,0,776.06,440c-1.23-2.27-2.48-4.53-3.69-6.81-.72-1.35-1.41-2.72-2.14-4.06.16-.34.32-.68.47-1a22.29,22.29,0,0,0,1.84-8,53,53,0,0,0-.4-6.89V413c.7-.69,1.43-1.35,2.1-2.08.85-.95,1.68-1.91,2.46-2.91a30.27,30.27,0,0,0,4.14-6.7,43.14,43.14,0,0,0,2.37-7.35,24.92,24.92,0,0,0,.47-8.12,64.56,64.56,0,0,0-1.34-7.7,32.64,32.64,0,0,0-2.57-7.36,49.49,49.49,0,0,0-3.88-6.59,45.78,45.78,0,0,0-3.4-4.09l.15-.17a43,43,0,0,0,2.88-3.44,10.69,10.69,0,0,0,2-8,15.58,15.58,0,0,0-1.79-4.85,29,29,0,0,0-3.63-5.35,57.06,57.06,0,0,0-4.36-4.44,48.57,48.57,0,0,0-5.43-4.48,61.7,61.7,0,0,0-6.67-4c-2.44-1.26-4.89-2.52-7.42-3.57a45.67,45.67,0,0,0-8.06-2.53c-.41-.09-.82-.16-1.23-.23l1.24-1.18a41.53,41.53,0,0,0,3.21-3.29,13.1,13.1,0,0,0,1.73-2.27,12,12,0,0,0,1-2.37,7,7,0,0,0,.2-1.77,6.39,6.39,0,0,0-3.6-5.54,24.35,24.35,0,0,0-3.6-1.44c-2.44-.82-4.89-1.6-7.32-2.44l.07,0c-2.64-.92-5.28-1.85-8-2.5a52.05,52.05,0,0,0-10.23-1.48,134.76,134.76,0,0,0-17.63.61,56.17,56.17,0,0,0-28.93,11,60.58,60.58,0,0,0-5.92,5,22,22,0,0,0-3,3.67l-.55-.3a41.31,41.31,0,0,0-13.85-3.68,52.92,52.92,0,0,0-7.23-.2c-2.29.14-4.61.3-6.89.64a20.07,20.07,0,0,0-4.39,1.12,9.67,9.67,0,0,0-5.09,5.22,20.78,20.78,0,0,0-1.18,9.76c.12,1.26.35,2.51.57,3.75-1.73.24-3.46.4-5.19.67-2.39.36-4.76.82-7.13,1.29-4.61.92-9.26,1.83-13.77,3.15a31.64,31.64,0,0,0-13,7.37c-3.29,3.19-5.59,7.41-7.7,11.45a55,55,0,0,0-3.08,6.87c-.86,2.38-1.62,4.79-2.36,7.21-.25.82-.51,1.66-.76,2.49-3.12.09-6.23.21-9.35.33-5.11.2-10.21.3-15.29.94-4.83.61-9.67,1.2-14.5,1.84-4.59.61-9.17,1.24-13.79,1.68-4.78.46-9.49,1.15-14.22,1.93-5.07.84-10.15,1.56-15.19,2.52-2.35.45-4.71.89-7,1.44s-4.76,1.3-7.11,2c-4.81,1.45-9.7,2.75-14.39,4.56l-1.73.67c-.24-.47-.5-.94-.78-1.39a21.54,21.54,0,0,0-3.57-4.45,43.67,43.67,0,0,0-4.52-3.47c-2.06-1.48-4.05-3-6.16-4.47-1.93-1.31-3.91-2.56-5.86-3.86a112.44,112.44,0,0,0-13.11-7.81c-4.38-2.12-9-3.38-13.63-4.94-2.43-.86-4.84-1.78-7.31-2.54-2.64-.81-5.33-1.47-8-2.1s-5.35-1.2-8.07-1.6c-2.53-.37-5.09-.68-7.61-1.17a46.88,46.88,0,0,1-4.74-1.3c-1.38-.49-2.76-1-4.18-1.37-1.84-.46-3.72-.68-5.59-1s-3.55-.7-5.33-1c-1.48-.26-3-.46-4.46-.74-.82-.18-1.65-.37-2.47-.58-2.4-.59-4.79-1.25-7.23-1.71-2-.38-4-.49-6-.69-2.42-.25-4.84-.56-7.27-.73a56.83,56.83,0,0,0-7.83,0,133.54,133.54,0,0,0-26.7,4.57c-4.52,1.27-9.06,2.5-13.57,3.78-2.32.66-4.6,1.41-6.88,2.15s-4.81,1.45-7.24,2.12-4.72,1.34-7.06,2.06a57.71,57.71,0,0,0-6.79,2.43c-4.24,1.92-8,4.62-11.81,7.21l.26-.18a78.59,78.59,0,0,0-12.18,10.27,91.57,91.57,0,0,0-9,11.58c-2.73,3.93-5.32,8-7.79,12.07a96.19,96.19,0,0,0-6.62,13.14,62.83,62.83,0,0,0-4.27,14.18,83.14,83.14,0,0,0-.58,14.88c.07,2.33.13,4.67.36,7s.63,4.67.93,7c.33,2.56.72,5.1,1.17,7.65s.87,5.1,1.53,7.6c1.13,4.4,2.9,8.63,4.46,12.9.24.72.44,1.45.61,2.19.19,1.08.29,2.16.45,3.25.13.93.32,1.86.51,2.77a1.42,1.42,0,0,1,0,.2l.06.28,0-.15c.45,2.38.74,4.8,1.39,7.13.84,3.06,1.62,6.14,2.55,9.17a64.46,64.46,0,0,0,3,8.32c.47,1,1,2,1.51,3a3.38,3.38,0,0,0-.23.63A39.49,39.49,0,0,0,217,532.42a47,47,0,0,0,.34,7.11,34.47,34.47,0,0,0,1.26,6.38c1.62,5.13,4.56,10.66,9.34,13.46a10.67,10.67,0,0,0,4.5,6.27,13.87,13.87,0,0,0,7.5,2.08,18.6,18.6,0,0,0,3-.25l.22-.05c.45.45.91.9,1.36,1.3a53.43,53.43,0,0,0,9.44,6.28,61.57,61.57,0,0,0,5.77,3,30,30,0,0,0,6,1.76l.13.13.9.72-.49-.42a17.5,17.5,0,0,0,4.13,2.83c1.41.67,2.86,1.24,4.34,1.78,1.66.62,3.36,1.19,5,1.83s3.21,1.27,4.87,1.75a73.92,73.92,0,0,0,12.09,2.31,25.59,25.59,0,0,0,.27,3.26c.36,2.71.9,5.41,1.38,8.1,1,5.76,2.33,11.46,3.55,17.18.79,4.12,1.4,8.28,1.95,12.45s1.09,8.12,1.57,12.2c.5,4.25.83,8.51,1.31,12.77.44,3.87.9,7.74,1.19,11.63.38,6,.66,12.08.8,18.13q.11,4.93.12,9.88c0,3.17.05,6.34-.14,9.5-.31,3.91-1,7.75-1.48,11.64a61.5,61.5,0,0,0-.6,7.42,21.91,21.91,0,0,0,1.42,7.81,30.26,30.26,0,0,0,2.74,5.11c.92,1.46,1.84,2.94,2.84,4.35,1.81,2.54,4,5.22,7.16,6.1a15.23,15.23,0,0,0,4.71.43l.4,0a13.3,13.3,0,0,0,4.27,2.88,6.81,6.81,0,0,0,2.6.52,7.76,7.76,0,0,0,5.91-2.94c.16-.19.32-.39.47-.59l.46.14a8.92,8.92,0,0,0,5.61-.33,8.68,8.68,0,0,0,4-3.32,23.65,23.65,0,0,0,2.55.94,35.45,35.45,0,0,0,6,1.15c1.62.16,3.3.32,4.95.32.32,0,.65,0,1,0a15.7,15.7,0,0,0,5.55-1.54c2.83-1.22,5.51-2.72,8.24-4.14s5.76-2.92,8.11-5.16a14,14,0,0,0,3.05-3.93,16.88,16.88,0,0,0,1.28-4.62,49.73,49.73,0,0,0,.24-10.63l.47-.54a12.46,12.46,0,0,0,1.66-2.9c.68-1.55,1.16-3.18,1.86-4.72l.1-.17.16-.13a8.92,8.92,0,0,0,1.13-.76,8.46,8.46,0,0,0,2.28-3,29,29,0,0,0,1.26-3.53c.81-2.56.83-5.24,1.28-7.85l.12-.42c.05.42.12.84.17,1.26.11.92.1,1.92.26,2.85,0,.11,0,.22,0,.33.06.94.12,1.89.17,2.83.06,1.38.14,2.78.08,4.16q-.08.72-.21,1.44c-.43,2-.89,3.91-1.18,5.9-.3,2.16-.49,4.32-.59,6.5-.16,3.49,0,7-.14,10.48,0,.2-.05.41-.08.61-.18.72-.4,1.43-.64,2.13-.51,1.41-1.06,2.81-1.7,4.17a64.64,64.64,0,0,0-2.92,5.9,41,41,0,0,0-2.16,8.38,37.19,37.19,0,0,0-.49,3.94,10.29,10.29,0,0,0,1,5,14.43,14.43,0,0,0,6.17,6.63,15.7,15.7,0,0,0,.11,4.49,9.86,9.86,0,0,0,2.53,5.35,7.11,7.11,0,0,0,3.48,2,6.84,6.84,0,0,0,4.43-.52,12.24,12.24,0,0,0,2.05-1.23,7.65,7.65,0,0,0,3.32,3.78,10.28,10.28,0,0,0,4.48,1.16c.21,0,.43,0,.64,0a13,13,0,0,0,7.05-2.35,6.39,6.39,0,0,0,.76.46,17.67,17.67,0,0,0,7.57,1.74A10.26,10.26,0,0,0,441.9,778a21.22,21.22,0,0,0,2.55-3.14l1,.32a14.74,14.74,0,0,0,5.07.56,29.55,29.55,0,0,0,10.72-3.51,48.91,48.91,0,0,0,6.75-4c1.86-1.35,3.72-2.72,5.53-4.14,1.6-1.25,3.14-2.57,4.67-3.91a43.16,43.16,0,0,0,3.77-3.76c.17-.19.35-.38.53-.56l0,0,.23-.13c.87-.39,1.79-.69,2.67-1.06,1.27-.53,2.5-1.13,3.73-1.76a23.08,23.08,0,0,0,4.32-2.82c1.48-1.24,3-2.49,4.36-3.86,2.35-2.37,4.67-5.2,5.43-8.53a25.21,25.21,0,0,0,.25-5.76l.13-.14a10.4,10.4,0,0,0,2.21-3.75,31.92,31.92,0,0,0,.94-4.73L507,723a44.45,44.45,0,0,0,5-4.84c1.39-1.61,2.68-3.29,4-5a49.7,49.7,0,0,0,3.35-4.93c.89-1.51,1.77-3,2.73-4.46a46.18,46.18,0,0,0,5.69-10.73,52.79,52.79,0,0,0,2.85-13.31,157.91,157.91,0,0,0,.08-26.81c-.47-5.14-1.08-10.28-1.54-15.42-.15-1.63-.28-3.26-.41-4.89,1.95-.7,3.86-1.52,5.78-2.35,5.46-2.36,11.16-4.15,16.61-6.55q6.36-2.79,12.75-5.5a149.26,149.26,0,0,0,13.65-6.47c3.31-1.8,6.52-3.75,9.78-5.63a41.71,41.71,0,0,0-.54,6.61c-.07,2.47-.12,5,0,7.42.16,2.78.39,5.55.82,8.3s1,5.27,1.57,7.87c1.17,4.94,2.59,9.82,4.19,14.63q1.25,3.71,2.59,7.36c.84,2.27,1.66,4.57,2.7,6.76,2.07,4.38,4.49,8.6,6.9,12.8,2.63,4.62,5.45,9.13,8.5,13.49.17.27.33.54.48.82s.4.88.57,1.33c.33,1.05.6,2.12.83,3.21.27,1.36.52,2.73.85,4.08a11.15,11.15,0,0,0,1.29,3.45,6.16,6.16,0,0,0,2.85,2.61,6.29,6.29,0,0,0,3.29.43l.07.12-.06-.13h0a23.7,23.7,0,0,0,2.55,4.32,9.28,9.28,0,0,0,9.57,3.12,14.94,14.94,0,0,0,4.87-2,11,11,0,0,0,3.27,3,7.16,7.16,0,0,0,7.25-.18h0a15.23,15.23,0,0,0,3.06,1.7,9.89,9.89,0,0,0,3.32.69h.17c.49,0,1-.06,1.48-.1,3-.17,6-.14,9-.47a33.82,33.82,0,0,0,10.2-3.19,69.78,69.78,0,0,0,9.42-5.31c1.39-.93,2.7-1.93,4-3,.7-.56,1.37-1.13,2-1.73l1.36,1.12q1.63,1.47,3.13,3.11l.41.52c.14.23.27.46.4.69s.23.54.34.82c.22.72.41,1.46.57,2.21.47,2.42.72,5,1.78,7.27a8.27,8.27,0,0,0,4.14,4.1,9.37,9.37,0,0,0,.87.36c.48,1.45,1,2.9,1.55,4.31,1,2.33,2.19,4.66,4.69,5.64,3.27,1.27,6.75-.39,9-2.79a11.53,11.53,0,0,0,5.56,2.6,8,8,0,0,0,5.79-1.49,24.41,24.41,0,0,0,6,3.31,8.17,8.17,0,0,0,2.66.45,8.39,8.39,0,0,0,4.24-1.17,5,5,0,0,0,2-2.13,4.87,4.87,0,0,0,1.32-.23,24.19,24.19,0,0,0,3.09-1.22,45,45,0,0,0,6.24-3.61,57.88,57.88,0,0,0,7.91-6.76,23.21,23.21,0,0,0,3.82-2.17l-.31.21c1.3-.87,2.65-1.65,3.93-2.55a13.58,13.58,0,0,0,3.71-4.06,83.23,83.23,0,0,0,4-7.6c.33-.61.67-1.2,1-1.79.19-.27.38-.53.59-.8s.63-.63,1-.93a68.86,68.86,0,0,0,5.22-4.74,22,22,0,0,0,4.27-6.76,43.15,43.15,0,0,0,2.47-8.11c.46-2.3.71-4.63,1.13-6.94.25-1.06.56-2.1.74-3.18a22.77,22.77,0,0,0,.31-4c0-2.48-.25-5-.16-7.43.06-.55.14-1.09.23-1.63s.33-1.26.53-1.87c.7-1.94,1.65-3.81,2.19-5.8A12.7,12.7,0,0,0,802.36,646ZM388.71,700.4a.49.49,0,0,1,0-.11.36.36,0,0,0,0,.11Zm287.44,3.89c-1.77.85-3.58,1.6-5.43,2.28-.61.2-1.22.38-1.84.54-.89.15-1.77.23-2.67.3-2.57.17-5.14.19-7.71.38-.39-.21-.76-.43-1.13-.66-1.48-1.08-2.82-2.48-4.62-3a5.6,5.6,0,0,0-4.44.69,10.63,10.63,0,0,0-2.41-3.47,5.66,5.66,0,0,0-6.35-.56,16.59,16.59,0,0,0-3.51,3.08l-.41.33-.36.22-.67.28-.23.06c-.38-.64-.72-1.3-1.06-2l.3.59c-1.21-2.42-2.49-5.13-5.14-6.25a6.44,6.44,0,0,0-2.21-.53,46,46,0,0,0-1.2-5.35,22.25,22.25,0,0,0-2.73-5.74l-1.47-2.14c-2.34-3.5-4.53-7.11-6.62-10.76-1.93-3.39-3.85-6.8-5.63-10.27A115.69,115.69,0,0,1,603.76,650a177.89,177.89,0,0,1-5.36-19,85.06,85.06,0,0,1-1.36-9.53,108.38,108.38,0,0,1,0-11.82c0-.39.06-.77.11-1.15a5.35,5.35,0,0,0-.52-3.9,5.18,5.18,0,0,0-2.66-2.2c.89-.48,1.79-1,2.67-1.46,2.15-1.2,4.21-2.55,6.29-3.87s4.4-2.78,6.55-4.24,4.08-3,6.09-4.62,3.93-2.92,5.87-4.41c2.1-1.61,4.18-3.24,6.29-4.84,2.4-1.83,4.75-3.72,7.11-5.6.25,1.58.49,3.17.67,4.77a4.84,4.84,0,0,0,2,3.31c.21,3.54.53,7.07,1,10.58.64,4.88,1.54,9.72,2.43,14.56,1,5.11,1.91,10.23,3.27,15.25a135.39,135.39,0,0,0,4.58,13.72c3.38,8.67,8.08,16.73,12.3,25,2.05,4.14,3.75,8.47,6,12.52a72,72,0,0,0,8.34,12.14c1.71,2,3.52,3.91,5.35,5.8,1.67,1.72,3.31,3.46,5,5.16l1.12,1.11c-1.2,1-2.44,2-3.72,2.86A76,76,0,0,1,676.15,704.29Zm116-55.6c-.69,1.85-1.48,3.65-2.1,5.52a22.88,22.88,0,0,0-1.11,6.08c-.14,2.93.23,5.86.12,8.79q-.07.76-.21,1.53c-.34,1.44-.7,2.85-.9,4.32-.25,1.74-.52,3.47-.85,5.2-.33,1.48-.74,2.93-1.21,4.37-.35,1-.74,1.89-1.17,2.82-.27.48-.54.95-.84,1.41s-.55.73-.84,1.08c-.71.74-1.46,1.44-2.23,2.12-.93.8-1.87,1.58-2.78,2.4a17.74,17.74,0,0,0-3.24,3.89c-1.19,1.93-2.11,4-3.1,6-.6,1.16-1.24,2.29-1.95,3.39l-.38.51-.26.25-.41.3c-1.29.83-2.58,1.65-3.85,2.5l.54-.36c-.47.31-.94.6-1.43.87a15.87,15.87,0,0,1-1.48.61c-.34.12-.69.23-1,.33h0a5.22,5.22,0,0,0-3.93,4c-1.49,1.27-3,2.5-4.62,3.62-.92.6-1.87,1.14-2.84,1.65-.65.32-1.31.63-2,.91h-.11a5.41,5.41,0,0,0-4,2.59,3.49,3.49,0,0,0-.19.39,5.27,5.27,0,0,0-1.23.25h0c-.54-.29-1.07-.61-1.58-.94-2-1.37-3.83-3-6.13-3.7a5.73,5.73,0,0,0-5.58,1.48,5.12,5.12,0,0,0-.44.49l-.37-.38c-.77-.93-1.47-1.92-2.3-2.79a5.5,5.5,0,0,0-5.95-1.21,7.07,7.07,0,0,0-3,2.64c-.25-.78-.5-1.57-.81-2.33a7,7,0,0,0-3-3.41,15.51,15.51,0,0,0-1.91-.86c-.08-.3-.15-.61-.22-.92-.71-3.71-1.23-7.49-3.37-10.7-2.57-3.87-6.5-6.57-10-9.57-2.38-2.17-4.65-4.47-6.88-6.8s-4.66-4.74-6.89-7.21a75,75,0,0,1-5.12-6.53c-1.49-2.3-2.85-4.68-4.12-7.12-1.94-4-3.64-8.06-5.69-12s-4.26-8-6.31-12.11c-1.23-2.44-2.47-4.89-3.53-7.42s-2.08-5.26-3-7.92a127.92,127.92,0,0,1-4.28-16,246.2,246.2,0,0,1-4.42-29.31c-.08-1.42-.14-2.84-.19-4.26a5.27,5.27,0,0,0-2.39-4.28c-.39-2.46-.8-4.93-1.1-7.4.32-.33.65-.66.95-1a5.32,5.32,0,0,0,1.49-3.6,5.09,5.09,0,0,0-8.68-3.59,47.82,47.82,0,0,1-3.59,3.53c-2.29,2-4.7,3.83-7,5.74s-4.6,3.6-6.93,5.38c-2.82,2.16-5.64,4.33-8.49,6.46s-5.45,4.34-8.32,6.32c-2.74,1.8-5.52,3.55-8.29,5.29-3,1.89-6.12,3.53-9.22,5.22-5.85,3.21-11.5,6.78-17.45,9.82-3.69,1.8-7.51,3.35-11.3,5s-7.34,3.24-11,4.8c-3.45,1.44-7,2.67-10.48,4-2.85,1.08-5.6,2.41-8.43,3.55a102.3,102.3,0,0,0-4.23-14.15A121.41,121.41,0,0,0,517,594.69a5.08,5.08,0,1,0-8.78,5.13l.51,1c1.11,2.27,2.05,4.61,3,7s2,4.85,2.85,7.31a109.93,109.93,0,0,1,2.93,10.89,5,5,0,0,0-1.19,3.2,5.09,5.09,0,0,0,2.28,4.21c.25,2.75.43,5.5.73,8.24.56,5.24,1.13,10.48,1.51,15.73a163.45,163.45,0,0,1-.22,19.92,66,66,0,0,1-.84,6.72c-.4,1.74-.85,3.44-1.38,5.14-.44,1.2-.93,2.36-1.48,3.52-.76,1.47-1.56,2.94-2.46,4.34s-1.89,2.78-2.75,4.23-1.54,2.64-2.37,3.93c-1.59,2.27-3.34,4.48-5.14,6.59-.78.86-1.58,1.7-2.44,2.49a15.68,15.68,0,0,0-3.73,3.85,10.83,10.83,0,0,0-1.37,4.14c-.09.66-.18,1.32-.29,2-.06.22-.11.44-.18.65a7.13,7.13,0,0,0-2.19,2.8,10.4,10.4,0,0,0-.67,3.49c0,1.36.09,2.73,0,4.09a1.37,1.37,0,0,1,0,.19c-.06.14-.12.28-.19.42-.16.29-.32.57-.49.85-.33.45-.67.88-1,1.3-.81.87-1.66,1.68-2.53,2.47-1,.9-2.08,1.79-3.18,2.61-.58.36-1.16.69-1.77,1-.83.41-1.68.81-2.54,1.17s-1.73.64-2.58,1a11.54,11.54,0,0,0-3,1.76,23.31,23.31,0,0,0-2.23,2.33,27.91,27.91,0,0,1-2.14,2.07c-1.52,1.33-3.06,2.65-4.67,3.88-2,1.54-4,3.1-6.12,4.53-1.33.86-2.71,1.62-4.12,2.35a39.59,39.59,0,0,1-3.76,1.69c-.84.27-1.68.5-2.53.69-.29.05-.59.1-.89.13h-.19l-.67-.1c-.3-.07-.6-.15-.89-.24-.84-.32-1.65-.69-2.51-1a6.39,6.39,0,0,0-6.1,1.06c-1.66,1.39-2.7,3.29-4.05,5l-.27.28h-.34c-.57,0-1.14-.12-1.71-.22,0-.28-.05-.57-.08-.86a5.87,5.87,0,0,0-2.12-4,5.22,5.22,0,0,0-6.82.42,8.37,8.37,0,0,0-1.58,2.45c-.15.28-.31.57-.48.84l-.07.1-.17.17-.69.51c-.25.16-.5.32-.76.47,0-.6,0-1.2,0-1.81a8.31,8.31,0,0,0-.88-4.45,5.6,5.6,0,0,0-7.09-2.29,12.61,12.61,0,0,0-3.31,2.47c.08-.28.17-.57.26-.85.4-1.07.83-2.12,1.31-3.15l.4-.74.09,0,.13-.06-.11.05a5.08,5.08,0,0,0-3.13-9.49,4.9,4.9,0,0,0-1.45.44h0l-.56.28.38-.19A9.22,9.22,0,0,0,402,754.5c-.18.33-.33.68-.5,1l-.17-.28-.19-.45a.76.76,0,0,1,0-.15,47.79,47.79,0,0,1,.73-4.75,32.73,32.73,0,0,1,.83-3.24c.41-1.11.89-2.2,1.4-3.27.83-1.6,1.73-3.15,2.43-4.83a30.15,30.15,0,0,0,2.47-7.67,52.8,52.8,0,0,0,.16-6.29c0-2.32,0-4.65.17-7a59.55,59.55,0,0,1,.82-6.4,33.69,33.69,0,0,0,1.13-7.33c0-2.29-.16-4.58-.31-6.88,0-.15,0-.31,0-.46a3.55,3.55,0,0,0,0-.46c-.21-2.48-.54-4.94-.9-7.41-.44-3-1-6-1.25-9.07a90.18,90.18,0,0,1,.13-10.78,57.05,57.05,0,0,1,.88-6.52c.64-3,1.49-6,2.11-9a17.45,17.45,0,0,0,.27-6.75,7.31,7.31,0,0,0-3.22-4.94,11.07,11.07,0,0,0-3.05-1.17c-2.37-.67-4.7-1.46-7-2.25-1.54-.56-3-1.16-4.52-1.87s-2.95-1.69-4.44-2.53-3.34-1.73-5-2.56c-.91-.47-1.79-1-2.65-1.51-.62-.43-1.22-.89-1.8-1.37-.37-.34-.73-.69-1.08-1.06s-.73-.91-1.08-1.39c-.2-.33-.4-.67-.58-1l-.05-.11a5.08,5.08,0,0,0-10,1.38c0,2,1.2,4,2.3,5.59a22.57,22.57,0,0,0,3.49,4,27,27,0,0,0,4.15,3.07c1.69,1,3.46,1.85,5.22,2.7s3.43,2,5.16,2.92a45.76,45.76,0,0,0,7,3.16q2.88,1,5.8,1.93c.43.14.87.27,1.31.39q-.11.89-.27,1.74c-.43,1.93-1,3.83-1.4,5.75a68.85,68.85,0,0,0-1.44,7.79c-.29,2.77-.41,5.55-.47,8.33,0,1.05,0,2.09,0,3.14a4.82,4.82,0,0,0-2.49,2.57c-.65,1.6-1.21,3.26-1.95,4.83a1.83,1.83,0,0,1-.13.16l.12-.13h0a15.86,15.86,0,0,0-3.39,6.21c-.65,2.43-.73,4.93-1.15,7.4-.2.83-.46,1.64-.73,2.45a1.86,1.86,0,0,1-.1.25,12.57,12.57,0,0,0-1.12.84A10.87,10.87,0,0,0,384.8,705c-.81,1.72-1.33,3.56-2.13,5.28l-.12.22-.05.07a11.37,11.37,0,0,0-2.14,3c-.76,1.65-.49,3.53-.34,5.3a48.46,48.46,0,0,1,0,5.39c-.06.83-.14,1.66-.28,2.48-.11.5-.24,1-.38,1.5l-.12.15c-.32.35-.65.7-1,1s-.76.58-1.16.85a49.42,49.42,0,0,1-4.45,2.47c-1.51.78-3,1.61-4.52,2.4a47.84,47.84,0,0,1-4.46,2l-.44.13h0c-.95,0-1.9,0-2.85-.11a40.65,40.65,0,0,1-4.26-.54c-.7-.16-1.41-.33-2.1-.55-1.56-.62-3.1-1.46-4.81-1.46a5.1,5.1,0,0,0-4.32,2.46,5.29,5.29,0,0,0-1.25.16,4.89,4.89,0,0,0-2.09,1.2l-.89-.66a5.76,5.76,0,0,0-5-1.1,5.83,5.83,0,0,0-3.75,3.34c-.17-.25-.34-.5-.53-.74a5.31,5.31,0,0,0-7.55-1l-.22.18-.39-.41c-.69-.81-1.34-1.67-1.95-2.55a68,68,0,0,1-3.54-5.83c-.14-.29-.26-.58-.38-.88s-.26-.88-.37-1.32-.17-1.11-.23-1.68c0-.84,0-1.69,0-2.53,0-.21,0-.42.05-.62.37-4.46,1.28-8.84,1.7-13.28.46-5,.43-9.93.4-14.91-.07-9.8-.39-19.62-1.15-29.39-.36-4.73-1.08-9.43-1.51-14.15-.47-5-1-10-1.68-15s-1.28-10-2.13-14.95-2-9.58-3-14.37c-.52-2.62-1-5.24-1.46-7.87-.43-2.45-.9-4.9-1.17-7.37.53,0,1.06,0,1.6,0l1.58,0a59.41,59.41,0,0,0,13.71-2c4.41-1.19,8.75-2.68,13-4.3a115.61,115.61,0,0,0,25.94-13.53,96.53,96.53,0,0,0,9.62-7.61,39.32,39.32,0,0,0,3.06-3.13,16.49,16.49,0,0,0,1.78-2.74,5.45,5.45,0,0,0,.32-.75,42.62,42.62,0,0,0,8.19-1.51,39,39,0,0,0,7.64-3.11c2.1-1.14,4.19-2.33,6.19-3.64a33.7,33.7,0,0,0,10.87-12.18,36.89,36.89,0,0,0,3-7.68A56.85,56.85,0,0,0,415,521c.3-2.36.44-4.75.56-7.13a23.26,23.26,0,0,0-.78-8,39.1,39.1,0,0,0-6.57-13,5.09,5.09,0,1,0-8.05,6.22c.43.54.84,1.09,1.23,1.66a27,27,0,0,1,1.38,2.39c.71,1.48,1.36,3,1.93,4.55.19.58.36,1.16.51,1.75s.15,1,.2,1.46a44.26,44.26,0,0,1-.1,4.46,65.91,65.91,0,0,1-.9,7.42,53.9,53.9,0,0,1-1.5,5.61c-.42,1.13-.87,2.25-1.38,3.34-.47.84-1,1.65-1.5,2.46q-1.23,1.72-2.61,3.33c-.46.48-.92.94-1.4,1.39s-1,.75-1.45,1.1c-2.23,1.43-4.52,2.77-6.86,4-1,.5-2.08.93-3.14,1.34a47.77,47.77,0,0,1-4.73,1.27c-1.41.26-2.82.44-4.25.56-2.57.11-5.14.05-7.71-.09a49.87,49.87,0,0,1-5.3-.68c-1.65-.39-3.27-.88-4.88-1.42-1.05-.38-2.09-.8-3.11-1.26-.51-.27-1-.56-1.51-.87-.69-.5-1.36-1-2-1.57-1.22-1.12-2.38-2.32-3.49-3.55-.8-1-1.56-1.92-2.27-2.93a40.79,40.79,0,0,1-2.21-3.77c-.5-1.07-1-2.15-1.37-3.26s-.6-2-.84-3a48.82,48.82,0,0,1-.67-5c-.38-6.92-.21-13.89-1.21-20.76a82.93,82.93,0,0,0-2.3-10.82c-.93-3.28-2.13-7.42-5.41-9.06-2.48-1.24-5.63.28-6.66,2.7a5.13,5.13,0,0,0,0,4,4.87,4.87,0,0,0,.8,1.28l0,.05.21.37c.27.61.51,1.21.74,1.83a72.84,72.84,0,0,1,1.83,7.08,81.39,81.39,0,0,1,1.22,9.32c.24,4,.38,8,.49,12a46.43,46.43,0,0,0,1.43,11,41.25,41.25,0,0,0,11.64,19,28.57,28.57,0,0,0,6.83,5,42.77,42.77,0,0,0,7.09,2.7,44.15,44.15,0,0,0,7.77,1.54l-.3.27a100.84,100.84,0,0,1-9.05,6.89,103.38,103.38,0,0,1-10.77,6.3,142.63,142.63,0,0,1-15.26,6.41,108.2,108.2,0,0,1-11.83,3.46c-1.86.34-3.73.56-5.62.72a84.07,84.07,0,0,1-21-1.54c-1-.22-2-.47-3-.75a44.07,44.07,0,0,0,6.18-2.1,29,29,0,0,0,6-3.32,10.27,10.27,0,0,0,3.08-3.44,5.28,5.28,0,0,0,.51-3.91,5.08,5.08,0,0,0-9.29-1.22c0,.07-.07.13-.1.19l-.05.05-.33.25c-.84.54-1.72,1-2.6,1.49a34.72,34.72,0,0,1-3.23,1.32,62.84,62.84,0,0,1-6.33,1.7c-1.63.3-3.26.54-4.91.69s-3,0-4.57-.06a47.26,47.26,0,0,1-5-.66c-.85-.19-1.68-.42-2.52-.67s-1.79-.73-2.66-1.14c-2.9-1.51-5.77-3.14-8.52-4.9-.5-.36-1-.73-1.46-1.11a10.37,10.37,0,0,0,1.09-6.6,14.75,14.75,0,0,0-1.12-4,14.29,14.29,0,0,0-3.17-4.38,13.82,13.82,0,0,0-4.2-2.56,12.73,12.73,0,0,0-4.36-.83,9.23,9.23,0,0,0-3.47.7,4.07,4.07,0,0,0-.5,0,5.26,5.26,0,0,0-2,.6,7.72,7.72,0,0,0-3.83,2.18c-.11.12-.21.24-.31.37-.17-.3-.35-.59-.51-.89a32.14,32.14,0,0,1-1.27-3c-.25-.77-.45-1.54-.63-2.33-.3-1.65-.52-3.3-.66-5a59.7,59.7,0,0,1,.1-7c.07-.93.17-1.87.33-2.79.13-.53.29-1.06.42-1.6a5,5,0,0,0,1.29-3.33c0-2.17-1.37-3.83-2.34-5.65-.73-1.53-1.42-3.07-2-4.67-.84-2.46-1.61-4.94-2.28-7.45-.62-2.3-1.32-4.6-1.86-6.93-.35-1.82-.62-3.66-1-5.49,0,.07,0,.14.05.21-.42-2.06-.6-4.16-1-6.21a13,13,0,0,1-.49-1.83c0-.19-.08-.38-.11-.57-1-3.34-2.4-6.59-3.59-9.88a53.67,53.67,0,0,1-1.5-5.56c-.69-3.43-1.31-6.9-1.75-10.37-.39-3.1-.92-6.19-1.17-9.31a125.45,125.45,0,0,1-.1-14.51,47.64,47.64,0,0,1,.6-4.78,64.82,64.82,0,0,1,1.95-6.79,94.27,94.27,0,0,1,4-9.43,156.44,156.44,0,0,1,9.53-15.79A117.35,117.35,0,0,1,234,386a78.65,78.65,0,0,1,6.07-5.9,58.21,58.21,0,0,1,5.4-4.24l4.53-3.06c1.48-1,3-1.94,4.55-2.78a42.75,42.75,0,0,1,4.07-1.72c3.44-1.17,6.95-2.2,10.47-3.13,4-1.07,7.93-2.44,11.92-3.64,3.65-1.09,7.35-2,11-3.07s7.27-2.11,11-2.91c3.16-.63,6.33-1.18,9.52-1.67,2.94-.45,5.95-.68,8.92-.88a50.82,50.82,0,0,1,5.52,0c2.38.19,4.74.48,7.12.73,2.06.21,4.13.36,6.17.73,3.47.77,6.87,1.82,10.39,2.42,4.1.69,8.2,1.41,12.3,2.11a32.79,32.79,0,0,1,3.21.95,49.18,49.18,0,0,0,4.74,1.5c1.67.4,3.36.75,5.05,1,3.13.5,6.28.86,9.39,1.48a124.66,124.66,0,0,1,12.93,3.38c2.07.74,4.14,1.51,6.23,2.21s4.21,1.34,6.3,2a57.82,57.82,0,0,1,5.67,2.42,99,99,0,0,1,9.21,5.45c2.65,1.77,5.34,3.52,8,5.3,1.69,1.19,3.32,2.46,5,3.67,1.2.87,2.44,1.69,3.58,2.62.38.36.76.73,1.11,1.12s.53.65.77,1a15,15,0,0,1,.76,1.35c.49,1,1,2,1.43,2.93a5,5,0,0,0,.17,1.27,4.84,4.84,0,0,0,1.68,2.53c.58,1.2,1.17,2.4,1.83,3.56.76,1.36,1.59,2.69,2.43,4,1.58,2.45,3.27,4.8,4.92,7.2.57.85,1,1.8,1.54,2.64a5.37,5.37,0,0,0,3,2.34,5.16,5.16,0,0,0,3.92-.51c2.28-1.33,3.38-4.66,1.83-6.95-.37-.55-.65-1.17-1-1.75s-.74-1.17-1.14-1.74c-.92-1.34-1.88-2.64-2.79-4l.36.54c-1.66-2.47-3.28-5-4.7-7.58.91-.36,1.82-.69,2.74-1,3.36-1.15,6.78-2.13,10.19-3.15s6.86-2.08,10.37-2.85c3.16-.64,6.33-1.25,9.52-1.77,2.54-.41,5.09-.77,7.63-1.18s5-.86,7.45-1.23c4.65-.69,9.34-1,14-1.59s9.13-1.23,13.71-1.8c5-.6,9.93-1.34,14.93-1.69,3.48-.2,7-.26,10.44-.4,2.49-.11,5-.17,7.47-.23.09.12.17.25.27.37a9,9,0,0,0,2.49,2.14,11.76,11.76,0,0,0,3.16,1.11,44.47,44.47,0,0,0,8.14.88c2.51.1,5,.06,7.51-.08s5.28-.27,7.92-.36l3.23-.12c-.22.65-.43,1.31-.62,2-.61,2.08-1.14,4.15-1.57,6.27a56.93,56.93,0,0,0-.8,5.84,29.76,29.76,0,0,0-.22,6.11c.24,2.17.92,4.49,2.75,5.86a8.12,8.12,0,0,0,2.79,1.39,5.61,5.61,0,0,0,1.48.19,9.1,9.1,0,0,0,1.29-.1c3.61-.49,6.38-3.41,8.82-5.88,2.79-2.81,5.57-5.59,8.53-8.23l.7-.62a5.33,5.33,0,0,0,1.93-3.33,5.09,5.09,0,0,0-8.15-4.71c-2.2,1.92-4.4,3.86-6.48,5.94-1.08,1.07-2.13,2.16-3.2,3.25.19-1.58.42-3.16.72-4.73s.84-3.33,1.34-5c.56-1.82,1.22-3.6,1.7-5.43a9.35,9.35,0,0,0,.25-3.57A6.87,6.87,0,0,0,610,379a6.37,6.37,0,0,0-3.88-2.82,25.84,25.84,0,0,0-6.28-.3c-6.91.18-13.83.84-20.75.45-1-.1-2.05-.21-3.07-.36.34-1.29.73-2.57,1.12-3.85.52-1.73,1.06-3.46,1.64-5.17a61.13,61.13,0,0,1,2.44-5.85c1.3-2.48,2.66-4.93,4.18-7.28.42-.61.86-1.2,1.33-1.79.39-.42.8-.81,1.22-1.2.72-.6,1.47-1.16,2.24-1.7s1.51-.92,2.29-1.35,1.85-.83,2.81-1.18c4.41-1.37,9-2.25,13.48-3.18l-.12,0,.16,0,.5-.1-.28.06c2.36-.47,4.73-.91,7.12-1.27s4.58-.48,6.83-1a10.07,10.07,0,0,0,5-2.54,7.51,7.51,0,0,0,2-6.23c-.21-2-.69-4-.91-6,0-.83,0-1.64,0-2.46,0-.41.1-.81.16-1.22,0-.12.07-.24.11-.36s.07-.19.11-.28l.06-.11.61-.16c2-.33,3.93-.51,5.91-.66a50.63,50.63,0,0,1,5.37,0c1.87.16,3.7.41,5.54.75,1.38.33,2.73.72,4.08,1.16.75.29,1.48.6,2.21.94.57.31,1.14.65,1.7,1,.81.61,1.58,1.33,2.45,1.87a5,5,0,0,0,1,.79,5.15,5.15,0,0,0,6.24-.83,5.2,5.2,0,0,0,1.51-3.69A4.94,4.94,0,0,0,666,322c.1-.25.21-.49.32-.74s.36-.63.55-.94l.58-.78c.6-.65,1.23-1.26,1.88-1.87a73.55,73.55,0,0,1,6.17-4.82c1.22-.79,2.45-1.54,3.73-2.23a71.52,71.52,0,0,1,6.85-2.83c1.72-.55,3.44-1,5.19-1.42a88.64,88.64,0,0,1,9-1.16,126,126,0,0,1,14.15-.21c1.64.15,3.26.37,4.89.66a76.83,76.83,0,0,1,8.87,2.59l-.44-.15c1.93.66,3.87,1.3,5.81,1.95-2.69,2.57-5.56,5-7.75,8a6.22,6.22,0,0,0-.92,6.35c1.06,2.26,3.29,3.32,5.64,3.76s4.81.6,7.21,1a50.91,50.91,0,0,1,5,1.39c2.29,1,4.53,2,6.76,3.1a73.28,73.28,0,0,1,6.39,3.66c1.19.84,2.33,1.71,3.44,2.65,1.62,1.44,3.2,2.94,4.68,4.53.59.7,1.14,1.43,1.67,2.18s.8,1.29,1.17,2c.18.38.34.76.5,1.14,0,.15.09.29.13.44l0,0-.15.24c-.44.6-.92,1.18-1.42,1.74-2,2.23-4.33,4.56-4.52,7.69-.2,3.4,2.61,5.92,4.73,8.26.74.87,1.42,1.77,2.09,2.69.71,1.11,1.37,2.24,2,3.4s1.09,2.41,1.55,3.65c.47,1.48.83,3,1.15,4.48.33,1.75.6,3.49.78,5.26,0,.64,0,1.26,0,1.9s-.17,1.19-.27,1.79c-.3,1.28-.65,2.55-1,3.81-.35.93-.72,1.84-1.13,2.75-.33.61-.67,1.21-1,1.81a45.22,45.22,0,0,1-2.83,3.66c-1.88,2-4.38,3.82-5,6.62a15.61,15.61,0,0,0-.17,5.28c.08.79.16,1.58.23,2.37s0,1.43,0,2.15-.14,1.2-.24,1.8-.31,1.16-.5,1.74c-.32.81-.67,1.61-1.06,2.4s-1,1.81-1.57,2.69c-2.4,3.43-4.78,6.89-7.47,10.12-2.88,3.46-5.61,7-8.52,10.46-1.52,1.68-3.09,3.29-4.76,4.81-.84.69-1.69,1.35-2.58,2-.53.33-1.07.65-1.62.95l-1,.43c-2.47.78-5.06,1.1-7.34,2.4a15.36,15.36,0,0,0-3.68,3.24c-.88,1-1.73,2-2.6,3a68.89,68.89,0,0,1-5,5.08c-1,.89-2.11,1.72-3.22,2.51s-2.41,1.49-3.66,2.15-2.72,1.2-4.12,1.71c-1,.32-2,.62-3,.87V478a5.09,5.09,0,1,0-10.17,0,31.26,31.26,0,0,0,0,3.49,8.81,8.81,0,0,0,.66,3.21,6.72,6.72,0,0,0,4.05,3.88,9.08,9.08,0,0,0,2.26.27,21.61,21.61,0,0,0,4.72-.69,44.09,44.09,0,0,0,10.44-3.73,45.41,45.41,0,0,0,9.32-6.47,79.72,79.72,0,0,0,7.21-7.61c.56-.63,1.13-1.23,1.74-1.81l.42-.32.19-.08c1.65-.47,3.33-.78,5-1.34a24,24,0,0,0,5.81-3.07c4.18-2.85,7.68-6.78,10.86-10.68,1.68-2.08,3.31-4.2,5-6.27s3.23-3.85,4.71-5.87L764,439l0,.07c1.63,3.06,3.32,6.08,4.91,9.17a101.47,101.47,0,0,1,4,9.52A228.94,228.94,0,0,1,780,484.55c.49,2.46.92,4.93,1.25,7.41.35,2.68.55,5.37.73,8.07v-.12c.37,6,.75,12,.52,18.05-.11,1.24-.29,2.47-.51,3.7-.46,2.13-1,4.25-1.57,6.34s-1.33,4.33-2,6.5a85.46,85.46,0,0,0-2.94,13.77c-.56,4.74-.92,9.52-1.15,14.28a120.8,120.8,0,0,0,.55,14.36c0-.23,0-.47,0-.69.06.88.12,1.76.17,2.64.31,5.17.62,10.35,1.24,15.5a111.34,111.34,0,0,0,2.88,15.14c1.39,5.25,3.57,10.24,5.55,15.29,1.84,4.69,3.64,9.38,5.32,14.13a63.85,63.85,0,0,1,2,6.9c.12.66.23,1.31.31,2v.2C792.27,648.22,792.2,648.46,792.12,648.69Z"/><path d="M622.3,685.47l0,.06c.11.16.23.32.33.48Z"/><path d="M660.34,443.33a5.25,5.25,0,0,0-3.79-1l-.64.05c-1,.05-2,.07-3,.05-.38,0-.76-.08-1.14-.14l-.24-.07-.28-.12-.32-.19-.38-.29c-.16-.15-.32-.3-.47-.46a4.63,4.63,0,0,1-.32-.42l-.26-.43c-.15-.32-.29-.65-.41-1s-.13-.44-.19-.67c-.51-2.94-.53-5.92-1.23-8.83a8,8,0,0,0-2-3.44,5.71,5.71,0,0,0-3.88-1.6c-2.25-.15-4.07,1.19-5.53,2.77a21.07,21.07,0,0,0-1.78,2.24c.06-2.73.18-5.47.35-8.2.15-2.18.28-4.37.58-6.53.1-.74.26-1.49.35-2.24s.3-1.23.4-1.86a5.08,5.08,0,1,0-10.07-1.37v.05l-.18.85a5.27,5.27,0,0,0-.2,1.05,103.93,103.93,0,0,0-1.17,12.09c-.26,4.78-.39,9.61-.36,14.4a31.16,31.16,0,0,0,.74,7.89,6.33,6.33,0,0,0,4.26,4.75,6.21,6.21,0,0,0,6.22-2,28.14,28.14,0,0,0,3.9-6.6,14.33,14.33,0,0,0,1,2.68,14.08,14.08,0,0,0,8.23,7.23,17.7,17.7,0,0,0,5.17.67c1.39,0,2.79-.1,4.16-.22a5.08,5.08,0,0,0,2.41-9.06Zm-9.62-1.57-.09-.1.13.12Z"/><path d="M275,503.06a5.08,5.08,0,0,0-4.72-8.14c-2.17.42-4.32.94-6.49,1.4-.28.05-.55.1-.83.13a43,43,0,0,1-4.68-.05c-.34,0-.67,0-1-.1-1.3-.32-2.57-.77-3.85-1.15-1.87-.54-3.74-1-5.58-1.66-1.09-.39-2.16-.81-3.2-1.3a33.26,33.26,0,0,1-3.1-1.84c-.72-.5-1.41-1-2.07-1.6a49,49,0,0,1-3.72-3.77,37.37,37.37,0,0,1-2.61-3.4c.12.19.24.37.37.55-.47-.7-.95-1.38-1.44-2.06a5.07,5.07,0,0,0-9.65,2.19,5.73,5.73,0,0,0,1.14,3.38c.26.35.53.69.78,1.05a46.51,46.51,0,0,0,3.48,4.65c1.28,1.45,2.62,2.82,4,4.14a5.26,5.26,0,0,0-1.56,4.45,5.72,5.72,0,0,0,.87,2.33,4.91,4.91,0,0,0,1.63,2.19,8.79,8.79,0,0,0,1.23.78c.43.33.88.63,1.33.92a4.71,4.71,0,0,0,3.13.65,8.75,8.75,0,0,0,1.72.23h.09a5.08,5.08,0,0,0,4.79-3.77c.17.05.33.12.5.18,2.28.74,4.61,1.33,6.89,2a21.62,21.62,0,0,0,3.34.88,24.4,24.4,0,0,0,3.52.24c.83,0,1.67,0,2.51,0a19.14,19.14,0,0,0,3.39-.25c1.83-.34,3.65-.82,5.47-1.22l1-.17A5.34,5.34,0,0,0,275,503.06Z"/><path d="M297.72,506.46a65.19,65.19,0,0,1-7,2.14c-.91.17-1.82.3-2.75.38a29.65,29.65,0,0,1-3,0c-.55,0-1.09-.11-1.64-.2a19.07,19.07,0,0,0-4.17-.72A5.09,5.09,0,0,0,279,518.2l.36,0a31.07,31.07,0,0,0,4.39.79q1.53.12,3.06.12a27.71,27.71,0,0,0,3.52-.21,51.2,51.2,0,0,0,10.08-2.69,5.37,5.37,0,0,0,3-2.33,5.09,5.09,0,0,0-5.75-7.47Z"/><path d="M399.92,172.44a5.13,5.13,0,0,0-6.25,3.56c-.06.22-.12.45-.19.67l-.16.39c-.61,1.14-1.29,2.23-2,3.31s-1.32,1.85-2,2.74c-.3.32-.61.63-.93.94l-.21.16c-.11-.1-.21-.21-.31-.31-.91-1.1-1.72-2.26-2.58-3.38a22.9,22.9,0,0,0-4.44-4.57,9.07,9.07,0,0,0-5.36-1.78c.35-7.12.46-14.25.83-21.37.14-1.78.26-3.57.56-5.33a5.09,5.09,0,0,0,.45-2.07,5.39,5.39,0,0,0-.71-2.62,5.17,5.17,0,0,0-5.09-2.47,5,5,0,0,0-3.36,1.93,8.1,8.1,0,0,0-1.36,3.75c-.24,1.49-.37,3-.49,4.47-.24,3-.35,6-.45,9-.19,5.56-.35,11.11-.65,16.66-.21,2.79-.45,5.58-.75,8.36a28.36,28.36,0,0,0-1.59,4.07,22.89,22.89,0,0,0-.79,5.06,12.3,12.3,0,0,0,1.05,6.46,4.88,4.88,0,0,0,4.32,2.47,5.36,5.36,0,0,0,3.67-1.45c1.29-1.22,1.6-2.88,1.91-4.55.16-.84.28-1.67.41-2.52.28-1.82.55-3.66.78-5.5.05-.34.09-.69.13-1,.36-.64.72-1.26,1.12-1.88l.42-.55.19.2c1.5,1.85,2.77,3.89,4.41,5.62a10.74,10.74,0,0,0,5.89,3.58,10.09,10.09,0,0,0,7.18-1.64,19.81,19.81,0,0,0,5.34-5.53c.71-1,1.45-2.07,2.1-3.14a22.34,22.34,0,0,0,2.5-5.47A5.13,5.13,0,0,0,399.92,172.44Z"/><path d="M382.77,239a4.87,4.87,0,0,0,.66,0,5.16,5.16,0,0,0,4.34-5.74c-.41-3.46-1-6.92-1.28-10.39a4.94,4.94,0,0,0,.09-1,5.13,5.13,0,0,0-5.08-5.08,5.22,5.22,0,0,0-5.14,4.58,22.67,22.67,0,0,0,.25,4.58c.35,2.88.74,5.76,1.09,8.65A5.12,5.12,0,0,0,382.77,239Z"/><path d="M388.06,259.32c-.1-2.54-.21-5.24-2.73-6.69a5.07,5.07,0,0,0-7.51,5.51l0,.22c0,.32,0,.64,0,1a5.09,5.09,0,0,0,10.17,0Z"/><circle cx="384.61" cy="284.35" r="5.08"/></g></svg>