<svg xmlns="http://www.w3.org/2000/svg" viewBox="0 0 1000 1000"><defs><style>.cls-1{opacity:0.2;}.cls-2{fill:#fff;}.cls-3{fill:#b9b7ad;}.cls-4{fill:#ebeae8;}.cls-5{fill:#f5f5f4;}.cls-6{fill:#e1e0dd;}</style></defs><g id="レイヤー_7" data-name="レイヤー 7"><path class="cls-1" d="M294.16,796.77c-9.59-.14-19.27-.41-28.75-1.95-7.09-1.23-14-3.45-20.91-5.44-4.06-1.26-8.19-2.53-12.27-3.73-3.53-1.07-7.27-2.17-10.13-4.61a10.44,10.44,0,0,1-3.45-11,19.35,19.35,0,0,1,4.09-7.66c3.87-4.41,9.29-6.88,14.65-9s10.91-3.94,16.37-5.75c3.43-1.21,19.46,1.14,22.9.65,12.51.07,25,.84,37.49,1.82a195.72,195.72,0,0,0,24.22-.05c6-.4,11.91-1.3,17.85-1.86,12.38-1.19,24.79-2.3,37.18-3.45,29-2.52,57.59-7.69,86.35-11.81a504.9,504.9,0,0,1,69.06-7.25c14.57-.56,29.12-1.77,43.65-2.83a172.41,172.41,0,0,1,44,2.8c12.09,2.74,24.26,5.4,36.21,8.72,7.79,2.44,16.32,4.4,22.52,10,4.86,4.54,4.58,10.06-.39,14.59a26.34,26.34,0,0,1-6.32,3.22c-3.73,1.54-7.57,2.9-11.36,4.26a135.72,135.72,0,0,1-26.78,6.87c-7.89,1.39-15.89,2.54-23.93,2a100.47,100.47,0,0,1-23.51-3.5c-5.18-1.48-10.09-3.82-15.27-5.29-10.27-3.41-21.09-4.5-31.78-5.82-14.42-1.51-29-1-43.43-.35-7.51.39-15.09.41-22.59,1-9.17.72-18.31,2.21-27.43,3.37A265.22,265.22,0,0,1,434.72,767c-12,.45-24.17.22-36.07,2.2a32.76,32.76,0,0,0-11.38,4c-6.53,4-12.23,9.38-19.21,12.67-4.62,2.35-9.76,3.39-14.74,4.72a140.11,140.11,0,0,1-27.23,4.19C315.47,795.64,304.82,796.79,294.16,796.77Z"/></g><g id="レイヤー_6" data-name="レイヤー 6"><path class="cls-2" d="M313.87,770.39a56.37,56.37,0,0,1-14.41-1.52,116.52,116.52,0,0,1-19-5.45c-6.5-2.91-12.27-7.23-18.37-10.85a98,98,0,0,1-8.79-5.35,57.62,57.62,0,0,1-9-8.18c-5.56-5.88-10.4-12.74-12.39-20.69-3-10.7-3.18-21.86-3-32.89-.05-8.87.11-17.76-.34-26.61-.43-10.59-3.35-20.84-4.47-31.35-.62-4.56-.83-9.16-1.22-13.74A38.18,38.18,0,0,0,221,606c-2-5.79-5.1-11.16-7.28-16.9a96.71,96.71,0,0,1-3.94-11.61c-1-3.34-2.09-6.67-2.9-10a100.72,100.72,0,0,1-2.52-17.28c-.21-3.72-.15-7.46-.39-11.17-.37-4-.41-8.69-3.24-11.91-2.45-2.58-5-5.07-7.32-7.79a60.74,60.74,0,0,1-5.06-6.79,89.24,89.24,0,0,1-4.92-10c-1.91-4.29-4.39-8.36-5.69-12.91-2.07-7.55-2-15.5-1.37-23.25.43-5.58,1-11.22,2.82-16.55,1.2-3.49,3.24-6.6,5-9.79A131.58,131.58,0,0,1,198,420.83a37,37,0,0,1,10-8.14c.56-.26.9-.61,1.44-.86l10-8.67a58.53,58.53,0,0,1,8.49-1.7c4-.38,8-.36,11.94-.47,8.14,0,16.31-.09,24.43.66a116.9,116.9,0,0,1,36.76,9c3.75,1.76,7.7,3.34,10.92,6a37.38,37.38,0,0,1,2.8,2.83,37.94,37.94,0,0,1,2.65,2.73,26.39,26.39,0,0,1,3.49,5.36c1,1.75,2.12,3.66,4,4.53a5.79,5.79,0,0,0,2.06.7,12.94,12.94,0,0,0,3.53-1,182.34,182.34,0,0,1,26-6.32c7-1.18,14-3,21.11-3.23a73.41,73.41,0,0,1,14.59.87,86.7,86.7,0,0,1,9.08,2.54c5.13,1.4,10.52.93,15.78,1.15s10.53.71,15.78,1.22c6.27.5,12.49,1.52,18.75,2.14,4.75.56,9.56.34,14.31.83,3.65.32,7.29,1,11,1,5.92-.21,11.71-1.62,17.45-3,5-1.32,9.89-3.23,14.93-4.49,7.64-2,15.37-3.58,23-5.58,2.78-.71,5.56-1.47,8.38-2a44.25,44.25,0,0,0,8.57-2.22,25,25,0,0,0,7.07-4.9,21,21,0,0,0,4.93-6.52c2.88-6.06,4-12.74,6.24-19,2-5.76,5.2-11,7.94-16.36,2.62-5.16,5-10.58,9-14.83,7.58-7.74,18-14.73,28.57-17.39,10.92-2.43,22.09.13,33,1.7a34,34,0,0,0,9.56.18,59.87,59.87,0,0,0,8-2.25c3.78-1.22,7.64-2.25,11.44-3.45a50.3,50.3,0,0,1,16.34-2.5,73.59,73.59,0,0,1,13.89,1.23c4.48.83,8.9,2,13.43,2.6,9.64,1.6,19.4,3.14,28.5,6.82,6,2.39,11.83,5.52,16.48,10,3.48,3.4,5.14,8.05,7.25,12.32,2,4.42,4.84,8.49,6.52,13.07,1.58,4.33,1.73,9,1.76,13.6a136.47,136.47,0,0,1-.72,14.58,135.66,135.66,0,0,0,.1,16.87c.16,3.59.65,7.18.56,10.78a63.46,63.46,0,0,1-2.45,14.4c-1.23,5.46-1.74,11.08-3.38,16.45a35.76,35.76,0,0,1-10.34,15.8,50.09,50.09,0,0,1-5.8,4.78c-2.22,1.42-4.73,2.33-7.06,3.55-4.18,2.19-8.17,4.74-12.3,7-2.34,1.37-4.8,2.56-7.15,3.92-2.24,1.59-2.79,4.47-3.35,7-1,8.94-3.69,17.57-5.45,26.37-.74,3.58-1.52,7.19-2.09,10.8A123.5,123.5,0,0,1,717,555.91a177.07,177.07,0,0,1-9.1,24.6c-2.25,4.72-4.37,9.54-6.35,14.39a62.47,62.47,0,0,0-3.55,11c-.52,3.07-.94,6.16-1.16,9.27a57.5,57.5,0,0,1-.72,8.29,9.3,9.3,0,0,1-1.24,3c-1.39,2-3.41,3.45-5,5.27a22,22,0,0,0-2.26,2.75,3,3,0,0,0-.59,2.77,62.67,62.67,0,0,1,2.48,8.47,48.54,48.54,0,0,1,.24,10.08c-.16,2.56-.72,5.07-.81,7.63-.46,6-.32,11.94-.48,17.91-.12,7.22-.52,14.51.39,21.69a81.11,81.11,0,0,0,2.32,11.77c1.31,4.73,3,9.41,3.71,14.28s1.85,13.12-2.58,16.5a32.43,32.43,0,0,1-7.89,3.85,59.28,59.28,0,0,1-12.18,3.28c-7.11.85-14,2.94-21.07,4a37.89,37.89,0,0,1-13.27-1.34c-14.29-3.74-20.47-14-29-24.79-6.12-7.56-12.56-14.95-17.8-23.17-6.18-10.5-11.66-21.45-18.95-31.26-4.25-5.67-8.57-11.49-14.14-15.94-8.09-6.61-19.32-7.17-29.26-5.6-4.83.9-9.5,2.49-14.26,3.68a57,57,0,0,1-15.53,2.06c-9.91-.28-19.83-.4-29.74-.87a94.19,94.19,0,0,1-22.25-4.05c-2.8-.82-5.57-1.82-8.43-2.42-3.46-.79-7-1.06-10.51-1.58a35.45,35.45,0,0,1-12.12-3.86c-2.36-1.31-4.56-2.91-6.92-4.22a44.25,44.25,0,0,0-5.7-2.69c-1.26-.54-2.52-1.11-3.8-1.62a7.43,7.43,0,0,0-3.27-.63c-1.36.43-2.19,1.88-2.69,3.24a37.44,37.44,0,0,0-1.43,6.46c-.5,3.24-.94,6.51-1.57,9.73-1.64,9.49-2.08,19.18-4.13,28.61-1.21,5.58-3.79,10.75-5.26,16.25-.46,2-1.09,4-1.69,6-.5,1.84-.86,3.73-1.28,5.58-.68,2.83-1.09,5.74-1.68,8.59-1,4-1.76,8-2.83,11.93-1.05,3.44-1.45,7.1-2.9,10.41A22.49,22.49,0,0,1,368.2,749c-1,1.49-2.13,3-3.1,4.51a26.43,26.43,0,0,1-6.44,8,24,24,0,0,1-6.77,2.91c-1.81.56-3.67,1.06-5.42,1.79a43.7,43.7,0,0,1-7.72,2.87c-3.79.78-7.71.67-11.56.81C322.76,770,318.31,770.41,313.87,770.39Z"/></g><g id="レイヤー_5" data-name="レイヤー 5"><path class="cls-3" d="M304,779.7a28.8,28.8,0,0,1-7.41-1.34,23.58,23.58,0,0,1-4.2-1.56c-2.87-1.46-5.41-3.51-8.36-4.84-2.39-1.11-4.64-2.55-7.12-3.51-2.84-1.06-5.9-1.44-8.7-2.62h0a76.51,76.51,0,0,0-8.73-2.24,22,22,0,0,1-7.56-3.87c-2.22-1.68-4.34-3.53-6.59-5.17-2-1.53-4.2-2.88-5.71-4.94a41.35,41.35,0,0,1-4.08-6.38,28.53,28.53,0,0,0-2.47-4.42c-1.93-2.57-4.12-5-6.18-7.42a19.18,19.18,0,0,1-3.41-5.11c-1.1-2.62-1.56-5.45-2.45-8.15-1.52-4.66-3-9.41-3.19-14.36a86.62,86.62,0,0,1,.7-12.57c.67-4.15,1.63-8.27,2.65-12.35.9-3.39,1.66-6.82,2.54-10.21s2-6.8,2.62-10.26c1.44-5.83.68-11.89,0-17.77a85.1,85.1,0,0,0-2.53-12.77c-1.36-4.58-2.51-9.35-2-14.16.87-8.08,7.39-17.29,11.14-24.29,1.85-.23,3.68.37,5.5.61a73.91,73.91,0,0,0,8.39.9,108.28,108.28,0,0,1,11.23.93,32.24,32.24,0,0,1,7.23,1.41c3.37,1.26,8.68,3.76,7.41,8.18-.94,2.82-3,5-4.62,7.45a42.84,42.84,0,0,0-5.1,11.56c-2.68,9.45-.4,19.32.17,28.9a29.12,29.12,0,0,1-1.09,9.24,51,51,0,0,1-2.22,5.5,38.46,38.46,0,0,0-2.65,7.6c-.88,4.38-1.61,8.82-2.16,13.26-.56,5.38-1.45,10.77-1.61,16.18a64.9,64.9,0,0,0,.92,9.93,52.85,52.85,0,0,0,2.5,10.54c1.15,3.12,2.78,6.67,6.3,7.55,1.36.31,2.77.5,4.12.87a7.45,7.45,0,0,1,4.63,2.9c1.8,3,2.93,6.31,4.48,9.4,2.73,5.53,6.5,11.57,12.8,13.32a41.07,41.07,0,0,0,8.57,1,23.74,23.74,0,0,1,5.33.15c5.76,1.28,10.85,10.15,17.3,7.2,4.81-2.2,3.75-7.3,4.28-11.64.31-2,.59-9.8,3.5-9.53a3.41,3.41,0,0,1,1.86,1.59,29.06,29.06,0,0,1,1.93,3.28c1.79,3.43,3.48,7.12,6.48,9.67,3.92,3.42,6.11-1,9.86-1.87a23.48,23.48,0,0,0,6.31-1.85,13.53,13.53,0,0,0,4.3-3.41c1.5-1.77,3.32-3.23,4.95-4.87a37.67,37.67,0,0,0,2.93-3.74c.4-.57.8-1.15,1.22-1.7.36-.34.71-1,1.27-.82h0a1.05,1.05,0,0,1,.52.34c.8,1.16.48,2.66.26,4-.26,1.51-.65,3-1,4.53-.69,3.2-1.14,6.52-2.89,9.36a10.15,10.15,0,0,1-2.14,2.89c-1,.77-2.17,1.31-3.14,2.11a21.52,21.52,0,0,0-3.74,4.49,21,21,0,0,1-3,3.36,10.44,10.44,0,0,1-3.39,2.39c-1.27.45-2.61.71-3.88,1.17a39.28,39.28,0,0,1-5.4,1.69,31.55,31.55,0,0,1-4.18.74,40.34,40.34,0,0,1-4.26,0,71.1,71.1,0,0,0-7.72.23,123.82,123.82,0,0,0-13.79,2.26A56.21,56.21,0,0,1,304,779.7Z"/><path class="cls-4" d="M656.88,766.21c-3.81,0-7.62-.65-11.44-.45-5.06.23-10.89,1-15-2.63h0c-3.54-2.79-7-5.66-10.66-8.34v0c-2.24-1.6-4.63-3-6.9-4.56a39.71,39.71,0,0,0-5.18-2.88,20.61,20.61,0,0,0-4.09-1.11l-.14-.18-.19.08a13.66,13.66,0,0,1-6.26-3.41c-1.79-1.9-3.48-3.9-5.29-5.78-9.14-9.45-11.26-15.77-11.58-28.77a102.55,102.55,0,0,0-2.82-19.16c-1.25-4-2.75-8-4.34-11.85-3.89-8.66-8.05-19.54-18.12-22.3l-.19-.17c-.94.11-1.93-.11-2.88,0a16.08,16.08,0,0,0-3.4.83c-2.75.8-5.73,2.53-8.62,1.43l-.17-.2-.22.07-.18-.21-.22.07c-2.09-.9-4.33-.16-6.43.33l-.21-.09-.12.17c-1.09.26-2.19.51-3.29.71-4.09.76-8.28.86-12.38,1.59-3,.5-5.92,1.37-8.94,1.65a42.4,42.4,0,0,1-9.07-.45,25.49,25.49,0,0,1-7.85-2.43c-2-1-3.81-2.3-5.88-3.11a11.17,11.17,0,0,0-4.79-1c-.66,0-1.34.15-2,.25-.42,0-.88.27-1.29.11l-.19.17c-3.85.81-7.54,2.3-11.39,3.14a27.27,27.27,0,0,1-14.53-1.22c-3.72-1.28-6.77-3.93-10.45-5.27-4.94-1.45-10.2-1-15.23-2a36.31,36.31,0,0,1-8.53-2.44c-4.82-1.82-9.4-4.67-14.66-5-2-.1-4.95-.48-5.87,1.83-1.4,3.75-2.13,7.73-3.32,11.56-.71,3.13-1.05,6.34-1.74,9.47-1.23,6.45-3.45,12.66-5.26,19-.94,3.58-2.21,7.1-3.2,10.67a60.46,60.46,0,0,1-2.91,10.74c-.83,2-1.21,4.33-2.62,6h-.23c-.57-.63-.27-1.62-.33-2.4,0-1.4.08-2.82.15-4.22.17-2.65.33-5.33.57-8a55.57,55.57,0,0,0,.55-6.31,39.36,39.36,0,0,0-1.29-9.4,57.05,57.05,0,0,1-2-7.16,14.94,14.94,0,0,1,3-12.25c1.22-1.76,3.13-2.8,4.9-3.89a7.87,7.87,0,0,0,2.69-2.66c.84-2.15.7-4.53,1-6.8.32-3.94,1.27-8,1-11.9-.64-7.8-1.1-15.71.5-23.44.91-4,2-8.28,4.79-11.49,3.71-3.87,9.45-1.69,14-.78,7.61,2,14.54,2.65,19.38-4.67,3.48-5.19,5.16-13,11.91-14.89,3.31-1,6.75,0,9.86,1.22,5.5,1.81,9.83,5.77,13.58,10,2.39,2.64,4.65,5.51,6.83,8.33,1.13,1.44,2.3,3,3.56,4.33.74.7,1.65,1.6,2.74,1.53s1.34-1.51,1.81-2.32c1-1.87,1.76-4.18,3.67-5.32,1.35-.73,2.74-.08,3.84.78s2.4,1.73,3.59,2.53c4.2,3.12,10.31,4.63,14.76,1.18,4.49-3.23,7.45-8.14,9.9-13,1.29-2.17,2.94-7.2,6.1-6.51a10.28,10.28,0,0,1,3.36,2.8,79.52,79.52,0,0,1,4.87,6.63c2.8,3.77,7.13,11.25,12.7,8,3.24-1.79,5.31-5,6.9-8.25,2.09-4,3.72-8.37,6.08-12.27.79-1.29,2.14-3,3.86-2.45,2.59,1.37,3.53,4.74,3.85,7.47.34,3.3.37,6.67.86,10s1.67,8.28,6,6.31a42.76,42.76,0,0,0,3.77-3c3.94-3.08,7.68-6.58,12.12-8.95,3.45-1.61,10-3.45,12.42.55,1.38,3.27-.35,6.72-1.58,9.75-2,4.22-4.42,8.24-6.45,12.43a139,139,0,0,0-5.61,13.61c-2.14,5.7-4.15,11.89-3.25,18,1,4.81,3,9.77,7,12.83,2.56,2,6.66,2.4,8,5.67.57,1.93.31,4,.48,6,.58,7.77.26,17.78,6.4,23.46,5.81,5.19,13,1.29,17.29,9.62,1.34,2.42,1.64,5.25,1.84,8s.48,5.6,1,8.34a23.57,23.57,0,0,0,10.33,16c4.1,2.57,8.13,5.49,12.75,7.07,2.57.81,5.35.94,7.92,1.76,3.49,1.06,6.86,2.65,10.4,3.56a70.69,70.69,0,0,0,9.39,1.42c3.05.29,6.31.79,9.25-.32,4.39-1.77,3.92-7.4,3.66-11.32-.54-5.86-3.22-11.15-5.87-16.3-2.11-4.06-.65-8.58.33-12.73,2.27-8.66.09-14.48-2.24-22.68-2.13-7.14-4.08-14.34-6.45-21.41-1.24-3.51-2.33-7.09-3.31-10.68-1.36-4.24-1.81-8.42-.09-12.62,1.22-3.43,3.27-6.65,3.58-10.34.07-2.24-.36-4.47-.35-6.71,0-6.26,3-10.08,7.24-14.26,4.55-4.63,10.32-11.7,6.65-18.38a18.89,18.89,0,0,0-7.54-8.09,84,84,0,0,0-8.06-3.57c-2.14-.88-4.47-2-5.53-4.17-1.51-3-.09-6.64,2-9,1.67-1.83,4.07-3.08,5.22-5.35s-.73-4.74-2.57-6h0c-4.49-2.77-12.18-.7-13.89-7.14-.73-2.94-1.09-6-2-8.88a70.93,70.93,0,0,0-3.78-8.9c-2.58-5.62-6-10.85-8.51-16.51-1.92-4.68-1.52-9.94-.36-14.76,2.77-.63,13.69-3.79,16.33-3.22,11.84-.27,23.71.38,35.54-.14,7.89-.13,16,0,23.53-2.61,4.73-1,17.08-8.71,17.55.3a35.53,35.53,0,0,1-.57,8.61,55.07,55.07,0,0,1-1.64,7.52c-.67,2.33-1.38,4.65-2,7s-1,4.89-1.48,7.33c-.28,1.71-.55,3.44-.67,5.17-.11,2.06-.09,4.13-.27,6.18a48.77,48.77,0,0,1-.75,6.27c-.26,1.06-.26,2.53-.78,3.43.13.28,0,.61-.07.9l-.18.17.1.19a38.8,38.8,0,0,1-3.85,10.32c-1.55,3-3,6-4.51,9a81.68,81.68,0,0,0-3.91,8.7c-1.1,2.42-2.26,4.82-3.2,7.3-1.83,4.18-3.47,8.45-5.14,12.69-1.37,4.22-2.66,8.48-3.73,12.78l-.15.14c-.13,2.57-.55,5.2-.13,7.79.59,4.16.78,6.79-2,10.29-.75,1-1.87,1.7-2.55,2.77a9.41,9.41,0,0,0-1.07,2.4c-.17.41-.13,1-.45,1.29a26,26,0,0,1-.36,3.19c-.22,1.79-.27,3.61-.32,5.41-.27,5.5-.49,11.06.47,16.51.69,5.27,2.85,10.16,4.15,15.28a104.15,104.15,0,0,1,2.72,12.83,59.65,59.65,0,0,1-1.5,17.36c-.59,3.38-1.45,7.19.26,10.37a10.06,10.06,0,0,0,2.33,2.32c3.41,2.81,8.29,4.6,9.76,9.14.54,2.08.44,4.28.83,6.39.49,3.09,2.24,5.79,3.44,8.64,1,2.25,2.08,4.57,2.05,7.06a14,14,0,0,1-.75,5,28.48,28.48,0,0,1-2,3.65c-3.08,5.57-4.68,7.63-11.15,9.08l-.21-.08-.11.16a15.81,15.81,0,0,1-6.44.58c-1.43-.25-2.8-.88-4.25-1-2.85-.47-5.77,0-8.64-.22-1.74-.12-3.48-.41-5.22-.47a18.27,18.27,0,0,0-4.36.54c-2.32.66-4.53,1.65-6.83,2.35C662.73,765.33,659.85,766.24,656.88,766.21Z"/><path class="cls-5" d="M699.86,421.46c-4.47-.08-8.47-2.37-11.57-5.48-3.5-3.17-5-8-5.18-12.6A23.65,23.65,0,0,1,686,392.24a22.26,22.26,0,0,1,12.06-11.08c3.22-1.33,6.65-2.56,10.18-2.45,5.65.33,11.48,1.17,16.29,4.35,2.51,1.48,4.8,3.44,7.61,4.31,4.37,1.31,6.08-1.65,9.23-3.8a40.37,40.37,0,0,1,4.45-2.6c.22-.37,13.1-4.63,13.72-4.88,5.45,2.61,7.86,8.55,6.64,14.33a20.8,20.8,0,0,1-1.66,5.83,8.88,8.88,0,0,1-2.43,3.56l-.14.09a8.19,8.19,0,0,1-3.94,1.84,13.84,13.84,0,0,1-6.06-1.5c-3.23-1.58-6.23-3.57-9.49-5.09-2-1-4.19-2.3-6.52-1.65s-4.21,2.11-6.07,3.58c-4.59,3.61-8.49,8-12.58,12.13C712.41,414.25,707.56,421.32,699.86,421.46Z"/></g><g id="レイヤー_4" data-name="レイヤー 4"><path class="cls-6" d="M253.65,740.29c-.5-.17-.62-.88-.83-1.31-.25-.66-.51-1.32-.74-2-.62-1.75-1.33-3.47-2-5.21-2.08-5.31-3.87-10.74-5.5-16.21-.67-2.45-1.16-5-1.84-7.42a13.2,13.2,0,0,0-2.72-4.93,7.14,7.14,0,0,0-4-2.73c-3.48-.83-6,1.21-7.33,4.28a22.94,22.94,0,0,0-2.82,11.09c0,2.69,1.43,14.08-1.79,6.65a46.58,46.58,0,0,1-2.66-10.07,53.53,53.53,0,0,1-.89-7.57,46.1,46.1,0,0,1,.88-5.93c.59-3.21,1.17-6.46,2-9.61,1.31-5.72,4.92-10.38,8.26-15,4-5.53,4.11-8.54,4-15.08.06-5.57.21-11.18.72-16.74.55-6.8,1.05-14.43-2.82-20.42-2-3-4.81-5.42-6.68-8.53-1.51-2.36-1.73-5.26-3-7.72a37.77,37.77,0,0,0-3.6-5q-2.16-2.68-4.16-5.5a42.37,42.37,0,0,1-6.62-13.71c-2.89-10.75-2.3-22-3.57-33a82.14,82.14,0,0,0-1.74-9.62,29.76,29.76,0,0,0-2.21-6.66,16.51,16.51,0,0,0-2.75-3.43,9.34,9.34,0,0,1-2.09-6c.11-2.51.55-5.61,2.86-7.05a12.46,12.46,0,0,1,3.8-.64,27.32,27.32,0,0,0,10.44-2.89c1.93-1.06,4.13-2.29,5-4.45.84-2.5,1.25-5.14,2.2-7.61a15.21,15.21,0,0,1,4.05-6c3.14-2.9,4.53-1.6,8-.17a17.76,17.76,0,0,0,10,.59,15.71,15.71,0,0,0,8.6-4.24A10.09,10.09,0,0,0,255,485a26.71,26.71,0,0,0,.9-6.65c-.08-4.78-1.68-9.38-2.6-14-1.81-8.12-1.68-17,4.11-23.59,2.33-2.84,5.34-5.65,9.14-6.06,8.59-.31,16.13,4.64,24.25,6.59,4,.81,7.91-2,10.18-5.1,1.43-2.19,1.8-4.88,2.29-7.39.67-3.77,1.4-7.6,2.33-11.31.06-.41,12.54,3.56,12.68,3.46a11.83,11.83,0,0,1,.88,5.13,30.77,30.77,0,0,1-.56,5.82,30.24,30.24,0,0,1-3.53,9,48.61,48.61,0,0,1-5.89,6.93,36.94,36.94,0,0,1-7.72,5c-3,1.62-6,3.33-9.09,4.81a74.89,74.89,0,0,0-7.59,4,20.35,20.35,0,0,0-5.53,4.16,49.47,49.47,0,0,0-4.79,6.94A88,88,0,0,0,267,487.2c-1,2.4-1.16,5-2,7.44a19.63,19.63,0,0,1-3,5c-2,2.6-4.35,4.92-6.32,7.54-3.9,5.16-7.83,10.41-10.57,16.3-1.88,3.85-3.32,7.91-5,11.84s-3.53,8-4.43,12.27a48,48,0,0,0,2.75,30.24c1.85,4.35,3.91,8.75,7.06,12.34a23.22,23.22,0,0,0,9.86,6.63c2.44.81,5,1.27,7.43,2.11s6.82,2.62,5.84,6a10.72,10.72,0,0,1-2.62,2.8,25.19,25.19,0,0,0-4.35,4.7c-2.95,4.21-1.86,9.63-.6,14.25a33.07,33.07,0,0,1,1.22,7.53,52.6,52.6,0,0,1,0,10c-.58,5.72-2.22,11.27-3.55,16.85-1.61,6.36-3.62,12.63-5.25,19-1.25,5.63-2.84,11.23-3.74,16.93a77.19,77.19,0,0,0,1.57,26.32c.79,3.78,1.62,7.59,2.26,11.39a36,36,0,0,1,.46,3.74C253.88,739,254.15,739.84,253.65,740.29Z"/><path class="cls-6" d="M703.38,561.15c-.86,0-1.52-.83-2.07-1.4-.72-.84-1.37-1.76-2.06-2.64a36.84,36.84,0,0,0-7-7.12c-1.65-1.24-3.29-2.51-4.86-3.85s-3.25-2.86-3.47-5a32.52,32.52,0,0,1,1.1-7,17.92,17.92,0,0,0,.74-5.33,16.67,16.67,0,0,0-.73-3.64,5,5,0,0,0-1.93-2.94,2.5,2.5,0,0,0-2.13-.38c-.4.1-.69.59-1.07.65a.27.27,0,0,1-.1.34c-1.07,1.74-1.75,3.71-2.79,5.47-1.57,2.67-2.48.8-3.35-1.08s-1.84-4-2.83-5.91c-2.25-4.35-5.35-9-10.38-10.22-2.57-.73-5.73-1.61-8.09.09h-.21c-.28.55-.82,1-1.06,1.56a10.57,10.57,0,0,0-.82,3.32,78,78,0,0,0-.08,8.65c0,1.71.4,9.42-2.11,9.1-.68-.38-.94-1.2-1.32-1.83-.66-1.23-1.28-2.55-1.85-3.82-2.09-4.77-3.81-9.74-5.84-14.52-1.31-3-2.55-6.26-4.69-8.83a20.56,20.56,0,0,0-9.23-6c-3.07-.93-6.31-1.22-9.35-2.26a84.73,84.73,0,0,1-14.09-6.24c-3.72-2-7.64-3.7-11-6.23a53.68,53.68,0,0,1-12.4-14.65c-6.1-10.12-11.2-21.48-10.57-33.55a56.82,56.82,0,0,1,1.87-12.31c.83-3.14,2.15-6.16,3-9.3a34.48,34.48,0,0,0,1.22-10.36c-.4-11,1.47-14.37,12.52-16.93,2.62,2.6,6.91,6.28,9.16,9.2a48.18,48.18,0,0,1,10.19,21.23c.81,3.86,1.21,7.83,2.2,11.66a39,39,0,0,0,3.27,8.17c2.57,4.69,5.62,9.36,9.81,12.75,3,2.33,7.13,2.29,10.7,1.55a63.31,63.31,0,0,0,7.42-2.09c2-.65,5-1.83,5.38,1.28.52,3.93-.45,8,.8,11.91,1.36,5.17,7.54,5.45,11.73,3.74a64.29,64.29,0,0,0,6.21-2.69c.9-.42,1.83-.88,2.76-1.24a2.13,2.13,0,0,1,2.29.05v0c1.8,2,2.16,4.86,3.28,7.23,1.9,4.48,4,4.82,8.5,4.43a7,7,0,0,1,6.06,2.3,47.35,47.35,0,0,0,4.44,4.84c2.68,2.23,6.26,3.08,9.68,3.3a31.25,31.25,0,0,0,10-.91,16.93,16.93,0,0,0,7-3.07l.24,0,.06-.21a8.22,8.22,0,0,0,2.28-2.31,5.62,5.62,0,0,0-.23-4c-.87-2.11-2.83-3.48-4.25-5.21a31.18,31.18,0,0,1-5-7.86c-1.32-3-2.62-6.2-2.68-9.54a14.88,14.88,0,0,1,1.84-6.07c1.71-3.26,4.49-5.8,6.57-8.81,2.41-3.2,6.22-10.18,10.82-9.57,3.34.7,6.21,2.82,9.54,3.55a5.85,5.85,0,0,0,1.77.1c.42,0,.87-.25,1.28-.13l.11-.15c3.89-1.11,5.21-4.19,5.37-7.95.37-3.49.3-8.07,3.76-10,4.32-2.11,9.32-.74,13.52,1,5.33,2.42,7.55,5.17,9.5,10.6,2.22,5.14,1.91,10.74,1.41,16.18-.58,9.37-3.12,15.94-8.31,23.7-1.24,1.82-2.55,3.61-3.81,5.43a11.37,11.37,0,0,0-2.07,4.16c.1,3.13,1.17,6.52-.63,9.39a36.82,36.82,0,0,1-10.63,10c-3,1.73-6.43,2.51-9.72,3.49-3.48,1.09-7.15,1.88-10.43,3.5a1.58,1.58,0,0,1,.13.6h0a20.71,20.71,0,0,1-.09,4.31,15.34,15.34,0,0,1-1.27,5.83c-1.18,2.19-2.57,4.28-3.87,6.4h0a16.28,16.28,0,0,1-4.57,5.36c-1.73,1.45-3.78,2.62-5,4.54a26.78,26.78,0,0,0-3.83,11.84c-.26,5.84,1.31,19.06-4.58,22.23h0A3.21,3.21,0,0,1,703.38,561.15Z"/><path class="cls-3" d="M583.86,739.85c-11.3.39-12.86-8.89-16-17.42a35.35,35.35,0,0,0-8.07-11.8,63.46,63.46,0,0,1-4.62-4.66c-3-4-4-9.1-5-13.92-.82-4.54-1.63-9.12-2.1-13.71-.36-4.1-.42-8.25-1.29-12.29-1.19-7.57-5.65-9.61-12.77-9.93-7.08-.67-14,1.47-20.87,2.54a164.46,164.46,0,0,1-22.62,1.41,122.93,122.93,0,0,1-12.86-.91c-4.52-.34-9.07-.09-13.59-.55a67.89,67.89,0,0,1-11.28-2.18c-2.24-.53-4.52-.94-6.75-1.53-2.88-.74-5.7-1.75-8.58-2.5-9.33-2.45-18.87-4.43-27.61-8.65-2.5-.45-10.3-8.35-12.22-9.78a138,138,0,0,1-2-15.55c-.31-3.48.51-8.6,5-5.25,4.26,3.44,5.74,9.25,10,12.64,1.53,1.14,3.55,2.15,5.48,1.54,5.81-2.18,4.32-15.83,5.24-21.05.34-2.3,3-2.87,4.95-2.75,1.54.26,3.44,1,4.16,2.46a66.73,66.73,0,0,1,3,6.93c2,4.88,1.49,10.32,0,15.27-.31,1.28-.94,2.62-.61,4,1.15,3.22,5.46,3.57,8.39,3.93,6.79.29,12.24,1.6,10.45-7.58a28.54,28.54,0,0,0-4.92-10.84c-3-4.4-9.43-9.77-6.91-15.6,1.51-3.86,5.71-8.5,10-5.41a18.23,18.23,0,0,1,6.69,8.17c1.5,3.83,1.34,8.09,2.63,12,.76,1.92,2.57,8.08,5.4,6.69,2.49-1.53,3.3-4.67,4.41-7.2.52-1.09.76-2.41,1.65-3.28,1.26-.87,2.91.16,3.91,1,3.32,3.32,3.65,8.32,4.51,12.7,1,5,1.08,11,5.25,14.62,8,5.79,13.39-.35,14.26-8.62.44-3.27.54-6.62.65-9.91,0-1.12.05-2.28.15-3.4a2.63,2.63,0,0,1,.9-2.19c4.72-2.29,6.67,9.22,8.08,12.12,1.88,5.1,4.92,3.93,7.09-.15,1-1.91,1.85-4,2.7-6a9.47,9.47,0,0,1,1.46-2.78c1.1-1,2.71-.52,3.94,0a13.77,13.77,0,0,1,5.92,5.06c1.3,1.64,2.19,3.7,3.82,5,2.6,1.3,4.51-3.34,5.2-5.22,1.38-3.66,1.5-7.86,3.83-11.12a25.7,25.7,0,0,1,2.9-2.91,33.68,33.68,0,0,1,4.14-3.18,53.81,53.81,0,0,1,13.27-7.19c3.2-.94,6.78-1.29,9.88.19a14,14,0,0,1,6.25,6.33c1.5,2.77.31,5.44-1.26,7.87a38,38,0,0,0-5.86,12.57c-1.12,4.91-1.9,9.89-2.81,14.84-1.77,7-2,13.08.06,20a83.62,83.62,0,0,0,7.4,18.13c2.18,3.5,5.07,6.65,6,10.76,1.58,6.4.14,13.11,1.57,19.53,1,4.68,2.76,9.14,4.35,13.63a83.25,83.25,0,0,1,3,8A5.91,5.91,0,0,1,589.8,738,9.53,9.53,0,0,1,583.86,739.85Z"/><path class="cls-3" d="M690.6,661.46c-1-2.54-2-5.11-3-7.66h0a27.51,27.51,0,0,0-4.9-7.38c-2-2.57-14.87-14.83-9-17.17,3.11-.81,6.28.19,9.16,1.34,3.91,1.55,8,1.87,11.08-1.53,1.29-1.34,1.21-3.25,1-5a47.17,47.17,0,0,0-1.21-7,76.6,76.6,0,0,0-3-8.16c-1-2.46-2.17-5-2.27-7.69a4.33,4.33,0,0,1,.86-3,3.52,3.52,0,0,1,3.14-1.06c1.78.8,2.92,2.57,4.44,3.75.18,4.5,1.91,15.13,1.31,19.45a18.92,18.92,0,0,1-1.76,5.47,19.46,19.46,0,0,1-2.51,4.41c-.79,1.06-1.57,2.16-2.43,3.16a5.78,5.78,0,0,0-1.82,3.06c.11,1.41.7,2.77.68,4.21,0,2.7-.36,5.39-.41,8.09,0,2.89.24,5.79.46,8.66.1.94.22,1.93.36,2.86C690.68,660.66,691.14,661.78,690.6,661.46Z"/><path class="cls-3" d="M698.58,763.89c-2.35-.16-6.22-.29-6.54-3.29a8.15,8.15,0,0,1,1.86-3.47,83.12,83.12,0,0,1,5.73-7c1.32-1.57,3.13-2.6,4.65-3.94a9.71,9.71,0,0,0,1.8-3,14.85,14.85,0,0,0,1.06-9.29,41.45,41.45,0,0,0-4.91-13.07,42,42,0,0,0-4.45-6.5c-1.44-1.78-3.21-3.29-4.5-5.18-.86-1.26-.7-2.85-.66-4.3.09-1.9.31-3.8.58-5.68.57-4,1.28-8,1.47-12.1.14-3.46.63.82.65,1.74.34,4.13.11,8.27.57,12.39.28,3.22.61,6.72,2.52,9.43h0v.16c.32.4.53.92.83,1.33a.67.67,0,0,1,.09.14A133.3,133.3,0,0,0,707.12,724c1.2,1.66,2.64,3.16,3.73,4.9a17.65,17.65,0,0,1,2.13,6.41,87.26,87.26,0,0,0,1.68,8.64c.73,2.84,1.7,5.86,1,8.79a12.14,12.14,0,0,1-2.48,4.94,23.55,23.55,0,0,1-3.66,2.4,37.62,37.62,0,0,1-6.71,3A12.1,12.1,0,0,1,698.58,763.89Z"/></g><g id="レイヤー_3" data-name="レイヤー 3"><path d="M717.46,388.41a9.09,9.09,0,0,0-2.47-3.23,5.09,5.09,0,0,0-5.93-.22,19.4,19.4,0,0,0-3.3,3.17q-1.66,1.75-3.43,3.41A70.67,70.67,0,0,0,697,397c-1,1.11-2.26,2.12-2.67,3.63a4.25,4.25,0,0,0,2.4,5,5.55,5.55,0,0,0,2.21.43l.44,0a14.18,14.18,0,0,0,5.83-2c1.39-.76,2.79-1.52,4.21-2.25a35,35,0,0,1,3.34-1.39c.24-.08.49-.15.74-.21a9.39,9.39,0,0,0,1.54-.39,4.26,4.26,0,0,0,1.45-1,4,4,0,0,0,2.84-3.75v-.23A16.29,16.29,0,0,0,717.46,388.41Z"/><path d="M749.11,395.27a4.09,4.09,0,0,0,2.29.69,4.64,4.64,0,0,0,4.19-2.78,9.57,9.57,0,0,0,.65-2.67,18.57,18.57,0,0,0,.33-3.56,4.91,4.91,0,0,0-2.37-4.19,5,5,0,0,0-5.5.47,5.35,5.35,0,0,0-1.41,1.81,4.17,4.17,0,0,0-.79,1.69,14,14,0,0,0-.39,3.29,6,6,0,0,0,1.17,3.69A7.81,7.81,0,0,0,749.11,395.27Z"/><path d="M646.28,427a4,4,0,0,0-5.48.71,29.14,29.14,0,0,0-4.59,7.65c-1.12,2.64-2.06,5.35-3.3,7.95-.77,1.5-1.62,3-2.53,4.39-.41.57-.84,1.13-1.29,1.67-.87.94-1.78,1.83-2.72,2.69-.6.52-1.22,1-1.85,1.47-.27.16-.54.32-.82.47-.67.31-1.36.58-2.05.83-1.11.36-2.23.67-3.37.92s-2.15.35-3.24.45c-.57,0-1.13,0-1.7,0-1.06-.11-2.1-.27-3.14-.47-1.57-.36-3.1-.78-4.62-1.29l-1.55-.64c-.4-.22-.79-.44-1.18-.68s-1-.78-1.54-1.2c-.72-.67-1.4-1.37-2.07-2.1a42.08,42.08,0,0,1-2.84-3.66c-1.1-1.71-2.13-3.48-3.19-5.22s-2.06-3.37-3-5.11c-.4-.83-.77-1.66-1.09-2.52,0-.12-.08-.23-.11-.35a3.91,3.91,0,0,0-7.78.55,8.72,8.72,0,0,0,.76,3.08c.35.88.74,1.73,1.16,2.58.8,1.63,1.74,3.18,2.68,4.74a86.75,86.75,0,0,0,5.83,9.06,37.82,37.82,0,0,0,3.64,4.06,21.34,21.34,0,0,0,4.36,3.31,32.14,32.14,0,0,0,6,2.33,37.06,37.06,0,0,0,5.28,1.13,29,29,0,0,0,3.46.22,22.85,22.85,0,0,0,3.18-.21,36,36,0,0,0,4.93-1,22.91,22.91,0,0,0,5.64-2.3,28.21,28.21,0,0,0,5.07-4.12,29.34,29.34,0,0,0,4-4.88,46,46,0,0,0,2.81-5c1.56-3.26,2.65-6.71,4.22-10a22.9,22.9,0,0,1,1.26-2.13,22.16,22.16,0,0,1,1.45-1.9A3.94,3.94,0,0,0,646.28,427Z"/><path d="M565.39,617.54c.05,0,.12,0,.18-.07l.2-.12Z"/><polygon points="724.26 501.89 724.26 501.89 724.26 501.89 724.26 501.89"/><path d="M782.7,419.53a3.83,3.83,0,0,0,.29-2,15.61,15.61,0,0,0-3-7.53c-.17-.22-.38-.42-.56-.64.13-.19.27-.38.38-.58a20.7,20.7,0,0,0,2.51-7.66,64.29,64.29,0,0,0,.13-8.67,56.15,56.15,0,0,0-.79-8.88,103,103,0,0,0-2.54-10.4,66.51,66.51,0,0,0-3.87-10.33,41.6,41.6,0,0,0-3.09-5.38,30.29,30.29,0,0,0-3.31-3.94c-1.3-1.33-2.65-2.63-4.06-3.86a28.89,28.89,0,0,0-2.41-1.88,4.89,4.89,0,0,0-.6-.41L759.84,346a20.4,20.4,0,0,0-4.52-2.75,8.35,8.35,0,0,0-1.16-.32,4.52,4.52,0,0,0-.87-1.46,8,8,0,0,0-2.86-1.76c-1.58-.71-3.18-1.42-4.8-2a115.14,115.14,0,0,0-11.5-3.45c-7.7-2-15.45-3.75-23.25-5.25-1.73-.33-3.47-.7-5.22-.88-2-.19-4-.31-6-.36a102,102,0,0,0-12,.22c-1.9.17-3.83.26-5.7.59s-3.95.76-5.9,1.26c-3.16.82-6.26,1.86-9.35,2.94l.07,0a53.16,53.16,0,0,1-5.37,1.57c-.32.06-.65.11-1,.14h-.53l-.41-.06-.22-.05-.64-.28a48.86,48.86,0,0,0-10.1-3.69,35.83,35.83,0,0,0-5.56-1c-1.91-.16-3.84-.26-5.76-.35a63.21,63.21,0,0,0-11.51.06,44.24,44.24,0,0,0-10.86,3.17c-1.84.78-3.65,1.6-5.46,2.46l-1.31.65c-.69.29-1.36.68-2,1s-1.56.78-2.32,1.19a70.16,70.16,0,0,0-9.79,6.13,84.22,84.22,0,0,0-9.12,8c-1.47,1.51-2.94,3.05-4.35,4.63a37,37,0,0,0-4.06,5,34.73,34.73,0,0,0-2.49,5.09c-.77,1.85-1.52,3.71-2.19,5.59s-1.28,3.63-2,5.43c-.36.94-.7,1.87-1,2.82-.14.39-.29.79-.4,1.18s-.38,1-.56,1.57c-1.23,3.56-2.32,7.17-3.54,10.74-.76,2.21-1.58,4.41-2.38,6.61s-1.52,4.3-2.52,6.35c-.22.43-.45.85-.7,1.25l-.09.11a1.09,1.09,0,0,1-.17.13c-.71.46-1.45.89-2.2,1.29l-.44.21a4.16,4.16,0,0,0-1.69,1.43,103,103,0,0,0-11.29,3.62c-2.4.92-4.83,1.78-7.25,2.63-2.63.91-5.22,1.93-7.84,2.87a100.5,100.5,0,0,1-10.82,2.95c-7.21,1.4-14.55,1.91-21.85,2.62-7.14.7-14.3,1.24-21.45,1.73-3.86.23-7.71.2-11.57.07s-7.78-.31-11.65-.56c-2.57-.18-5.12-.44-7.68-.66s-5.16-.35-7.74-.51A164.84,164.84,0,0,1,414.74,423c-3.18-.68-6.3-1.53-9.48-2.21s-6.4-1.15-9.63-1.57a46.59,46.59,0,0,0-6-.41c-1.85,0-3.71,0-5.56,0-3.86,0-7.73.09-11.58.33-2.12.13-4.24.3-6.34.6-1.84.27-3.67.49-5.52.65s-3.82.28-5.71.59l-.21,0a4.05,4.05,0,0,0-3.6-.83c-1.18.29-2.35.57-3.54.82-1.37.27-2.76.47-4.15.66-1.56.21-3.1.51-4.64.84l.17,0-.26.06-.25.05.2,0c-2,.4-4.12.71-6.13,1.26a38.76,38.76,0,0,0-6.06,2.44c-.89.43-1.79.85-2.67,1.31-.11-.62-.22-1.24-.38-1.84a21.7,21.7,0,0,0-2.11-5.42,20.12,20.12,0,0,0-1.7-2.51,17,17,0,0,0-1.9-2.16,51.68,51.68,0,0,0-4.73-3.73c-1.57-1.14-3.16-2.27-4.82-3.28-3.32-2-6.89-3.54-10.37-5.26a68.87,68.87,0,0,0-8.75-4.2,36.78,36.78,0,0,0-5.17-1.37c-1.37-.27-2.74-.45-4.11-.68a74.14,74.14,0,0,0-8.65-1.12c-2.69-.13-5.38-.24-8.06-.41-1.67-.12-3.34-.24-5-.3-4-.15-8.05.16-12.05.35a72.63,72.63,0,0,0-11.49,1.34c-1.8.38-3.6.8-5.36,1.33s-3.49,1.21-5.22,1.88c-2,.77-3.92,1.56-5.82,2.49-1.68.81-3.32,1.71-5,2.56-2.48,1.2-5.09,2.07-7.58,3.24-1.35.63-2.67,1.32-4,2a22.35,22.35,0,0,0-3.7,2.29,23.6,23.6,0,0,0-5.24,6.19,16.38,16.38,0,0,0-2.11,5.93,14.76,14.76,0,0,0-4.54,3.68,40.6,40.6,0,0,0-3.13,3.91,55.74,55.74,0,0,0-5.44,9,57.32,57.32,0,0,0-4.8,20.75c-.24,4-.29,8.12-.26,12.17a63.87,63.87,0,0,0,1,12.2,58,58,0,0,0,3.53,12c1.65,3.8,3.62,7.45,5.58,11.1a57.56,57.56,0,0,0,6.27,9.62,60.87,60.87,0,0,0,8.27,8.41,31.46,31.46,0,0,0,4.85,3.15l.15.08a8.21,8.21,0,0,0-.51,1.82c-.35,1.77-.5,3.59-.69,5.38-.39,3.72-.63,7.46-.7,11.2,0,2-.07,4,.08,5.92a32.16,32.16,0,0,0,1,5.93c1,3.7,2.12,7.37,3.19,11.06,1.1,3.84,2.25,7.69,3.66,11.44,1.33,3.5,3.05,6.81,4.62,10.21a78,78,0,0,0,5.15,9.84c.38.59.78,1.15,1.18,1.71a3.93,3.93,0,0,0-1.62,3.14c0,2.24-.06,4.49-.07,6.74a60.71,60.71,0,0,0,.54,8.63,65.81,65.81,0,0,0,1.74,9c.84,2.92,1.78,5.79,2.43,8.76a60.56,60.56,0,0,1,.93,7.23,54.68,54.68,0,0,1,.09,5.58,57.41,57.41,0,0,1-.8,6.55c-.52,2.26-1.23,4.48-1.9,6.71s-1.32,4.42-2.05,6.61a86.33,86.33,0,0,0-3.07,8.84,76.47,76.47,0,0,0-1.56,9.52,32.83,32.83,0,0,0,.22,10.09c.31,1.59.67,3.17,1.1,4.74s.89,3,1.24,4.47a36.54,36.54,0,0,1,.53,3.9c.08,1.55.06,3.1.08,4.64,0,1,0,2,.13,3a13.76,13.76,0,0,0,1.76,5.6,21,21,0,0,0,5.74,6.46c1.34,1,2.74,1.87,4.12,2.79l-.09-.06.2.14.22.14-.14-.09,1.06.76.06.22c0,.2.06.4.08.59,0,1.3-.08,2.59.06,3.89a9.53,9.53,0,0,0,2.76,5.12,16.64,16.64,0,0,0,5.42,3.47l.33.19.16.12.17.18q.24.3.45.6a15.5,15.5,0,0,0,2.29,3.05,28.5,28.5,0,0,0,3.05,2.4,54.82,54.82,0,0,0,7,4.51,18.19,18.19,0,0,0,4.07,1.65,17.38,17.38,0,0,0,3.93.41h.69c2-.06,3.88-.3,5.83-.5a3.35,3.35,0,0,0,1.14-.34c.9.53,1.8,1,2.7,1.54,1.48.82,3,1.65,4.55,2.32,2.62,1.14,5.42,1.92,8,3.14l.31.19c.37.27.73.56,1.08.86.61.54,1.19,1.1,1.75,1.7.38.46.74.93,1.09,1.43,1.14,1.74,2.18,3.48,4.18,4.39a11.9,11.9,0,0,0,4.5.87H296c1.45,0,2.9-.21,4.33-.35,1.71-.15,3.41-.38,5.11-.51,2.43-.15,4.88-.18,7.32-.21s4.84-.1,7.27-.27l-.53,0c2.21-.15,4.43-.17,6.65-.21,2.62,0,5.26-.11,7.88,0,2.12.15,4.24.4,6.37.54a15.09,15.09,0,0,0,4.45-.14,20.08,20.08,0,0,0,2.19-.73,6.88,6.88,0,0,0,3.16-2.08c1.18-1.44,1.69-3.22,2.49-4.87a1,1,0,0,1,0-.1c.15-.28.3-.55.46-.81l.06-.07.2-.21a25.38,25.38,0,0,1,2.08-1.49l0,0c.6-.4,1.2-.8,1.83-1.15l.34-.14.73-.2c.85-.14,1.7-.2,2.56-.31a16.41,16.41,0,0,0,3.23-.8,12.49,12.49,0,0,0,2.53-1.14,8.84,8.84,0,0,0,3.36-4.43,20.69,20.69,0,0,0,1.22-7.23,46.47,46.47,0,0,0-.42-5.13,8.5,8.5,0,0,0,3.12-3.15,27.12,27.12,0,0,0,2.25-6.72c.42-2.07.55-4.18.9-6.26.25-1.55.33-3.12.62-4.66.37-1.72.72-3.46,1.06-5.19a40.94,40.94,0,0,1,1.09-4.19c.52-1.42,1.09-2.82,1.54-4.27.38-1.25.77-2.5,1.19-3.74.32-.85.64-1.7,1-2.53a15.85,15.85,0,0,0,1.1-2.82c.42-1.71.62-3.48.95-5.21,0,.07,0,.13,0,.2l0-.22.06-.29a2,2,0,0,1-.05.24,62.07,62.07,0,0,0,1.19-6.34c.23-2.05.36-4.1.57-6.15.15-1.53.35-3.06.46-4.6a2.83,2.83,0,0,0,0-.29c0-.23,0-.47,0-.7.07-1.49,0-3,.12-4.47.06-.71.16-1.41.29-2.12s.35-1.46.59-2.18a49.93,49.93,0,0,1,2.2-4.76c.94-1.77,2.07-3.44,3-5.23a38.21,38.21,0,0,0,2-5.23,44.48,44.48,0,0,0,1.41-5.33,72.21,72.21,0,0,0,1-9.51c.74.41,1.48.79,2.24,1.15a77.27,77.27,0,0,0,8.17,3.07c1.93.68,3.83,1.45,5.74,2.19s4,1.54,6,2.33c2.22.86,4.47,1.68,6.75,2.38,2,.61,4,1.1,6,1.62s3.92,1.08,5.88,1.63,3.83,1,5.76,1.47c3.79.94,7.59,1.79,11.41,2.59a114.27,114.27,0,0,0,11.32,1.91c3.9.41,7.83.47,11.75.55,2.51.05,5,.08,7.54.08l3.42,0c3.7-.05,7.39-.4,11.08-.52,4.06-.13,8.12-.21,12.18-.49,1.84-.12,3.67-.27,5.51-.46s3.53-.57,5.29-.93c2.25-.45,4.51-.81,6.74-1.37,2-.5,4-1.07,5.93-1.68l.57-.18c.57,1.67,1.16,3.32,1.75,5,.14.44.26.88.36,1.34a42,42,0,0,1,.46,4.48,29.26,29.26,0,0,0,.74,5.18,9.77,9.77,0,0,0,1.58,3.69,3.6,3.6,0,0,0,.78.73c0,.23,0,.45,0,.68.15,2.76.29,5.53.48,8.29.14,2.19.3,4.37.58,6.54a20.94,20.94,0,0,0,2.37,7.55c2.45,4.44,7.13,6.62,11,9.6l.11.11a1.09,1.09,0,0,1,.13.17c.18.29.35.58.52.88.37.79.7,1.59,1,2.41s.63,1.89.88,2.86.47,2,.74,3A27.16,27.16,0,0,0,564,727l-.15-.32c0,.11.11.22.16.34l.06.11,0-.1c.63,1.3,1.21,2.63,1.9,3.91A17.4,17.4,0,0,0,569,735a20.47,20.47,0,0,0,8.36,4.81,32.51,32.51,0,0,0,9,1.38c1.94,0,3.86-.35,5.78-.51a6.77,6.77,0,0,0,.82-.11c.27.47.53,1,.81,1.42a25.89,25.89,0,0,0,7.28,8c3.21,2.2,7,3.07,10.51,4.72,2.4,1.24,4.81,2.54,7.08,4,.54.38,1.07.78,1.58,1.21.28.26.55.54.82.82.53.64,1,1.31,1.55,1.94a21.2,21.2,0,0,0,3.08,3.13c2.93,2.35,6.57,3.39,10.16,4.28a33.2,33.2,0,0,0,5.79.89c.49,0,1,0,1.47,0,1.41,0,2.82-.11,4.23-.25,2-.19,4-.42,6-.56,1.82-.12,3.64-.26,5.45-.44s3.72-.27,5.55-.6,3.95-.76,5.92-1.17c2.49-.5,5-.85,7.51-1.35h0c2.47-.49,4.95-.92,7.39-1.53,1.15-.29,2.28-.6,3.4-1a16.65,16.65,0,0,0,4,2.68,13.31,13.31,0,0,0,4.66,1.07c.57.05,1.14.07,1.71.07a24.39,24.39,0,0,0,7.23-1.15c2.48-.78,4.9-1.89,6.27-4.22a20.1,20.1,0,0,0,1.53-3.17,4.61,4.61,0,0,0,.13-.46,12.19,12.19,0,0,0,2.26-.67,6.57,6.57,0,0,0,3.57-3.4,8.53,8.53,0,0,0,.71-4,23,23,0,0,0-.93-5.65,13.62,13.62,0,0,0-3.13-5.34,8.55,8.55,0,0,0-2.2-1.72l-.08,0a17.09,17.09,0,0,0,.24-6.87,25,25,0,0,0-5-10.71c-1.09-1.37-2.38-2.58-3.53-3.9a44.4,44.4,0,0,0-4-4,23.23,23.23,0,0,0-4.64-3.23l-.8-.41c.23-.61.46-1.22.67-1.83a19.38,19.38,0,0,0,1-5.28,58.92,58.92,0,0,0-.19-9,94.26,94.26,0,0,0-1.89-9.55,102.69,102.69,0,0,1-1.69-11c-.11-1.92-.09-3.82,0-5.73a58.54,58.54,0,0,0,.12-5.92,41.45,41.45,0,0,0-.92-6.48c-.38-1.65-.92-3.25-1.3-4.9,0-.16-.05-.32-.07-.48v-.12s0-.1,0-.15l0-.11s.05-.11.08-.17a18.16,18.16,0,0,0,1.17-2.28,8.07,8.07,0,0,0,.07-6.05,18.31,18.31,0,0,0-1.89-3.26c-.52-.73-1.1-1.43-1.65-2.16,1.25-.36,2.51-.72,3.74-1.12a13.06,13.06,0,0,0,5.68-3.36,8.58,8.58,0,0,0,2.32-3.89,8.8,8.8,0,0,0,0-4.5c-.52-1.58-1.3-3.06-1.88-4.62-.14-.43-.27-.87-.38-1.32s-.1-.64-.14-1c0-1,0-2,.07-2.92.1-1.24.23-2.46.45-3.69a56.17,56.17,0,0,1,1.71-6.09c.57-1.5,1.27-2.94,2-4.38l0,.07,0-.08.18-.37-.14.29c1.34-2.63,2.83-5.14,4.32-7.69,1.59-2.75,3.15-5.5,4.84-8.19,1-1.59,2-3.14,3-4.74q1.64-2.65,3-5.46a46.31,46.31,0,0,0,3.36-10.34c.88-3.92,1.49-7.88,2.25-11.82.72-3.71,1.4-7.44,2.14-11.15s1.69-7.3,2.57-10.93,1.64-7.06,2.46-10.58c.43-1.85.85-3.71,1.19-5.59s.55-3.75.83-5.63a49.16,49.16,0,0,0,.59-5.41c0-.38,0-.77,0-1.16a61.14,61.14,0,0,0,10.56-2.9A45.37,45.37,0,0,0,755,490.29a79.53,79.53,0,0,0,7.87-6.56,44,44,0,0,0,3.92-4.16,42,42,0,0,0,3.26-4.78,87.29,87.29,0,0,0,5.09-10.08c1.47-3.35,3.13-6.62,4.33-10.08a38.58,38.58,0,0,0,1.33-4.73c.27-1.27.46-2.54.71-3.81a57.86,57.86,0,0,0,1.27-7.5c.34-4.64.27-9.31.28-13.95A17.16,17.16,0,0,0,782.7,419.53ZM257.14,757.46c-.53-.2-1-.44-1.55-.68-1.1-.57-2.18-1.19-3.23-1.87L249.63,753c-.8-.57-1.61-1.13-2.37-1.75l-.29-.3c-.14-.17-.28-.35-.41-.53a15.78,15.78,0,0,0-2.88-3.63,17.23,17.23,0,0,0-3.65-2.06c-.33-.17-.65-.35-1-.55l-.41-.32-.41-.42c-.16-.2-.31-.41-.46-.61l0,0,0-.15c0-1.14.1-2.27,0-3.41a8.45,8.45,0,0,0-2.28-5.46,39.85,39.85,0,0,0-5.16-3.67c-.62-.44-1.23-.89-1.82-1.36s-1-1-1.53-1.49c-.34-.41-.67-.83-1-1.26-.17-.26-.32-.52-.46-.78s-.36-.78-.52-1.18c-.06-.19-.11-.38-.16-.57s-.09-.63-.12-1c-.15-3.25,0-6.49-.44-9.74-.46-3.54-1.7-6.9-2.51-10.37-.23-1.16-.41-2.32-.53-3.5a34.64,34.64,0,0,1,0-3.53A92.07,92.07,0,0,1,222.6,686a36.87,36.87,0,0,1,1-3.61c.56-1.49,1.2-2.93,1.72-4.43.63-1.78,1.21-3.57,1.76-5.38s1.13-3.76,1.68-5.64a46.86,46.86,0,0,0,1.42-5.75,55.82,55.82,0,0,0,.68-11.11,62.65,62.65,0,0,0-1.49-11.5c-.83-3.63-2.17-7.12-3-10.75a73,73,0,0,1-1.15-8.19c-.14-2.51-.1-5-.06-7.53a4.07,4.07,0,0,0,2.18.64,3.82,3.82,0,0,0,2.72-1.13,3.94,3.94,0,0,0,0-5.53L230,606a22.43,22.43,0,0,0-1.65-1.85c-.65-.63-1.31-1.23-1.92-1.89s-1-1.2-1.4-1.83a63,63,0,0,1-3.66-6.45c-1.18-2.43-2.28-4.9-3.47-7.32a71.5,71.5,0,0,1-3.18-7.56c-1.21-3.55-2.27-7.16-3.29-10.77s-2.21-7.27-3.1-10.95c-.19-1.06-.32-2.13-.41-3.2-.11-3.28,0-6.57.18-9.85.13-1.91.29-3.81.5-5.71.17-1.54.31-3.1.59-4.62,1.15.35,2.32.68,3.49.95,1.39.32,2.79.54,4.18.81l.07,0a45.19,45.19,0,0,0,4.71,1,43.23,43.23,0,0,0,4.54.29h1c.58,0,1.15,0,1.72-.07-.19,1.27-.35,2.54-.45,3.82a86.35,86.35,0,0,0-.1,10.91,182.06,182.06,0,0,0,2.28,21.49c.32,1.89.66,3.79,1.14,5.65s1,3.41,1.58,5.08c.65,1.93,1.33,3.87,2.1,5.76s1.6,3.53,2.46,5.27a48.65,48.65,0,0,0,6.35,9.92,106.33,106.33,0,0,1,6.8,8.2c.3.48.57,1,.83,1.46s.45,1,.65,1.53.35,1.19.49,1.8a28.88,28.88,0,0,1,.34,2.93c.27,4.83.22,9.69.18,14.53,0,2.54-.1,5.08-.11,7.62s.11,4.84.28,7.26a46.07,46.07,0,0,1,.13,5.12c0,.37-.08.74-.15,1.1s-.23.87-.37,1.29c-.23.6-.48,1.18-.76,1.76a31.26,31.26,0,0,1-1.65,2.78,87.35,87.35,0,0,0-5,7.28,34.38,34.38,0,0,0-3.5,10.83,75.6,75.6,0,0,0-1,11.43c-.06,3.46,0,6.91-.06,10.37a111.49,111.49,0,0,0,.19,11.42c.31,3.53.78,7.06,1.38,10.56.31,1.92.61,3.85,1,5.77a41.73,41.73,0,0,0,1.36,5.64,96.06,96.06,0,0,0,4.53,11.08,35.29,35.29,0,0,0,6.93,9.68c.49.48,1,1,1.51,1.41l-.54-.07Zm448.21,1.33c-.3.14-.6.26-.91.38-.88.28-1.78.51-2.69.71-.66.12-1.31.22-2,.29-.44,0-.88,0-1.33,0q.78-.39,1.53-.81c.95-.53,1.89-1.1,2.81-1.7,1,.27,2,.53,3,.77a1.62,1.62,0,0,1-.1.18A3.54,3.54,0,0,1,705.35,758.79Zm6.51-12.07c.1.2.18.4.26.6.11.38.21.76.31,1.14.16.87.28,1.74.36,2.62v.18l-.36.09c-.24,0-.49.08-.73.1h-.85c-.5-.05-1-.12-1.49-.21l-1-.24c.57-.79,1.11-1.61,1.6-2.42s1-1.68,1.48-2.55C711.6,746.26,711.74,746.49,711.86,746.72Zm63.21-309.29a40.79,40.79,0,0,1-.69,4.8c-.37,1.83-.71,3.67-1.08,5.51a37.46,37.46,0,0,1-1,3.91c-1,2.73-2.2,5.36-3.4,8s-2.35,5.24-3.61,7.82a61.58,61.58,0,0,1-3.24,5.48c-.61.87-1.25,1.7-1.93,2.5-1.31,1.43-2.7,2.79-4.14,4.08a78.93,78.93,0,0,1-7.08,5.55Q747,486.3,745,487.34a45,45,0,0,1-4.25,1.79,69.83,69.83,0,0,1-7.29,1.94,61.6,61.6,0,0,1-7,1.18h-.3a3.49,3.49,0,0,0-1.21-.37,4,4,0,0,0-3,.87,3.46,3.46,0,0,0-1.33.69,6.74,6.74,0,0,0-1.65,2.28l.18-.37a14.41,14.41,0,0,1-.93,1.57l-.68,1a12.58,12.58,0,0,1-.86,1.1,16.92,16.92,0,0,1-1.28,1.26,17.15,17.15,0,0,1-1.45,1.09,23.94,23.94,0,0,1-2.12,1.29,54.48,54.48,0,0,1-5.65,2.32,34.18,34.18,0,0,1-4.08,1.11,59.36,59.36,0,0,1-7,.87,68.78,68.78,0,0,1-7.73.16,27.11,27.11,0,0,1-2.82-.34c-.36-.09-.72-.18-1.07-.29-1-.39-2-.85-3-1.32l-.69-.39a20.21,20.21,0,0,0-2.47-1.89,6,6,0,0,0-3-.68,3.91,3.91,0,0,0-.55,7.78c.3.24.59.5.89.73a13.8,13.8,0,0,0,2.91,1.73,22.05,22.05,0,0,0,6.69,2.22,41.47,41.47,0,0,0,5.46.33c2.95,0,5.92-.24,8.84-.52a44.67,44.67,0,0,0,10.66-2.29c1.75-.62,3.48-1.34,5.18-2.11a24.65,24.65,0,0,0,5.84-3.67,22.51,22.51,0,0,0,4-4.53c.41-.6.78-1.21,1.15-1.82h.48l.54,0c0,.14,0,.28,0,.43-.16,1.69-.44,3.36-.66,5-.27,1.94-.53,3.87-.91,5.79a1.89,1.89,0,0,1,0-.23c0,.17-.07.33-.11.5-.79,3.6-1.64,7.2-2.48,10.8-.91,3.85-1.89,7.67-2.75,11.53s-1.63,8.06-2.39,12.1c-.71,3.73-1.35,7.46-2.07,11.18,0-.11,0-.22.07-.33,0,.13,0,.26-.08.39l0,.12s0-.07,0-.1a69.53,69.53,0,0,1-2.06,7.81,38.46,38.46,0,0,1-1.56,3.75,76.27,76.27,0,0,1-4,6.75c-1.49,2.26-2.87,4.57-4.24,6.91-1.85,3.15-3.79,6.27-5.49,9.51-.91,1.73-1.79,3.48-2.6,5.26a39.12,39.12,0,0,0-1.82,5.17,47.76,47.76,0,0,0-1.28,5.41,44.33,44.33,0,0,0-.45,5.51,17,17,0,0,0,.92,6.08c.51,1.48,1.2,2.87,1.78,4.32,0,.09,0,.18,0,.26v.14l0,0-.15.19-.49.49-.41.31-.51.3c-.24.11-.49.21-.74.3-1.39.45-2.8.84-4.2,1.26a21.6,21.6,0,0,0-2.47.81,6.5,6.5,0,0,0-2.94,2.39c-1.54,2.36-.89,5.44.59,7.66.88,1.31,1.9,2.51,2.8,3.8.18.28.34.56.5.85l.15.32h0c-.07.18-.15.36-.23.54a18.3,18.3,0,0,0-1.25,2.6,8.36,8.36,0,0,0-.36,4c.38,2.25,1.14,4.42,1.65,6.64a39.24,39.24,0,0,1,.56,4.06c.13,2.4-.1,4.81-.17,7.21a49,49,0,0,0,.44,8.22c.37,2.68.8,5.35,1.32,8,.45,2.21,1,4.39,1.48,6.59a38.81,38.81,0,0,1,.55,4.16,67.06,67.06,0,0,1,0,6.8c0,.46-.11.91-.18,1.37-.2.81-.44,1.59-.7,2.38-.48,1.34-1,2.66-1.62,4q-.45.87-1,1.71c-.19.27-.39.54-.6.8a3.7,3.7,0,0,1-.28.28l-.18.1a3.94,3.94,0,0,0-1.4,5.35,3.8,3.8,0,0,0,3.34,1.9,4.38,4.38,0,0,0,2-.49,9,9,0,0,0,2.65-2.3c.2-.24.35-.5.53-.75.7.36,1.38.76,2,1.18s1.46,1.11,2.16,1.71c1.09,1,2.11,2.1,3.09,3.22s1.78,1.92,2.66,2.89c.4.49.78,1,1.15,1.5.54.83,1,1.69,1.48,2.57a17.54,17.54,0,0,1,.77,1.79c.16.49.29,1,.41,1.5s.14.94.19,1.42,0,.68,0,1-.11.79-.18,1.18a35.46,35.46,0,0,1-1,3.66,19.67,19.67,0,0,1-.82,2,42.4,42.4,0,0,1-2.3,4l.09-.12-.15.21-.13.2.09-.14c-.36.52-.73,1-1.13,1.53a4.14,4.14,0,0,0-1.77,3.07c-.35.26-.7.52-1.06.77a42,42,0,0,1-3.75,2.13c-1.38.66-2.8,1.17-4.23,1.72s-2.75,1.13-4.14,1.67a56.36,56.36,0,0,1-6.38,1.65c-1.65.33-3.31.62-4.95,1l.5-.1c-2.34.47-4.71.79-7.07,1.26-2.16.44-4.33,1-6.52,1.21-1.83.2-3.66.36-5.48.53s-3.91.28-5.86.46-3.92.41-5.88.57a26.64,26.64,0,0,1-2.68,0c-1.1-.09-2.19-.24-3.28-.44a52.52,52.52,0,0,1-5.52-1.55c-.41-.15-.81-.32-1.21-.51s-.55-.31-.82-.48-.61-.45-.9-.69c-.44-.41-.86-.84-1.27-1.28a44.45,44.45,0,0,0-3-3.56,27,27,0,0,0-5.49-3.93c-2.15-1.23-4.29-2.51-6.53-3.52-2.41-1.09-5-1.84-7.35-3l-1.05-.61c-.53-.38-1-.77-1.55-1.19s-.94-.91-1.39-1.4-1-1.22-1.42-1.86a39.13,39.13,0,0,1-2.14-3.65c-.35-.73-.66-1.47-.95-2.22-.75-2.37-1.28-4.81-2-7.19s-1.32-4.69-2.24-6.91c-1.9-4.56-5.23-8.29-7.5-12.65l0-.08,0,.09c-.49-1-.92-2-1.31-3a20.09,20.09,0,0,1-.55-2c-.16-.91-.3-1.81-.39-2.72a54,54,0,0,1,.09-5.69c.1-1.27.27-2.53.44-3.79a18,18,0,0,0,.18-5,10.88,10.88,0,0,0-1.1-3.58,14.53,14.53,0,0,0-1.22-1.86c-.82-1.09-1.73-2.09-2.63-3.11-.64-.75-1.23-1.53-1.79-2.33-1.13-1.71-2.25-3.41-3.41-5.09-1-1.51-2.13-3-3.17-4.47-.78-1.2-1.47-2.44-2.13-3.71-.31-.63-.6-1.25-.85-1.9-.12-.37-.21-.73-.3-1.1-.49-2.62-.67-5.29-1-7.93-.16-1.34-.29-2.69-.48-4s-.4-2.41-.51-3.63a74.08,74.08,0,0,1,.12-8.43c.07-.85.16-1.7.3-2.54q.13-.57.3-1.14c.22-.59.47-1.15.74-1.72.46-.89,1-1.75,1.46-2.62.3-.55.58-1.11.89-1.66a3.71,3.71,0,0,0,1.08-2.64,3.94,3.94,0,0,0-3.91-3.91,3.77,3.77,0,0,0-1.76.45,5.54,5.54,0,0,0-.53.3l-.14.11,0,0a4.75,4.75,0,0,0-1.28,1.39c-.25.39-.47.81-.69,1.22-.82,1.51-1.7,3-2.44,4.53a24,24,0,0,0-1.93,9.61c-.07,1.69-.09,3.37-.09,5a33.81,33.81,0,0,0,.45,5.59c.52,3.35.81,6.74,1.21,10.12a25.79,25.79,0,0,0,1.06,5.44,33.18,33.18,0,0,0,2.7,5.6,47.59,47.59,0,0,0,2.9,4.3c1.07,1.45,2.09,2.95,3.1,4.44l0-.06.07.1.21.31-.09-.13c.74,1.12,1.45,2.27,2.23,3.37a41,41,0,0,0,3,3.58c.54.64,1,1.29,1.52,2l.14.25,0,.07a5.26,5.26,0,0,1,.15.53c0,.22.08.45.1.68s0,.59,0,.88c-.19,1.93-.53,3.84-.67,5.78s-.22,3.84-.16,5.75a29.61,29.61,0,0,0,.88,6.22,29,29,0,0,0,2.38,5.94c2,3.76,4.65,7.08,6.65,10.82.28.6.52,1.21.75,1.82,1,3,2,6.1,2.75,9.19.07.29.15.58.23.87-.88.1-1.76.21-2.64.28a18.12,18.12,0,0,1-2,0,34.69,34.69,0,0,1-3.65-.47q-1.37-.3-2.7-.72c-.49-.19-1-.39-1.45-.61s-1.21-.66-1.79-1c-.32-.23-.64-.47-1-.73s-.62-.6-.92-.92-.54-.67-.8-1-.48-.82-.7-1.24c-.48-1-.94-2-1.44-3s-.91-1.68-1.35-2.52c-.16-.34-.31-.68-.44-1-.5-1.57-.76-3.22-1.25-4.8a29.77,29.77,0,0,0-2.53-6.38,11.17,11.17,0,0,0-2.1-2.73,18,18,0,0,0-1.46-1.15c-.66-.47-1.32-.93-2-1.38a50.67,50.67,0,0,1-4.37-3.17q-.43-.41-.84-.84l-.41-.51c-.23-.37-.45-.75-.65-1.13s-.35-.78-.5-1.18-.3-1-.42-1.53a58.33,58.33,0,0,1-.73-6.58c0,.08,0,.17,0,.26-.1-1.52-.21-3.05-.31-4.57,0,.18,0,.35,0,.53-.16-2.45-.25-4.9-.43-7.35q0-.79-.06-1.59a4,4,0,0,0-2.54-3.65,1.21,1.21,0,0,1-.05-.18c-.12-.65-.22-1.29-.28-2-.1-1.67-.2-3.36-.41-5a18.11,18.11,0,0,0-.6-3c-.33-1.12-.78-2.2-1.18-3.29l-.8-2.4.52-.14.28-.05a3.91,3.91,0,1,0-1.06-7.75,18.44,18.44,0,0,0-3.84,1.08c-1.92.66-3.87,1.21-5.81,1.81-2.63.81-5.29,1.59-8,2.17-2.1.42-4.21.81-6.31,1.25a69.83,69.83,0,0,1-8.17.86c-3.55.21-7.1.29-10.65.41s-7,.43-10.48.52-6.9,0-10.34,0-6.78-.1-10.17-.29a99.53,99.53,0,0,1-11.78-1.73c-5.54-1.15-11.06-2.4-16.52-3.82-2.83-.74-5.63-1.59-8.46-2.32-2.58-.66-5.12-1.38-7.63-2.24-3.07-1.1-6.1-2.32-9.14-3.49-1.49-.58-3-1.2-4.49-1.75s-3.08-1.05-4.61-1.57a51.38,51.38,0,0,1-5.37-2.22c-.43-.22-.86-.46-1.28-.7a3.91,3.91,0,0,0-2.95-2.22c0-.53.08-1,.13-1.58a3.91,3.91,0,0,0-7.75-1.06c-.11,1.14-.19,2.28-.26,3.43,0,.13,0,.26,0,.39-.15,2.67-.23,5.35-.41,8a69.18,69.18,0,0,1-.93,8.25,50.08,50.08,0,0,1-1.63,5.71c-.31.85-.64,1.7-1,2.53-.81,1.55-1.81,3-2.62,4.56s-1.62,3.21-2.36,4.85a22.77,22.77,0,0,0-1.64,5.48,29.61,29.61,0,0,0-.37,4.51c0,.93,0,1.86-.07,2.78v.23c-.1.63-.1,1.29-.17,1.91-.42,3.84-.56,7.74-1.26,11.54-.3,1.41-.64,2.81-.9,4.22-.21,1.1-.37,2.21-.56,3.31-.07.26-.14.52-.22.78-.65,1.57-1.36,3.08-1.92,4.69s-1,3.15-1.51,4.72c-.64,1.76-1.34,3.5-1.83,5.31s-.83,3.84-1.21,5.77c-.26,1.19-.55,2.38-.74,3.59-.15,1-.2,2-.34,3s-.35,2.1-.47,3.15-.27,2.37-.49,3.55-.6,2.23-1,3.33c-.11.28-.22.56-.34.84l-.13.23h0l-.37.26c-.54.36-1.09.68-1.6,1.07a5.64,5.64,0,0,0-2.14,3.87,30,30,0,0,0,.43,5.67c0,.74,0,1.48,0,2.22s-.12,1.24-.21,1.85c-.1.43-.22.84-.35,1.25-.09.24-.19.47-.29.7l-.1.18,0,0c-.34.15-.69.29-1,.42l-.95.26c-1.29.23-2.6.27-3.87.55a12.45,12.45,0,0,0-4,1.62c-1.2.76-2.39,1.56-3.52,2.39a10.42,10.42,0,0,0-2.75,3c-.28.47-.53,1-.77,1.45a.36.36,0,0,0,0,.09l-.15.29c-.4.84-.71,1.71-1.1,2.56h0l-.81.3a4.44,4.44,0,0,1-.52.15l-.17,0c-.8,0-1.61,0-2.41-.1l.53,0c-1.72-.11-3.44-.3-5.15-.45-2.25-.19-4.49-.23-6.73-.21-3.87,0-7.73.13-11.6.39-3.7.21-7.43.08-11.14.25-3.23.16-6.42.63-9.64.89a11.43,11.43,0,0,1-1.31,0c-.31,0-.62-.06-.92-.1l-.05,0-.22-.3a29,29,0,0,0-3.25-4.31,19.69,19.69,0,0,0-4.3-3.58,35.8,35.8,0,0,0-4.6-1.94c-2-.75-4-1.46-5.89-2.4h0c-2.32-1.2-4.63-2.47-6.82-3.87-.87-.62-1.65-1.33-2.46-2L264.69,753c-1.34-1.2-2.64-2.44-3.86-3.77-.74-.87-1.42-1.77-2.08-2.71a33.69,33.69,0,0,1-1.74-3,92,92,0,0,1-4-9.45,40.31,40.31,0,0,1-1.24-4.62h0c0-.11-.05-.23-.07-.34,0,.11,0,.22.07.33a160,160,0,0,1-2.55-18c-.23-4,0-8,0-12,0-3.85,0-7.71.19-11.57a67.56,67.56,0,0,1,1.07-8c.26-1.14.58-2.26.95-3.37.31-.86.64-1.72,1-2.56s1.05-1.88,1.64-2.78c.95-1.34,2-2.62,2.92-4a31.09,31.09,0,0,0,3.21-5.64,18.62,18.62,0,0,0,1.46-6.58,64.62,64.62,0,0,0-.27-6.52c-.2-3.24-.17-6.47-.1-9.71q.1-5.67,0-11.36a59,59,0,0,0-.74-11.35,21.26,21.26,0,0,0-2-5.44,27.78,27.78,0,0,0-3.44-4.91c-2.24-2.73-4.73-5.29-6.76-8.18a60.2,60.2,0,0,1-3.53-6c-.76-1.5-1.52-3-2.16-4.58s-1.24-3.29-1.82-5a64.89,64.89,0,0,1-2.06-7.07A170.53,170.53,0,0,1,236.36,555a109.8,109.8,0,0,1-.14-13.33,49.93,49.93,0,0,1,.75-5.45c.07-.32.15-.63.24-.95s.34-.86.54-1.28c0-.05.05-.1.08-.14a4,4,0,0,0,1-1.86c.27-.25.56-.48.82-.74a41,41,0,0,0,3.87-4.25c2.15-2.87,3.62-6.18,5.58-9.18.28-.4.57-.78.88-1.16s.62-.63.94-.93c.49-.41,1-.79,1.52-1.16.75-.48,1.52-.9,2.28-1.36a3.91,3.91,0,0,0-3.94-6.76c-1.2.72-2.39,1.38-3.51,2.2a18.38,18.38,0,0,0-4.2,4.15c-1,1.51-2,3.08-2.9,4.66-.81,1.42-1.57,2.85-2.45,4.21-.41.57-.82,1.12-1.27,1.65-1.09,1.16-2.2,2.31-3.38,3.4q-.66.55-1.35,1.05c-.42.27-.84.52-1.27.75s-.62.28-.93.4-.49.14-.74.21l-.82.11c-1.32,0-2.67,0-4-.09a27.45,27.45,0,0,1-2.85-.38c-1-.23-2.1-.51-3.15-.72-.8-.16-1.61-.28-2.41-.43a51.67,51.67,0,0,1-5.29-1.43c-1.06-.39-2.08-.85-3.1-1.34-1.44-.74-2.84-1.52-4.2-2.4-.72-.52-1.41-1.06-2.09-1.64a63.71,63.71,0,0,1-4.89-5,52.93,52.93,0,0,1-3.55-4.59A119.25,119.25,0,0,1,185.65,499c-1-2.09-1.91-4.2-2.71-6.38-.66-2-1.21-4-1.67-6.1a65.86,65.86,0,0,1-1-6.84,168.33,168.33,0,0,1,.13-18.11c.21-2.4.52-4.77,1-7.14a70.8,70.8,0,0,1,2-7c.44-1.11.9-2.18,1.39-3.26,1.08-2,2.26-4,3.54-5.87,1-1.42,2.06-2.8,3.17-4.15.52-.57,1-1.12,1.59-1.64l.43-.34.25-.16h0l.39-.09a3.7,3.7,0,0,0,2.56-2.33,3.89,3.89,0,0,0,1.48-3v-.08c0-.2.05-.41.09-.61q.15-.68.36-1.35c.15-.38.31-.76.48-1.13s.39-.68.6-1c.54-.77,1.11-1.5,1.71-2.22.3-.32.6-.62.91-.92s.46-.37.7-.54a49.08,49.08,0,0,1,4.54-2.53c2.27-1.1,4.63-1.91,6.92-2.95s4.41-2.21,6.61-3.32a87.92,87.92,0,0,1,9.11-3.73,59.85,59.85,0,0,1,6.19-1.61,71.1,71.1,0,0,1,8.37-1,136.26,136.26,0,0,1,15.65-.31l-.53,0c3.93.27,7.87.44,11.79.67,2.08.18,4.13.51,6.19.87,1.85.33,3.7.59,5.54.94.74.18,1.46.37,2.18.58a43.11,43.11,0,0,1,4.09,1.72c2,1,3.92,2.08,5.92,3,1.81.88,3.64,1.7,5.45,2.58s3.3,1.87,4.89,2.92c2,1.4,4.05,2.85,6,4.42.25.24.49.47.73.72.51.6,1,1.22,1.45,1.86.24.4.48.8.71,1.21s.32.73.47,1.1c.28.87.53,1.74.73,2.63a44.4,44.4,0,0,1,.64,4.73c0,.7.05,1.38,0,2.08s-.18,1.26-.29,1.89-.28,1.17-.46,1.75c-.12.32-.25.64-.4,1-.06.11-.13.22-.2.33l-.15.2c-.15.16-.3.31-.46.45-.4.33-.8.66-1.21,1s-.52.33-.79.48c-.56.17-1.13.28-1.69.47-1.11.38-2.19.84-3.26,1.3-2.06.9-4,1.95-6,3a50.2,50.2,0,0,1-5.28,2.13l.32-.11a43.37,43.37,0,0,0-7.44,3.23c-2,1.14-3.95,2.38-5.93,3.58s-4,2.51-6.07,3.77a18.27,18.27,0,0,0-3.72,2.63,9.31,9.31,0,0,0-2.46,4.9,4,4,0,0,0,3.35,4.41l.52,0a4,4,0,0,0,3.88-3.32c.08-.16.17-.32.26-.47l.13-.17.08-.08.1-.08c2.5-1.62,5.07-3.18,7.62-4.72s5-3.14,7.63-4.51a41.32,41.32,0,0,1,4-1.62l-.49.17c1.78-.61,3.55-1.23,5.27-2s3.15-1.58,4.71-2.39,3.4-1.58,5.15-2.24a14.73,14.73,0,0,0,3.43-1.26,20.66,20.66,0,0,0,2.39-1.69,13.52,13.52,0,0,0,2.05-1.95,12.13,12.13,0,0,0,1.58-2.66,20,20,0,0,0,1.4-5.07,4,4,0,0,0,1.38-1.77l.56-.57.44-.33c.33-.2.66-.39,1-.57,2-.93,3.93-1.91,6-2.67.89-.28,1.78-.51,2.68-.7,1.75-.34,3.5-.68,5.25-1l-.12,0,.16,0,.35-.07-.31.06c2-.38,4-.59,6-.93.62-.1,1.23-.24,1.85-.36a4,4,0,0,0,3.09,1,23.31,23.31,0,0,0,2.85-.72c2.62-.48,5.31-.59,8-.85,2.85-.28,5.67-.76,8.52-1,3.43-.21,6.86-.31,10.3-.35,3.26,0,6.55-.15,9.82,0,3.66.34,7.32.89,10.94,1.58,3.05.67,6.06,1.5,9.12,2.14s6,1.24,9.05,1.73,6.19.94,9.3,1.26,6.17.47,9.26.67c3.33.24,6.65.61,10,.84s6.48.34,9.72.5c2.65.13,5.32.23,8,.23,1,0,2.08,0,3.12-.05,4.07-.14,8.15-.5,12.21-.81,7.6-.6,15.18-1.32,22.75-2,4-.38,7.92-.82,11.83-1.59a98.08,98.08,0,0,0,10.92-2.77c3.69-1.17,7.28-2.64,10.94-3.92,3.16-1.1,6.27-2.34,9.42-3.44a99.41,99.41,0,0,1,9.7-2.8,3.7,3.7,0,0,0,2.53-2.26,24.69,24.69,0,0,0,2.46-1.53,9,9,0,0,0,2.46-2.91,51.87,51.87,0,0,0,3.22-7.56c1-2.8,2.06-5.6,3-8.42,1.06-3.12,2-6.28,3.07-9.39l-.17.48c.22-.61.43-1.23.65-1.85l.21-.63c1-2.9,2.11-5.79,3.15-8.69a84.5,84.5,0,0,1,3.57-8.78c.22-.41.45-.8.69-1.2.72-1,1.49-1.94,2.29-2.87a119.16,119.16,0,0,1,8.45-8.67,89,89,0,0,1,7.59-5.94c1.6-1,3.26-2,4.93-2.9.84-.46,1.68-.9,2.54-1.34.66-.33,1.4-.62,2-1l.69-.36a92.16,92.16,0,0,1,9.13-4,47.43,47.43,0,0,1,4.67-1.28c.92-.17,1.83-.3,2.76-.4,2.14-.1,4.27,0,6.4.06s4.27.18,6.4.31c1.21.11,2.41.25,3.61.47a60.35,60.35,0,0,1,6.06,1.67,41.18,41.18,0,0,1,4,1.65,12.16,12.16,0,0,0,3.77,1.35,11.93,11.93,0,0,0,4-.09,63.14,63.14,0,0,0,8.4-2.47,89.82,89.82,0,0,1,10.55-3,80,80,0,0,1,8.87-1,113.39,113.39,0,0,1,12.64.11,78.83,78.83,0,0,1,8.9,1.41q7.68,1.57,15.3,3.42c4.91,1.2,9.84,2.42,14.64,4,1.77.66,3.55,1.36,5.27,2.14a4,4,0,0,0,1.62,1.7,3.94,3.94,0,0,0,3.48,2.2,4.38,4.38,0,0,0,.51,0l.13.05.68.41c1.24.84,2.47,1.7,3.72,2.53.22.14.43.29.65.42l.32.24c.62.46,1.21.94,1.79,1.44,1.53,1.38,3,2.82,4.4,4.34a28.61,28.61,0,0,1,1.8,2.31c.65,1,1.24,2.07,1.8,3.14a60.59,60.59,0,0,1,2.58,6.18,105.15,105.15,0,0,1,3.38,12.46,42.82,42.82,0,0,1,.68,5.31c.1,1.74.14,3.47.16,5.21,0,1.56.06,3.13,0,4.7-.06.59-.13,1.17-.23,1.75s-.24,1-.39,1.44-.34.83-.52,1.24c-.34-.39-.7-.79-1-1.21v-.05c0-.15,0-.29,0-.44a68.13,68.13,0,0,0-.89-12.6c-.5-2.69-1.06-5.35-1.82-8-.61-2.1-1.65-4-2.38-6.1,0,.16.11.32.16.49,0-.08,0-.14-.07-.22a3.91,3.91,0,1,0-7.54,2.08c.6,1.83,1.46,3.54,2.13,5.33a49.06,49.06,0,0,1,1.34,5.17,64.46,64.46,0,0,1,1.15,7.79c.09,1.55.1,3.09.1,4.63,0,1.9,0,3.87.88,5.56-.55-.24-1.11-.47-1.65-.73a11.65,11.65,0,0,0-4.13-1.13,10,10,0,0,0-4.85.51,5.5,5.5,0,0,0-2.73,2.67c-.19.4-.35.83-.53,1.24h0c-.46.5-.93,1-1.43,1.42-.71.59-1.49,1.09-2.17,1.72a6.57,6.57,0,0,0-2,4.09c-.56,4.85,1.71,9.77,4.57,13.54,1.91,2.51,4.38,4.81,7.65,5.18a18.79,18.79,0,0,0,2.26.13c.75,0,1.5-.05,2.25-.11,0,.05-.05.11-.08.17a40,40,0,0,1-2.26,3.77c-.25.35-.5.7-.78,1-.47.5-1,1-1.47,1.42l-.58.46c-.35.21-.7.41-1.06.6s-.47.22-.7.31c-.88.28-1.78.52-2.68.72l.25-.05c-1.39.28-2.78.58-4.17.88-.62.11-1.26.2-1.89.25a28,28,0,0,1-3.3,0c-1.39-.12-2.78-.42-4.17-.62-1.64-.25-3.28-.57-4.91-.89-.52-.12-1-.27-1.55-.42a3.87,3.87,0,0,0-4.22-5.12,4.05,4.05,0,0,0-2.78,1.74c-.22.32-.43.65-.64,1-.77,1.1-1.55,2.22-2.41,3.25-.4.43-.81.83-1.24,1.22q-.32.28-.66.54a4,4,0,0,0-.7,5.49,3.95,3.95,0,0,0,5.48.7,19.3,19.3,0,0,0,2.43-2.26,22,22,0,0,0,5.32,1.64c2.47.47,4.94.86,7.41,1.29a22.38,22.38,0,0,0,3.92.32c.54,0,1.08,0,1.62,0a23,23,0,0,0,3.22-.33c1-.19,2-.43,3-.64a26.13,26.13,0,0,0,7.81-2.5,14.43,14.43,0,0,0,2.72-2,21.35,21.35,0,0,0,2.31-2.35,36.79,36.79,0,0,0,3.38-5.35,13.5,13.5,0,0,0,1.69-5.84c0-.43,0-.87,0-1.3.52-.48,1-1,1.5-1.51a11,11,0,0,0,1.88-2.27c.31-.55.59-1.13.85-1.71v2.78C775.25,431.9,775.24,434.68,775.07,437.43Z"/><path d="M544.14,688.4c0-.06,0-.12,0-.18l0-.36C544.12,688,544.13,688.22,544.14,688.4Z"/><path d="M722.06,126c0-1.79,0-3.59,0-5.38,3.5-.16,7-.26,10.5-.36s6.79-.3,10.16-.13c1,.09,1.91.22,2.85.4s2.06.48,3.07.78c0,.05,0,.11,0,.16v.4c0,.28-.07.56-.11.84s-.2.77-.32,1.16-.4,1-.63,1.47c-.38.72-.79,1.41-1.24,2.1-.84,1.19-1.77,2.3-2.72,3.41s-2.1,2.12-3.19,3.14c-1.74,1.5-3.52,3-5.39,4.29s-3.68,2.59-5.53,3.85l.1-.06-.2.13-.22.15.08-.06c-1.26.85-2.54,1.68-3.78,2.55a3.94,3.94,0,0,0-.71,5.48,3.78,3.78,0,0,0,3,1.49,4.26,4.26,0,0,0,2.45-.78c.15-.1.3-.2.44-.31,3.72-2.48,7.52-4.89,11-7.67,2-1.56,3.84-3.17,5.67-4.88a41.63,41.63,0,0,0,4.71-5.38,23.94,23.94,0,0,0,3.42-6.18,13.48,13.48,0,0,0,.88-6.09,6.58,6.58,0,0,0-5-6.55,34.83,34.83,0,0,0-11-1.72c-4,0-8,.18-12,.31-2,.07-4.09.11-6.13.21l-.23,0v-1.15a3.91,3.91,0,0,0-7.82,0c0,1,0,2.1,0,3.16a3.83,3.83,0,0,0-.81,2.33,3.9,3.9,0,0,0,.8,2.33c0,2.18,0,4.36,0,6.54a3.91,3.91,0,0,0,7.82,0Z"/><path d="M733,160.17c0,1.55-.14,3.1-.2,4.66a3.91,3.91,0,1,0,7.82,0c.06-1.56.2-3.11.2-4.66a3.91,3.91,0,0,0-7.82,0Z"/><path d="M747.69,167.48a3.94,3.94,0,0,0,3.91-3.91,13.77,13.77,0,0,0-.46-3.32,4.79,4.79,0,0,0-2.12-2.86,4.38,4.38,0,0,0-2.16-.54,4,4,0,0,0-3.92,3.91,3.89,3.89,0,0,0,.78,2.31c0,.25.06.5.07.75v-.11a4,4,0,0,0,1.13,2.63A3.92,3.92,0,0,0,747.69,167.48Z"/><path d="M763.3,157.73a3.91,3.91,0,0,0-7.56,2,5.62,5.62,0,0,1,.06.56c0,.16,0,.33,0,.49q-.07.64-.18,1.29c-.15.58-.31,1.16-.5,1.73-.42,1.13-.91,2.22-1.43,3.32-1.34,2.61-2.75,5.18-4.27,7.69a3.92,3.92,0,0,0,1.4,5.35,3.77,3.77,0,0,0,1.93.53,4,4,0,0,0,3.42-1.93c1.54-2.54,3-5.13,4.32-7.78C762.53,167,764.42,162.27,763.3,157.73Z"/><path d="M750,201.17a13.74,13.74,0,0,0-4.74.13q-3,.4-5.91.86c-4.13.64-8.24,1.27-12.4,1.68-1.72.07-3.43.1-5.16.1a3.91,3.91,0,1,0,0,7.82c2,0,4,0,6.05-.16q3.55-.33,7.09-.84c2.1-.31,4.2-.65,6.29-1,1.93-.29,3.88-.62,5.82-.84-.1.42-.22.83-.36,1.24-.22.58-.46,1.16-.72,1.73-.6,1.16-1.22,2.28-1.9,3.4s-1.52,2.1-2.34,3.13-1.84,1.92-2.82,2.86-2.11,1.7-3.21,2.52c-1.34.87-2.69,1.67-4.1,2.42l-1,.47a4,4,0,0,0-2.08,5.12,4.07,4.07,0,0,0,3.65,2.42,3.46,3.46,0,0,0,1.47-.33,42,42,0,0,0,4.86-2.61c1.08-.72,2.14-1.44,3.18-2.21.77-.57,1.5-1.21,2.23-1.82a35.31,35.31,0,0,0,4.72-5,32.12,32.12,0,0,0,3.38-5.09c1.83-3.59,3.89-7.82,2.55-11.92A6.19,6.19,0,0,0,750,201.17Z"/></g></svg>