<svg xmlns="http://www.w3.org/2000/svg" viewBox="0 0 1000 1000"><defs><style>.cls-1{opacity:0.2;}.cls-2{fill:#fff;}.cls-3{fill:#f5f5f4;}.cls-4{fill:#e1e0dd;}</style></defs><g id="レイヤー_7" data-name="レイヤー 7"><path class="cls-1" d="M556.63,780.1c-13.24.1-22.79-3.63-34.65-8.77-6.85-3-14-5.25-20.78-8.52-11.7-5.71-22.59-12.94-33.38-20.19a30.35,30.35,0,0,0-7.44-3.84c-4.54-1.42-9.35-1.9-14.05-2.49-6-.55-12-1.19-18-.72-11,.92-21.86,3.31-32.74,5.12-5.45,1.09-10.82,2.69-16.31,3.57-5.73.94-11.57,1.3-17.28,2.38-6.56,1.09-13,2.88-19.48,4.34-5.47,1.21-11,2-16.47,3.39-13.19,2.91-25.66,8.45-38.94,11-17.74,3.36-36.34,3.76-54-.43-9.71-2.63-18.83-7.17-27.63-12-8.46-4.74-18.49-14.32-13.11-24.71,2.48-5,7.14-8.49,11-12.42a198.93,198.93,0,0,1,19.21-15.4c5.17-3.73,10.26-7.7,16-10.57,3.83-2,7.86-3.78,11.8-5.53,2.52-1.58,20.43,1.46,23.14,1.22,15.35,1,29.9,6.36,44,12.27,9.31,3.51,18.69,7,28,10.41,6.16,2.2,12.29,4.66,18.65,6.23a62.58,62.58,0,0,0,13.09,1.38c10.58,0,21.08-1.51,31.58-2.57,10.85-1.71,21.82-3.31,32.83-2.86,11.94.42,23.66,3,35.08,6.37,11.48,2.74,22.9,5.85,34.27,9,6.72,1.64,13.26,4,20,5.62,4.58,1,9.19,1.92,13.76,3,8.76,1.85,17.31,4.82,26.24,5.78,4.82.58,9.7.77,14.54,1.2,4.45.41,8.9,1.1,13.3,1.88,4.08.66,8.16,1.52,12.19,2.47a50.51,50.51,0,0,1,9.21,2.64c2.16,1,4.32,2.45,5.15,4.76a8.84,8.84,0,0,1-1,7.34,16,16,0,0,1-4.27,4,84.92,84.92,0,0,1-7.24,5.1,28.57,28.57,0,0,1-11,3.8c-3.57.63-7.16,1.33-10.73,2-5,.8-9.91,2-14.89,2.81C569.77,779,563.22,780.06,556.63,780.1Z"/></g><g id="レイヤー_6" data-name="レイヤー 6"><path class="cls-2" d="M566.52,762.46c-14.37-.19-22.37-6.09-28.76-18.57-1.91-3.71-3.54-7.6-5.44-11.31a117.44,117.44,0,0,1-6.23-14.34c-2.74-6.46-5.87-12.78-9-19-2.95-6.06-5.91-12.15-9.1-18.09-1.63-3.09-3.16-6.29-4.62-9.46a29.2,29.2,0,0,0-5.14-8.24,7.75,7.75,0,0,0-2.81-2.18,36.8,36.8,0,0,0-5.35-.72c-3.47-.35-6.88-1.19-10.31-1.81s-6.85-1.88-10.32-2.61c-4.39-.72-8.66-2-13-2.91a172.88,172.88,0,0,0-20.08-1.89c-7.19-.53-14.15-2.53-21-4.56-2.78-1-5.24-2.74-7.93-4a22.16,22.16,0,0,0-8.57-1.95,43.57,43.57,0,0,0-23.47,4.41,22.86,22.86,0,0,0-9,8.36,91.14,91.14,0,0,0-7.11,13.2c-3.65,8.36-7.32,16.82-10.14,25.51-3.38,10.91-6.57,22.12-12.72,31.86-4,5.77-9.07,10.67-14.29,15.27-3.38,2.89-6.64,6.23-10.95,7.68-3.06,1-6.32.51-9.47.35s-6.41,0-9.6.13-6.25.16-9.36.2c-4.13.07-8.41-.14-12.28-1.71a53.15,53.15,0,0,1-9.4-4.6A77.39,77.39,0,0,1,249.46,732c-2.74-2.64-5.17-5.59-7.77-8.37-2.11-2.27-4.48-4.28-6.65-6.49-12.93-13.64-12.38-31.11-13.5-48.63a170.75,170.75,0,0,1,.6-26.76c1.13-8,3.35-15.9,4.11-24a152.69,152.69,0,0,0,1-25.38c-.27-6.85-1.61-13.6-2.56-20.37-.54-4.13-.2-8.33-.2-12.48.08-8.36.55-16.71,1.24-25,.21-4,.93-7.87,1.2-11.81a25.24,25.24,0,0,0-1.49-9.75,6.42,6.42,0,0,0-2-2.83,12.81,12.81,0,0,0-3.17-1.45c-2.43-.8-4.92-1.45-7.31-2.34a13.07,13.07,0,0,1-6.32-4.93c-2.13-3.36-4.3-6.68-6.55-10-2.39-3.77-5.54-7.76-4.94-12.48.24-3.11,1.27-6.09,1.86-9.13a30.18,30.18,0,0,0-1.09-11.65c-.64-2.28-1.53-4.49-2.32-6.72a12.31,12.31,0,0,1-.91-6.36c.94-3.54,3.59-6.23,5.86-9a15.89,15.89,0,0,0,2-3A22.19,22.19,0,0,0,202,428c.75-3.52.77-7.22,1.9-10.65,1-2.83,3.33-4.77,5.53-6.68a26.45,26.45,0,0,0,5.37-7.94c.74-2,1.09-4.21,1.84-6.24,1.76-5.08,5.2-9.41,8.86-13.27.48-.59,1.19-1.18,1.71-1.72l6-15.57.34-.41a45,45,0,0,1,4.15-4.25,39,39,0,0,1,18.35-8.45A53.92,53.92,0,0,1,281.49,356a86.86,86.86,0,0,0,30,5.27c3.89.15,7.79.29,11.68.58s8.12.81,11.66,2.8a37.79,37.79,0,0,1,7.35,5.8,29.89,29.89,0,0,1,7.35,10.58c1.94,4.65,3,9.61,5.08,14.21a39.23,39.23,0,0,0,11.5,14.59c10.55,7.65,20.7,6.3,32.7,7.91,8.37,1.07,16.62,3,25,3.83,5.24.56,10.52.7,15.75,1.33,5.54.75,11,1.77,16.57,2.6,7.89,1,15.65,3,23.6,3.58a122.45,122.45,0,0,0,19.71-.83,63.51,63.51,0,0,0,7.41-1.81,84,84,0,0,0,12.67-4.56c2.81-1.3,5.71-2.44,8.46-3.87a45.54,45.54,0,0,0,15-13.35c4.27-6.13,7.76-12.76,11.46-19.25a79.41,79.41,0,0,1,10-15.46c4.91-6,10.54-11.39,15.67-17.2,3.19-3.39,6.14-7,9.21-10.53,3.25-3.46,6.29-7.13,9.53-10.59,4-4.17,9-7.06,13.93-10,2.58-1.61,5.1-3.37,7.81-4.76a54.84,54.84,0,0,1,16.13-5.42c3.36-.73,6.75-1.41,10.14-1.95,2.71-.53,5.41-1.18,8.13-1.68,4.33-.91,8.55-2.33,13-2.92a83.62,83.62,0,0,1,18.51,0c5.74.67,11.42,1.82,17.15,2.62,9.48,1.54,19.26-.81,28.67,1.39a17.49,17.49,0,0,1,7.37,4.17c2.25,1.81,4.41,3.74,6.63,5.57,5.19,4.09,11.08,7.24,16.37,11.2a80.74,80.74,0,0,1,8.21,7.48c2.54,2.45,5.19,4.8,7.72,7.26,2.17,2.05,4.29,4.18,6.35,6.34,3,2.89,5.39,6.52,5.85,10.72a65.72,65.72,0,0,1,.33,9.92c0,4.44,0,8.9-.36,13.33a92.63,92.63,0,0,1-2.53,13.49c-.8,3.3-2.08,6.47-3.1,9.71a29,29,0,0,0-1.47,13.22c.41,2,.79,4.07,2,5.71,1.57,1.91,3.93,2.95,6,4.24h0a17.38,17.38,0,0,1,4.33,3.59c1.61,1.89,2.79,4.11,4.3,6.08,2.42,3.28,6,6.42,6,10.79A9.65,9.65,0,0,1,803,460c-1,1-2.2,1.93-2.45,3.38-.34,1.63-.33,3.28-.6,4.92a34.65,34.65,0,0,1-2.34,9c-1.67,3-3.38,6-4.87,9.12a6.31,6.31,0,0,1-2.69,3,9.15,9.15,0,0,0-3.53,1.89c-2,2.22-2.81,5.16-4.3,7.67-1.64,2.79-4.1,5.5-7.3,6.42-2.69.76-5.45.13-8.14-.31-5.53-1.13-9,1.93-13,5.15-5.07,3.74-13.35,6-19.51,4.17-2.07-.53-3.81-1.84-5.7-2.77a21.4,21.4,0,0,0-5.91-2.2,30.28,30.28,0,0,0-5.47,0,49,49,0,0,0-9,1.22c-3.55.81-7,2.14-10.53,2.8-8,1.3-15.37,0-19,9a37.21,37.21,0,0,0-2,10,52.89,52.89,0,0,0,.65,8.52c.94,7.55,2.53,15.12,3,22.72.58,10.07.38,20.23.36,30.32-.1,8,0,16.12-1.83,24-1.08,4.71-3.26,9.11-5.16,13.54-2.37,5.49-4.52,11.17-7.48,16.39-5.19,8.8-11.7,16.79-17.47,25.2-3.06,4.42-6.76,8.41-9.57,13-1.69,2.74-1.82,6.06-1.59,9.18.15,3.63.36,7.3.35,10.93-.07,10-1.68,20.24-6.14,29.28-1.1,2-2.54,3.8-3.73,5.74-1.62,3-3.07,6.13-4.75,9.12a15.36,15.36,0,0,1-9,8.22c-2.32.74-4.81.54-7.21.43a54.66,54.66,0,0,0-7,0c-4.29.29-8.53,1.19-12.77,1.87A169.52,169.52,0,0,1,566.52,762.46Z"/></g><g id="レイヤー_5" data-name="レイヤー 5"><path class="cls-3" d="M699.22,725.11a24,24,0,0,1-7.48-1.19c-3.31-1.21-6.61-2.69-10.16-3-5.69-.47-11.41.49-17.08.89a98.18,98.18,0,0,1-24-.76,19.06,19.06,0,0,1-13.2-9c-1.5-3.15-2-6.7-2.6-10.1-.78-5.09-1.33-10.25-1.76-15.38-.33-3.8-.54-7.69-1.66-11.36-1.14-3.49-2.69-6.85-3.81-10.35a37.37,37.37,0,0,1-1.8-10.44c-.49-8.14.52-17-3.54-24.37-1.16-2.34-2.41-4.69-3.47-7.09-.7-1.74-1.53-3.62-1.35-5.53.28-3.13,2.59-5.4,4.61-7.59,2.38-2.57,4.8-5.17,7.14-7.77,4.59-4.92,8.8-10.32,11.25-16.66,1.11-2.81,2.48-5.83,2.05-8.92a41.18,41.18,0,0,0-4.64-10.2,82.59,82.59,0,0,0-8.58-12.55c-6.42-7.59-13.83-14.31-21.37-20.77-4.89-4.4-9.62-9.08-14.5-13.51-10.75-9.63-22.87-19.78-25.51-34.77-.55-3.78-1.25-9.35,2.91-11.27a17.89,17.89,0,0,1,9.43-1.27,71.48,71.48,0,0,1,12.59,2.27c9.35,3.05,17.82,8.2,26.61,12.51,2.74,1.39,5.67,2.92,8.43,4.28,2.6,1.3,11.28,5.5,12.24.6-.19-1.84-1.52-3.35-2.39-4.93a64.18,64.18,0,0,0-7.75-10.1,117.9,117.9,0,0,1-10.31-15.38c-2.74-5.22-5.65-10.87-5.35-16.92.31-7,4.38-17.26,12.62-17,7.5,1.37,10.74,9.43,13.59,15.62,5.67,12.11,13.95,33,30.71,28.82,12.1-2.64,20.48-12.63,29.26-20.6,4.29-3.68,8.94-9.06,15.12-8.39,3,.46,6.05,2.63,6.3,5.84.27,4.47-4,9.22-6.4,12.8a136.68,136.68,0,0,0-7.64,11.71c-1.25,2.55-3.49,5.12-3.24,8.11.27,1.77,1.92,1.53,3.26,1.35a27.76,27.76,0,0,0,6.57-1.45c3-1.31,5.4-3.68,8.05-5.54,2.86-2.18,7.37-5.21,10.12-1.25,1.7,2.24,2.49,5,3.67,7.56,2,4.31,4.39,8.61,7.79,12,4,3.62,9.11,6.63,14.6,7.15,3.66.4,5.47-2.71,7.5-5.17a40,40,0,0,1,7.91-7.51c7.54-5.61,17-7.56,25-12.28,2.31-1.26,4.8-2.46,6.54-4.5a14.17,14.17,0,0,0,2.42-5,26.89,26.89,0,0,1,2.44-5.21c.65-1.12,1.43-2.17,2-3.32a12.37,12.37,0,0,0,1.13-3.85c.3-2.48.52-5-2.1-6.44a13,13,0,0,0-4.27-1.59c-2.05-.3-4.15-.18-6.22-.31-3.4-.08-6.82-.75-10.22-.26-2.45.21-4.72,1.23-7.12,1.68a10.06,10.06,0,0,1-3.91-.56,25.51,25.51,0,0,1-6-2.53c-4.09-2.24-7-6.93-8.27-11.32-1-3.65-.1-7.53.68-11.14,1.64-5.46,5-10.73,9.95-13.68a27.27,27.27,0,0,1,14.14-3.47c.57.78,2.76,17,3.85,17.11a24.12,24.12,0,0,0,3.9,4.47,33.7,33.7,0,0,0,9.56,5.48c2.68,1.1,5.87,1.76,7.51,4.37l0,0,.09.13a16.23,16.23,0,0,1,2.38,5.34,28,28,0,0,1,.16,5.34,86,86,0,0,1-.75,10.4,26.56,26.56,0,0,1-2.47,7.18,76.21,76.21,0,0,0-4.14,10.89c-1.25,4.66-2.85,9.36-5.68,13.32-3.34,3.62-7,7.13-9,11.76a10.41,10.41,0,0,1-2.73,4.15,10.8,10.8,0,0,1-3,2,9.06,9.06,0,0,1-2.69.37c-2,0-4-.17-6-.1a29.33,29.33,0,0,0-5.59.89,29,29,0,0,0-9.88,4.53c-1.83,1.3-3.71,2.54-5.64,3.69a13.08,13.08,0,0,1-6.36,2.22c-4.94,0-9.72-1.77-14.65-1.62v0c-4.87.44-9.63,1.68-14.5,2.11s-10.29.33-14.68,3c-3.58,2.22-3,6.89-3,10.53,0,5.63.1,11.29.1,16.92.21,16.28-.33,32.7,1.87,48.88,1.3,9.79,4.41,19.18,8,28.36a52.8,52.8,0,0,1,2.75,14,128.65,128.65,0,0,1,.84,15.07c.11,4.24-1,8.43-.66,12.67.28,6.89,1.94,13.59,3.13,20.34.72,4.6,1.29,9.25,1.79,13.88a57.88,57.88,0,0,1,.33,11.62,43.84,43.84,0,0,1-.59,5.12,4.87,4.87,0,0,1-1.4,2.82,15,15,0,0,1-6.56,2.48A40.1,40.1,0,0,1,699.22,725.11Z"/><path class="cls-3" d="M225,517.57c-1.45-.45-2.19-2-3.09-3.17a27.74,27.74,0,0,0-3.76-4.54,20.44,20.44,0,0,0-5.63-3.4,17.2,17.2,0,0,1-9.21-9.91,56.14,56.14,0,0,1-2.75-15c-.33-2.44-1.39-4.71-2-7.09a22.2,22.2,0,0,1-.33-8.78c.26-2.65,1-5.32.54-8-.34-2.59-1.38-5-2-7.53a25.09,25.09,0,0,1-.26-7.24,16.74,16.74,0,0,1,1.18-5.45c1.32-3.08,3.58-5.67,5.1-8.64a26.72,26.72,0,0,0,1.67-4.12c-.09-1.47,7.17-15.54,7.85-17.13,7.78-.28,15.75-1,23.21-3.33,5.57-1.82,10.91-4.53,16.66-5.83,6.15-1.65,14.64-1,17.69,5.47,4.39,10.17-6.28,18.18-13.37,23.63A103.16,103.16,0,0,0,243.28,440a147.11,147.11,0,0,0-16.61,23.91c-1.92,3.62-4.2,7.15-5.4,11.1a41.23,41.23,0,0,0-1.43,9.56,15.3,15.3,0,0,0,.15,3.58,10.82,10.82,0,0,0,2.54,4.75,22.16,22.16,0,0,1,3.54,4.43c1.3,3,1,6.43,1,9.62-.14,2.17-.45,4.34-.61,6.51-.23,1.3.15,2.94-.87,3.94A.85.85,0,0,1,225,517.57Z"/><path class="cls-3" d="M592,773.34a31.32,31.32,0,0,1-7.73-.64c-5.41-1.28-10.69-3.34-16.29-3.7a167.83,167.83,0,0,1-19.22-2.24,46.19,46.19,0,0,1-9.58-3.56c-3.89-1.93-6.79-5.24-10.07-8-3-2.58-6.57-4.4-9.49-7.06-5.83-5.53-8-15.75-9.38-23.44a177.7,177.7,0,0,1-2.31-21.1c-.61-5.08-.85-10.19-1.34-15.27-.8-5.79-1.81-11.67-4.08-17.08a21,21,0,0,0-4-5.88,10.91,10.91,0,0,0-6.38-3.63,23.19,23.19,0,0,0-6.06-.09c-2.36.19-4.74.4-7.09.7-9.48,1.39-16.6,1.19-25.07-3.79-3.53-2.09-6.89-4.5-10.58-6.33-6.35-3-13.28-4.59-20.09-6.23-14.86-3.23-30-5.31-44.56-10-6.13-2.13-11.66-5.74-17.83-7.78-1.84-.69-4.05-1.62-5.74-.11-9.11,9.83-9.29,30.34-10.71,43.21-1.41,12.3-3.32,24.83-7.89,36.39a119.07,119.07,0,0,1-10,16.83c-1.84,2.43-3.95,4.7-6,7a48,48,0,0,1-4.86,5c-7.21,5.9-16.41,8.51-25.47,9.9-3.83.5-7.62,1.57-11.5,1.53a56.53,56.53,0,0,1-12.23-2.1c-5.72-1.75-11.31-3.91-16.84-6.19l-6.66-15c2.63-6.42,5.42-12.93,9.17-18.8,2.85-4.53,5.41-7.45,10.66-4.06,3.88,2.49,6.9,6.86,11.62,7.8,9.2.5,12.43-16.84,17.82-22.11,3.39-3.08,8.22-1.35,12.29-1.21a6.13,6.13,0,0,0,6.39-3.95c1.29-3.62,1.3-7.59,1.47-11.38.14-5.32.14-10.71.15-16,0-13.29.43-26.63.8-39.91.23-4.45.57-9,1-13.39.36-3.53.82-7.19,2.49-10.37,2.63-4.93,7.48-8,11.73-11.46,4.69-3.53,9.41-8.35,15.62-8.57,4.14,0,8,2,11.72,3.53,7.34,2.94,13.83,8,21.59,9.82,7.11,1.85,14.42.29,21.53-.7,4.69-.79,9.69-.59,14,1.55,9.37,4.54,16.19,13,25.4,17.85,8.32,4.76,14.46.36,19.78-6.21,6.81-8.2,11.74-17.83,17.76-26.59a93.2,93.2,0,0,1,12.41-14c1.32-1.06,2.55-2.49,4.22-3,3-.61,3.83,3.32,4,5.56.39,11.29-2.64,22.47-2.54,33.76.27,4,.84,14,6.95,12.22,3.07-1.09,5.37-3.68,7.67-5.88,3.41-3.37,6.67-7,10.44-10,8.21-7.52,15.5,13.36,15.36,19.32.11,3.18-.82,6.3-1.6,9.35-1,3.8-2.07,7.65-3,11.46-1.33,5.11-2.32,10.33-3.38,15.5a163.65,163.65,0,0,0-3.31,18.5c-1.25,16.42,5.62,32,11.12,47.1,1.66,4.38,3.35,8.84,5.33,13.1a28.21,28.21,0,0,0,7.68,10.66c8.29,7,13.52,3.66,20.18-3.32,2.15-2.18,4.24-4.51,6.32-6.76,1.23-1.07,2.8-4,4.67-3.22a5.5,5.5,0,0,1,1.88,2.81,41.94,41.94,0,0,1,1.39,5.4,97.31,97.31,0,0,0,2.4,9.84c1.19,3.76,3,7.45,6.12,10a10.62,10.62,0,0,0,3.67,2.24,8.47,8.47,0,0,0,4.33,0c4-1.11,7.59-3.18,11.24-5a68,68,0,0,0,7.8-4.42c1.13-.83,2.19-1.78,3.25-2.71a13.25,13.25,0,0,1,1.56-1.21,2.57,2.57,0,0,1,2-.54c1.43.67,2.08,2.35,2.68,3.72a12.87,12.87,0,0,1,1.1,5.12c.12,3.49-1,6.85-1.94,10.17-.76,2.64-1.33,5.34-2.18,8a14.32,14.32,0,0,1-9.48,7,60.84,60.84,0,0,1-8.93,1.2A102,102,0,0,1,592,773.34Z"/></g><g id="レイヤー_4" data-name="レイヤー 4"><path class="cls-4" d="M284.16,750.49c-4.38-.07-8.91-.55-12.94-2.36-2.73-1.17-8-6-2.71-7.54,8-2.31,8.37-3.05,10.86-10.77,1.84-5.37,5.66-15.81,13-13.85,4.5,1.42,8.31,4.58,12.94,5.61,4.91,1,6.51-2.34,8.22-6.2,2.38-5.48,3.95-11.3,6-16.9,1.21-3.41,2.08-7,3.21-10.4,1.43-4.13,2.89-8.29,4-12.52C328,670.76,329.61,666,330,661c1-10.9-2.38-21.59-5.15-32-1.47-5.68-3.59-11.45-3.12-17.4.28-3.39,1.63-6.63,3-9.71a117.52,117.52,0,0,1,8.05-14.58c8.2,2.7,23.89,8.38,32,10.13,4.86,1,10,1.07,14.72,2.7,6.79,2.11,12.28,7.07,19.06,9.21a37.34,37.34,0,0,0,14,1.71c5,0,10.19-.41,14.86,1.53,4,1.74,7,5,10.39,7.67,7.35,6,15.9,12,25.8,11.61,6.52-.18,12.87-2.09,19.05-4.06,5.83-1.8,11.18-4.85,16.53-7.73,2.88-1.52,5.9-2.92,8.83-4.33,1.84-.81,9.26-4.95,8.22-1.06-2.16,4.11-5.06,7.86-7.17,12a71.55,71.55,0,0,0-5.7,13.89c-1.55,5-3.53,18.49-9,20.08-3,.86-6.09.7-9.12.55-8.74-.26-17.11-2.91-25.38-5.49a115.7,115.7,0,0,0-16.87-4.15c-6.21-.85-12.51-1.05-18.69-2.07-4.17-.87-8.2-2.38-12.29-3.55-2.57-.64-6.31-2.17-8.21.47a11.67,11.67,0,0,0-1,3c-.83,3.44-1.75,6.86-2.73,10.26-.91,3.19-1.86,6.39-2.79,9.58-.42,3.48-.54,7.13-1,10.62-1.18,9.9-2.74,19.88-6,29.35-1.72,4.83-4.18,11.25-10.23,11.3a28.7,28.7,0,0,1-7-1v0c-1.39-.34-2.59-.75-3.93-1.08a30.76,30.76,0,0,1-7.23,3.67,53,53,0,0,1-9,2.36,26.21,26.21,0,0,1-5,.23c-2.11-.06-4.39-.11-6.2,1.16-2.33,1.69-3.41,4.52-5.07,6.8a53.76,53.76,0,0,1-4.33,5.32,29.24,29.24,0,0,1-5.24,4.89,14.44,14.44,0,0,1-7.4,2.45c-3.06.33-6.17.54-9.22.94C301.68,747.47,293.13,750.67,284.16,750.49Z"/><path class="cls-4" d="M652.21,742.06c-5.5-.08-12.15-.36-16.8-3.59-2.08-1.61-2-4.41-2-6.8.13-5,.57-10,.79-15s0-10.17-.31-15.23c-.51-7.55-1.56-15-2.64-22.52a97.44,97.44,0,0,1-1.16-11,37.6,37.6,0,0,1,1.13-8.44,50,50,0,0,1,3.68-8.62c1.58-3.32,3.06-6.69,4.75-9.94a64.46,64.46,0,0,1,6.62-10.35,129.45,129.45,0,0,1,8.28-10.64c2.15-2.41,4.9-4.16,7.4-6.19,3.86-3.2,8.13-6.84,9.3-11.93a17.1,17.1,0,0,0-.15-4.79c-.22-2.07-.42-4.17-.63-6.25-.76-5.25-1.25-20.44-8.62-20-4.34.52-12.4,6.23-15.83,1.84a9.19,9.19,0,0,1-1.11-3.64c-.29-1.87-.58-3.81-.88-5.68-2.13-14.16-6.32-20.88-18.62-28.39-5.49-3.17-11.62-5.28-16.84-8.92a34.75,34.75,0,0,1-10-10.21c-1.54-2.46-6.41-11.09-1.48-11.28,2.17.36,4,1.88,5.94,2.87,4.8,2.81,9.29,6.21,14.19,8.86,11.43,6,28.63,12.33,41.25,7.19a15.58,15.58,0,0,0,2.65-2.15,18.91,18.91,0,0,1,4-2c5-2.05,7.19-3.62,4.53-9.17-2.09-5.36-5.4-10.3-6.69-15.94-.88-5.27,2.16-4.79,6.16-3.42,3.73,1.26,7.42,2.66,11.06,4.17,6.11,2.53,12,5.6,18.29,7.74,10.17,3.28,20.72,5.47,30.56,9.74v.26c-1.49.67-20.33,9.19-21.39,8.81a29.53,29.53,0,0,0-3.16,1.1,10.53,10.53,0,0,0-5.9,6.45c-1.16,3.46-.9,7.18-1,10.77-.06,5.47-.11,11-.48,16.42-.63,9.35-2.29,18.67-1.62,28.07A130.39,130.39,0,0,0,698,603.52c1,5.41,1.8,10.9,3.24,16.22,1.84,6.78,5.27,13.2,5.7,20.31.1,3.28-1.4,10-4.49,11.66-1.87.86-3.82-.55-5.5-1.28a25.78,25.78,0,0,1-7-5.22c-2.51-2.71-4.69-6-8.11-7.59-8.95-4.34-16.54-1.34-22.25,6.36-6.55,8.75-10.89,19.67-10,30.73.51,9.15,3.22,17.76,9,25,3.89,4.93,9.71,8.07,15.65,9.85,5.14,1.31,10.49,1.8,15.73,2.56,5.49.64,11.12,1.11,16.34,3.07,3.8,1.33,6.76,4.42,3.72,8.28a19.06,19.06,0,0,1-7.25,6.23c-2.79,1.49-5.89,2.22-8.76,3.51A55.18,55.18,0,0,1,686.7,736a60.79,60.79,0,0,1-6.82,1.19v0c-.32.06-.66.11-1,.18l-.17,0-.5.1c-4.08.86-8,2.18-12.1,3.13A73.11,73.11,0,0,1,652.21,742.06Z"/></g><g id="レイヤー_3" data-name="レイヤー 3"><path d="M359.84,394.66l.31.06Z"/><path d="M360.33,394.76l-.18,0,.07,0Z"/><path d="M725.07,429.83c-.69-2.46-1.52-4.87-2.4-7.26a59.56,59.56,0,0,0-7.23-13.83c-2.68-3.81-6.17-6.93-9.28-10.36-.42-.48-.82-1-1.19-1.48l-.25-.41h0A5.08,5.08,0,0,0,694.8,398c0,3,2.43,5.6,4.29,7.68s4,4.17,6,6.31c.93,1.09,1.8,2.2,2.63,3.36,1.17,1.81,2.24,3.66,3.23,5.57a70.45,70.45,0,0,1,5,14.2,77,77,0,0,1,1.12,8c.05,1.15,0,2.29,0,3.43-.15,1.7-.37,3.38-.68,5.05-.25,1.07-.54,2.11-.88,3.14a50.6,50.6,0,0,1-2,4.73c-.53,1-1.1,2-1.72,2.94s-1.56,2.12-2.41,3.13q-1.68,1.86-3.53,3.57c-1.12,1-2.26,1.85-3.46,2.7-1.81,1.19-3.68,2.26-5.59,3.27a85.89,85.89,0,0,1-8.54,3.69,97.27,97.27,0,0,1-10,2.67,84.37,84.37,0,0,1-9,1.2c-2.32.13-4.61.18-6.94.1q-2.73-.22-5.44-.68c-1.67-.37-3.29-.8-4.92-1.32-1.27-.49-2.51-1-3.74-1.58s-2.27-1.26-3.38-2c-1.64-1.15-3.22-2.36-4.75-3.66-1.06-1-2.06-2-3-3.05s-1.91-2.37-2.81-3.61c-1.11-1.7-2.12-3.42-3.07-5.21-.77-1.59-1.48-3.2-2.11-4.85-.43-1.33-.79-2.67-1.09-4-.26-1.55-.44-3.11-.58-4.68a53.34,53.34,0,0,1,.93-13.72c.26-1.21.52-2.42.89-3.61a5.08,5.08,0,0,0-9.8-2.7,46.85,46.85,0,0,0-1.3,5.6c-.28,1.63-.53,3.27-.67,4.92a63.25,63.25,0,0,0-.14,10.66,44.44,44.44,0,0,0,2.08,10.65,39.66,39.66,0,0,0,2,4.82c.81,1.65,1.61,3.32,2.58,4.89a48.62,48.62,0,0,0,10.95,12.83,45.39,45.39,0,0,0,13.91,7.94A51.57,51.57,0,0,0,664.74,493h.61a71.54,71.54,0,0,0,13.78-1.36,82.58,82.58,0,0,0,15-4.2A69.73,69.73,0,0,0,708.38,480a45.5,45.5,0,0,0,11.24-11.12,42.68,42.68,0,0,0,6.82-15.93,45.42,45.42,0,0,0,.18-15.56A66,66,0,0,0,725.07,429.83Z"/><path d="M764.29,426c0-.23-.06-.45-.1-.68,0-1.48-.07-3-.07-4.44a5.09,5.09,0,0,0-10.17,0q0,1.56,0,3.12a22.53,22.53,0,0,0-.39,5.64c0,2.38-.11,4.74-.26,7.11a18.15,18.15,0,0,0-.13,2.32,5.29,5.29,0,0,0,2.6,4.54,5.21,5.21,0,0,0,2.54.68,5.36,5.36,0,0,0,4.06-2,6.74,6.74,0,0,0,1.3-2.93,4.8,4.8,0,0,0,.65-1.85c.16-1.18.19-2.39.24-3.58s.11-2.49,0-3.73C764.59,428.85,764.47,427.42,764.29,426Z"/><path d="M817.25,460.89a7.84,7.84,0,0,0-2-4.4,7.17,7.17,0,0,0-1.65-1.36c0-.92-.12-1.85-.24-2.75a35.1,35.1,0,0,0-1.29-5.45,32.35,32.35,0,0,0-2.79-6.87,28.18,28.18,0,0,0-5.13-6,47.05,47.05,0,0,0-5-4.07,53.29,53.29,0,0,0-6-3.82,41.91,41.91,0,0,0-6-2.39c-.7-.25-1.38-.52-2.06-.84l-.33-.19a4.81,4.81,0,0,0,.09-.85c0-.17,0-.34,0-.51.13-1.14.35-2.3.57-3.44.34-1.61.64-3.25,1.13-4.83.08-.2.17-.4.26-.6a18.16,18.16,0,0,1,1.07-1.75l-.37.53a68.82,68.82,0,0,0,4.44-7.85A107.61,107.61,0,0,0,797.49,390a42.79,42.79,0,0,0,1.78-7.82,38.69,38.69,0,0,0,.42-7.75,47.77,47.77,0,0,0-3.29-13.76,101.11,101.11,0,0,0-5.68-12.71,65.58,65.58,0,0,0-8.49-12,60.21,60.21,0,0,0-4.48-4.56c-1.87-1.7-3.76-3.41-5.77-4.93a119.28,119.28,0,0,0-62.34-24.87c-5.17-.54-10.34-.69-15.53-.73-5,0-10-.21-15,.12-2.42.17-4.85.31-7.25.71s-5,.92-7.56,1.4c-5,1-10,2.27-14.92,3.53-2.28.59-4.57,1.19-6.84,1.86s-4.73,1.54-7.08,2.36a115.39,115.39,0,0,0-13.4,5.74,154.77,154.77,0,0,0-13.69,7.6,84.33,84.33,0,0,0-12.4,9.25c-3.61,3.35-7,7-10.35,10.56s-6.76,7.37-10.17,11-7,7.25-10.3,11a112.92,112.92,0,0,0-9.92,12.65,136.17,136.17,0,0,0-7.57,13.7c.07-.12.13-.24.19-.36-1.18,2.34-2.31,4.72-3.6,7q-1.69,3-3.59,5.85c-.82,1.17-1.67,2.32-2.6,3.41-.45.47-.9.92-1.37,1.35s-1.15.93-1.75,1.37-1,.59-1.48.86c-1,.47-2.07.87-3.13,1.25l-1.35.45a5.18,5.18,0,0,0-3.59,6.06c-3.79.44-7.6.76-11.41,1-3.57.23-7.14.42-10.71.42h-9.73c-6.56,0-13.13-.1-19.68-.52-3.18-.23-6.36-.48-9.53-.87-3.45-.42-6.89-1.08-10.3-1.71-2-.38-4.1-.79-6.16-1.07-1.71-.23-3.42-.44-5.13-.72-3.29-.52-6.59-1.11-9.86-1.76-4.33-.91-8.67-1.83-12.95-2.94-2.27-.58-4.58-1-6.89-1.4-1.84-.28-3.68-.46-5.51-.8s-3.86-.94-5.82-1.3-3.94-.65-5.89-1c-1.77-.37-3.52-.81-5.29-1.17-2-.41-3.95-.66-5.91-1A59.22,59.22,0,0,1,378.2,403c-1.06-.38-2.11-.81-3.19-1.11-.66-.18-1.32-.32-2-.51-.75-.54-1.5-1.07-2.28-1.56a5.12,5.12,0,0,0-4.63-3,4.9,4.9,0,0,0-1.67.31l-.07,0c-.66-.36-1.31-.74-1.95-1.13a5.19,5.19,0,0,0-2.21-1.17,7,7,0,0,0-.8-.11h0l.42,0-.17,0h0l-.27,0a2.58,2.58,0,0,0,0-.39,27.53,27.53,0,0,0-.12-3.4,29.26,29.26,0,0,0-2.1-7.27,35.87,35.87,0,0,0-3.38-6.47,45.25,45.25,0,0,0-5.22-6.19,61.76,61.76,0,0,0-6-5.43A48.5,48.5,0,0,0,329.13,358a42.47,42.47,0,0,0-7.62-2,10.81,10.81,0,0,0-6.09.5,20.65,20.65,0,0,0-2.3,1.3l-.63-.11c-1.47-.37-2.91-.81-4.35-1.29-4.84-1.73-9.53-3.8-14.55-5a55.13,55.13,0,0,0-7.86-1.43q-3.35-.28-6.7-.36a66.23,66.23,0,0,0-14.07.71,122.33,122.33,0,0,0-14.1,3.71c-5.1,1.65-10.38,3.17-14.75,6.39a19.46,19.46,0,0,0-5.69,6.7c-1.13,2.17-2,4.44-3,6.67l-.1.18c-.32.25-.64.49-1,.72-1.83,1.21-3.71,2.36-5.59,3.49-1.05.63-2.12,1.24-3.16,1.9a19.55,19.55,0,0,0-3.56,2.64,12,12,0,0,0-2.79,3.84,13.43,13.43,0,0,0-.95,3.89,35.87,35.87,0,0,0,.15,5.86c.17,2.15.51,4.27.73,6.4,0,.39,0,.77,0,1.15,0,.18,0,.36-.07.53s0,.06,0,.09l-.11.24,0,0-.08.1-.43.42c-.53.43-1.08.84-1.64,1.23-1.31.85-2.67,1.63-4,2.45a26.56,26.56,0,0,0-2.75,1.75l-.36.24a10.23,10.23,0,0,0-3.24,3.4c-1.48,2.76-1.36,6.17-1.51,9.23-.09,1.12-.21,2.23-.4,3.34-.17.78-.37,1.55-.61,2.31l-.27.63a1.59,1.59,0,0,1-.13.22l0,0c-.14.12-.29.23-.43.33a18.7,18.7,0,0,0-2.13,1.47,14.75,14.75,0,0,0-3,3.4,14.29,14.29,0,0,0-2.07,5.36,18.08,18.08,0,0,0,.53,7.17,34.92,34.92,0,0,0,2.88,7.49c1.08,2.08,2.41,4,3.54,6.07-.14.34-.28.68-.43,1-1.27,2.45-2.72,4.8-3.88,7.31a27.61,27.61,0,0,0-2,5.27,14,14,0,0,0,1,8.08,25.37,25.37,0,0,0,4.93,7.82,21,21,0,0,0,3.08,2.74c1.06.77,2.19,1.4,3.3,2.08.07.22.12.44.18.66.22,1.34.27,2.7.53,4a11,11,0,0,0,1.27,3.6,8.7,8.7,0,0,0,3,2.9c2.61,1.54,5.56,2.29,8.28,3.57,1.41.73,2.8,1.5,4.25,2.15.6.27,1.2.52,1.82.74a11.58,11.58,0,0,0,1.44.41l-.23.63a51.49,51.49,0,0,0-2.17,7.1,82.37,82.37,0,0,0-1.41,15.52c-.11,4.52-.15,9,0,13.55.11,4.82.26,9.61.76,14.4.24,2.4.5,4.8.92,7.17s.9,4.73,1.39,7.09l0-.23c0,.12,0,.24.07.35l.06.31c0-.06,0-.12,0-.19a86.18,86.18,0,0,1,1.4,10c.17,2.8.26,5.6.31,8.41s.17,5.56,0,8.33c-.08.72-.18,1.43-.31,2.15-1.22,5.5-2.93,10.92-3.61,16.54a258.13,258.13,0,0,0-1.81,29.81c0,4.88-.11,9.78,0,14.66s.32,10,.57,15a70.79,70.79,0,0,0,1.74,13.76c.54,2.11,1.26,4.17,1.87,6.26s1.09,4.21,1.56,6.34a52,52,0,0,0,1.69,6.13,17.72,17.72,0,0,0,4.62,7,68.08,68.08,0,0,0,5.91,4.67c1.69,1.26,3.47,2.45,5.08,3.8l.24.25.09.11v0l.06.15c.06.2.11.39.16.59.22,1.28.32,2.59.58,3.87a8.17,8.17,0,0,0,5.32,6c3,1.17,6.37,1.09,9.55,1.64.36.09.71.19,1.07.3s.53.22.8.35.65.37,1,.57c.62.44,1.22.92,1.88,1.31a10.53,10.53,0,0,0,3.62,1.21,50,50,0,0,0,5.75.4c1,.08,2.09.19,3.13.33.08.15.17.3.26.45a11.68,11.68,0,0,0,1.7,2.19,8.87,8.87,0,0,0,6.06,2.57,7.66,7.66,0,0,0,1.26-.11,17.65,17.65,0,0,0,5.73-2.18l.41-.25a12,12,0,0,0,7,2.31,11.63,11.63,0,0,0,5.07-1.55,26.36,26.36,0,0,0,2.42-1.64l.36.06a32.28,32.28,0,0,0,5.62.91c3,.11,5.61-1.35,8.21-2.68s5.45-2.27,8.06-3.64c4.64-2.43,9.24-5.3,12.61-9.39a52.86,52.86,0,0,0,3.85-5.52,28.37,28.37,0,0,0,2.53-4.74,11,11,0,0,0,2.21.91,15.15,15.15,0,0,0,4,.6h.08a9.79,9.79,0,0,0,5.42-1.92,28.8,28.8,0,0,0,2.45-2c.31.24.62.47.95.7a11.51,11.51,0,0,0,3.56,1.72,12.27,12.27,0,0,0,4.6.13c1-.1,2.05-.19,3.08-.26,3.12-.17,6.24,0,9.37,0a12.83,12.83,0,0,0,2.32-.08,6.86,6.86,0,0,0,4.41-2.57c1.2-1.52,1.5-3.48,2-5.29l.11-.26c.05-.09.1-.18.16-.27,1-1.37,2.12-2.62,3-4.07a45.32,45.32,0,0,0,2.67-5.07,51.11,51.11,0,0,0,3.54-11.17c1.3-6.8,2.36-13.65,3.71-20.44,1-4.53,2.13-9,3.18-13.51s1.88-9,2.8-13.59q.36-1.68.81-3.33c1.73.66,3.45,1.32,5.17,2,3.15,1.25,6.36,2.31,9.55,3.42l-.17-.06c4.15,1.45,8.32,2.83,12.49,4.21,9.54,3.17,19.23,6.18,29.24,7.4,5,.61,10.07,1,15.1,1.32,2.45.17,4.91.29,7.36.38q1,0,2.1,0a34.65,34.65,0,0,0,4.65-.28,5.27,5.27,0,0,0,1.44-.46,44.55,44.55,0,0,0,.27,6.74c.68,4.88,1.82,9.71,2.82,14.53s2,9.46,3.17,14.16,2.49,9.23,3.52,13.89a80,80,0,0,1,1.21,9.88c.14,2.45.24,4.9.4,7.34a37.55,37.55,0,0,0,1,7.33,19.2,19.2,0,0,0,5.63,8.87c1.72,1.59,3.65,2.88,5.46,4.36.38.36.76.73,1.13,1.12s.74.94,1.09,1.42.45.73.65,1.11a10.2,10.2,0,0,0,1.87,3,9,9,0,0,0,4.89,2.31,45.38,45.38,0,0,0,5.7.51c.21.8.34,1.61.58,2.4a9.3,9.3,0,0,0,2.29,4.11c1.84,1.82,4.45,2.16,6.91,2.15,1.59,0,3.17-.06,4.75,0,2.28.2,4.53.64,6.82.85a5.14,5.14,0,0,0,2,1c.68.27,1.35.57,2.06.79a34.69,34.69,0,0,0,3.47.77,35.55,35.55,0,0,0,7.07,1.13,9.21,9.21,0,0,0,5.39-1.54c.24-.16.47-.32.7-.5a32.65,32.65,0,0,0,2.55,2.44,16.68,16.68,0,0,0,6.93,3.53,11.93,11.93,0,0,0,2.78.33,9.1,9.1,0,0,0,6.45-2.45,7.34,7.34,0,0,0,1.17-1.47q.79.43,1.62.84a26.06,26.06,0,0,0,5.6,2,9.54,9.54,0,0,0,4.38.13,6.78,6.78,0,0,0,4.27-3.42c.16-.3.31-.6.44-.91a16.18,16.18,0,0,0,6.32,2.32,10,10,0,0,0,7.43-2.41,20.66,20.66,0,0,0,3.21-3.13,11,11,0,0,0,2-4.09,22,22,0,0,0,.52-4.51,11.89,11.89,0,0,0-.14-1.9,37.55,37.55,0,0,0,2.31-3.66,19,19,0,0,0,2.21-7,15.31,15.31,0,0,0-.38-4.71,13.14,13.14,0,0,0,4.24.94c.86,0,1.71,0,2.57,0s1.62,0,2.44,0,1.68.2,2.51.35a21.93,21.93,0,0,0,4.76.73H653c1.29-.05,2.56-.3,3.84-.43a44.14,44.14,0,0,1,4.74.13,35.69,35.69,0,0,0,5.94.05,13.66,13.66,0,0,0,8.67-3.8l.46-.48a14.22,14.22,0,0,0,2.88,1.86,10.74,10.74,0,0,0,7.19.66,9.23,9.23,0,0,0,5.8-4.21c.2-.38.39-.77.55-1.16a11.62,11.62,0,0,0,5.88,1.83,8.24,8.24,0,0,0,5.07-1.68,7.77,7.77,0,0,0,1.9-2.33,11.15,11.15,0,0,0,1.86-.51,13.31,13.31,0,0,0,3.88-2.67c.7-.61,1.43-1.21,2.12-1.84a16.47,16.47,0,0,0,2.43-2.9,24.47,24.47,0,0,0,2.91-6.34,32.58,32.58,0,0,0,1.41-5.91,45.94,45.94,0,0,0,.08-6.84q-.2-6.87-.72-13.72c-.16-2-.42-4.07-.72-6.09a15.3,15.3,0,0,0-1.2-4.5c-1.09-2.25-3-3.9-4.78-5.6,1.83-1.58,3.49-3.26,3.83-5.89a24.69,24.69,0,0,0,.06-3.22c0-1.21,0-2.44,0-3.65a70.46,70.46,0,0,0-.5-9.63c-.46-3.15-1.56-6.15-2.23-9.26a45.56,45.56,0,0,1-.72-4.78,32.69,32.69,0,0,0-.72-5,18.53,18.53,0,0,0-2.23-5.24c-1-1.59-2.05-3.11-3-4.75-.12-.25-.23-.51-.34-.77s-.12-.41-.17-.61v-.07l.12-.41c.45-1.13,1-2.21,1.47-3.35a12.62,12.62,0,0,0,.73-7.5,23.43,23.43,0,0,0-2.41-5.86c-.65-1.14-1.42-2.2-2.07-3.33,0-.13,0-.27,0-.41-.11-2.17,0-4.36-.31-6.52-.35-2.6-1.38-5-2-7.56-.06-.37-.11-.75-.14-1.13-.14-3.4.13-6.82.11-10.22a28.24,28.24,0,0,0-.27-4c-.15-1.13-.45-2.24-.7-3.36-.07-.38-.13-.77-.17-1.16-.1-2.37,0-4.78,0-7.15,0-3.09.09-6.19.28-9.28.1-1.24.2-2.48.41-3.71,0-.1.05-.2.08-.3a5.31,5.31,0,0,0,1.09-3.18,5.08,5.08,0,0,0-1.71-3.76c.16-1.43.38-2.86.64-4.27a4.82,4.82,0,0,0-.22-4,5.36,5.36,0,0,0,.1-1c0-2.67-.19-5.31-.38-8v-.12c.54-.56,1.1-1.09,1.67-1.61a13.19,13.19,0,0,1,1.12-.85l-.16.11c.68-.47,1.34-1,2-1.45l0,0c1.1-.05,2.22,0,3.31,0,.8,0,1.6.11,2.4.22a16.06,16.06,0,0,0,3.09.21,7.48,7.48,0,0,0,5.12-2.44.86.86,0,0,0,.13-.14,15,15,0,0,0,3.34.39c2.92,0,5.27-2,7.14-4a18.3,18.3,0,0,0,12.37,4.53c.55,0,1.09,0,1.63-.06a16,16,0,0,0,7-2,39.54,39.54,0,0,0,5.49-4.15c1.7-1.43,3.56-2.75,5.14-4.33.33-.34.65-.7,1-1.05h0c1.1,0,2.19,0,3.29.08l.2,0a55.45,55.45,0,0,0,7.39.56h1.07a40.21,40.21,0,0,0,5.37-.55,28.78,28.78,0,0,0,4.5-.94,15.41,15.41,0,0,0,4.91-2.66,22.81,22.81,0,0,0,3.89-4.59,19.94,19.94,0,0,0,2.54-5.33,21.39,21.39,0,0,0,.8-5.46,4.54,4.54,0,0,0-.37-2,10.73,10.73,0,0,0,1.83-.56,10.94,10.94,0,0,0,3.35-2.22c2.28-2.25,3-5.39,3.39-8.47.12-.94.18-1.89.23-2.83a6.6,6.6,0,0,0,1.09.11,7.06,7.06,0,0,0,2.72-.57,9,9,0,0,0,3.77-3.4,21.33,21.33,0,0,0,3-6.63A11.86,11.86,0,0,0,817.25,460.89ZM396.39,655.83c-1.35,6.48-3.13,12.87-4.45,19.37-1.38,6.84-2.44,13.73-3.75,20.58a46.88,46.88,0,0,1-1.29,4.82c-.65,1.79-1.37,3.55-2.19,5.28q-.65,1.25-1.38,2.46A56.71,56.71,0,0,0,380,713a13.21,13.21,0,0,0-1.16,3c-1.56,0-3.12-.09-4.67-.1-2.86,0-5.69.29-8.54.51h-.16l-.15-.09c-.54-.39-1.05-.81-1.6-1.18a14.13,14.13,0,0,0-3.64-1.88,7,7,0,0,0-5.79.86,20.09,20.09,0,0,0-2.45,2.06c-.55.47-1.11.93-1.7,1.36l0,0-.38-.06-.73-.2-.12,0-.11-.09-.45-.47c-.61-.73-1.17-1.49-1.76-2.23q.14-1.59.24-3.18c.17-2.48.39-5,.53-7.46.13-2.31.22-4.63.37-7a50.18,50.18,0,0,1,.74-5.6c.77-3.34,1.94-6.54,2.88-9.83a69.6,69.6,0,0,0,2.24-11.27c.78-6.83,1.09-13.7,1.51-20.56.19-2.87.44-5.74.58-8.62.12-2.35.17-4.72.31-7.08s.53-4.82.91-7.22c1.69.94,3.39,1.88,5.09,2.8,3.06,1.64,6.16,3.27,9.33,4.69s6.21,2.56,9.37,3.67c4.16,1.45,8.46,2.52,12.7,3.7,1.94.54,3.89,1,5.81,1.62C398,647.33,397.23,651.59,396.39,655.83ZM786.58,496c-.14.27-.29.52-.45.78-.54.76-1.1,1.51-1.69,2.24l-.27.28-.33.25c-.27.17-.55.34-.83.49l-.27.12c-.41.12-.82.21-1.23.3.75-.71,1.48-1.44,2.2-2.18a42.24,42.24,0,0,0,2.89-3.09c.22-.27.43-.56.62-.84a2.76,2.76,0,0,1-.08.27C787,495.05,786.79,495.51,786.58,496Zm12.27-42.57a5.61,5.61,0,0,0-4,5,13.7,13.7,0,0,0,.09,3.2c.28,2.17.7,4.31.88,6.5a71.37,71.37,0,0,1,.2,7.31,35.67,35.67,0,0,1-.47,3.72,4.61,4.61,0,0,1-.15.53l-.08.21h0l0,0-.41.1c-.81.16-1.63.3-2.42.54-.6.18-1.2.37-1.81.53a6.26,6.26,0,0,0-.51-.52A5.8,5.8,0,0,0,787,479a5.4,5.4,0,0,0-3.92,1.05c-2,1.52-2.66,4.23-3.41,6.56a14.93,14.93,0,0,1-.58,1.44c-.1.19-.21.37-.32.55s-.28.36-.43.54c-.92,1-1.86,2-2.83,2.93a19.45,19.45,0,0,0-2.14-3.37,6.26,6.26,0,0,0-4.73-2.53,5.79,5.79,0,0,0-4.64,2.35,13,13,0,0,0-1.5,2.77c-.39.84-.77,1.67-1.11,2.53-.77,2-1.51,4-2.44,5.89-.49.92-1,1.8-1.57,2.68-.33.45-.67.89-1,1.33s-.79.82-1.21,1.21C754,506,752.66,507,751.42,508s-2.44,2.1-3.75,3c-.24.15-.48.3-.74.44l-.33.14-.72.2c-.56.1-1.13.17-1.7.22s-1,0-1.52,0l-1.17-.16c-.37-.09-.75-.18-1.12-.3l-.57-.24c-.42-.23-.83-.48-1.24-.74s-.88-.63-1.31-1l-.74-.74c-.26-.31-.5-.63-.74-.95s-.46-.76-.68-1.15-.27-.6-.4-.91-.11-.4-.16-.61c-.17-1-.26-2.12-.51-3.16a7.86,7.86,0,0,0-2.58-4.18,5.09,5.09,0,0,0-8.15,4.72,4.91,4.91,0,0,0,.91,2.23c.11.69.18,1.37.3,2.06a16.43,16.43,0,0,0,.7,2.49,4.28,4.28,0,0,0-1,.82c-.36.41-.72.81-1.11,1.19l-.62-.1c-1.68-.38-3.39-.85-5.1-.31a6.55,6.55,0,0,0-3.17,2.15l-.36.47c-.82-.09-1.64-.18-2.46-.24-1.59-.11-3.14-.12-4.73-.11a9.59,9.59,0,0,0-4,.74,21.34,21.34,0,0,0-3.25,2.12,25.32,25.32,0,0,0-2.76,2.09l.48-.43c-1.8,1.59-3.82,3.3-4.71,5.6a11.48,11.48,0,0,0-.6,5.2c.05.75.13,1.49.18,2.24.09,1.5.11,3,.11,4.5a5,5,0,0,0,.52,2.18c-.13.52-.24,1.05-.32,1.54-.14.79-.25,1.57-.37,2.36a28.29,28.29,0,0,0-.45,4.41,5,5,0,0,0,1.07,3.06l0,0a29.85,29.85,0,0,0-.69,4.8c-.25,3.29-.35,6.57-.39,9.85,0,2.64-.07,5.28-.06,7.91a28.42,28.42,0,0,0,.88,5.87,16.31,16.31,0,0,1,.22,1.83c.2,3.88-.25,7.77-.07,11.65a24.83,24.83,0,0,0,1.19,6.26c.32,1,.66,2,.91,3,.07.45.13.9.17,1.35.08,1.57.07,3.14.17,4.71a11.22,11.22,0,0,0,1.3,5.1c.74,1.32,1.64,2.55,2.37,3.89.36.73.68,1.47,1,2.23,0,.17.1.34.14.51l0,.15v0l0,.21c-.07.27-.14.54-.22.81-.48,1.2-1.09,2.35-1.55,3.56a11.25,11.25,0,0,0-.39,7.18c1,3.46,3.27,6.19,5,9.27.12.25.23.5.33.76s.24.82.34,1.24c.22,1.34.32,2.68.46,4,.17,1.5.43,3,.72,4.47s.59,2.8,1,4.18.73,2.49,1,3.76c.2,1.09.33,2.19.43,3.31.14,2.41.15,4.83.17,7.26,0,1.2,0,2.4,0,3.6l-.09.09a21.33,21.33,0,0,0-3,2.72,8.62,8.62,0,0,0-1.8,5.31c-.07,3,2,5.17,4,7,.92.87,1.84,1.76,2.69,2.7.1.32.18.64.26,1a71,71,0,0,1,.86,7.27c.17,2.92.37,5.83.48,8.76.1,2.67.28,5.38.16,8.06-.06.59-.15,1.16-.26,1.74-.33,1.42-.76,2.83-1.22,4.22a9.28,9.28,0,0,1-.37.86c-.33.63-.69,1.26-1.07,1.87-.09.11-.17.23-.27.34-.25.28-.52.54-.8.8-.53.45-1.07.91-1.59,1.37-.33.28-.66.55-1,.8l-.33,0c-.38,0-.75,0-1.12.07a6.09,6.09,0,0,0-3,1.23,5.54,5.54,0,0,0-1.59,1.82c-1.24-.71-2.44-1.48-3.66-2.22a22.28,22.28,0,0,0-2-1.16,5.59,5.59,0,0,0-4.53-.14,6.92,6.92,0,0,0-3.82,5.74c-.09.72-.15,1.44-.2,2.17l-.29-.17-.42-.34q-.44-.41-.84-.84a19.08,19.08,0,0,0-2-2,5.9,5.9,0,0,0-5.33-1.24c-2.48.68-3.73,3-5.26,4.84l-.69.7-.3.24h0l-.3.13-.58.17c-.46.07-.91.14-1.38.19-2.63.11-5.25-.15-7.88-.26a42.59,42.59,0,0,0-5.65.43h-.42l-.49-.07a40,40,0,0,0-5.21-.92,35.06,35.06,0,0,0-3.55-.09c-.81,0-1.61,0-2.4,0l-.27,0-.11,0-.49-.2-.84-.49,0,0a5.17,5.17,0,0,0-4.07-1.95,11.41,11.41,0,0,0,.38-3.79,29.43,29.43,0,0,0-1-4.36c0-.1,0-.2,0-.3h0c0-.34.09-.67.14-1,.17-1,.37-2,.55-3.07.36-2,.66-4.1.9-6.18s.33-4.38.37-6.59a34.56,34.56,0,0,0-.3-6.43c-.64-3.86-2-7.53-2.88-11.34-.06-.34-.11-.69-.16-1,0-.59,0-1.17,0-1.75.16-1.76.43-3.51.55-5.28.14-1.94.13-3.89.13-5.84,0-4,0-7.88-.21-11.81-.21-4.73-.65-9.48-.6-14.22a18.84,18.84,0,0,0,2.75-1.67,26.48,26.48,0,0,0,4.94-4.81c2.84-3.45,5.25-7.23,8.13-10.64,1-1.13,2.1-2.2,3.23-3.22,2.68-2.3,5.62-4.32,7.84-7.09a21.78,21.78,0,0,0,2.64-4.13c.53-1.11.88-2.29,1.35-3.43a5.08,5.08,0,1,0-9.37-3.95c-.46,1.1-.82,2.24-1.31,3.34l-.39.64c-.46.66-1,1.3-1.47,1.91-.27.28-.55.56-.85.82-1.57,1.33-3.21,2.58-4.76,3.93a48.44,48.44,0,0,0-5.14,5.19c-3,3.51-5.46,7.47-8.45,11-.5.55-1,1.07-1.55,1.58-.36.28-.72.56-1.09.83l-.71.44c-.54.23-1.1.42-1.66.64a6.94,6.94,0,0,0-2.93,2.17,8.58,8.58,0,0,0-1.35,5.06c-.11,2.59,0,5.2.18,7.79.22,4,.49,8.06.58,12.09s.15,8.15,0,12.2c-.29,3.6-1.09,7.21-.35,10.81.39,1.92.85,3.82,1.41,5.69.45,1.53.93,3,1.28,4.6.16.84.29,1.69.38,2.55a63.76,63.76,0,0,1-.14,7c-.32,3.57-1,7.07-1.57,10.6a13.14,13.14,0,0,0-.17,1.37,5.22,5.22,0,0,0-.05,1.25,13.29,13.29,0,0,0,.29,2.71c.19.9.52,1.76.76,2.64l0,.19c-.27,1.12-.64,2.2-.9,3.32a13.52,13.52,0,0,0-.26,5,29.62,29.62,0,0,0,1,4.95c.39,1.3.87,2.57,1.2,3.88.06.34.1.67.14,1s0,.41,0,.61c0,0,0,.05,0,.08-.14.57-.29,1.13-.47,1.69-.14.34-.28.68-.44,1-.46.84-1,1.65-1.51,2.45a10.81,10.81,0,0,0-2.17,4.54,12.43,12.43,0,0,0,.17,3.23c0,.3,0,.6,0,.9,0,.48-.09,1-.17,1.44a1.46,1.46,0,0,0-.05.2l0,0-.09.15-.08.1c-.38.39-.8.76-1.21,1.12l-.44.39-.24-.07c-.41-.16-.81-.34-1.2-.52-3-1.55-6.19-3.57-9.69-2.75a6.36,6.36,0,0,0-4.36,4.06c-.11.29-.21.59-.31.88-.72-.29-1.42-.6-2.12-.94-2.44-1.32-4.61-3.2-7.39-3.71a5.79,5.79,0,0,0-6.09,3.46,10.9,10.9,0,0,0-.63,2.35l-.15,0c-.26-.1-.51-.21-.77-.33l-.74-.44c-.34-.26-.67-.53-1-.8-1.07-1-2.06-2.08-3-3.18-1.38-1.55-3-2.81-5.15-2.81-2.45,0-4.34,1.56-6.09,3.09-.17.15-.35.29-.53.43h0c-.9-.1-1.8-.24-2.69-.42l-3.65-.75c-.5-.11-1-.23-1.47-.38a14.48,14.48,0,0,0-2.74-.92,4.52,4.52,0,0,0-2.52-1.1c-2.18-.19-4.32-.61-6.48-.82a46.38,46.38,0,0,0-4.71-.13h-1.53c0-.21-.09-.43-.14-.65a12.33,12.33,0,0,0-1.75-4.08,8.87,8.87,0,0,0-6.09-3.75c-1.21-.17-2.44-.19-3.65-.26-.64,0-1.28-.11-1.91-.2a20.26,20.26,0,0,0-1-1.87,22.38,22.38,0,0,0-3-3.69c-1.81-1.8-4-3.17-5.9-4.79q-.71-.66-1.35-1.35c-.37-.44-.71-.89-1-1.36-.18-.3-.36-.59-.53-.9l-.13-.31c-.13-.4-.23-.81-.33-1.22-.25-1.47-.38-2.94-.5-4.42-.27-4.23-.36-8.48-.82-12.7a93,93,0,0,0-2.93-14c-2.3-8.5-4.11-17.13-5.89-25.76,0,.22.09.45.13.67a97,97,0,0,1-1.81-10.28c-.14-2.81-.05-5.65,0-8.46.05-2.4.15-4.78.29-7.17a113.06,113.06,0,0,1,1.49-11.88c.53-2.93.9-5.86,1.21-8.81a5.09,5.09,0,0,0-10.08-1.38c-.17,1.57-.3,3.12-.53,4.68-.34,2.32-.82,4.62-1.17,6.93a120.49,120.49,0,0,0-1.22,12.87,5,5,0,0,0-3-.56c-.56.08-1.11.14-1.67.19-1.63.07-3.28,0-4.92-.07s-3.2-.15-4.79-.25a171.54,171.54,0,0,1-21.81-2.4c-5.19-1.13-10.33-2.53-15.4-4.14s-10-3.23-14.91-4.94l.45.16c-2.67-.94-5.35-1.85-8-2.78s-5.47-2.12-8.21-3.16c-3.12-1.19-6.25-2.31-9.42-3.37-6.56-2.19-13.39-3.57-20-5.75h0a112.66,112.66,0,0,1-12.83-5.4c-3.58-1.83-7.11-3.78-10.63-5.73l-5.59-3c-1.33-.72-2.73-1.39-4-2.19a5,5,0,0,0-3-1,4.28,4.28,0,0,0-.72,0,5.08,5.08,0,0,0-2.91,8.63,6.88,6.88,0,0,0,1.81,1.25l1.65.92a5.23,5.23,0,0,0-1,2.38,98.23,98.23,0,0,0-1.19,10c-.19,3.06-.25,6.13-.43,9.2-.42,6-.75,11.93-1.14,17.9a114,114,0,0,1-1.65,13.4c-1.14,5-3.09,9.76-4.11,14.8s-1,10.48-1.37,15.73v0a125.85,125.85,0,0,1-1.3,13.72c-.27,1.22-.56,2.45-.94,3.64l-.18.43c-.85,1.56-1.79,3.06-2.77,4.54-.74,1.07-1.5,2.11-2.33,3.1-.44.47-.89.91-1.36,1.34a31.61,31.61,0,0,1-2.53,1.91c-1.72,1.13-3.52,2.18-5.35,3.15s-3.62,1.58-5.43,2.39c-1.43.64-2.81,1.36-4.2,2.08-.35.16-.7.32-1.06.46l-.29.08h-.15c-.53,0-1.06-.12-1.59-.22a32.9,32.9,0,0,0-3.79-.73,9,9,0,0,0-5.61,1.18c-.81.51-1.58,1.08-2.36,1.63l-.35.21-.3.13-.37-.16c-.49-.28-1-.58-1.43-.9a10.27,10.27,0,0,0-3.16-1.65,6.49,6.49,0,0,0-5.09.7c-.94.59-1.85,1.19-2.82,1.71l-.52.24a14.38,14.38,0,0,0-1.17-1.85,8.33,8.33,0,0,0-5.83-2.9c-2.44-.32-4.87-.43-7.32-.58-.61-.05-1.21-.11-1.82-.2l-.06,0a27.05,27.05,0,0,0-2.29-1.55,17.4,17.4,0,0,0-4.6-1.88c-2.61-.63-5.3-.69-7.93-1.15a22.76,22.76,0,0,0-.82-4.31,11.89,11.89,0,0,0-4.24-5.76c-3.26-2.46-6.64-4.78-9.75-7.42l-.71-.69-.56-.72c-.14-.23-.27-.46-.4-.69-.26-.56-.49-1.12-.71-1.7-.92-3-1.45-6.09-2.23-9.12-.85-3.29-2-6.48-2.78-9.8a56.83,56.83,0,0,1-.84-6.64c-.52-8.13-.78-16.3-.77-24.44,0-7.31,0-14.61.45-21.91a161.85,161.85,0,0,1,1.86-18.13c.82-3.83,1.89-7.61,2.73-11.43a32.18,32.18,0,0,0,.77-6.78c0-2,0-3.94-.06-5.92-.07-4.05-.17-8.12-.54-12.15A104.85,104.85,0,0,0,230.23,575a125.39,125.39,0,0,1-2.09-15.46c-.27-4.66-.4-9.36-.37-14,0-5,.07-9.93.36-14.89a61.39,61.39,0,0,1,.75-6.22c.37-1.61.79-3.19,1.31-4.75.34-1,.69-1.91,1.08-2.85a5.1,5.1,0,0,0,1.45-4.27,5.15,5.15,0,0,0-3.78-4.23,5.09,5.09,0,0,0-5-4.4h-.15c-.84-.32-1.66-.69-2.47-1.08a54,54,0,0,0-5.53-2.66c-1.44-.55-2.9-1.06-4.31-1.69l0,0a38.07,38.07,0,0,0-1-5.88,9.65,9.65,0,0,0-4.21-5.44c-.86-.53-1.73-1-2.57-1.56l-.87-.66c-.41-.38-.8-.77-1.19-1.18s-.83-1.06-1.23-1.61-.6-1-.9-1.5-.42-.93-.61-1.41-.26-.83-.37-1.25c0-.14-.05-.28-.07-.42s0-.17,0-.26l0-.19.09-.33c.47-1.24,1-2.44,1.57-3.63.8-1.53,1.64-3,2.47-4.53.46-.85.9-1.7,1.29-2.58a10.7,10.7,0,0,0,1.17-4.73,10.48,10.48,0,0,0-.57-3.09,13.15,13.15,0,0,0-.85-1.83c-.37-.7-.81-1.38-1.22-2.07-.85-1.36-1.65-2.73-2.4-4.15-.46-1-.88-2-1.26-3s-.55-1.93-.77-2.91c-.07-.41-.12-.8-.17-1.21v-.28c0-.2.06-.4.09-.6l.12-.41.27-.65.24-.42.33-.42.24-.25c.21-.16.42-.33.64-.48a17.12,17.12,0,0,0,3.14-2.41,12.37,12.37,0,0,0,2.55-4.25,26.74,26.74,0,0,0,1.5-6.55c.18-1.77.23-3.54.34-5.31.05-.56.11-1.13.19-1.69l.43-.31c1.95-1.27,4-2.39,5.94-3.65,2.44-1.58,4.81-3.38,6.19-6a14.5,14.5,0,0,0,1.17-8.69c-.24-2-.51-4-.68-6-.07-1.14-.11-2.28-.1-3.43l0-.2,0-.13.06-.15.12-.2.18-.25.29-.28c.33-.27.66-.53,1-.77,3.11-2,6.34-3.74,9.39-5.79a14.32,14.32,0,0,0,3.74-3.09,16.08,16.08,0,0,0,1.8-3.21c.65-1.49,1.27-3,2-4.45.35-.65.71-1.28,1.1-1.91.23-.31.46-.61.7-.9s.6-.61.92-.91.76-.61,1.15-.9.87-.53,1.32-.78a42.88,42.88,0,0,1,4.39-1.78,146.64,146.64,0,0,1,17.09-5c1.74-.33,3.47-.58,5.24-.74a108.46,108.46,0,0,1,12.36.16,50.53,50.53,0,0,1,5.33.72,70.09,70.09,0,0,1,7.52,2c3.53,1.31,7,2.77,10.56,3.91.9.29,1.79.57,2.7.79a15.65,15.65,0,0,0,4.13.63,8.93,8.93,0,0,0,4.48-1.26c.42-.27.82-.54,1.25-.8.6.07,1.21.17,1.81.28,1.48.33,2.94.72,4.38,1.18s2.81,1.13,4.17,1.79q2.47,1.27,4.81,2.78,2,1.38,3.82,3a70,70,0,0,1,5.18,5.16c.7.82,1.37,1.65,2,2.52.48.75.92,1.5,1.34,2.28.59,1.23,1.12,2.48,1.6,3.77a30.55,30.55,0,0,1,.86,3c.05.28.08.55.11.83,0,.58,0,1.15,0,1.72a5.11,5.11,0,0,0,2.64,4.42,5.17,5.17,0,0,0-2.49,2.6l-1,0c-2.4-.06-4.81,0-7.21-.13-3.41-.28-6.75-1-10.18-1.12a44,44,0,0,0-7,.33c-1.68.2-3.35.49-5,.66-1.5.16-3,.27-4.49.38-3.65.28-7.28.71-10.92,1-3.91.24-7.82.45-11.73.78a23,23,0,0,0-6.3,1.25c-1.8.68-3.63,1.37-5.37,2.2-3.62,1.71-7.35,3.78-10.06,6.79a36.27,36.27,0,0,0-3.94,5.56c-1.19,2-2.32,4-3.33,6.06a5.08,5.08,0,0,0,4.64,7.06,5.34,5.34,0,0,0,4.72-3.11l.11-.2c1.2-2.31,2.52-4.54,3.93-6.72.4-.57.82-1.13,1.26-1.67q.38-.42.78-.81c.4-.33.81-.64,1.23-.94q2-1.31,4.12-2.42c1.91-.9,3.87-1.7,5.85-2.42.31-.1.61-.18.92-.26,1.53-.23,3.06-.31,4.59-.43,1.37-.11,2.73-.23,4.1-.33,2.53-.14,5.06-.22,7.58-.46,2.84-.27,5.68-.56,8.52-.78,2.21-.18,4.43-.32,6.63-.61,2-.26,3.92-.54,5.89-.71a37.05,37.05,0,0,1,3.8,0c3.48.27,6.9,1,10.39,1.12,3.07.07,6.15.05,9.21.22a37.65,37.65,0,0,0,4.36.34,6.29,6.29,0,0,0,4.31-1.66,5.79,5.79,0,0,0,1.59-3.32c.87.34,1.76.65,2.66,1l.59.23c.47.26.93.54,1.39.83a13.47,13.47,0,0,0,3,1.91c1.23.47,2.52.7,3.77,1.1,1,.36,2,.74,3,1.07,1.22.39,2.46.68,3.7,1,2.92.73,5.87,1.14,8.82,1.71,1.68.37,3.35.77,5,1.13,2.31.48,4.63.81,6.95,1.23,2.59.56,5.14,1.26,7.77,1.64,2.18.32,4.37.58,6.53,1s4.47,1.12,6.71,1.61c4.69,1,9.35,2.11,14.07,2.94,2.13.37,4.26.79,6.41,1.11s4.37.57,6.55.94c4.53.76,9,1.74,13.59,2.35,4.09.55,8.21.87,12.32,1.12,7.55.45,15.12.49,22.68.49h4.58c5.16,0,10.29-.24,15.44-.63,4.79-.36,9.57-.82,14.33-1.51a5.14,5.14,0,0,0,4.34-5.73,4.76,4.76,0,0,0-.38-1.3,25.61,25.61,0,0,0,5-2.52,30,30,0,0,0,8-8,83.82,83.82,0,0,0,5.34-8.68c1.66-3.12,3.21-6.3,4.78-9.46a108.07,108.07,0,0,1,5.78-10,114,114,0,0,1,8-10.17c2.62-2.93,5.39-5.71,8.05-8.59s5.21-5.65,7.8-8.47,5.4-5.86,8.17-8.72c2.59-2.7,5.19-5.39,8-7.89,2.11-1.76,4.3-3.37,6.57-4.91a143.75,143.75,0,0,1,14.63-8.48c2.53-1.26,5.07-2.52,7.67-3.61s5.06-2,7.63-2.86c3.83-1.31,7.72-2.38,11.64-3.38,4.1-1.06,8.2-2.11,12.35-3l-.09,0a114.05,114.05,0,0,1,14.23-2.21c4.12-.23,8.24-.16,12.35-.15,4.3,0,8.59,0,12.88.28a134.5,134.5,0,0,1,15.88,2.09,96,96,0,0,1,10.67,2.89,162.94,162.94,0,0,1,17.48,7.45,138.27,138.27,0,0,1,14,8.19,76.23,76.23,0,0,1,6.71,5.17,75.13,75.13,0,0,1,6,5.93,68.27,68.27,0,0,1,4.26,5.49,70.69,70.69,0,0,1,3.81,6.64,99.75,99.75,0,0,1,4.38,10.47,58.44,58.44,0,0,1,1.76,6.07c.17,1,.3,1.95.4,2.93a32.81,32.81,0,0,1,0,3.29,55.23,55.23,0,0,1-.77,5.57,35.19,35.19,0,0,1-1,3.62,110.07,110.07,0,0,1-5,12,66.47,66.47,0,0,1-3.35,6.08A21.28,21.28,0,0,0,777.2,409a31.81,31.81,0,0,0-1.35,5c-.38,1.72-.66,3.44-1,5.18a15.34,15.34,0,0,0-.24,2.71c0,.07,0,.14,0,.21a5,5,0,0,0-.67,1.42,5.35,5.35,0,0,0,.52,3.92c.82,1.63,2.52,2.58,4,3.48a22.77,22.77,0,0,0,3.47,1.79c1.14.44,2.3.83,3.45,1.22,1,.35,1.93.74,2.87,1.17,1.19.64,2.32,1.34,3.44,2.09a55.1,55.1,0,0,1,4.49,3.4q1.63,1.5,3.12,3.14c.31.37.61.74.89,1.12s.31.51.46.78c.45,1,.84,2,1.2,3,.46,1.41.89,2.84,1.21,4.28.07.42.13.84.18,1.27A5.65,5.65,0,0,0,798.85,453.39Z"/></g></svg>