<svg xmlns="http://www.w3.org/2000/svg" viewBox="0 0 1000 1000"><defs><style>.cls-1{opacity:0.2;}.cls-2{fill:#fff;}.cls-3{fill:#332b24;}.cls-4{fill:#e0d9d9;}</style></defs><g id="レイヤー_1" data-name="レイヤー 1"><path class="cls-1" d="M465.24,758.49c-5.6-.18-11.25-.16-16.85-.46-12.33-.9-23.84-5.8-35-10.71-4.21-1.87-8.44-3.84-12.62-5.78a87.18,87.18,0,0,1-9.43-4.7,40.2,40.2,0,0,1-13.12-14.68,39.51,39.51,0,0,1-3.72-13.06,115.27,115.27,0,0,1,.19-12.19c.24-4.56.29-9.16.37-13.72.07-5.15-.07-10.43-1.51-15.41a21.73,21.73,0,0,0-4.26-7.51c-2.3-2.92-4.89-5.62-7.4-8.34-3.3-3.54-6.34-7.34-9.38-11.09-4.85-5.39-10.08-10.63-13.76-16.93l0-.12,13-6.45a31.29,31.29,0,0,1,5.35-8.85c4.05-5.56,9.08-10.39,13.36-15.76,4-5,7.77-10.38,12.36-14.9,8.74-8.5,19.81-14.33,30.84-19.3s22.94-8.55,34.55-12.12c7-2.2,14.23-5,21.29-7,9.61-2.64,19.91-4.17,29.76-5.54,7-1,14.44-2.59,21.42-3.63,9.52-1.24,19.42-2.08,28.93-3.28.5-1.43,64.62,1.12,67.24,1,32.26,1,65.32-.34,96.67,8.56,7.69,2,15.74,4.2,23.44,6.16,3.73,1,23.67,8,27.72,9.12,7.26,3.94,37.2,19.24,43.69,23.57,12.45,7.59,25.48,14.89,35.72,25.45,15.74,15.91,18.61,31,3.1,48.59a176.44,176.44,0,0,1-18.43,19.35C813.51,682.87,794.8,692.6,776,701c-9.11,4-18.24,8.07-27.6,11.43A465.72,465.72,0,0,1,701.91,726c-5.77,1.43-11.78,2.37-17.47,4.12a183.24,183.24,0,0,0-20.12,8.27c-19.34,10-40.54,16.93-62.41,17.82-6.81.44-13.69,1.22-20.52,1.36-12,0-24.09-.47-36.13-.72-9.91-.18-19.78-1.7-29.7-1.49C498.74,755.57,482.07,758.57,465.24,758.49Z"/></g><g id="レイヤー_5" data-name="レイヤー 5"><path class="cls-2" d="M471.57,747.11c-3.62-.2-7-1.67-10.35-3-2.12-.84-4.36-1.41-6.5-2.2a76.17,76.17,0,0,1-7.46-3.3c-2.43-1.3-4.91-2.66-7.22-4.18-2.55-1.79-5-3.76-7.47-5.69-6.89-5.17-13.28-11.24-17.9-18.57-2-3-3.85-6.22-5.67-9.39a38.82,38.82,0,0,1-3.29-6c-1.15-3.5-1.51-7.24-2.77-10.72a11,11,0,0,0-3.85-5.24,44.36,44.36,0,0,0-4.91-2.72c-2.6-1.24-5.4-2-8-3.17-3.54-1.48-6.9-3.38-10.47-4.82-2.22-.86-4.44-1.76-6.74-2.42a26.88,26.88,0,0,1-5.6-2.67c-2.92-1.83-5.74-3.82-8.68-5.63-3.8-2.18-7.54-4.46-11.39-6.54-1.92-1-3.91-1.93-5.83-3s-3.67-2-5.54-3a102.92,102.92,0,0,1-9.1-5,78.42,78.42,0,0,1-11-8.23c-2.91-2.72-5.24-6-7.92-8.9a71.76,71.76,0,0,1-5.5-6.93,41.74,41.74,0,0,1-2.6-4.55c-1-2-2.05-4-3.08-6s-1.79-3.94-2.65-5.92a53.51,53.51,0,0,1-2.4-9.25c-.63-2.67-1.58-5.26-2.16-7.94a54.85,54.85,0,0,1-1.28-6.06,57.89,57.89,0,0,1-.07-6.18c0-4.83.57-9.67.32-14.5a78.55,78.55,0,0,0-2.69-14,22.26,22.26,0,0,1-.87-5.05c-.05-2.88-.07-5.77-.26-8.64-.22-3.62-1.16-7.17-1.18-10.81-.09-2.88-.19-5.77-.53-8.63s-.93-5.81-1.27-8.72a43.84,43.84,0,0,1,0-12.53c.8-4.76,2.06-9.46,2.34-14.29s.16-9.45.51-14.16a75.4,75.4,0,0,1,1.1-7.92c.44-2.39,1.1-4.74,1.62-7.11.46-2.06.76-4.17,1.38-6.19.62-2.2,1.5-4.32,2.23-6.48,1.16-3.75,2.34-7.51,3.81-11.15,1.62-4.16,3.05-8.41,4.54-12.62,1.05-2.67,2.34-5.26,3.59-7.84,1.62-3.15,3.12-6.37,4.75-9.5,1.56-2.88,3.25-5.69,4.64-8.66,3.52-7,6.16-14.5,10.23-21.23l-.09,0a82,82,0,0,1,3.77-7.57c1.78-3.43,3.51-6.9,5.32-10.31,2.35-4.33,4.37-8.88,7.24-12.9a54.32,54.32,0,0,1,6.42-7.54,72.2,72.2,0,0,0,6.08-6.41c2.57-3.15,5-6.45,7.49-9.65,1.52-2,3-4,4.69-5.79,2.5-2.7,5.7-4.62,8.35-7.15,2.91-2.67,5.42-5.75,8.31-8.44,1.55-1.41,3.36-2.5,5-3.76,4.27-3.32,8.72-6.41,12.91-9.83.62-.49,1.24-1,1.87-1.49a31.15,31.15,0,0,1,3.71-4c6.18-5.15,13.71-8.27,21-11.41a70.51,70.51,0,0,0,12.27-6.41,154.76,154.76,0,0,1,14.55-8.69c4.19-2.42,8.43-4.9,13.09-6.31,5.58-1.57,11.13-3.33,16.67-5a104,104,0,0,1,11.47-3.13c7.05-1.59,14.22-2.56,21.36-3.59,6.31-1.07,12.67-1.86,19-2.51,5.59-.53,11.21-.93,16.81-1.33a223.4,223.4,0,0,1,34.7,1.27c3.31.35,6.62.83,9.94,1.1,1.65.16,3.33.19,5,.37,1.83.21,3.65.5,5.48.71,6.23.86,12.54,1.2,18.77,2.08,3.68.56,7.28,1.52,10.9,2.36a63.73,63.73,0,0,1,7.27,2.27c3.94,1.3,7.85,2.74,11.73,4.2,3.23,1.21,6.51,2.33,9.76,3.46A111,111,0,0,0,672,238.5a64.14,64.14,0,0,1,11.48,3.65c5.94,2.56,11.79,5.38,18,7.32,3.07,1.18,6.21,2.2,9.35,3.2a94.83,94.83,0,0,1,9.89,4,41.06,41.06,0,0,1,5,2.91c1.62,1,3.3,1.91,4.92,2.9,3.14,1.84,6.17,3.89,9.3,5.77A48.93,48.93,0,0,0,744,271c5.16,3.06,11.11,4.54,16.15,7.8a14.11,14.11,0,0,1,5.12,6.91c1.53,3.9,3.08,7.87,5.79,11.11,1.68,2.07,3.47,4.08,5.33,6a67.15,67.15,0,0,1,7,7.43c1.43,1.91,2.55,4.06,3.86,6.05a54.5,54.5,0,0,1,4,6.26c1.07,2.32,2.18,4.65,3.16,7a41.74,41.74,0,0,0,2.44,5.77c2,3.72,4.26,7.39,6.07,11.24,1.23,3.18,2.22,6.47,3.72,9.54,2.09,4.78,4.58,9.39,6.42,14.27,1.08,2.93,1.69,6,2.48,9a54.08,54.08,0,0,0,3.42,8.48c1.3,3.07,2.73,6.1,3.88,9.24a28,28,0,0,1,1.12,4.13,26.7,26.7,0,0,1,1.19,3.5c1.22,4.66,2.22,9.38,3.7,14,1.16,3.89,2.62,7.7,3.61,11.65.84,3.64,2,7.17,3,10.78s1.57,7.38,2,11.12c.38,2.48.88,4.95,1.2,7.44a130.52,130.52,0,0,0,2,13.35c1.43,5.4,3.51,10.59,4.14,16.19a96.54,96.54,0,0,1,.68,14.82,100.47,100.47,0,0,1-1,17.42c-1.86,13-6.17,25.49-10.45,37.86-2.16,6.16-4,12.49-6.67,18.46a124.19,124.19,0,0,1-17.52,27.89c-3.72,4.41-7.28,9.09-11.37,13.17-5,4.9-10.53,9.39-15.32,14.51-6.42,6.56-12.57,13.49-19.37,19.66-3.09,2.71-6.66,4.92-9.81,7.57-7,6.27-13.19,13.47-20.43,19.51-2.3,2-4.45,4.28-6.79,6.25-1.9,1.58-4,3-6,4.42s-4.11,3.07-6.24,4.49c-1.92,1.27-4,2.39-5.75,3.83-1.33,1-2.48,2.27-3.82,3.27a53.69,53.69,0,0,1-6.54,4.07,119.18,119.18,0,0,0-10.49,6.09c-2.11,1.54-4.19,3.27-6.79,3.89-2.23.57-4.56.72-6.81,1.27-2.51.6-4.95,1.46-7.39,2.29-1.34.49-2.64,1.13-4,1.65s-2.67.89-4,1.41c-1.48.56-2.92,1.26-4.4,1.83-2.28.79-4.61,1.46-7,2.07-2.81.8-5.78.79-8.62,1.44-2.36.5-4.44,1.8-6.68,2.66-4.94,1.84-7.77,2.61-13.24,1.23-4.78-1-9.67-2.44-13.55-5.53l0-.13c-4,3.81-6.54,9.83-12.31,11.14a28.85,28.85,0,0,1-7,.35c-3.2-.07-6.41-.35-9.61-.62-8.58-.42-15.11-1.24-21.88-7.07-2.39-2.07-4.63-4.8-7.85-5.51a5.62,5.62,0,0,0-3.27.74,16.43,16.43,0,0,0-4.43,3.2c-1.34,1.33-2.52,2.83-3.94,4.09a21.26,21.26,0,0,1-3.23,2.6,18.46,18.46,0,0,1-3.9,1.62c-2.56.66-5.23.73-7.83,1.2-3.92.75-7.56,2.46-11.34,3.68-1.59.55-3.22,1-4.82,1.46a45.6,45.6,0,0,1-5.6,1.45c-1.74.27-3.51.17-5.25.43-1.94.22-3.82.8-5.74,1.11-2.39.33-4.81-.15-7.22,0a44.69,44.69,0,0,0-4.77.25C474.1,746.84,472.84,747.1,471.57,747.11Z"/></g><g id="レイヤー_4" data-name="レイヤー 4"><path class="cls-3" d="M529,566.47c-.59-.25-.92-.93-1.29-1.42a24.32,24.32,0,0,1-1.88-3.57c-2.25-5.06-3.16-10.56-3.88-16-.19-1.39-.37-2.8-.56-4.19.11-1.17-3.44-9.66-3-10.83a51.13,51.13,0,0,1,2.39-13.09,18.43,18.43,0,0,1,6.05-9.32c2.2-2.05,5-3.92,8.19-3.39a9.77,9.77,0,0,1,7.33,7.06c2.39,10.25-6.77,22.88-10.51,32.2-2.14,5.1-2.68,10.7-2.74,16.19,0,1.45.08,2.93.13,4.39,0,.43,0,.88,0,1.32C529.29,566,529.32,566.44,529,566.47Z"/><path class="cls-4" d="M367.86,647.77a36,36,0,0,1-15.07-2.93c-2.05-1-3.85-2.36-5.88-3.35-3-1.49-6.26-2.44-9.25-4a96.11,96.11,0,0,1-9.55-6.06c-2.69-1.85-5.33-3.8-7.85-5.88a19.72,19.72,0,0,1-4.57-5.92c-1.95-3.74-3.62-7.78-3.91-12a19.12,19.12,0,0,1,1.19-5.59,43.91,43.91,0,0,1,4.33-6.66,121,121,0,0,1,10-11.58c2-2,4-4.08,6.09-6a86.05,86.05,0,0,1,4.43,10.4c1.09,3.59,2,7.26,2.9,10.89a57.3,57.3,0,0,0,4.85,12,101.07,101.07,0,0,0,6.05,10.68c3.11,4.69,6.69,9.45,11.91,11.9,3.21,1.55,6.39,3.19,9.62,4.7,1.93,1,9.41,4,8.39,6.49a2,2,0,0,1-1.11.66c-.58.19-1.19.35-1.78.51A37.69,37.69,0,0,1,367.86,647.77Z"/><path class="cls-4" d="M682,711.2c-.66-.08-.9-.87-1.05-1.42a7.94,7.94,0,0,1,.43-4.41,56.37,56.37,0,0,1,2.84-6.82c.88-1.89,2.05-3.63,3-5.48a16.22,16.22,0,0,0,1.71-8.79c-.73-7.74-2.26-15.42-2.59-23.21-.38-4.71-.9-9.54.36-14.17,1.43-5.76,3.54-11.51,7.29-16.18,1.89-2.4,4.06-4.63,6.05-7a51.69,51.69,0,0,1,6.14-6.41c3.63-2.61,7.63-4.67,11.43-7,2.88-1.83,5.78-3.65,8.74-5.35a41.85,41.85,0,0,1,5.1-2.76,89.57,89.57,0,0,1,14.54-4c4.23-.62,8.55-.35,12.77-1.09a83.94,83.94,0,0,0,15-4.26,44.38,44.38,0,0,0,12-6.62A85.33,85.33,0,0,0,800,572.46c4.59-5.78,8.3-12.2,12.41-18.31,2.53-3.92,5.41-7.63,7.92-11.57,2.62-4.33,5.58-8.48,7.79-13.06,2.1-4.13,3.29-8.65,4.56-13.09,1-3.79,2.1-7.58,3.41-11.29s2.74-7.66,3.59-11.63a46,46,0,0,0,.83-6.19c.49-2.51-.7-8.38-.44-10.53l.09,0h0a65.93,65.93,0,0,1,4.64,12.38,62,62,0,0,1,1.54,7c.43,3.75.51,7.53.87,11.29.85,7.34,1.48,14.69,2,22.06.4,4.94,1,9.89.92,14.86-.05,4.41-.31,8.84-.56,13.25-.16,2.78-.26,5.57-.59,8.34-.68,5.46-1.79,10.88-2.8,16.29-1.31,5-2.55,10-3.91,15a28.1,28.1,0,0,1-3.56,7.53,71.9,71.9,0,0,1-7.07,8.43A157.5,157.5,0,0,1,814.34,629c-3.58,3.06-7.14,6.16-10.75,9.21a59.6,59.6,0,0,1-10.16,6.61c-4.72,2.29-8.85,5.58-13.25,8.4-2.61,1.72-5.56,2.85-8.22,4.49a27.83,27.83,0,0,0-2.51,1.65,31.15,31.15,0,0,0-2.56,2.45c-1.93,1.91-3.67,4-5.72,5.81a20.44,20.44,0,0,1-4,2.47c-2.11,1.12-4.27,2.18-6.33,3.39-1.6,1-3.14,2-4.71,3-2.91,1.9-5.64,4.08-8.67,5.81-3.48,2.13-7.1,4-10.53,6.26-2.73,1.73-5.22,3.84-7.81,5.77a74.08,74.08,0,0,1-9.83,6.08,65.75,65.75,0,0,1-8.58,4.55c-3.8,1.53-7.78,2.55-11.6,4a45.65,45.65,0,0,1-5,1.47A14.12,14.12,0,0,1,682,711.2Z"/><path class="cls-4" d="M601.87,525l-.06,0c-.64-.56-.76-1.64-1.06-2.42-.58-2-1-4.18-1.51-6.25a111.36,111.36,0,0,1-2.65-23.16c-.11-3.21,0-6.43-.1-9.64a75.51,75.51,0,0,0-.81-7.8,37.56,37.56,0,0,0-4.38-13.43,38.24,38.24,0,0,0-4.42-6c-2.43-2.63-4.67-5.44-7.19-8s-5.21-4.67-7.58-7.25c-2.46-2.75-5.23-5.22-7.81-7.87a125.07,125.07,0,0,0-14-12.69,62,62,0,0,1-6.58-5.75,66.63,66.63,0,0,1-7.92-11.2c-2.87-4.4-7.91-10.8-10.54-15.38-2.87-6.36-6.42-12.45-9-19a45.37,45.37,0,0,1-3-16.5c-.24-7.08,2.22-13.84,9.6-16A18.4,18.4,0,0,1,533,336c7.73,2,14.09,7.08,20.27,11.89,3.56,2.67,6.23,6.31,9,9.74,2.63,3.23,5.7,6.15,8.4,9.32,4,4.51,7.68,10.11,13.86,11.68,4.71,1.56,9-1.53,12.74-4.1a29.66,29.66,0,0,1,7.52-3.68,20.31,20.31,0,0,1,8-1.25c3.17.39,6.55,1.82,8.27,4.65,3.26,6.31,2,14.45,1.41,21.29-.16,1.72-.3,3.48-.38,5.2a7.75,7.75,0,0,0,.38,3.38c1.92,3.35,8.52,3.74,12,4.09a105.57,105.57,0,0,1,11.24,1.09c3.54.52,7.26,1.66,9.65,4.47,4.93,5.68,2,13.27-.94,19.17-5.61,11.32-15.55,19.54-24.26,28.4-7.23,7.39-13.26,16.1-18.5,25a60.1,60.1,0,0,0-4.27,9.56,119.35,119.35,0,0,0-3.62,16.84c-.45,3-.86,6-1.31,8.92l-.28,1.92C602.15,524.06,602.17,524.63,601.87,525Z"/><path class="cls-4" d="M548.14,725.47a17.9,17.9,0,0,1-2.83-.32,10.64,10.64,0,0,1-3-.87,8.73,8.73,0,0,1-3.88-4.78c-2.06-6.28-2.25-13-3.6-19.42a113.32,113.32,0,0,0-4.75-17c-1.46-3.81-3.1-8-6.86-10.08-2.34-1.48-5.16-1.61-7.85-1.58a68.81,68.81,0,0,1-8.12-.44,16.35,16.35,0,0,1-6.75-2.27,34.25,34.25,0,0,1-4-2.58c-1.83-1.46-4.56-4.71-1.67-6.51,2.14-1.57,4.58-2.65,6.83-4-2.92.81-5.78,2-8.82,2.34-2.47.39-5.55.25-6-2.78-.71-4.64-.13-9.68-2.64-13.86-.81-1.48-1.89-2.79-2.83-4.18a29.09,29.09,0,0,1-3.43-6,24.59,24.59,0,0,1-1-16.07,47,47,0,0,1,4.11-7.7c1.52-2.7,4.15-4.76,5.05-7.78a4.42,4.42,0,0,0-.66-3.36,45.71,45.71,0,0,0-3.59-5.55,26.13,26.13,0,0,1-3.16-6.56c-.59-2.06-1.14-4.5,0-6.46,2.15-3.93,6.46-5.55,10.71-5.95a25.94,25.94,0,0,1,12,1.5c2.55,1,4.86,2.49,7.33,3.63a19,19,0,0,0,8.54,2c2.48-.19,4.9-.88,7.38-1.06a52.15,52.15,0,0,1,9.09.43c.62,1.07,6.93,7.77,6.38,9.12a31.71,31.71,0,0,1,.12,6.16c-.12,2.49-.16,5-.23,7.5-.24,5.79-.6,11.66-2.14,17.27-.73,2.71-1.89,5.29-2.88,7.9-1.14,3.31-2.19,6.67-3.27,10l5.39,4.12a82.51,82.51,0,0,1,2.84,10.38,88.42,88.42,0,0,0,2.61,8.73c1.56,4.47,3.34,8.88,4.61,13.44,1.89,6.68,3.34,13.49,4.65,20.3.64,3.42,1.35,6.86,2.17,10.24A39.09,39.09,0,0,1,555.44,714c-.13,3.26-.51,6.84-2.81,9.35h0a5.37,5.37,0,0,1-4.42,2.1h-.06Z"/><path class="cls-4" d="M464,756.79a20.66,20.66,0,0,1-4-.3c-3.14-.74-5.89-2.47-8.73-3.91-3.15-1.57-6.42-2.88-9.61-4.38-2.24-1-4.41-2.17-6.81-2.64-3.51-.59-7.07-.22-10.6-.22a21.86,21.86,0,0,1-12.81-3.89c-9.21-5.85-11.82-11-12.59-21.75a13.3,13.3,0,0,0-1.75-6.27,38.88,38.88,0,0,1-2.74-4.13,14.55,14.55,0,0,1-1.19-5.2c-.15-4.75,2.05-9.22,4.2-13.34,1.39-2.81,4-4.67,6.36-6.6.21-.92,9.36-3.52,10.12-3.94l.1.1c-.33,3.82-.8,12.91,2.42,15.53a31,31,0,0,0,4.8,2.54c5.46,2.82,8.19,6.07,10,11.92.44,1.35.81,2.72,1.16,4.1a6.38,6.38,0,0,0,1.16,2.83c1.32,1.46,3.48,1.33,5.29,1.3s3.44-.09,5.15,0c7.7.11,14.54,2.19,20.6,7,3.68,2.81,7.32,5.69,10.8,8.75a33.18,33.18,0,0,0,12,7.09c1,.37,2,.73,3,1.12a6.16,6.16,0,0,1,2.07,1.14,2.72,2.72,0,0,1,.86,2,4.72,4.72,0,0,1-2.83,3c-1.89.69-3.88,1.12-5.76,1.82-3.06,1.08-6,2.45-9,3.72a50.22,50.22,0,0,1-6.4,2.28A29.88,29.88,0,0,1,464,756.79Z"/><path class="cls-4" d="M604,751.83a15.18,15.18,0,0,1-5.35-1.19c-1.62-.61-3.17-1.42-4.84-1.87-4.21-1-8.65-.11-12.85-1.12.06,0,0,.1,0,.15-2.58.64-5.26.35-7.89.33A41.38,41.38,0,0,1,557,744.84c-3.12-1.19-6.43-1.82-9.53-3.07-2.32-1-6.71-2.63-7.81-5a4.3,4.3,0,0,1,.32-3.55,11,11,0,0,1,3.11-4,35.06,35.06,0,0,1,5.09-3.74,5.37,5.37,0,0,0,4.42-2.1h.11c2.92,2.79,7.38,8.08,10.81,10.15l-1.08-1.93.07-.12c4.48.59,9.46.19,13.25-2.47a30.49,30.49,0,0,0,4.91-5.54,14.17,14.17,0,0,1,1.63-1.91,7.34,7.34,0,0,1,2.81-1.39,26.74,26.74,0,0,0,13.31-8.72,58.81,58.81,0,0,0,6.13-7.24,72,72,0,0,0,7.86-12.34,26.42,26.42,0,0,0,3.22-11.39c.22-2.83.34-5.68.47-8.51a31.63,31.63,0,0,1,.64-5.83c2.1-7,3.7,3.35,4.37,5.4a147.76,147.76,0,0,1,3.06,15.35c.57,3.43,1.54,6.81,1.87,10.29a57.5,57.5,0,0,1,.3,7.07,35.14,35.14,0,0,0,.08,5.33,17,17,0,0,0,1.92,5.27,53.85,53.85,0,0,1,3,7.74,5.13,5.13,0,0,1,.21,2.74c-.74,2.52-2.73,4.41-4.7,6a48.17,48.17,0,0,1-3.9,3.06,22.44,22.44,0,0,1-3.52,1.71,4.38,4.38,0,0,0-2.28,1.92,6,6,0,0,0-.53,1.9,15.28,15.28,0,0,1-1.22,5.47,10.5,10.5,0,0,1-3.48,4.31,14.35,14.35,0,0,1-3.28,1.32A16.23,16.23,0,0,1,604,751.83Z"/></g><g id="レイヤー_3" data-name="レイヤー 3"><path d="M132.66,370.83a11,11,0,0,0,2.48-.37c.48-.11,1-.22,1.45-.37l2.11-.65c2.29-.71,4.54-1.57,6.78-2.43,4.87-1.86,9.74-3.73,14.46-5.93a3.22,3.22,0,0,0-2.5-5.93c-3.37,1.57-6.83,3-10.28,4.32q-4.93,1.93-9.92,3.69c-1.23.38-2.44.77-3.7,1.07-.33.06-.67.11-1,.15a3.33,3.33,0,0,0-.78-.09,3.24,3.24,0,0,0-3.19,2.8,3.34,3.34,0,0,0,.91,2.72,4.09,4.09,0,0,0,3.11,1Z"/><path d="M174.51,380.64a3.22,3.22,0,0,0-2.5-5.93c-5.35,2.41-10.7,4.84-16.11,7.12-5.12,2.16-10.36,4.05-15.61,5.89-1.29.4-2.57.83-3.88,1.16a3.12,3.12,0,0,0-.75-.31,3.24,3.24,0,0,0-3.95,2.25,4,4,0,0,0-.12,1.69,3.49,3.49,0,0,0,1.35,2.21,2.94,2.94,0,0,0,1.1.56,5.1,5.1,0,0,0,1.24.2h.1a17.58,17.58,0,0,0,4.42-.87c1.93-.6,3.84-1.26,5.75-1.92,3.19-1.12,6.35-2.32,9.5-3.56C161.63,386.53,168.07,383.54,174.51,380.64Z"/><path d="M167.53,402l-.6.4c-.6-1.09-1.19-2.18-1.76-3.29a3.39,3.39,0,0,0-2.23-2.22h0a3.25,3.25,0,0,0-4,2.24c-.41,1.38.3,2.59.93,3.75.41.77.84,1.54,1.26,2.3.14.26.28.53.43.79a61.28,61.28,0,0,1-5.4,3.34l-.14.07a3.22,3.22,0,0,0-1.94,5.48,3.5,3.5,0,0,0,2.4,1h.11a4.43,4.43,0,0,0,1.52-.35,12.51,12.51,0,0,0,1.57-.74c.6-.34,1.18-.7,1.77-1.06,1.06-.65,2.12-1.34,3.16-2,1.46,2.78,2.89,5.57,4.45,8.29a3.21,3.21,0,0,0,2.8,1.59,3.18,3.18,0,0,0,1.6-.43,3.26,3.26,0,0,0,1.16-4.4C173,413.9,171.54,411,170,408.1l1.63-1.09,2.55-1.72c.5-.33,1-.68,1.5-1a3.22,3.22,0,0,0,6.1-2c-.53-2-1.4-4-3.39-4.8s-4.06.08-5.79,1.17S169.22,400.9,167.53,402Z"/><path d="M180.43,427.76a4.25,4.25,0,0,0-2.16,2.78c-.25.73-.48,1.47-.69,2.21-.48,1.65-1,3.28-1.45,4.92-.91,3.1-1.82,6.21-2.63,9.34a13.75,13.75,0,0,0-.48,2.09,7.33,7.33,0,0,0,.14,2.38,4.14,4.14,0,0,0,1.2,1.95,4.4,4.4,0,0,0,2.14,1.1,5.71,5.71,0,0,0,1.23.13,11.64,11.64,0,0,0,4.23-1c1.25-.51,2.45-1.13,3.66-1.74,2.87-1.45,5.66-3.11,8.37-4.84l.76,1.1a3,3,0,0,0,2.5,1.24,3.3,3.3,0,0,0,2-.66,3.21,3.21,0,0,0,1.22-2.11,3.39,3.39,0,0,0-.64-2.4c-1.44-2.11-2.87-4.25-4.4-6.3-.74-1-1.48-2-2.25-2.94-1-1.2-2-2.81-3.67-3a3.25,3.25,0,0,0-3.62,2.75,3.3,3.3,0,0,0,1.25,3l0,0c1.08,1.3,2.1,2.64,3.1,4q-4.41,2.79-9.07,5.14-.59.29-1.2.54c.56-2.11,1.19-4.21,1.8-6.31l1.38-4.63c.39-1.35.77-2.69,1.21-4l0-.07a3.23,3.23,0,0,0-4-4.66Z"/><path d="M154,489.71c.76-.34,1.5-.72,2.23-1.1,1.3-.68,2.58-1.41,3.84-2.16,2.88-1.72,5.74-3.46,8.44-5.46a3.22,3.22,0,1,0-3.93-5.09c-.68.5-1.36,1-2.05,1.45-3.27,2.14-6.64,4.18-10.11,6-.48.23-1,.45-1.45.66a3.49,3.49,0,0,0-.89.21,3.24,3.24,0,0,0-.06,6,3.06,3.06,0,0,0,1.27.27A6.93,6.93,0,0,0,154,489.71Z"/><path d="M181.15,487.61a3.23,3.23,0,0,0-4.54,0c-2.27,2.29-4.65,4.45-7,6.6q-4.44,3.85-9,7.5c-2.93,2.34-5.85,4.66-8.67,7.14l-.07.07-.17.14.1-.09-.15.13a3.25,3.25,0,0,0-1.35,2.61,3.62,3.62,0,0,0,.25,1.26,3.21,3.21,0,0,0,3,2,3,3,0,0,0,1.22-.25,7.86,7.86,0,0,0,1.91-1.44c4-3.53,8.33-6.76,12.47-10.16a152.5,152.5,0,0,0,12.08-10.93A3.23,3.23,0,0,0,181.15,487.61Z"/><path d="M184.79,512l.06.3a3.38,3.38,0,0,0,1.22,2.11,3.22,3.22,0,0,0,5.15-3c-.55-2.81-1.21-6.17-4.16-7.42a4.61,4.61,0,0,0-3-.15,6.28,6.28,0,0,0-2.41,1.48c-.63.57-1.26,1.15-1.87,1.75s-1.13,1.15-1.69,1.73a3.24,3.24,0,0,0-3.06-2.28,3.35,3.35,0,0,0-2.85,1.63c-.91,1.4-.27,3.21.56,4.47.3.45.62.88.94,1.32l-.78,1a3,3,0,0,0-1.43,2.25,3.86,3.86,0,0,0,.42,2.23,3.27,3.27,0,0,0,2.85,1.6,2.78,2.78,0,0,0,1.56-.45,7.7,7.7,0,0,0,1.56-1.51c1.65,1.82,3.38,3.58,5.12,5.32a3.25,3.25,0,0,0,2.28.93,3.19,3.19,0,0,0,2.27-.93,3.24,3.24,0,0,0,0-4.55c-1.87-1.86-3.71-3.76-5.48-5.71l-.05-.06c.87-.94,1.74-1.86,2.66-2.75Z"/><path d="M210.42,537.26c-.3-.35-.6-.7-.88-1.07a3.26,3.26,0,0,0-2.95-1.94,4,4,0,0,0-.91.12,3.27,3.27,0,0,0-2.36,3.1,4.3,4.3,0,0,0,1.29,2.89,2.89,2.89,0,0,0-1.36.61c-1.75,1.45-3.56,2.8-5.43,4.1l-.91.57c.63-1.68,1.3-3.34,2-5,.54-1.36,1.06-2.72,1.58-4.09.43-1.17.82-2.35,1.28-3.51a3.17,3.17,0,0,0,.68-2,3.25,3.25,0,0,0-3.21-3.22,3.35,3.35,0,0,0-2.9,1.65,19.21,19.21,0,0,0-1.1,2.65c-.49,1.34-1,2.69-1.49,4-1.13,2.89-2.3,5.76-3.37,8.68-.3.81-.61,1.63-.84,2.46a6.72,6.72,0,0,0-.28,2.71,4.31,4.31,0,0,0,.87,2,4.56,4.56,0,0,0,3.68,1.6h.33a11.24,11.24,0,0,0,4.71-1.6,56.3,56.3,0,0,0,8.37-5.93,3.51,3.51,0,0,0,1.11-1.7q1.68,1.7,3.46,3.29a3.32,3.32,0,0,0,2.27.94,3.22,3.22,0,0,0,2.27-5.49C214.24,541.25,212.28,539.31,210.42,537.26Z"/><path d="M227.07,568.12a13.08,13.08,0,0,0-2.6-2.49,3.18,3.18,0,0,0-2.34-1,3.25,3.25,0,0,0-3.22,3.22,3.13,3.13,0,0,0,.62,1.86,3.27,3.27,0,0,0,1.49,1.43c.37.35.72.71,1.06,1.09,1,1.14,1.9,2.32,2.83,3.5a3.29,3.29,0,0,0,2.57,1.24,3.17,3.17,0,0,0,2-.66,3.24,3.24,0,0,0,.58-4.51C229,570.53,228.09,569.3,227.07,568.12Z"/><path d="M237.53,584.56a3.22,3.22,0,1,0,3.22,3.21A3.25,3.25,0,0,0,237.53,584.56Z"/><path d="M442.65,642.89c-3-.27-6-.25-9-.23-1,0-2,0-3,0-3.61,0-7.22,0-10.82.2h-.15a3.22,3.22,0,1,0,0,6.43c.34,0,.67,0,1-.07,1.42-.08,2.86-.09,4.29-.12,2,0,4,0,6,0h2.5c2.69,0,5.38,0,8.06.15h.23a3.21,3.21,0,1,0,.87-6.37Z"/><path d="M356.22,641.06c-1.23-.28-2.45-.62-3.67-.95s-2.51-.65-3.75-1.05a88.17,88.17,0,0,1-9-3.78c-2.34-1.23-4.57-2.66-6.78-4.12a68.76,68.76,0,0,1-5.89-4.62,77.68,77.68,0,0,1-6-5.95c-.82-1-1.61-2-2.34-3.05q-.81-1.27-1.5-2.61c-.46-.95-.88-1.91-1.25-2.9-.12-.39-.23-.79-.32-1.19,0-.15-.05-.31-.07-.46v-.48c0-.4.11-.79.18-1.18q.6-2.79,1.47-5.52c.4-1.09.85-2.14,1.35-3.19.88-1.69,1.82-3.34,2.86-4.94.53-.73,1.07-1.44,1.65-2.13,1.32-1.45,2.71-2.82,4-4.27s2.48-2.93,3.71-4.4,2.48-2.58,3.69-3.91c1-1.12,2.11-2.38,2.11-4a3.21,3.21,0,0,0-6.25-1.06l-.41.51c-1.27,1.38-2.61,2.68-3.85,4.08s-2.37,2.85-3.58,4.26-2.66,2.75-3.94,4.17a33.76,33.76,0,0,0-3.57,4.82,39.2,39.2,0,0,0-4,8.47c-.51,1.56-.93,3.15-1.29,4.75a21.65,21.65,0,0,0-.47,2.4,11,11,0,0,0,.36,4.38,29.87,29.87,0,0,0,4.5,9,58.06,58.06,0,0,0,7,7.66,66.51,66.51,0,0,0,7.22,6c1.36,1,2.77,1.87,4.19,2.76a47.4,47.4,0,0,0,4.6,2.62,90.29,90.29,0,0,0,8.53,3.64c1.49.55,3,1,4.53,1.37s2.82.78,4.24,1.1a3.7,3.7,0,0,0,.8.09,3.2,3.2,0,0,0,.91-6.29Z"/><path d="M852.41,535.83c-.29-6.22-.14-12.44-.3-18.67,0-1.52-.06-3-.07-4.57a47.53,47.53,0,0,0-.17-5.06c-.19-1.57-.51-3.12-.76-4.68-.22-1.36-.33-2.73-.43-4.1a81.38,81.38,0,0,0-1.61-12.83,45.48,45.48,0,0,0-2-6.12c-.72-1.88-1.37-3.79-2-5.69-.36-1.13-.61-2.29-.9-3.44a32,32,0,0,0-1.13-3.6l0-.45a20.73,20.73,0,0,0-.38-2.34c-.3-1.51-.44-3-.71-4.57a82.14,82.14,0,0,0-2.17-8.47c-2.2-7.33-4-14.75-5.6-22.24l-.12-.58a2.57,2.57,0,0,0-.08-.38c-.61-3-1.24-6.09-1.87-9.13-1.61-7.91-3.22-15.84-5.31-23.64-1.06-3.94-2.26-7.85-3.52-11.73s-2.56-7.91-4-11.81c-1-2.57-2-5.14-3.06-7.65s-2.41-5.26-3.54-7.93-2.25-5.47-3.42-8.18-2.31-5.11-3.51-7.65-2.41-5.12-3.72-7.63-2.56-4.7-3.94-7-2.87-4.75-4.27-7.16-2.83-5-4.27-7.46a87.29,87.29,0,0,0-9.25-13.46c-3.44-4-7.18-7.78-10.89-11.54a90.81,90.81,0,0,0-6.66-6.2q-3.29-2.72-6.72-5.25c-2.2-1.63-4.45-3.19-6.64-4.82s-4.5-3.47-6.86-5c-4.41-2.92-9.19-5.15-13.83-7.66-2.44-1.32-4.85-2.67-7.33-3.91-2.32-1.17-4.71-2.16-7.12-3.13-5.25-2.1-10.43-4.33-15.82-6s-10.68-3.07-15.93-4.86c-4.61-1.63-9.24-3.26-13.77-5.09-2.59-1.05-5.15-2.17-7.74-3.23-2.85-1.16-5.71-2.25-8.61-3.27-5.05-1.76-10.24-3.15-15.42-4.51-2.53-.67-5.08-1.3-7.63-1.91s-5.36-1.32-8.06-1.91c-2.34-.52-4.7-.9-7.06-1.28-2.75-.44-5.5-.83-8.27-1.15-5.51-.65-11-1.28-16.58-1.63-3-.19-6.09-.4-9.14-.55-2.73-.13-5.46-.14-8.18-.13q-8.47,0-16.93.4c-2.82.12-5.64.19-8.46.35s-5.49.36-8.24.54l-.81.06c-2.77.17-5.54.35-8.3.63-3,.31-5.89.68-8.84,1-5.42.67-10.8,1.54-16.19,2.46s-10.48,2.28-15.68,3.63c-2.63.68-5.25,1.41-7.83,2.26s-4.9,1.83-7.36,2.7l-3.87,1.28c-2.45.81-4.9,1.65-7.36,2.43a77.27,77.27,0,0,0-7.6,2.85c-4.93,2.16-10,4-14.94,6.13q-3.54,1.52-7,3.15c-2.38,1.11-4.78,2.14-7.21,3.13-1.89.78-3.8,1.56-5.66,2.42-2.12,1-4.15,2.14-6.22,3.2-1.52.73-3.1,1.31-4.62,2s-3,1.5-4.47,2.3-2.92,1.59-4.35,2.43c-1.58.93-3.09,2-4.6,3l.34-.23c-2.28,1.54-4.62,3-6.88,4.56-1.68,1.16-3.21,2.52-4.82,3.78a118.25,118.25,0,0,0-11.95,10.64c-1.89,2-3.67,4-5.51,6-1.66,1.81-3.38,3.55-5.09,5.32-1.88,1.95-3.77,3.9-5.57,5.93s-3.44,4.14-5.1,6.26c-3.48,4.44-7.06,8.79-10.54,13.23a141.36,141.36,0,0,0-9.31,13c-1.45,2.34-2.81,4.74-4.24,7.1s-2.81,4.53-4.24,6.78-2.87,4.64-4.22,7c-1.48,2.57-3,5.12-4.35,7.76-2.42,4.71-4.62,9.53-7,14.28-1.11,2.18-2.24,4.34-3.37,6.5q-3.81,7.35-7.33,14.83a155.42,155.42,0,0,0-6.47,15.83c-1.73,5.09-3.47,10.2-4.91,15.38-.73,2.64-1.4,5.29-2,8s-1.08,5.39-1.61,8.08c-.8,3.85-1.72,7.68-2.47,11.54s-1.28,7.93-2,11.89c-.36,2-.76,3.94-1.08,5.93s-.53,3.92-.69,5.9c-.32,4-.61,8-.69,12.06-.11,5.75,0,11.51.13,17.26a141.2,141.2,0,0,0,1.34,16.3c.34,2.68.78,5.33,1.24,8s.86,5.33,1.3,8,1,5.29,1.65,7.89a25.12,25.12,0,0,0,.76,2.62,2.58,2.58,0,0,0,0,.4c0,2.51,0,5-.05,7.53-.08,4-.24,8-.11,12a89.19,89.19,0,0,0,.92,9.21,80.75,80.75,0,0,0,1.89,9.23,77.67,77.67,0,0,0,2.7,8.8c1.12,2.9,2.53,5.68,3.84,8.49.66,1.4,1.29,2.82,2,4.19s1.58,2.84,2.41,4.23a45,45,0,0,0,5.89,7.83c2.12,2.24,4.27,4.45,6.37,6.71,1.14,1.22,2.3,2.43,3.46,3.64s2.13,2.24,3.27,3.28c4.54,4.17,9.81,7.39,14.8,11,2.73,2,5.37,4,8.17,5.9,1.2.8,2.4,1.59,3.67,2.29s2.69,1.42,4,2.15c4.94,2.66,9.84,5.43,15,7.65,2.74,1.17,5.46,2.4,8.2,3.6,1.32.58,2.67,1.12,4,1.72s2.56,1.18,3.87,1.72c2.77,1.14,5.62,2.07,8.4,3.18s5.46,2.23,8.15,3.45c1.41.64,2.82,1.27,4.26,1.83a31.21,31.21,0,0,0,4.09,1.38c1,.23,2,.4,3,.57-.95.66-1.88,1.36-2.77,2.09a29.64,29.64,0,0,0-3.91,3.85,21.87,21.87,0,0,0-2.67,4.46,43.3,43.3,0,0,0-1.8,4.27,20.33,20.33,0,0,0-1.25,4.47,17.62,17.62,0,0,0,.13,4.7c.22,1.53.51,3.06.87,4.56a19.29,19.29,0,0,0,1.53,4.42,8.36,8.36,0,0,0,2.69,3,4.73,4.73,0,0,0,.83.44,23.34,23.34,0,0,0-.39,9.48,32.68,32.68,0,0,0,1.6,4.81,23.65,23.65,0,0,0,2.32,4.5,22.19,22.19,0,0,0,6.85,6.79,68.22,68.22,0,0,0,7.87,3.73,26.78,26.78,0,0,0,8.17,2.3c.58.05,1.17.08,1.76.08a17.16,17.16,0,0,0,3.27-.31,25.14,25.14,0,0,0,4.47-1.39,2.9,2.9,0,0,0,1.08-.74c.46.45.94.89,1.42,1.32a32.92,32.92,0,0,0,7,4.8,43.75,43.75,0,0,0,9.59,3.57,37.46,37.46,0,0,0,8.88,1l1.16,0a44.53,44.53,0,0,0,9.47-1.44c1.53-.37,3.05-.73,4.53-1.23s3.12-1.1,4.64-1.76c2.93-1.27,5.69-2.87,8.52-4.32.6-.29,1.2-.57,1.81-.8a26.9,26.9,0,0,1,2.9-.76c2.47-.46,5-.66,7.46-.91,2.71-.27,5.41-.47,8.09-.91a58.88,58.88,0,0,0,8.53-1.84,56.37,56.37,0,0,0,8.46-3.62q4.35-2.24,8.69-4.52l1.93-1a14,14,0,0,0,1.74,2.3,20.43,20.43,0,0,0,3.47,3.36,34.16,34.16,0,0,0,8.79,4.3c1.22.43,2.45.86,3.69,1.23,1.44.44,2.86,1,4.33,1.3a69.67,69.67,0,0,0,9,1.45,36.27,36.27,0,0,0,3.62.26,13.13,13.13,0,0,0,1.54-.09,39.45,39.45,0,0,0,4.27-1,2.71,2.71,0,0,0,1.22-.64,34.44,34.44,0,0,0,5.94,2.3,44.45,44.45,0,0,0,8.87,1.49h-.08c1,.07,1.92.16,2.88.24h.37a3.64,3.64,0,0,0,.57,0,18,18,0,0,0,4.33,1.39,33.11,33.11,0,0,0,4.33.35l1.49,0a15.11,15.11,0,0,0,3.48-.34,7.94,7.94,0,0,0,4.76-2.85,12.16,12.16,0,0,0,1.67-3.46,14.35,14.35,0,0,0,.47-3.46c.06-1,.09-2,.06-3.05,0-.65.59-1.88,1.15-2a16,16,0,0,0,2.63-.82,12.37,12.37,0,0,0,1.64-.79l.2,0a12.08,12.08,0,0,0,2.39-.34c1.15-.23,2.29-.5,3.43-.77,2.28-.53,4.55-1.09,6.8-1.7,4.49-1.22,8.93-2.62,13.39-3.93,3.2-.94,6.38-1.94,9.51-3.1,1.56-.58,3.1-1.2,4.65-1.78s3.17-1.15,4.75-1.74c6-2.26,11.89-4.88,17.7-7.64q4.5-2.13,9-4.36c3-1.49,6-3,9-4.57s5.83-3.19,8.75-4.77,5.81-3.15,8.65-4.85,5.56-3.54,8.44-5.14,5.88-3.14,8.73-4.85c1.4-.84,2.78-1.7,4.12-2.62s2.59-1.9,3.84-2.89c2.47-2,5-3.84,7.59-5.63,2.87-1.93,5.78-3.81,8.64-5.75,2.67-1.8,5.25-3.73,7.91-5.54,1.66-1.1,3.33-2.17,5-3.25,5.59-3.64,10.9-7.64,16.14-11.75,2.51-2,4.94-4,7.4-6s5.31-4,7.9-6.13,4.92-4.12,7.42-6.13a89.19,89.19,0,0,0,7.59-6.69c2.35-2.36,4.67-4.76,6.78-7.34s4.11-5.36,6.17-8a70,70,0,0,0,10-16.82,40.35,40.35,0,0,0,1.6-4.92c.38-1.52.78-3,1.21-4.52.89-3.1,1.71-6.2,2.3-9.37a170.21,170.21,0,0,0,2.34-19.23c.22-3.16.35-6.33.4-9.49S852.55,538.91,852.41,535.83ZM537.56,727.36c-2.49,1.5-5.07,2.85-7.65,4.21s-5.16,2.7-7.75,4a55.32,55.32,0,0,1-5.49,2.36c-1.46.47-2.93.87-4.44,1.2-2.72.54-5.45,1-8.21,1.25s-5.53.54-8.29.83a28.64,28.64,0,0,0-7.86,1.77c-2.63,1.09-5.09,2.59-7.62,3.89a57.38,57.38,0,0,1-6,2.52,68.84,68.84,0,0,1-7.38,1.9q-2.12.39-4.26.57a47.63,47.63,0,0,1-4.78,0,31.81,31.81,0,0,1-3.49-.48,41.46,41.46,0,0,1-4.27-1.18c-1.57-.58-3.12-1.2-4.63-1.92a36.78,36.78,0,0,1-3.37-2,30.17,30.17,0,0,1-2.44-1.91,43.45,43.45,0,0,1-3.11-3.11c-.5-.59-1-1.2-1.43-1.83-.23-.36-.45-.72-.66-1.09s-.37-.82-.53-1.25l-.15-.51a3,3,0,0,0,.09-.73,3.25,3.25,0,0,0-3.22-3.21,3.31,3.31,0,0,0-3.15,2.42,6.28,6.28,0,0,0,.12,3.41,17,17,0,0,0,2,4.24l-.55.21c-.64.21-1.27.4-1.92.56-.46.07-.91.13-1.37.17s-1.15,0-1.73,0-1.05-.12-1.57-.22c-.94-.2-1.86-.47-2.77-.76-1.16-.43-2.3-.94-3.44-1.42s-2.57-1.07-3.82-1.68c-.92-.48-1.81-1-2.68-1.55l-1-.76c-.39-.37-.76-.74-1.13-1.14a30.59,30.59,0,0,1-2.11-2.7c-.26-.42-.5-.84-.73-1.27-.58-1.21-1.06-2.47-1.52-3.73-.26-.77-.49-1.54-.67-2.32,0-.28-.08-.56-.11-.84s0-.79,0-1.18a55.74,55.74,0,0,1,.82-5.61c.48-2.12,1.08-4.22,1.76-6.29.18-.49.37-1,.58-1.43l.3-.49c.23-.31.47-.62.72-.92a43.73,43.73,0,0,1,3.13-3.11c1.62-1.41,3.24-2.81,4.76-4.33s3.1-3.14,4.74-4.62c1-.85,2-1.66,3.06-2.42q.62-.4,1.26-.78l.06,0a3.21,3.21,0,0,0,1.43-5.72,3.31,3.31,0,0,0-2.4-.64,8.68,8.68,0,0,0-3.91,1.82,37.37,37.37,0,0,0-4.45,3.59c-2.3,2.1-4.39,4.41-6.7,6.5l-1.4,1.2a45.29,45.29,0,0,0-3.56,3.36,16.72,16.72,0,0,0-2.88,3.92,20.53,20.53,0,0,0-1.2,3.14l-.07-.18c-.33-1-.58-2-.81-3.08a40.38,40.38,0,0,1-.65-4.23,11.61,11.61,0,0,1,0-1.18c0-.29.06-.57.11-.85.12-.53.27-1,.43-1.55a55.53,55.53,0,0,1,2.34-5.57c.36-.66.73-1.29,1.13-1.92.25-.33.51-.66.77-1,.61-.65,1.23-1.26,1.89-1.86q2-1.67,4.17-3.13c1.57-1,3.22-1.84,4.84-2.76s3.29-1.91,5-2.79a62.68,62.68,0,0,1,5.94-2.43c1.38-.45,2.77-.83,4.19-1.15,2.29-.46,4.58-.86,6.86-1.34,2.12-.44,4.22-.94,6.33-1.38a50.5,50.5,0,0,1,5.33-.71c2.16-.12,4.31-.12,6.46-.16s4.22-.15,6.32-.3a53.27,53.27,0,0,0,8.85-1.48c2.93-.71,5.84-1.58,8.7-2.56,2.69-.92,5.36-1.87,8-3,2.89-1.2,5.66-2.66,8.45-4.07,1.48-.74,3-1.5,4.49-2.12s2.79-1.1,4.2-1.59c1.84-.62,3.75-1.09,5.61-1.63,1.57-.45,3.14-.94,4.73-1.3,0,0,6.55-3.28,8-4.13a12,12,0,0,0,3.7-3.4,12.74,12.74,0,0,0,2.11-4.35,9.79,9.79,0,0,0,.25-2.58,10.43,10.43,0,0,0,1.55-1,11.67,11.67,0,0,0,2-2q.43-.56.84-1.11c.39.86.74,1.72,1.08,2.6s.69,1.66,1,2.5h0c.18.5,3.8,11.28,4.73,14.33s1.74,6.21,2.54,9.33,1.64,6.29,2.37,9.45,1.55,6.26,2.24,9.42c.68,3.36,1.31,6.74,1.87,10.13.27,1.65.51,3.3.85,4.93s.73,3.21,1.14,4.81c.75,2.92,1.37,5.87,2,8.81.42,1.85-.24,5.75-.81,6.23-.31.26-.61.51-.94.74-1.33.88-2.73,1.65-4.08,2.49C542.24,724.61,539.89,726,537.56,727.36Zm-32.85-77.84.26-.25a2.91,2.91,0,0,0,.93-2.26c.87-.25,1.73-.54,2.59-.86a19,19,0,0,0,4.47-2.26,14.19,14.19,0,0,0,4.08-4.23c.11-.18.21-.37.31-.56a2.91,2.91,0,0,0,1.06.27h0l.31.18.34.26.12.13.11.13.06.11.14.33q.11.33.18.66c0,.18.06.36.08.53v.3c0,.13,0,.25,0,.38s-.08.3-.13.45-.21.5-.32.74-.33.57-.5.84-.43.58-.66.85l-.43.43-.34.27c-.9.59-8.77,4.27-9.31,4.42l-4.89,1.38c.41-.58.81-1.18,1.21-1.77l-.23.34C504.31,650.06,504.51,649.78,504.71,649.52ZM542.3,732h0l0,.1.06.23C542.4,732.24,542.35,732.14,542.3,732Zm28.05,10.91a74.47,74.47,0,0,1-9.16-1.28c-1.3-.28-2.54-.69-3.81-1.08s-2.45-.75-3.67-1.17a52.56,52.56,0,0,1-5.52-2.22c-.66-.36-1.31-.75-2-1.16-.38-.28-.76-.57-1.12-.88a16.33,16.33,0,0,1-1.37-1.39c-.47-.54-.93-1.08-1.35-1.65l0-.1.57-.35c2.34-1.35,4.62-2.8,6.94-4.19a29.26,29.26,0,0,0,3.37-2.22q.21.51.45,1c.49,1,1,1.91,1.62,2.83a3.52,3.52,0,0,0,.74.8,8,8,0,0,0,1.94,2.37c.81.77,1.65,1.49,2.49,2.22h0c2.5,2.21,5,4.47,7.68,6.44,1,.7,1.94,1.38,2.91,2.07ZM846.18,544.85q-.07,4.51-.36,9a166.44,166.44,0,0,1-2.49,19.9c-.53,2.49-1.18,5-1.89,7.41s-1.25,5-2.06,7.5c-.81,2.16-1.79,4.26-2.81,6.33a63,63,0,0,1-3.63,6.06c-1.59,2.3-3.31,4.49-5,6.71s-3.46,4.63-5.33,6.83a106.94,106.94,0,0,1-8.23,8.4h0l-.08.08.08-.08c-3,2.65-6.22,5.13-9.3,7.71-2.51,2.1-5.12,4-7.7,6s-5,4.15-7.59,6.18c-5.1,4-10.26,8-15.64,11.68-2.64,1.76-5.32,3.44-7.95,5.22-2.47,1.67-4.86,3.47-7.33,5.15-3.55,2.36-7.13,4.67-10.61,7.11-1.74,1.22-3.43,2.51-5.1,3.82s-3.09,2.46-4.71,3.58c-2.1,1.37-4.25,2.63-6.43,3.85-2.9,1.62-5.83,3.17-8.67,4.89s-5.49,3.43-8.31,5-5.88,3.23-8.83,4.82-5.78,3.21-8.71,4.73c-2.3,1.15-4.61,2.27-6.91,3.42-5.74,2.84-11.52,5.61-17.41,8.12-3,1.26-5.94,2.47-9,3.56s-6.21,2.35-9.33,3.48q-3.76,1.3-7.59,2.41c-2.67.78-5.32,1.61-8,2.4-2.14.64-4.3,1.24-6.46,1.81a15.69,15.69,0,0,0,1.51-2.21,8.69,8.69,0,0,0,1.2-4.47,8.85,8.85,0,0,0-1.09-4.05,16.22,16.22,0,0,0-2.62-3.34c-.92-1-1.84-2-2.82-2.89.15-.26.3-.52.43-.8a14.44,14.44,0,0,0,.82-2.72,21.44,21.44,0,0,0,.51-3,41.87,41.87,0,0,0,0-5.6q-.15-2.9-.5-5.78c-.18-1.44-.38-2.87-.66-4.28-.33-1.65-.76-3.26-1.23-4.87-.59-2-1.24-3.92-1.88-5.88l.24-.12a13.86,13.86,0,0,0,1.4-.9c.37-.22.71-.49,1.06-.73,3.1-2.07,6.28-4,9.41-6.08s6.13-4.33,9.23-6.46,6.09-4,9.16-6,5.73-3.95,8.6-5.91c2.06-1.36,4.18-2.63,6.23-4s4.35-3,6.53-4.45l0,0,.86-.58-.07,0c.56-.38,1.13-.75,1.68-1.13a43,43,0,0,0,3.8-2.73c1.36-1.13,2.69-2.29,4-3.44,2.44-2.1,5-4,7.6-5.93s5.15-4,7.73-6,5.05-3.81,7.66-5.61c1-.68,2.07-1.35,3.11-2s2.32-1.4,3.41-2.18c1.67-1.19,3.28-2.46,5-3.62.82-.54,1.67-1.06,2.48-1.62.59-.42,4.92-4.18,5.56-4.41,2.46-.77,5-1.33,7.5-1.87,1.1-.21,2.2-.36,3.32-.46,2.22-.12,4.46-.08,6.69-.3s4.41-.44,6.62-.64a87.88,87.88,0,0,0,9.1-1.45c1.65-.32,3.31-.64,4.92-1.11s3.26-1.06,4.87-1.64,3.24-1.22,4.84-1.91a25.07,25.07,0,0,0,4.29-2.33,66.66,66.66,0,0,0,7.41-6.34c2.33-2,4.71-3.9,7-5.92a56.89,56.89,0,0,0,6.57-6.87,65.14,65.14,0,0,0,5.46-7.54c1.46-2.42,2.58-5,3.83-7.56.66-1.27,1.37-2.51,2.07-3.76a3.21,3.21,0,1,0-5.55-3.24c-.85,1.51-1.72,3-2.49,4.57s-1.39,2.89-2.1,4.34-1.43,2.6-2.24,3.86A77.4,77.4,0,0,1,798,570.9a60,60,0,0,1-4.47,4.55c-1.9,1.65-3.86,3.24-5.79,4.87s-3.91,3.53-5.87,5.3c-.7.58-1.42,1.11-2.16,1.64s-1.44.9-2.2,1.3c-2.43,1.08-4.91,2-7.41,2.92-1,.34-2,.69-3,.95s-2.14.5-3.22.73c-2.75.55-5.52,1.13-8.31,1.42-1.37.14-2.74.23-4.11.37s-2.76.31-4.15.42c-2.2.11-4.42.08-6.62.29a51.49,51.49,0,0,0-6.75,1.28,38.61,38.61,0,0,0-6.41,1.88,24.77,24.77,0,0,0-3,1.58c-.36.22-5.07,4.64-6,5.27-1.53,1.08-3,2.25-4.54,3.32-1.91,1.22-3.86,2.39-5.75,3.65q-4,2.7-7.79,5.65c-2.66,2.07-5.27,4.19-8,6.22s-5.14,3.83-7.61,5.9c-1.23,1-2.41,2.11-3.65,3.14s-2.46,1.91-3.74,2.79l-1.84,1.23h0l-.2.14,0,0-.18.12,0,0c-.2.14-.4.28-.61.41l.09-.06c-1.79,1.21-3.57,2.45-5.36,3.67-2.2,1.46-4.45,2.83-6.65,4.29s-4.41,3.06-6.62,4.58c-3.42,2.31-6.91,4.49-10.35,6.77-3.27,2.16-6.42,4.5-9.64,6.73s-6.59,4.2-9.84,6.37c-.57.38-1.19.74-1.73,1.17l-.2.13c-.43-1.45-.85-2.9-1.29-4.35-.93-3-1.71-6.08-2.36-9.17l.06.3c-.49-2.42-.94-4.85-1.44-7.27-.27-1.28-.53-2.56-.79-3.85l-.12-.5c-.05-.34-.13-.68-.2-1-.45-2.27-.94-4.54-1.4-6.81,0,.14,0,.28.08.42-.76-3.76-1.47-7.53-2.09-11.31-.54-3.34-1.08-6.67-1.32-10-.28-4.69-.14-9.42-.14-14.12,0-5.34.11-10.71-.24-16-.37-5.69-1.92-11.19-3.09-16.75-.35-1.8-.66-3.61-1-5.42-.09-.45-.17-.89-.26-1.34s-.16-.89-.28-1.32c0-.08,0-.16,0-.24-.39-1.85-.81-3.69-1.2-5.54-.43-2.17-.81-4.35-1.21-6.52a65.59,65.59,0,0,1-1-6.7v0c-.19-3-.36-6-.6-8.93s-.58-5.91-.85-8.87c-.52-5.58-1.21-11.14-1.83-16.71-.72-6.45-1.45-12.9-2-19.36a177,177,0,0,0-2.67-18.93v0l0,.19a1.55,1.55,0,0,0,0-.21,1.8,1.8,0,0,0-.06-.32l-.09-.43c0-.26-.11-.52-.16-.77-.17-.76-.35-1.5-.52-2.24-.33-1.36-.71-2.7-1.12-4a43.12,43.12,0,0,0-4-9.35,47.4,47.4,0,0,0-5.88-8,89.63,89.63,0,0,0-6.91-6.59c-1.26-1.12-2.53-2.25-3.83-3.34s-2.46-2-3.68-3.06c-3.42-3.08-6.43-6.59-9.84-9.69-1.84-1.66-3.71-3.26-5.64-4.81-1.74-1.38-3.5-2.73-5.19-4.17-2.56-2.32-5-4.82-7.35-7.33s-4.82-5.1-7.17-7.72c-3.54-4.11-6.67-8.56-10-12.85a3.22,3.22,0,0,0-5.1,3.93c2,2.56,3.89,5.17,5.85,7.74s4.25,5.29,6.55,7.79,4.79,5.12,7.21,7.66a80.36,80.36,0,0,0,7.14,6.79c2.54,2.08,5.16,4.06,7.66,6.2,1.48,1.32,2.94,2.65,4.32,4.07s3,3.08,4.5,4.58,3,2.85,4.63,4.18,3.06,2.54,4.55,3.86l0,0a100.84,100.84,0,0,1,7.87,7.46,51.07,51.07,0,0,1,3.33,4.28,49.15,49.15,0,0,1,2.54,4.31,43.2,43.2,0,0,1,1.74,4.23,75.26,75.26,0,0,1,2.16,8c.06.27.11.54.17.79s0,.24.07.36l-.06-.31c.92,4.81,1.67,9.67,2.2,14.54.52,4.67.87,9.35,1.41,14q1.11,9.57,2.16,19.16c.34,3.14.63,6.29.94,9.44s.65,6.54.88,9.83c.14,2.22.23,4.45.44,6.67s.66,4.17,1,6.24.77,4.33,1.21,6.48c.39,1.86.82,3.7,1.21,5.56,0,.28.1.57.17.85s.07.33.1.5c.2,1,.4,2,.58,3.08.77,4.3,1.83,8.53,2.71,12.8a59.64,59.64,0,0,1,1,6.66c.2,3.35.2,6.71.21,10.06s0,6.9,0,10.34c0,3-.08,5.94.11,8.9s.56,6.08,1,9.1,1,6.18,1.61,9.26,1.28,6.38,1.94,9.57l-.09-.42c.19.9.37,1.8.56,2.7a2.28,2.28,0,0,0,.09.51l0,.09c.37,1.8.73,3.59,1.1,5.38l-.08-.42c.07.38.15.75.22,1.13.62,3.19,1.2,6.38,2,9.53.76,3,1.73,5.9,2.58,8.85s1.7,5.68,2.63,8.49a83.56,83.56,0,0,1,2.39,8.2,73.14,73.14,0,0,1,1.09,8.61,51.64,51.64,0,0,1,.14,5.28c-.06.63-.15,1.26-.26,1.89s-.24,1-.38,1.53c-.73-.57-1.45-1.15-2.15-1.76-1-.86-1.88-1.75-2.82-2.62-.59-.55-1.19-1.1-1.82-1.61l-.64-.5a3.21,3.21,0,0,0-6.06,1.87,4.67,4.67,0,0,0,1.7,2.88c.53.45,1.08.85,1.6,1.3,1.69,1.51,3.3,3.11,5,4.57.88.73,1.79,1.44,2.72,2.1a32.88,32.88,0,0,1,2.69,2,55.14,55.14,0,0,1,4,4.09c.2.25.4.51.59.77l.21.36c.06.12.11.24.16.37s0,.19.08.28,0,.2,0,.3v.23c0,.1,0,.2,0,.3s0,.1,0,.14l-.15.36c-.18.31-.37.63-.57.93s-.61.81-.94,1.2a40.78,40.78,0,0,1-3,2.92c-.68.57-1.38,1.13-2.07,1.7s-1.35,1.15-2.07,1.66l-.66.39c-.39.18-.78.34-1.17.49s-.8.24-1.2.34-.58.08-.87.1c-.57,0-1.14.07-1.71.06l-.32-.05-.57-.16c-.26-.09-.52-.2-.78-.32l-.29-.18c-.21-.15-.41-.31-.61-.47s-.6-.59-.89-.9-.47-.6-.69-.91c-.66-1-1.26-2.06-1.82-3.14-.25-.52-.49-1.06-.7-1.6a3.22,3.22,0,1,0-5.93,2.5,29.23,29.23,0,0,0,1.73,3.56,24,24,0,0,0,2.75,4c1.43,1.61,4.54,4.94,4.57,5.75,0,1,0,2.06-.06,3.1,0,.46-.09.92-.17,1.39,0,.13-.06.25-.1.38-.12.3-.24.59-.38.88-.06.11-.12.22-.19.33l-.08.1-.12.07-.45.18c-.21.07-.43.13-.65.18s-.62.09-.94.12a38.07,38.07,0,0,1-3.85-.1c-.75-.07-1.48-.15-2.22-.28-.42-.1-.83-.21-1.23-.34s-1-.4-1.43-.62c-1-.55-2-1.15-3-1.79s-1.82-1.36-2.7-2.09a61,61,0,0,1-4.92-5c-1.19-1.38-2.4-2.79-3.46-4.28a3.21,3.21,0,0,0-6.3.9c0,1.87,1.44,3.37,2.55,4.74s2.16,2.65,3.31,3.92c.54.59,1.09,1.18,1.65,1.75-.68-.18-1.37-.38-2.05-.6a30.7,30.7,0,0,1-3.07-1.3,33,33,0,0,1-2.93-1.72c-1.68-1.16-3.33-2.35-5-3.54-1.86-1.32-3.65-2.71-5.37-4.2l.31.27q-2.44-2.16-4.9-4.31l.23.2c-.61-.55-1.23-1.1-1.81-1.69a3.33,3.33,0,0,0-.84-1c0-.05,0-.1-.07-.15-.45-.7-.89-1.41-1.28-2.15a14.7,14.7,0,0,1-.66-1.53,52.86,52.86,0,0,1-1.35-5.52c-.41-1.91-.8-3.81-1.24-5.7s-.9-4-1.39-6.07-1.05-4.11-1.49-6.18c-.54-2.81-.94-5.65-1.46-8.46-.56-3.05-1.09-6.12-1.83-9.13s-1.46-6.19-2.23-9.27-1.61-6.38-2.44-9.57-1.72-6.31-2.68-9.45c-.86-2.81-5-14.64-5.32-15.42s-.69-1.72-1.06-2.57a19.18,19.18,0,0,0-1.61-2.82h0l.17.24a2.33,2.33,0,0,1-.17-.26,3.39,3.39,0,0,0-.35-.78c.08-.13.15-.26.22-.4.4-.81.74-1.65,1.12-2.47a35.8,35.8,0,0,0,1.87-5c.38-1.32.66-2.68,1.1-4s.89-2.67,1.29-4a72.7,72.7,0,0,0,1.91-8.23,49.74,49.74,0,0,0,.76-9,52.72,52.72,0,0,0-.93-9.63,21.53,21.53,0,0,0-1.48-4.65,17.35,17.35,0,0,0-.86-1.8l-.4-.78q-.5-1-1-1.92c-1.46-2.7-3.1-5.29-4.69-7.91s-3-5.07-4.3-7.67c-.65-1.31-1.28-2.61-1.81-4a42.05,42.05,0,0,1-1.08-4.29c-.28-1.57-.49-3.15-.62-4.75a107.41,107.41,0,0,1,.18-12.17,39.88,39.88,0,0,1,.45-4.07,2.68,2.68,0,0,1,.07-.27,3.74,3.74,0,0,0,.42-1.23,3.22,3.22,0,0,0-6.16-1.67h0l0,.05,0,0v0l0,.06a10.15,10.15,0,0,0-.54,1.61c-.38-.47-.77-.92-1.16-1.38-.84-1-1.68-1.94-2.58-2.87a50.39,50.39,0,0,0-4.64-4.12c-1.78-1.43-3.65-2.7-5.54-4l.35.23c-3.63-2.46-7.17-5.15-11.09-7.13a43.06,43.06,0,0,0-6.62-2.68c-1.09-.34-2.18-.67-3.29-1-.75-.19-1.53-.3-2.27-.51a3.16,3.16,0,0,0-1.44-.14,3.25,3.25,0,0,0-2.75,3.63,3.3,3.3,0,0,0,2.4,2.69c.61.15,1.23.27,1.85.41,1.54.36,3.06.83,4.56,1.33s2.9,1.11,4.31,1.77a54.48,54.48,0,0,1,4.94,2.94c2.42,1.64,4.82,3.31,7.25,4.93a63.42,63.42,0,0,1,5.57,4.34,42.34,42.34,0,0,1,3.07,3.07,78.93,78.93,0,0,1,5.09,6.43c.08.12.15.25.22.38a3,3,0,0,0,1,1c0,.85,0,1.71-.07,2.57a51.85,51.85,0,0,0,1.67,15.39,47.47,47.47,0,0,0,4.09,9c1.41,2.62,3,5.14,4.51,7.68s3.08,5.15,4.43,7.83l0,.05c.37.74.72,1.48,1,2.26.33,1,.61,2,.84,3a47.5,47.5,0,0,1,.55,4.76,53.88,53.88,0,0,1,.08,6,57.38,57.38,0,0,1-.89,6.52,83.47,83.47,0,0,1-2.21,8.39c-.44,1.33-.88,2.64-1.23,4-.27,1.07-.56,2.12-.9,3.16s-.69,1.75-1.08,2.61-.73,1.68-1.13,2.51a47.54,47.54,0,0,1-2.53,4.07,31.3,31.3,0,0,1-1.88,2.57l-.34.34-.33.25a8.21,8.21,0,0,0-3.88-2.3,18.63,18.63,0,0,0,.58-3.61,38,38,0,0,0-.06-4.27,35.73,35.73,0,0,0-.57-5,39.43,39.43,0,0,0-1.25-4.62,53.15,53.15,0,0,0-9-15.86c-1-1.15-2-2.27-3-3.38s-2.1-2.29-3.23-3.35a32,32,0,0,0-8.06-6,43.76,43.76,0,0,0-4.2-1.68c-1.57-.55-3.13-1.12-4.71-1.64s-3-.93-4.52-1.36a23.37,23.37,0,0,0-2.45-.55c-.32,0-.65-.06-1-.1a3.22,3.22,0,0,0-3.59,4.74,3.35,3.35,0,0,0,1.92,1.48,4.06,4.06,0,0,0,.91.17,10.82,10.82,0,0,1,1.29.17c2.24.53,4.44,1.23,6.62,2a75,75,0,0,1,7.27,2.77c.55.28,1.09.59,1.63.92.87.62,1.69,1.28,2.5,2a77.71,77.71,0,0,1,6.43,6.53,44.33,44.33,0,0,1,7,10.29,52.35,52.35,0,0,1,2.09,4.8c.41,1.26.76,2.52,1.05,3.81a31.93,31.93,0,0,1,.44,3.52,41.58,41.58,0,0,1,.08,4.6,12.9,12.9,0,0,1-.19,1.39c-.1.41-.21.81-.34,1.21a31.59,31.59,0,0,1-1.33,3.11c-.25.48-.51.95-.79,1.4-.17.24-.34.47-.52.69s-.32.33-.49.49c-.44.36-.89.71-1.36,1s-.65.41-1,.59c-1,.46-2,.82-3.06,1.19-.51.16-1,.31-1.54.43l-.24,0a3.26,3.26,0,0,0-2.74,3.63v0a8.51,8.51,0,0,0-1.23,1.45c-.56,0-1.12,0-1.68,0a10,10,0,0,0-2.42.41c-.68.21-1.36.46-2,.71a12.2,12.2,0,0,0-2.27,1,19.64,19.64,0,0,0-2.4,1.75,15.77,15.77,0,0,0-1.87,1.69,5.33,5.33,0,0,0-.91,1.49,5.68,5.68,0,0,0-.71,1.07l-.06,0a5,5,0,0,0-2.08,3.85,4.21,4.21,0,0,0,.51,2c-2,.88-4,1.69-6,2.41a108.69,108.69,0,0,1-12.74,3.74,55.05,55.05,0,0,1-6.27.91c-2.07.12-4.14.22-6.22.25-2.32,0-4.64.06-7,.24-4.32.33-8.52,1.48-12.75,2.37-2.94.58-6,1-8.83,1.86a57.45,57.45,0,0,0-8.37,3.24c-1.95.94-6.81,1.55-7.78,1.23a15,15,0,0,0-2.39-.51c-.89-.15-1.79-.3-2.68-.47a20.86,20.86,0,0,1-2.22-.63c-2.11-.75-4.15-1.67-6.19-2.58s-3.89-1.67-5.84-2.48c-1.34-.56-2.69-1.1-4.06-1.61s-2.89-1-4.32-1.57c-2.61-1-5.13-2.24-7.71-3.34-2.83-1.19-5.61-2.5-8.43-3.7-2.44-1-4.83-2.13-7.2-3.31-2.83-1.44-5.61-2.95-8.4-4.47-1.52-.83-3.06-1.62-4.57-2.45s-2.65-1.6-3.94-2.46c-1.79-1.23-3.52-2.55-5.27-3.84s-3.5-2.52-5.28-3.74-3.29-2.25-4.91-3.41-3.28-2.37-4.81-3.68c-2.82-2.5-5.41-5.28-8-8-1.27-1.37-2.53-2.73-3.83-4.08s-2.37-2.42-3.5-3.68c-.86-1-1.69-2.08-2.46-3.18a76.13,76.13,0,0,1-4-6.88c-1-2.06-1.95-4.15-2.93-6.23-1.07-2.28-2.1-4.57-3-6.94a92.2,92.2,0,0,1-2.82-10.71,93.39,93.39,0,0,1-1.48-10.65c-.21-4.33-.06-8.67,0-13,0-2.73.06-5.45.06-8.18,0,0,0,0,0-.07a3.35,3.35,0,0,0,.13-.88,3.16,3.16,0,0,0-.46-1.64c-.61-1.9-1.05-3.86-1.47-5.8-.47-2.42-.85-4.85-1.23-7.29s-.87-5.15-1.3-7.73c-.85-5.12-1.36-10.31-1.74-15.48-.14-2.37-.17-4.75-.2-7.12,0-2.57-.08-5.13-.11-7.7,0-2.37-.06-4.75,0-7.12s.22-4.73.35-7.09c0,.08,0,.16,0,.24l0-.33v0c.16-2.38.35-4.77.62-7.15s.75-4.65,1.18-7c.86-4.61,1.47-9.27,2.35-13.87.56-2.66,1.18-5.31,1.74-8s1.13-5.63,1.69-8.44q1.27-6.24,3.11-12.34c1.24-4.17,2.64-8.3,4-12.42s3.13-8.36,5-12.44c1.74-3.88,3.59-7.72,5.48-11.53,2.09-4.15,4.32-8.23,6.39-12.38s3.9-8.13,5.9-12.16c1.49-2.95,3.13-5.82,4.77-8.69,1.56-2.71,3.15-5.4,4.84-8,1.85-2.9,3.68-5.81,5.43-8.77,1.5-2.56,3-5.12,4.61-7.6,3.39-4.94,7.16-9.63,10.89-14.32,2-2.51,4.05-5,6-7.52,1.76-2.24,3.49-4.48,5.35-6.64,3.36-3.78,7-7.28,10.43-11,1.82-2,3.59-4,5.46-6s3.92-3.87,6-5.7c1-.87,2-1.74,3-2.58s1.84-1.45,2.75-2.17c1.57-1.26,3.1-2.58,4.76-3.73,2.33-1.56,4.69-3.07,7-4.64a104.94,104.94,0,0,1,10.65-6.13c1.72-.84,3.53-1.5,5.25-2.33s3.28-1.72,4.92-2.57c2.73-1.35,5.57-2.49,8.39-3.63,3.7-1.49,7.28-3.3,10.94-4.91s7.1-3,10.67-4.38c1.79-.72,3.58-1.43,5.34-2.2s3.69-1.59,5.59-2.27c3.39-1.15,6.8-2.25,10.2-3.37q2.7-.87,5.38-1.82c1.77-.64,3.52-1.34,5.3-2,3.23-1.05,6.52-1.91,9.81-2.75s6.31-1.63,9.49-2.31c2.68-.53,5.36-1,8.05-1.4s5.32-.88,8-1.23c5.64-.74,11.3-1.45,17-1.85h-.18l.33,0h0c2.86-.18,5.7-.37,8.56-.58l-.44,0c3.94-.26,7.88-.38,11.82-.56,3.73-.17,7.47-.3,11.2-.35s7.71-.11,11.56,0c4,.12,8,.42,12,.67,5.09.36,10.16.94,15.22,1.53,4.67.54,9.35,1.22,14,2.15,2.6.57,5.19,1.23,7.79,1.84s5.1,1.21,7.64,1.88c5.18,1.36,10.36,2.79,15.45,4.46,4.35,1.53,8.62,3.25,12.87,5.06,3.89,1.65,7.85,3.15,11.82,4.59s8.18,3,12.36,4.16,8.29,2.4,12.39,3.78c3.3,1.18,6.55,2.52,9.8,3.84,3.07,1.25,6.14,2.45,9.13,3.88,3.53,1.79,7,3.75,10.46,5.58,1.73.91,3.48,1.78,5.2,2.71s3.46,2,5.13,3.06c1.84,1.29,3.62,2.66,5.43,4s3.84,2.8,5.77,4.19c3.61,2.6,7.12,5.33,10.47,8.26,2.6,2.38,5,4.92,7.48,7.44,2.19,2.25,4.35,4.51,6.45,6.83a84,84,0,0,1,5.44,7.14c3.13,4.78,5.86,9.8,8.73,14.73,1.43,2.44,2.91,4.86,4.36,7.29,1.34,2.25,2.59,4.54,3.78,6.88q2.4,4.88,4.68,9.82c1.53,3.34,2.95,6.73,4.36,10.13,1.47,3.55,3.13,7,4.64,10.54,1.41,3.32,2.67,6.71,3.88,10.11v0c1.17,3.4,2.28,6.82,3.36,10.25s2.11,6.79,3,10.23c1.76,7,3.27,14,4.71,21l-.09-.42q.59,2.88,1.19,5.76l0-.1c.24,1.19.48,2.38.73,3.57.1.52.18,1.07.31,1.59s.22,1.06.33,1.57l.39,1.87c.25,1.13.49,2.26.74,3.38,1,4.34,2.1,8.65,3.3,12.94,1,3.52,2.17,7,3,10.6.44,2.26.71,4.55,1.17,6.81l-.08-.42a19.22,19.22,0,0,1,.22,2h0c.17,2.79.13,5.6.13,8.39,0,4.2.1,8.41-.11,12.6a46.75,46.75,0,0,1-.73,5.53c-.25,1.17-.54,2.33-.9,3.47-.13.35-.28.69-.44,1a3.22,3.22,0,1,0,5.93,2.5,25,25,0,0,0,1.67-5.55,41.18,41.18,0,0,0,.82-5.73c0-.46,0-.92.07-1.39a80,80,0,0,1,1,8.17c0-.07,0-.14,0-.21,0,.11,0,.22,0,.34v0c.12,1.92.2,3.84.48,5.73s.73,4,.91,6c.13,2.7.07,5.41.14,8.11.16,6.21,0,12.43.29,18.64C846.11,538.76,846.23,541.8,846.18,544.85Z"/></g></svg>