<svg xmlns="http://www.w3.org/2000/svg" viewBox="0 0 396 396"><defs><style>.cls-1{fill:#646464;}.cls-2{fill:#c59160;}.cls-3{fill:#442118;}.cls-4{fill:#d5c3a5;}.cls-5{fill:#fff;}.cls-6{fill:#019dcb;}.cls-7{fill:#323232;}</style></defs><g id="レイヤー_7" data-name="レイヤー 7"><path class="cls-1" d="M154.26,284.32c-22.41,5.66-61.47,15.53-60.63,22.73.89,7.62,45.8,7.66,65.94,6.82,46.17-1.92,69.4-12.94,84.88-25,6.83-5.32,14.25-11.11,12.89-15.15C253.64,262.75,189.29,275.46,154.26,284.32Z"/><path class="cls-1" d="M288.15,329.54c-22.41,5.66-61.47,15.53-60.63,22.74.88,7.61,45.79,7.66,65.93,6.82,46.18-1.92,69.41-12.94,84.89-25,6.83-5.33,14.25-11.11,12.88-15.16C387.52,308,323.18,320.69,288.15,329.54Z"/></g><g id="レイヤー_1" data-name="レイヤー 1"><path class="cls-2" d="M327.71,259.58a2.83,2.83,0,0,0-3.18-.89,7.57,7.57,0,0,0-2.95,2,7.33,7.33,0,0,0-1.53,2.31c-.22.53-.39,1.08-.56,1.63l-.15.43h-.11l-.15,0c-.75-.27-1.46-.65-2.18-1a8.44,8.44,0,0,0-3.51-1,13.08,13.08,0,0,0-5.71,1.84l.12-.07a4,4,0,0,1-.47.22,13.92,13.92,0,0,1-1.39.43c-.29.06-.59.1-.89.14a28.64,28.64,0,0,1-3.21,0h-.08c-.61,0-1.22-.06-1.83,0s-1.12.11-1.68.2c-1.27.22-2.52.54-3.76.87-1.53.41-3.05.85-4.59,1.22-1.06.24-2.13.43-3.19.66a26.86,26.86,0,0,1-2.65.5c-.94.06-1.88.06-2.82,0l-.72-.06c-1.54-.32-3.1-.62-4.61-1.08-.66-.23-1.33-.46-2-.72s-1.23-.55-1.84-.82c-1.14-.5-2.3-1-3.47-1.39a21,21,0,0,0-2.48-.78c-1-.23-2.09-.41-3.12-.64s-2.28-.54-3.42-.85a25.5,25.5,0,0,0-3.12-.68c-1-.13-2-.13-3-.28a12.73,12.73,0,0,0-2.23-.14c-.89,0-1.79.13-2.68.25-1.12.15-2.21.42-3.33.54a29.93,29.93,0,0,0-3.29.46,6.79,6.79,0,0,0-2.87,1.06,6,6,0,0,0-1.32,1.84c-.16.23-.32.45-.5.68s-.59.65-.91.95l-.25.22h0l-.28.05h-.24l-.24,0-.29-.07-.66-.28-1.19-.56-.48-.24a6.63,6.63,0,0,0-.32-3.59,3.6,3.6,0,0,0-1.45-1.61l-.34-.17a3.79,3.79,0,0,0-1.15-1.36,5.76,5.76,0,0,0-3.62-.73c-.82,0-1.65,0-2.48,0-.52,0-1-.08-1.56-.16-.2,0-.39-.08-.59-.14a6.67,6.67,0,0,1-.74-.29c-.62-.31-1.19-.68-1.79-1a10.17,10.17,0,0,0-2-.89,2.51,2.51,0,0,0-3.28,2.42,2.46,2.46,0,0,0,.39,1.24,11.52,11.52,0,0,0,.26,1.54,11.83,11.83,0,0,0,.54,1.55c.11.32.21.66.35,1a4,4,0,0,0,.41.7,1.53,1.53,0,0,0,.11.16,2.59,2.59,0,0,0-.54,1.54c0,.57,0,1.13.06,1.71.09,1,.26,1.94.36,2.92.11,1.36.14,2.72.22,4.08a31.46,31.46,0,0,0,.64,4.53c.32,1.54.52,3.11.76,4.67.11.67.23,1.35.35,2a10.22,10.22,0,0,0,.52,2.33,2.37,2.37,0,0,0,.79,1c0,.06,0,.12,0,.18-.05.79-.17,1.57-.25,2.36s-.13,1.42-.19,2.13a15.83,15.83,0,0,0,0,3.44c.09.67.22,1.33.32,2s.21,1.42.31,2.12c.18,1.29.3,2.58.42,3.87.23,2.83-.11,5.68.2,8.51a15.73,15.73,0,0,0,.93,4,8.28,8.28,0,0,0,.67,1.33c.14.24.3.46.44.7a1.89,1.89,0,0,1,.11.25c0,.12.07.24.1.36.1.59.18,1.19.24,1.79.12,1.3.19,2.6.33,3.9a26.52,26.52,0,0,0,.77,4c.3,1.15.69,2.28,1.08,3.4.17.49.35,1,.55,1.45,0,.69,0,1.39,0,2.08,0,1,0,2.08.06,3.12,0,.5,0,1,.11,1.51a4.53,4.53,0,0,0,.33,1.41,2.89,2.89,0,0,0,.94,1.13s0,.07,0,.11a5.19,5.19,0,0,0,.1,1.62,8.35,8.35,0,0,0,.52,1.87,3.41,3.41,0,0,0,.31.49c0,.14.05.28.08.42a3,3,0,0,0,.7,1.21l.14.15a3.39,3.39,0,0,0,.82,1.79,5,5,0,0,0,2.61,1.39,2.33,2.33,0,0,0,.17.26,6.1,6.1,0,0,0,2.18,1.65,9.83,9.83,0,0,0,1.28.58,13.35,13.35,0,0,0,3.06.78c1.88.23,3.75.15,5.63.2l3.2.16,1.11.17a2.55,2.55,0,0,0,1.64.92h.22a10.05,10.05,0,0,0,3.94,1.32c.31.06.63.09,1,.13a6.38,6.38,0,0,0,1.21,1l.5-.05a15.76,15.76,0,0,1,2.06,0,30.48,30.48,0,0,1,3.29.41l.55.07h.22l1.59-.16-.4,0c1.31-.12,2.6-.38,3.93-.45,1-.06,2-.14,3-.17a15.1,15.1,0,0,1,5.05.64l.49.12a19,19,0,0,0,2.11.26c.5,0,1,0,1.49,0l1.33-.07,1.94-.1c.42-.06.82-.18,1.24-.24a13.4,13.4,0,0,1,2.28-.18c.83,0,1.66-.08,2.49-.11,1,0,2.1-.05,3.14-.09.71,0,1.42-.1,2.13-.14.27,0,.54,0,.81,0s.6,0,.9,0c.71,0,1.42-.12,2.13-.12.91,0,1.81.09,2.71.15.55-.26,1.08-.53,1.61-.83,1.11-.61,2.19-1.28,3.3-1.88l.4-.2c.26.06.52.13.78.17a7.72,7.72,0,0,0,2.71.12,6.9,6.9,0,0,0,2.47-.95c1.73-1,1.21-2.85,1.71-4.76,0-2.09,1.89-4.41,2-6.5.08-1.21.19-2.41.36-3.61s.33-2.18.45-3.27c.19-2.34.1-4.71.5-7a5.38,5.38,0,0,1,.34-1.25l.06-.13v-.15c-.05-.9-.15-1.79-.22-2.69a18.41,18.41,0,0,1,0-3.15c.16-1.69.48-3.35.74-5,.14-1,.23-1.92.31-2.89.12-1.28.4-2.53.64-3.79.15-1,.22-2.06.37-3.08.08-.59.11-1.19.19-1.79A17.79,17.79,0,0,1,320,306a27.64,27.64,0,0,1,.94-2.88c.27-3.8.48-7.6.8-11.4a3.79,3.79,0,0,0,.56-.57,3.91,3.91,0,0,0,.62-1.54c.15-.61.27-1.23.38-1.84a20,20,0,0,0,.33-4.63,15.62,15.62,0,0,0-.36-2.7,4.26,4.26,0,0,0,1.49-1.55,7.59,7.59,0,0,0,.75-3c.19-1.13.35-2.26.49-3.4.17-1.35.32-2.71.53-4.05,0-.09,0-.18.07-.28.54-1.55,1.17-3.07,1.61-4.66A4.62,4.62,0,0,0,327.71,259.58Z"/><path class="cls-3" d="M177.46,147.22l-.43.58.94-.71Z"/><path class="cls-3" d="M121.29,145.5c.11-.1.24-.2.36-.29a4.69,4.69,0,0,0-.84-.21,3.35,3.35,0,0,0-.7-.05,2.74,2.74,0,0,1,.35,1.23Z"/><path class="cls-3" d="M142.28,144.56l.77-.64c.45-.38.91-.75,1.37-1.12a7.51,7.51,0,0,1,.65-.5,4.79,4.79,0,0,0-2,.21,7.87,7.87,0,0,0-1.62.71,2.67,2.67,0,0,1,.61.78A2.88,2.88,0,0,1,142.28,144.56Z"/><path class="cls-3" d="M103.05,143.43a7.46,7.46,0,0,0-1,.06,2.22,2.22,0,0,1,.29.52Z"/><path class="cls-3" d="M109.72,141.89l-.55,0a1.92,1.92,0,0,1,.18.31Z"/><path class="cls-3" d="M189.29,156.06a2.21,2.21,0,0,0-1-.57,7.08,7.08,0,0,0,0-3.14,20.05,20.05,0,0,0-.53-2.8,5.5,5.5,0,0,0-.4-1,2.67,2.67,0,0,0-1.66-1.28,6.73,6.73,0,0,0-3.25.44c-1.35.26-3.1-.77-4.47-.65-1,0-1.63,1.25-2.62,1.33s-1.94.18-2.91.25c-.51,0-1,.05-1.54.1a21.75,21.75,0,0,0-4.71-1.08c-1.15-.12-2.29-.21-3.43-.37s-2.42-.4-3.65-.48a33.39,33.39,0,0,0-5.38.35h-1.47a2.29,2.29,0,0,0-.69-.45,4.69,4.69,0,0,0-1.07-.29l-.89-.28a14.23,14.23,0,0,0-3.51-.94,7.81,7.81,0,0,0-4.49.72,3.34,3.34,0,0,0-1.8,2.46c-.05.4-.05.81-.06,1.21a12.88,12.88,0,0,0,1.4,4.11c-1.43.07-7.19.33-8.18.21l-.37-.27a8.5,8.5,0,0,0-1.5-.77,13.47,13.47,0,0,0-3.2-.71c-.25,0-.5,0-.76-.05h0a18,18,0,0,0,.12-2.2A4.16,4.16,0,0,0,126,146.6a2.59,2.59,0,0,0-3.45.29l-.73,0c-.91,0-1.82.11-2.73.18h-.5l-.12,0h0c-.5-.2-1-.45-1.49-.64a8.63,8.63,0,0,0-3-.49c-1.07,0-2-.95-3.06-.79s-6.71.75-7.41.41a6.17,6.17,0,0,0-3.14-.9h0a2.88,2.88,0,0,0-.14-1.33,2.33,2.33,0,0,0-1-1.15,2.55,2.55,0,0,0-1.55-.31,2.21,2.21,0,0,0-1.11.41l-1,.37-.2.06c-.94-.09-1.88-.23-2.83-.31a34.75,34.75,0,0,0-3.81-.21,8.35,8.35,0,0,0-3.32.59,3.42,3.42,0,0,0-2,2.65c0,.3,0,.61-.11.91,0-.06,0-.13,0-.19-.1.5-.14,1-.21,1.51a7.71,7.71,0,0,0-.25,2.43,3.07,3.07,0,0,0,.14.52,6.73,6.73,0,0,0-1.47.3,7.26,7.26,0,0,0-2,1c-.24.18-.47.37-.72.55s-.69.41-1,.6l-.41.17-.27.09a2.61,2.61,0,0,0-1.5,1.14,2.46,2.46,0,0,0,.87,3.33c1,.6,2.17.25,3.24.15.45,0,.9,0,1.34,0l.75.07s0,.06,0,.08c.51,1.69,2.39,2.26,3.93,2.6,1,.22,2,.36,3,.48,2,.22,4,.39,6,.63,1,.12,2.06.31,3.09.48l2.65.4a31.55,31.55,0,0,0,3.49.38c1.16.07,2.32.09,3.48.11,2.31.05,4.62,0,6.93,0,1.2,0,2.39,0,3.59.06s2.41.12,3.61.15h.72c2.1,0,4.19-.19,6.28-.33a7.45,7.45,0,0,0,1.06-.07,3,3,0,0,0,1-.32,3.47,3.47,0,0,0,.55.16,15.7,15.7,0,0,0,2.06.08h1.56q.93,0,1.86,0l.81,0a47.38,47.38,0,0,0,6.63-.27c2.05-.24,4.1-.5,6.15-.76l4.22-.06c1.46,0,2.93,0,4.39-.08s3-.27,4.58-.38,2.88-.12,4.32-.23,2.73-.32,4.1-.43c1.14-.07,2.28-.08,3.41-.16a13.9,13.9,0,0,0,1.56-.21l.81-.16h.12c2.33-.14,4.66-.14,7-.14a10.67,10.67,0,0,0,1.36.15l.55,0,.55.19a2.51,2.51,0,0,0,.93.17,2.39,2.39,0,0,0,2.25-1.46A2.45,2.45,0,0,0,189.29,156.06Z"/><path class="cls-3" d="M246.68,164.71c-.75.07-1.5.15-2.24.27a2.75,2.75,0,0,1,.45.61C245.48,165.29,246.08,165,246.68,164.71Z"/><path class="cls-3" d="M337.63,178.51a2.29,2.29,0,0,0-1.28-1.45h0l-.11-.06c-.13-.07-.27-.13-.4-.21l-.1-.07-.11-.1-.26-.32a2.09,2.09,0,0,0-.27-.39c0-.15-.09-.3-.13-.45-.08-.44-.14-.87-.19-1.3-.06-.75-.07-1.49-.08-2.24a5.69,5.69,0,0,0-.05-1.09,2.49,2.49,0,0,0-1.09-1.66,1.09,1.09,0,0,1,0-.18,4,4,0,0,0-.57-2.25c-.53-.77-.44-2.31-1.42-2.24a20.63,20.63,0,0,0-2.49-.28c-.92,0-1.2.8-2.12,1a20.28,20.28,0,0,0-2.36.28c-.77.23-1.56,1.54-2.34,1.72a22.38,22.38,0,0,1-2.29.4,32.63,32.63,0,0,1-3.28,0c-.42,0-.84-.06-1.25-.12s-1-.39-1.52-.61l-.56-.32-.28-.13c.1-.56-3.16-2.79-3.5-2.72-.7.13-1.39.28-2.09.42s-1.47.28-2.21.44c-.55.12-1.1.28-1.65.41l-.32,0c-.3,0-.59,0-.89,0l-.53-.06c-.63-.13-1.27-.28-1.89-.46s-1.17-.43-1.76-.63a15.1,15.1,0,0,0-2.21-.52,34.56,34.56,0,0,0-3.49-.65l-.16,0a7,7,0,0,0-1,0,3.5,3.5,0,0,0-2.81,1.16,2.57,2.57,0,0,0-.45,1.9,3.63,3.63,0,0,0,.1.45c0,.15.05.31.07.47s0,.31,0,.47c-.09.38-.18.77-.29,1.16-.2.7-.42,1.39-.6,2.1-.05.22-.1.44-.13.66-.27.06-.54.1-.81.14s-.75,0-1.12,0l.33,0c-.73,0-1.46-.06-2.19-.09-.57,0-1.14-.09-1.71-.17q-.39-.07-.78-.18c-.27-.1-.54-.21-.8-.33a21.74,21.74,0,0,0-3.76-1.59c-1.08-.29-.68-.59-1.79-.76,0-.77-.26-3.39-.21-3.92.11-1-1.36-1.69-2.22-2.17a2.73,2.73,0,0,0-1.82-.25,8.82,8.82,0,0,0-1.59.4l-1,.38a21.31,21.31,0,0,1-2.19.68c-.75.16-1.5.28-2.25.45l-3.21.75c-1.3.29-2.61.58-3.93.74-.4,0-.81,0-1.21.1-.66.08-1.32.22-2,.33-1,.16-1.78-.92-2.77-.81s-1.92,1.41-2.79,1.5-1.47.09-2.21.14l-2.32.21a28.79,28.79,0,0,1-3.22.1c-1.32-.09-2.61-.38-3.94-.38a16.51,16.51,0,0,0-3.57.36,34,34,0,0,0-3.58.88c-.71.22-1.4.47-2.1.71l-1-.1a7.27,7.27,0,0,0-3-.43,12.72,12.72,0,0,0-2.55.92l-.57.25a3.22,3.22,0,0,0-1.5-.85,3.53,3.53,0,0,0-2.56.41,4.94,4.94,0,0,0-.49.3.86.86,0,0,1-.07-.1,2.6,2.6,0,0,0-2.11-1,2.71,2.71,0,0,0-2.27,1.48,4.88,4.88,0,0,0-.45,1.84c-.07,1.1,0,2.18,0,3.27a6,6,0,0,0-1.25,2.2,4,4,0,0,0,1.17,4.11,5.5,5.5,0,0,0,3.42.74l.09.07a6,6,0,0,0,2.13.83c1,.21,2,.45,3.08.56a23.56,23.56,0,0,0,3.25.13c1,0,2-.13,2.94-.19s2.06-.08,3.09-.07h.76c1.14.07,2.27.15,3.41.19,1.59.05,3.19,0,4.79,0,1.16.06,2.31.2,3.47.33l2.12.23a2.13,2.13,0,0,1-.21.49l-.06.11,1.46,0c1,0,2-.06,2.94-.07,1.2.09,2.41.13,3.62.16,2,0,4.05.13,6.06.08a2.18,2.18,0,0,0,.61.67,7.46,7.46,0,0,0,2.39.87c.43.11.87.2,1.31.28a2.57,2.57,0,0,0,.73.22,6,6,0,0,0,.85,0h.35c.78.05,1.57.05,2.35.05.48,0,.95,0,1.43,0l1.26,0h1.27l1.87,0a8.79,8.79,0,0,0,1.25-.06,2.15,2.15,0,0,0,1-.42l1.12-.11c1.24-.15,2.48-.34,3.73-.48h.12l1.05,0h.27a3.93,3.93,0,0,0,.59.47,5.52,5.52,0,0,0,1.47.59,2.88,2.88,0,0,0,.84.36,9.6,9.6,0,0,0,2.21.14l1.55,0c.6,0,1.19,0,1.78,0,.43,0,.86,0,1.28-.06a5,5,0,0,0,1.52-.31,2.73,2.73,0,0,0,.64-.37,3,3,0,0,0,1.34-.57A2,2,0,0,0,293,185l.59-.07c2.9-.22,5.8-.07,8.71-.12s6.25.6,9.16.36c1.59-.13,7.49-1.48,9-1.63.88-.08,1.77-.15,2.65-.17s1.94,0,2.91,0,1.69-.09,2.53-.16,1.77-.12,2.65-.17c.66,0,1.32-.1,2-.1.36,0,.71,0,1.07,0a2.74,2.74,0,0,0,1-.26l.27.13a2.58,2.58,0,0,0,.94.16,2.42,2.42,0,0,0,1.19-4.51Zm-8.4-.19v0a2.77,2.77,0,0,0,1.32-.54c.05.15.11.31.17.47Zm8.48.49a.17.17,0,0,0,0-.07h0l.15.21.14.26,0,.11A2.49,2.49,0,0,0,337.71,178.81Z"/><path class="cls-2" d="M182.44,220.7l.66-3.47a1.32,1.32,0,0,0-.29-.46,1.31,1.31,0,0,0-.85-.36c0-.07-.05-.15-.08-.22a1.47,1.47,0,0,0-.49-.47,1.22,1.22,0,0,0-.77-.12,2.44,2.44,0,0,0-.46.14l-.62.24a5.89,5.89,0,0,0-1.33.72c-.73.56-1.43,1.15-2.14,1.73s-1.45,1.09-2.18,1.63c-.41.29-.82.58-1.21.89s-.76.61-1.14.91c-.79.65-1.58,1.29-2.34,2s-1.3,1.14-2,1.7-1.44,1.17-2.19,1.73l-1.29,1-.06,0a17.55,17.55,0,0,0-2,1.22,9.17,9.17,0,0,0-1.45,1.26,7.48,7.48,0,0,0-.68.81c-.2.27-.39.54-.6.8s-.24.25-.37.37l-.39.31-.25.14c-.37.17-.76.31-1.15.45h0l-.11,0,0,0c-.79.28-1.58.56-2.36.87a11.71,11.71,0,0,0-2.37,1.13,15.37,15.37,0,0,0-2.06,1.63c-.62.59-1.21,1.21-1.85,1.78-.29.24-.59.48-.9.71s-.84.52-1.28.75l-.48.21a3.37,3.37,0,0,1-.34.09,10.83,10.83,0,0,0-1.7-.09l-.59,0-.48-.31a21.46,21.46,0,0,0-5.87-2.71c-.91-.26-1.84-.44-2.75-.69-.67-.19-1.35-.36-2-.56h0a17.68,17.68,0,0,0-3.19-1.1c-.23-.06-.47-.09-.7-.14l-2.14-.55c-1-.25-2.07-.49-3.11-.64a21.26,21.26,0,0,0-3.19-.19c-1,0-2.07,0-3.11,0s-1.94.15-2.9.23h0l-1.63.09a15.33,15.33,0,0,0-1.64.14,19.89,19.89,0,0,0-2.94.78,20.44,20.44,0,0,0-2.95,1.19,6.77,6.77,0,0,0-1.1.73c-.35.28-.68.56-1,.82a3.78,3.78,0,0,1-.43.26q-.48.23-1,.42l-.27.07-.15-.1c-.64-.44-1.26-.89-1.92-1.28a18.57,18.57,0,0,0-2.82-1.24,29.94,29.94,0,0,0-3-1.07,10.25,10.25,0,0,0-1.54-.31c-.58,0-1.16-.07-1.74-.08s-1.11,0-1.66,0h0c-.16-.1-.31-.21-.47-.3s-.47-.29-.71-.43l-.1-.17-.42-.71a3,3,0,0,0-.71-.86.86.86,0,0,0-1.26.24.83.83,0,0,0-.44.17.84.84,0,0,0-.3.91,2.51,2.51,0,0,0,.49.81l.09.13s0,.08,0,.12.08.16.13.24a2.53,2.53,0,0,0,.43,1.2,3.7,3.7,0,0,0,.37.54,2.48,2.48,0,0,0-.3,1.05.92.92,0,0,1-.81-.54.7.7,0,0,1-.06-.27l-.24,0c-.05.28-.09.57-.12.86a19.27,19.27,0,0,0,.9,7.65c.14.44.28.89.45,1.33a32.67,32.67,0,0,0,.71,5.2c.16.75.35,1.49.54,2.23,0,.28,0,.56-.08.83-.13,1.49-.21,3-.23,4.46,0,3,.07,6,.3,9,.2,2.6.48,5.18.67,7.78.14,2.12.2,4.23.31,6.36.12,2.31.22,4.65.54,6.94.19,1.38.43,2.74.7,4.1A24.24,24.24,0,0,0,89,297.51a.29.29,0,0,1,0,.09,2.53,2.53,0,0,0,.12.77c.06.25.12.5.2.74.16.52.34,1,.52,1.55.3.85.65,1.68,1,2.53l.6,1.81q.3.9.57,1.8a3.2,3.2,0,0,0-.19.37,5.78,5.78,0,0,0-.34,1.94c0,.2,0,.41,0,.61a3.57,3.57,0,0,0,.71,2.08A5,5,0,0,0,93.49,313a10,10,0,0,0,4.07,1.2l2.58.21a5.08,5.08,0,0,0,.82.79,5.36,5.36,0,0,0,1.31.71,10.39,10.39,0,0,0,2.27.59,16.21,16.21,0,0,0,2.51.18c.68,0,1.37,0,2.06-.1l.58,0c.32,0,.65,0,1,0a16,16,0,0,0,3.65.63c1.12.07,2.25.11,3.39.13a4.33,4.33,0,0,0,2.19.59l.27.2a2.12,2.12,0,0,0,.85.27,5.6,5.6,0,0,0,1.09.11h.08a9.48,9.48,0,0,0,3.07-.53l.22-.08a4.63,4.63,0,0,0,1.18.29c.81.11,1.62.16,2.43.2.07,0,.13.08.21.11a7,7,0,0,0,2.78.48,16.15,16.15,0,0,0,2.13-.16c1.36-.2,2.7-.48,4-.79l.7-.17c.61-.07,1.21-.15,1.81-.25a30.38,30.38,0,0,0,3-.7h1.77c1.33,0,2.63-.12,4-.23l2.69-.17c.73-.05,1.45-.1,2.18-.21,1.17-.18,2.33-.47,3.5-.73l.44-.08a5.87,5.87,0,0,0,1.51-.08l.75-.13a4.32,4.32,0,0,0,.94-.24,3.28,3.28,0,0,0,1.16-.9l.08-.1L163,314h0a2.9,2.9,0,0,0,1.44-.38,6.84,6.84,0,0,0,1-.73c.48-.42.94-.86,1.39-1.33a9.47,9.47,0,0,0,1.14-1.39,4.59,4.59,0,0,0,.66-1.82,11.08,11.08,0,0,0,.07-1.82c0-.54,0-1.1-.05-1.65l0-.66c.16-.45.29-.9.41-1.37s.24-1.06.35-1.59a18.24,18.24,0,0,0,.37-1.93,1.26,1.26,0,0,0-.26-.9c.19-.44.38-.9.55-1.35s.21-.61.29-.92a5.68,5.68,0,0,0,.23-1,1.17,1.17,0,0,0-.41-1,3.68,3.68,0,0,0,.18-.5,11.64,11.64,0,0,0,.28-1.67l.06-.64c.49-2,.89-4,1.23-6,.94-5.53,1.76-11.1,2.86-16.61.63-3,1.34-5.91,1.86-8.9s.92-5.86,1.34-8.79c.17-1.15.32-2.31.46-3.47,0-1,0-1.94.08-2.9a80.11,80.11,0,0,1,1.61-10.89c.12-.78.21-1.56.31-2.34s.17-1.37.29-2c.28-1.64.68-3.26,1-4.89v0h0c.08-.45.17-.89.25-1.34.14-.79.28-1.58.43-2.37Zm-9.35,2.12c.72-.59,1.47-1.13,2.22-1.68l.37-.27-1.21,1c-.66.52-1.33,1-2,1.5Z"/><path class="cls-2" d="M169.2,223.83h0l.08-.07Z"/><path class="cls-2" d="M152.33,316.6h-.39Z"/></g><g id="レイヤー_4" data-name="レイヤー 4"><path class="cls-4" d="M102.23,144a2.5,2.5,0,0,1,1.13-.17c-.49.09-1,.2-1.45.33Z"/><path class="cls-4" d="M341.12,181.42c0-.08-1.89-.29-1.9-.37a2.65,2.65,0,0,0-.68-1.18c-.12-.14-.23-.3-.36-.44a2.37,2.37,0,0,0-.56-.44,1.65,1.65,0,0,0-.36-.16.83.83,0,0,0-.31,0l0,0a1.89,1.89,0,0,0-.2-.27,2.28,2.28,0,0,0,0-.26,1.14,1.14,0,0,0-.15-1,.9.9,0,0,0-.74-.31,1.83,1.83,0,0,0-.14-.32.85.85,0,0,0-.51-.35c0-.24,0-.48,0-.73s0-.59,0-.89,0-.88,0-1.32a.09.09,0,0,1,0-.05v0h0a6,6,0,0,0,.16-1.12,3.89,3.89,0,0,0,0-.76c-.05-.23-.12-.45-.18-.68a1.37,1.37,0,0,1,0-.19v.11a9.71,9.71,0,0,0-.21-1.2c-.06-.26-.12-.53-.2-.79s-.13-.35-.2-.53-.27-.58-.4-.88a.86.86,0,1,0-1.56.71c.14.35.32.68.46,1a5.91,5.91,0,0,1,.19.69h0c0,.11.05.22.08.33v0l0,.09v0h0a5.85,5.85,0,0,1,.12.73s0-.08,0-.12a8,8,0,0,0,.22,1.06.36.36,0,0,1,0,.11,2.81,2.81,0,0,1,0,.41,1.49,1.49,0,0,1,0,.21,4.17,4.17,0,0,0-.13.93l0,1.13c0,.48,0,1,0,1.44l0,.4a.31.31,0,0,0,0,.08l0,.08a.41.41,0,0,1-.07.11.76.76,0,0,1-.08.11,3.83,3.83,0,0,1-.28.29l-.15.12a.57.57,0,0,1-.13.08,12.63,12.63,0,0,1-1.45.66c-.59.21-1.18.39-1.78.59l-.49.16c-.24,0-.49.06-.73.11l-.67.14-.17.05h-.14a9.62,9.62,0,0,0-1.2,0h0a10.36,10.36,0,0,0-2.28.39c-.33.11-.66.24-1,.38a5.77,5.77,0,0,0-.55.29l-.25.12c-.39.13-.8.21-1.21.31-.19,0-.37.09-.56.15a7.3,7.3,0,0,0-.81,0,4.65,4.65,0,0,0-1.32.28l-1.22.41a3.05,3.05,0,0,0-1.17.61,1.64,1.64,0,0,0-.6,1.16,1.23,1.23,0,0,0,1.09,1.11,2.7,2.7,0,0,0,.69.07,1.66,1.66,0,0,0,.49-.07,3.2,3.2,0,0,0,1.1-.6c.27-.22.54-.44.82-.64a4,4,0,0,1,.44-.27c.21-.11.43-.2.65-.29l.06,0c.27,0,.53,0,.8.09a5.16,5.16,0,0,0,1,.09,7.61,7.61,0,0,0,1-.07c.75-.08,1.5-.2,2.24-.31s1.27-.3,1.91-.37h.41l.4,0,.09,0,.18.08.15.08a1.64,1.64,0,0,0,.22.14,12,12,0,0,0,1.33.56c.27.13.53.3.82.41l.36.1c-.31.19-.61.38-.91.6l-.46.33-.38.15A17,17,0,0,0,328,185c-1.6-.12-3.19-.25-4.78-.35-1.86-.12-3.72-.16-5.58-.23a8.38,8.38,0,0,0-1.79-.15,20.64,20.64,0,0,1-6.63.25,18.41,18.41,0,0,0-3.47.19l-3.54.07-.67,0h0l-.56.16c-.52.11-1,.2-1.58.28-1-.12-2.09-.25-3.14-.33l-3,.38h0c-1.23.16-2.46.32-3.69.41s-13-.2-13-.48a.87.87,0,0,0-.34-.56.89.89,0,0,0-.65-.15h.05a8.15,8.15,0,0,1-1.21,0,4.91,4.91,0,0,1-.55,0l-.11,0c-.5-.17-1-.35-1.49-.57-.3-.14-.59-.31-.88-.46a5.17,5.17,0,0,0-.94-.39,2.53,2.53,0,0,0-.87-.16l-.61,0a18.36,18.36,0,0,0-2,.22l-1,.17c-.28,0-.55.1-.83.13h-.29a8.81,8.81,0,0,1-1.15-.14l-1.06-.17a11.5,11.5,0,0,1-1.19-.3c-.41-.13-.81-.28-1.23-.4s-.92-.24-1.38-.39-.62-.21-.92-.34l-1-.41a7.29,7.29,0,0,0-1-.35,1.84,1.84,0,0,0-.81,0l-.48.12a16.33,16.33,0,0,0-2.14.83c-.69.32-1.34.69-2,1.05-.25.13-.5.25-.76.36l-.62.19c-.42.09-.84.15-1.26.2l-1.19.15a9.26,9.26,0,0,1-1.29,0,8.55,8.55,0,0,1-.87-.09h0l-.72-.18h0l-.25-.21-.41-.32a2.11,2.11,0,0,0-.59-.27,1.58,1.58,0,0,0-.43,0c-.18-.11-.35-.23-.53-.33a3.64,3.64,0,0,0-.63-.3l0-.14a2.06,2.06,0,0,0-1-.94,6,6,0,0,0-1-.45c-.69-.22-1.4-.3-2.09-.51l-.34-.14-.22-.12-.07-.05h0l0,0s0-.06,0-.09a1.7,1.7,0,0,1,0-.22c0-.28,0-.55-.05-.83a6.24,6.24,0,0,0-.55-2.41,1.62,1.62,0,0,0-.1-.18.9.9,0,0,0,.29-.66,1.19,1.19,0,0,0-.24-.63,1.7,1.7,0,0,0-.93-.82,1.65,1.65,0,0,0-1,.18c-.2.08-.39.18-.58.27l-1.13-.11a4.85,4.85,0,0,0-.85,0H231a1.06,1.06,0,0,0-.61-.27l-.32-.14a4.85,4.85,0,0,0-1.26-.24.85.85,0,0,0-.68,0,2,2,0,0,0-.35.06,1.34,1.34,0,0,0-.91.62.61.61,0,0,0,0,.12,1.82,1.82,0,0,0-.43.53,3.89,3.89,0,0,0-.48,1.28,7.42,7.42,0,0,0-.15,1.33,5.86,5.86,0,0,0,0,1.11,1.55,1.55,0,0,0,0,.23c-.15.46-.26.94-.39,1.39,0,.09-.06.18-.1.27l-.06.12c-.12.17-.25.33-.38.48a2.46,2.46,0,0,1-.29.09c-.21,0-.43.08-.65.1a9.26,9.26,0,0,1-1.29,0l-.38-.06-.1-.16,0-.08c-.15-.43-.27-.86-.43-1.29s-.28-.57-.43-.86l0-.07c-.06-.2-.11-.4-.16-.6a8,8,0,0,0-.45-1.61,3.65,3.65,0,0,0-.94-1.38,1.54,1.54,0,0,0-1.82-.22c-.2.08-.39.19-.59.29a13.26,13.26,0,0,0-1.37.88,4.45,4.45,0,0,0-1.34,1.39,3.85,3.85,0,0,0-.41,1.71,2.74,2.74,0,0,0,0,.64,1.69,1.69,0,0,0,.39.82,4,4,0,0,0,.28.3,1,1,0,0,0,0,.24c0,.28-1.75.66-2.66.41l-.4-.09c-.47-.82-6-2.19-7.14-.82a7.14,7.14,0,0,0-1.37,2.41,9,9,0,0,0,.21,6.64,7,7,0,0,0,4.87,3.76c.68.14,1.22,2.76,1.1,4a38.94,38.94,0,0,0-.15,4.58c.08,3,.53,6,.91,9,.17,1.38.32,2.76.57,4.13s.57,2.65.88,4c.46,2.08.9,4.17,1.21,6.29l0,.2c0,.14,0,.28,0,.42-.06,2.9,0,5.8,0,8.7,0,1.4,0,2.79.11,4.18s.21,2.83.33,4.25c.26,2.93.38,5.87.68,8.8l.09.95a2.61,2.61,0,0,0-.31,1.69,3.51,3.51,0,0,0,.4,1.4,5.87,5.87,0,0,0,3.08,3.06,13.11,13.11,0,0,0,1.75.42l1.56.27.09.15a4.88,4.88,0,0,0,2.51,2,8.2,8.2,0,0,0,2,.38c.87.07,1.73.22,2.6.32s1.62.17,2.43.29l.13,0,0,.08,0-.08h0a10,10,0,0,0,1.28,1.69h0c.12.13.23.26.34.4s.34.51.53.77a15.54,15.54,0,0,0,1.9,2.37,5.91,5.91,0,0,0,3.65,1.57,9.82,9.82,0,0,0,5.48-1.07c1.22-.65,2.31-1.53,3.52-2.2l1.27-.67a43,43,0,0,1,4.23-2l1-.31c.79-.14,1.58-.27,2.38-.36.23,0,.45,0,.68,0s.74.08,1.11.14,1,.21,1.45.33l.21.15c1.39.76,3,.83,4.53,1.27.56.2,1.1.43,1.66.63l.05,0,.14.06a24.14,24.14,0,0,0,2.61.86c.77.22,1.54.44,2.32.63s1.56.35,2.32.58c.38.13.74.3,1.11.46s1.06.36,1.6.53l-.3-.1a13.73,13.73,0,0,0,2,.54c.45.08.92.13,1.38.18l.54.08c.1.06.2.14.31.2a7.43,7.43,0,0,0,2.52,1,6.23,6.23,0,0,0,1.14.06,12.82,12.82,0,0,0,2.3-.3,27.85,27.85,0,0,0,4-1c1.2-.44,2.37-1,3.57-1.46a6.59,6.59,0,0,1,.72-.22l.63-.1c.25,0,.51,0,.77,0,.86.06,1.71.16,2.56.23s1.68.21,2.53.25a14.69,14.69,0,0,0,2.2,0,12.86,12.86,0,0,0,1.75-.33,15.2,15.2,0,0,0,4.22-1.92c.77-.49,1.46-1.09,2.19-1.62l.32-.21c.38,0,.76,0,1.14,0l1.12.52.22.12a15.57,15.57,0,0,0,1.44.95,5.17,5.17,0,0,0,2,.63,3.89,3.89,0,0,0,1.48-.13,4.29,4.29,0,0,0,1.71-1.06,4.91,4.91,0,0,0,1.07-2.75c.51-.23,1.05-.43,1.57-.65.76-.33,1.51-.69,2.24-1.09a13.16,13.16,0,0,0,1.86-1.16,3.3,3.3,0,0,0,1.18-1.73,3.78,3.78,0,0,0,.08-.89c0-.34.08-.68.14-1,0,.11,0,.21-.05.32,0-.19.06-.38.1-.57s.18-.55.25-.83a23.08,23.08,0,0,0,.56-5.23l.06-.2,0,.06c.31-.92.64-1.83.92-2.75a21.4,21.4,0,0,0,.51-2.21c.15-.73.28-1.47.37-2.21a5.4,5.4,0,0,0-.12-2.62,2.18,2.18,0,0,0-.71-.9l0-.22c.22-1.43.38-2.86.55-4.29.34-2.83.69-5.64,1.17-8.44.21-1.17.43-2.33.66-3.49.57-3,3.34-22.5,2.57-23.82.11-.16.22-.32.34-.47l.29-.3.25-.21a4.52,4.52,0,0,0,.89-.72,2.57,2.57,0,0,0,.57-2.36,2.42,2.42,0,0,0,.47,0,5.25,5.25,0,0,0,3-1.49,5.47,5.47,0,0,0,1.14-.62,2.45,2.45,0,0,0,.67-2.9c.18-.69.31-1.39.42-2.09S342.22,180.87,341.12,181.42Z"/><path class="cls-4" d="M215.84,176.05l.08-.05h0Z"/><path class="cls-4" d="M334.88,169.47h0a.36.36,0,0,0,0,.1Z"/><path class="cls-4" d="M194.7,163.52c-.07-.48-.14-1-.22-1.43a5.42,5.42,0,0,0-.38-1.5,3.32,3.32,0,0,0-1.8-1.72,3.09,3.09,0,0,0-1.17-1.1,3.86,3.86,0,0,0-2.95-.38,8,8,0,0,0-1.49.74l-.12.06a4.4,4.4,0,0,0-1.22-.52,6,6,0,0,0-3.11.12,9.72,9.72,0,0,0-2.25,1,11.78,11.78,0,0,0-1.25.83,5.14,5.14,0,0,0-1.26,1.6l-3.42,0h-1.14c-1,0-2.08,0-3.12,0a22.77,22.77,0,0,0-5.08.53,5.31,5.31,0,0,0-2,1.09c-.85,0-1.69,0-2.54-.09-2.11-.1-4.21-.24-6.32-.25h-.71a15.91,15.91,0,0,0-2-.88,14.25,14.25,0,0,0-3.82-.72,7.75,7.75,0,0,0-3.21.68l-1.83.66c-.49.18-1,.39-1.46.58l-.57-.16a21.32,21.32,0,0,0-2.76-.52l-1.72-.56a21.91,21.91,0,0,0-2.5-.66,26.27,26.27,0,0,0-2.95-.25,11.48,11.48,0,0,0-2-.05,8.13,8.13,0,0,0-1.54.33l-.59.19c-2.83-.13-5.66,0-8.49.05h-8.38c-2.29,0-4.56.19-6.84.17l-.08,0a3.45,3.45,0,0,1-.46-.12l-.09,0-.16-.1a11.4,11.4,0,0,0-1.57-1,7,7,0,0,0-2-.44c-.26-.06-.53-.13-.79-.17A3.78,3.78,0,0,0,94,158.37a6.65,6.65,0,0,0-1.73.58,8.55,8.55,0,0,0-1,.7l-.27.21c-.74-.18-1.48-.37-2.23-.5h-.06c-.33-.15-.67-.3-1-.43a9,9,0,0,0-1.84-.52l-.91-.13-.64-.16L84,158c-.24-.13-.47-.27-.7-.41a9.89,9.89,0,0,1-.81-.64,9,9,0,0,0-2-1.49,5.5,5.5,0,0,0-2.59-.71,6.91,6.91,0,0,0-2.26.32A10.48,10.48,0,0,0,74,156a3.88,3.88,0,0,0-1,.63,2.82,2.82,0,0,0-.79,1.55l-.37.27c.06.58.07,1.17.08,1.75,0,1,0,2-.12,3a2.25,2.25,0,0,1,.46.24,2,2,0,0,1,.34.31,3,3,0,0,1,.73,1c.27.36.51.72.75,1.1,0,0,1.71.59,2.17,1.61s-.31,2.5-.34,2.74c.34,0,1.2,5.19,1.44,6.34.11.51.29,1,.43,1.51s.22.87.32,1.3a38.71,38.71,0,0,1,.5,4c.12,2.53.11,5.07.31,7.6a22.06,22.06,0,0,0,.65,3.67c0,1.35-.1,2.71-.14,4.06s-.07,2.45,0,3.66.17,2.41.26,3.61c.1,2.46,1.34,13.88,1.66,14.93.35,1.2.68,2.4,1,3.6a25.93,25.93,0,0,0,.91,3,9.45,9.45,0,0,0,.62,1.23,5.23,5.23,0,0,0,1.45,4.29,5,5,0,0,0,.44.86,9.48,9.48,0,0,0,3.28,2.95,12.75,12.75,0,0,0,4.8,1.57,14.74,14.74,0,0,0,3.87,0,4.64,4.64,0,0,0,2,2.43,9,9,0,0,0,3,1l.14-.05c1.15-.33,2.28-.71,3.42-1l-.07,0,1.27-.35c.19-.05.39-.07.58-.12l1-.13c.54,0,1.07,0,1.61,0a10.53,10.53,0,0,0,1.7-.21h1.49l1.47-.34c.9-.18,1.8-.34,2.71-.48.28,0,.55,0,.83.1a8.37,8.37,0,0,1,.82.23c.31.11.61.24.91.38.78.41,1.52.9,2.27,1.34,1,.58,1.94,1.11,2.92,1.65a18,18,0,0,0,4.93,2.21,18.49,18.49,0,0,0,3.86.44,11.53,11.53,0,0,0,3.55-.53c.25,0,.49,0,.74,0a15.71,15.71,0,0,0,5.56-1.09,59.84,59.84,0,0,0,8.17-4.45c2.53-1.46,5.06-2.93,7.57-4.43a48,48,0,0,0,7.15-5.47c2.12-1.89,4.07-3.95,6.18-5.85,1.74-1.47,3.61-2.78,5.35-4.25l.48-.41.49-.3a11.84,11.84,0,0,0,2.44-1.84,5,5,0,0,0,1.5-2.86c0-.67.06-1.33.1-2l0,.39c.05-.68.09-1.36.13-2a18.35,18.35,0,0,0,.33-2.1c.05-.75.08-1.49.06-2.25a6.08,6.08,0,0,0-.18-1.49l0-.16c.13-.77.18-1.55.24-2.33s.17-1.63.29-2.45a35.5,35.5,0,0,0,.41-5.35v-.75a24.6,24.6,0,0,0,.79-2.79c.13-.72.23-1.45.35-2.17s.32-1.7.44-2.55c.21-1.52.12-3.06.18-4.6.11-1.21.36-2.41.56-3.62.12-.71.22-1.42.29-2.13l.06-.59c.24-.88.47-1.76.65-2.65.08-.43.16-.87.21-1.31a19,19,0,0,0,2-.16A5.6,5.6,0,0,0,193,170a3.77,3.77,0,0,0,1.71-2.27,6.93,6.93,0,0,0,.18-1.64A22.71,22.71,0,0,0,194.7,163.52Z"/></g><g id="レイヤー_5" data-name="レイヤー 5"><path class="cls-5" d="M186.29,143.15c-.13-.41-.3-.81-.46-1.21-.22-.69-.39-1.4-.59-2.11s-.49-1.6-.69-2.41a14.79,14.79,0,0,0-.93-3,18.14,18.14,0,0,0-1.61-2.54c-.46-.7-.92-1.4-1.39-2.1-.79-1.2-1.48-2.49-2.39-3.61-1-1.28-2.3-2.35-3.42-3.56-.71-.83-1.4-1.69-2.12-2.51a17.6,17.6,0,0,0-2.14-2c-.6-.48-1.23-.94-1.85-1.4s-1.41-1.13-2.1-1.72l-.09-.08c-.91-.81-1.77-1.67-2.66-2.51a10.1,10.1,0,0,1-1.59-.67,5.42,5.42,0,0,1-1.44-1.27h-.36c-.29,0-.59,0-.87,0a9.55,9.55,0,0,1-2.93-.73c-.64-.26-1.27-.56-1.88-.88l-.18-.09c-.45.26-15.65-.8-16.34-.78.19-2.26.37-4.52.45-6.79.1-2.63.09-5.25.06-7.89,0-1.15-.06-2.31-.11-3.47s-.12-2.54-.25-3.8q-.39-3.58-.92-7.16c-.06-.43-.13-.85-.19-1.27a2.31,2.31,0,0,0,.32-1,35,35,0,0,0-.11-6.31c-.11-1-.23-2.12-.4-3.17a4.17,4.17,0,0,0-.46-1.31V63.64c0-2.53-.05-5.06.1-7.6l0,.39a37.27,37.27,0,0,0,0-5.69,12.77,12.77,0,0,0-.22-1.51,3,3,0,0,0,.92-1.42,5.37,5.37,0,0,0,.15-.67,2.54,2.54,0,0,0-.16-1.42l-.12-1.88a48.24,48.24,0,0,1-.06-5.51,49.86,49.86,0,0,1,.86-5.43,30.87,30.87,0,0,0,.37-6,33.19,33.19,0,0,0-.4-6.3c-.19-1-.4-1.9-.62-2.85-.08-.34-.15-.68-.24-1-.05-1.84-.12-4-1.83-5.07a4.43,4.43,0,0,0-3.08-.31c-.45.06-.9.1-1.35.14s-.61,0-.91,0-.57,0-.85,0a3.1,3.1,0,0,0-2,.83l-.24.12a3,3,0,0,0-1.45,1.88,4.15,4.15,0,0,0,.48,2.88c.22.45.4.91.62,1.35a8.31,8.31,0,0,0,.58.95c-.07.18-.14.36-.23.54a3.34,3.34,0,0,0-.49,1.65,2.8,2.8,0,0,0,.2.91,2.76,2.76,0,0,0-.9,1.69,4.53,4.53,0,0,0,.07,1.32c0,.26,0,.52.07.79.05,1,0,1.95,0,2.93,0,.83.09,1.66.06,2.48a4.76,4.76,0,0,0-.06.65,2.87,2.87,0,0,0,.38,1.42c0,.17-.08.35-.11.53a11.5,11.5,0,0,0-.19,1.86c-.06,1.52,0,3.05,0,4.58,0,2,.43,14.69.5,15.35,0,.9.08,1.8.08,2.7,0,1.52,0,3,0,4.57,0,1.08.08,2.17.1,3.25,0,1.3,0,2.6,0,3.9.08,2.44.07,4.87.07,7.3s.28,4.73.14,7.08c-.13,1.81-.27,3.62-.29,5.43,0,1.61,0,3.22.12,4.82l0-.38c.11,1.81.1,3.63.1,5.44,0,1.11-.07,2.22-.11,3.33,0,1,0,1.91,0,2.86a18.29,18.29,0,0,0-1.77.89,8.89,8.89,0,0,0-1.6,1.17h-.15a23.07,23.07,0,0,0-4,.25,2.83,2.83,0,0,0-.69-.55,3.8,3.8,0,0,0-3.31,0,7.33,7.33,0,0,0-1.65.84c-.55.36-1.08.77-1.6,1.17a8,8,0,0,0-1,.38,13.18,13.18,0,0,0-2.29,1.34,4.3,4.3,0,0,0-1.09,1.08h0c-1,.37-1.91.76-2.83,1.22a19.19,19.19,0,0,0-2.64,1.61c-1.45,1-2.9,2.09-4.38,3.1a80.27,80.27,0,0,0-7.09,7.32c-1.16,1.57-7.27,16.11-6.6,16.5a2.59,2.59,0,0,0,1,.31,16.63,16.63,0,0,0-.4,5.68,7.89,7.89,0,0,0,4.68,6.58,8.48,8.48,0,0,0,3,.58,7.46,7.46,0,0,0,3.78-1,8.58,8.58,0,0,0,3.47-4.14c.44-1.05.82-2.14,1.28-3.18.37-.84.75-1.66,1.15-2.48.21-.35.45-.69.66-1.05a5.55,5.55,0,0,0,2.16,1.16,11.2,11.2,0,0,0,2.65.35c.92,0,1.85.07,2.78,0a18.86,18.86,0,0,0,3.17-.42c.56-.12,1.11-.27,1.67-.39a9,9,0,0,0,.8.71,7.57,7.57,0,0,0,3.66,1.49,7,7,0,0,0,.8,0,13,13,0,0,0,3-.48c.93-.22,1.85-.52,2.77-.79a19.46,19.46,0,0,0,.33,2,6.17,6.17,0,0,0,.61,1.56,2.5,2.5,0,0,0-.44.84c-.22.83,4.73,3.08,5.55,2.73a3.73,3.73,0,0,0,1,.73,4,4,0,0,0,1.69.35,3.55,3.55,0,0,0,.46,0,3.68,3.68,0,0,0,2.3-1.24,2.8,2.8,0,0,0,2.54-1.4,3.06,3.06,0,0,0,.24-2.44c-.08-.26-.15-.51-.22-.76,0-.09,0-.18-.07-.26l0-.12a2.55,2.55,0,0,0-.2-.73c-.06-.25-.11-.5-.17-.75a32.1,32.1,0,0,0,4.5-1.59,2.75,2.75,0,0,0,1.81,1,19.49,19.49,0,0,0,2.16.07c.43,1,3.74,1.55,4.28,1.35l.42-.13a13.13,13.13,0,0,0,2.07.24h.13a2.74,2.74,0,0,0,2.24-1.29l.43-.09,1.27.1c.33,0,.65.07,1,.12,1,.22,1.93.52,2.89.77s2.07.48,3.11.68a23.86,23.86,0,0,0,5.64.69c.89,0,1.78-.08,2.67-.1.5,0,2.82-1,4.6-1,1.34-.05,2.17.88,2.77.48a2.82,2.82,0,0,0,1.7.59,3.11,3.11,0,0,0,3.11-2.78A5.29,5.29,0,0,0,186.29,143.15Z"/><path class="cls-5" d="M330.42,157.48c-.6-.71-1.26-1.36-1.9-2-.09-.1-.19-.21-.28-.33s-.27-.44-.4-.67c-.73-1.4-1.4-2.84-2.26-4.17-.48-.72-1-1.41-1.52-2.09-.36-.46-.76-.9-1.12-1.36-.1-.16-.19-.32-.28-.48l.12.23a22.71,22.71,0,0,0-1.68-2.75,14.12,14.12,0,0,0-2.36-2.34l.28.24c-.4-.35-.78-.73-1.18-1.08s-.54-.49-.8-.75c-.68-.78-1.24-1.65-1.9-2.45s-1.37-1.39-2.05-2.1l-.83-.88a14.65,14.65,0,0,0-1.69-1.65,10.38,10.38,0,0,0-2.29-1.41c-.65-.3-1.3-.57-2-.83s-1.12-.41-1.67-.65l-.15-.09-.34-.24a10.35,10.35,0,0,0-1.3-1.08,10.48,10.48,0,0,0-2.05-1.06c-.62-.24-1.23-.49-1.87-.7s-1.32-.55-2-.79c-1.13-.43-2.23-.92-3.36-1.32l-.11,0a2.74,2.74,0,0,1-1.67.41h0l-1,.23a3.46,3.46,0,0,1-1,.17,3.31,3.31,0,0,1-2-.63,2.88,2.88,0,0,1-.67-.68l-.41,0a11.68,11.68,0,0,0-.38-1.55c-.19-.61-.4-1.2-.56-1.82-.19-.86-.3-1.75-.46-2.62-.12-.61-.24-1.21-.34-1.82.1-1.31.22-2.61.27-3.93a21.12,21.12,0,0,0-.08-2.87,5.27,5.27,0,0,0-.58-2.08c0-.77,0-1.54.05-2.31.09-1.76.15-3.52.11-5.3s-.12-3.78-.16-5.67-.09-3.55-.14-5.32c-.07-2-.2-3.94-.34-5.9-.19-2.84-.21-5.69-.28-8.54s-.16-5.53-.32-8.29c-.18-3-.54-5.93-.91-8.87-.06-.5-.13-1-.2-1.48s0-.76,0-1.13,0-.67,0-1A4.67,4.67,0,0,0,282,52a1.37,1.37,0,0,0-.13-.2c-.11-.91-.23-1.81-.32-2.71-.2-2.6-.22-5.21-.28-7.82,0-.45,0-.91,0-1.37a2.81,2.81,0,0,0,.33-2.37c-.09-1.57-.07-3.15-.15-4.72a39.66,39.66,0,0,0-.77-6.78,8,8,0,0,0-.34-1.18,21,21,0,0,0-.23-2.24,6,6,0,0,0-.71-2.2A3,3,0,0,0,277.13,19a6.92,6.92,0,0,0-1.63.15H275a17.86,17.86,0,0,0-2.31-.1,3.86,3.86,0,0,0-2.65,1,3.08,3.08,0,0,0-.82,2.14,3.35,3.35,0,0,0,.08.54,2.78,2.78,0,0,0,0,.58,2.33,2.33,0,0,0-.11,2.5l.08.13c-.07.29-.12.59-.17.9a41.11,41.11,0,0,0-.37,6.56c0,2.07.24,4.14.31,6.2.17,4.89-.33,9.77-.19,14.65,0,1.28.13,2.54.26,3.82s.33,2.32.52,3.47.35,2.26.58,3.38a7.52,7.52,0,0,0,.44,1.56l0,.09a2.44,2.44,0,0,0,0,.27c-.13,2.37-.16,4.75-.19,7.12-.07,4.72,1.51,38.87,1.7,40.06.1.63.19,1.25.3,1.88a15.53,15.53,0,0,0,.41,2,2.4,2.4,0,0,0,1.56,1.54c0,.72,0,1.44.05,2.17,0,1.15,0,2.31.05,3.46a8.1,8.1,0,0,0-1.68-.35,12.67,12.67,0,0,0-1.95.07,11.77,11.77,0,0,1-1.33,0l-1-.09a9.17,9.17,0,0,0-1.81-.25,9.72,9.72,0,0,0-2.38.4,11.08,11.08,0,0,0-2.21.69l-1.16-.27a21,21,0,0,0-3.24-.58,24.71,24.71,0,0,0-3.75,0,15.2,15.2,0,0,0-3.34.66c-1,.29-2,.48-3,.8-2.49.83-5,1.6-7.1,3.28-1,.84-2.06,1.71-3.06,2.6l-1.45,1.31a18.36,18.36,0,0,0-2.88,1.51,23.54,23.54,0,0,0-2.27,1.7c-1,.81-1.83,1.73-2.73,2.6a25.06,25.06,0,0,0-2.45,2.8c-1.2,1.54-2.24,3.19-3.48,4.7-.87,1-1.78,2-2.56,3.13a28.21,28.21,0,0,0-1.63,2.89c-.26.48-.55.94-.8,1.42s-.55,1.16-.8,1.74-.52,1.31-.8,2c-.7,1.43-1.48,2.81-2.23,4.21s-1.5,2.74-.82,4.24a2.92,2.92,0,0,0,2.73,1.7,2.46,2.46,0,0,0,.76-.12,3.36,3.36,0,0,0,.94-.49l1.11-.15a10.86,10.86,0,0,0,1.4-.29,6.48,6.48,0,0,0,.78-.26,5.83,5.83,0,0,0,1.87.46,7.64,7.64,0,0,0,2.38-.26c-.2.86-.37,1.72-.49,2.6a16,16,0,0,0-.24,3.08,7.58,7.58,0,0,0,2.31,5.2,7.43,7.43,0,0,0,4.3,2,8.19,8.19,0,0,0,1,0,7.47,7.47,0,0,0,4.52-1.66,7.65,7.65,0,0,0,2.34-3.41l0,.11c.11-.3.23-.59.35-.88l.42-.79c2.06-3.1,4.47-6,6.77-8.91a2.16,2.16,0,0,0,.58.5,2.54,2.54,0,0,0,1.94.29,7.76,7.76,0,0,0,2.19-1.05l.41-.26a5.93,5.93,0,0,0,.72.1,32.28,32.28,0,0,0,7.48-.26c1.22-.19,2.44-.43,3.66-.63,1.05-.18,2.12-.29,3.18-.39H266l.43,0,.2.1a5.1,5.1,0,0,1,.82-.55,4.71,4.71,0,0,1,1.61-.4,4.32,4.32,0,0,1,1,0,2.82,2.82,0,0,1,2.44-.73,3.21,3.21,0,0,1,2.34,2.3,9.3,9.3,0,0,1,0,3.79c-.05.34-.11.68-.17,1a7.24,7.24,0,0,0,1.74,0,1.06,1.06,0,0,0,.15.15,5.24,5.24,0,0,0,3.06,2.63,7.75,7.75,0,0,0,1.85.41c.21,0,.42,0,.63,0a3.47,3.47,0,0,0,1.44-.32l.32-.16.33.15a2.85,2.85,0,0,0,2.85-.45l.07,0a2.92,2.92,0,0,0,1-2.93,2.9,2.9,0,0,1,.06-.41.51.51,0,0,0,0,.13c.14-.83-.52-2.66-.51-3.5.14-.11,2.14-.05,2.61-.4l1.49-1.09.13-.1a3.38,3.38,0,0,0,1.36,1.23,6.85,6.85,0,0,0,2.63.66c.41,0,.82.06,1.23.07a1.94,1.94,0,0,0,.21.29A3.3,3.3,0,0,0,300,165.6a10.41,10.41,0,0,0,2.33-.39c.91-.25,1.81-.55,2.73-.78l.14,0,.2.13a6.38,6.38,0,0,1,1.21-.33,6.65,6.65,0,0,1,2-.07,4.69,4.69,0,0,1,2.12,1l-.27-.2c.52.38,1,.77,1.56,1.16l.06,0,1.12.84a2.2,2.2,0,0,0,1.21.13,3,3,0,0,0,1.05-.36,2,2,0,0,0,.35-.25,4.57,4.57,0,0,0,.95.37,13.39,13.39,0,0,0,4.24.15l.86,0c.28-.06.55-.12.83-.2a3.59,3.59,0,0,0,.35-.12c.23-.18.46-.36.7-.53.41-.3.8-.6,1.24-.87a13.65,13.65,0,0,1,1.91-1,6.81,6.81,0,0,1,2-.38,8.55,8.55,0,0,1,1-.06,2,2,0,0,1,.55.06,2,2,0,0,1,.33.08,2.82,2.82,0,0,0,.6-1.43,2.76,2.76,0,0,0,.36-.65C332.45,160.28,331.44,158.69,330.42,157.48Zm-56.23,4.05-.17.14-.32-.12.7-.23Z"/></g><g id="レイヤー_3" data-name="レイヤー 3"><path class="cls-5" d="M227,292.55a18.21,18.21,0,0,1-.42-3.68c-.07-1.18-.12-2.37-.19-3.55-.13-2.2-.31-4.4-.5-6.6-.17-1.57-.43-3.12-.68-4.69a62.06,62.06,0,0,1-.4-8.19c-.15-5.82-.25-11.64-.47-17.46-.11-3-.28-6-.54-9a179.45,179.45,0,0,1-1.12-19.8,7.66,7.66,0,0,1,2-5.31,7.48,7.48,0,0,1,5.2-2.31c3.93-.09,7.69,3.2,7.62,7.25a142.72,142.72,0,0,0,.65,14.77c.32,3.16.66,6.31.82,9.47s.25,6.22.34,9.33c.16,5.7.28,11.4.43,17.1,0,.45,0,.89.06,1.33s.1.67.16,1,.36.38.53.59a7.75,7.75,0,0,1,1.62,5.51c-.15,2.31-.29,4.61-.41,6.92,0,1,0,2,0,3.05a12.82,12.82,0,0,1-.65,4.81,7.58,7.58,0,0,1-6.74,4.71h-.24A7.43,7.43,0,0,1,227,292.55Z"/><path class="cls-5" d="M98.44,273.71a7.61,7.61,0,0,1-6.22-5.49c-.21-.74-.32-1.52-.46-2.28-.23-1.35-.41-2.71-.58-4.07-.12-1-.21-2-.3-2.95,0-.1,0-.21,0-.31a50.8,50.8,0,0,1-.5-7.19c-.2-2.42-.46-4.83-.68-7.25-.3-3.2-.56-6.4-.82-9.6-.5-6.19-1-12.37-1.57-18.55-.3-3.26-.57-6.52-.73-9.79a68.9,68.9,0,0,1,0-9.85c.24-2.54.76-5.18,2.49-7.17a7.77,7.77,0,0,1,4.88-2.82,7.48,7.48,0,0,1,7.45,11.14c0,.17,0,.34,0,.51a106.83,106.83,0,0,0,.3,10.88c.49,6.19,1.1,12.37,1.6,18.57q.38,4.62.76,9.26a7.12,7.12,0,0,1,1.79,4.83c-.2,3.24-.51,6.52-.52,9.78.11,1.36.21,2.71.31,4.07l.12,1.58c.08.61.17,1.23.26,1.84.23,1.48.26,3,.49,4.47a13.19,13.19,0,0,1,.42,2,7.61,7.61,0,0,1-2.1,6.26,7.5,7.5,0,0,1-5.28,2.18A6.59,6.59,0,0,1,98.44,273.71Z"/><path class="cls-6" d="M269.61,53.44a2.26,2.26,0,0,0,2-1.18c.24-.46,1.34-2.13,1.51-2.61l.12-.36c.17-.32.35-.63.53-.93.64-1,1.29-2,1.88-3,.46-.79,1-1.55,1.39-2.36s.71-1.46,1.1-2.17c.88-1.6,1.72-3.22,2.46-4.89.21-.48.4-.95.58-1.44L281.08,33c0-.31,0-.61,0-.92h0c0-.32,0-.65,0-1h0c0-.15,0-.3,0-.45h0c0-.12,0-.24,0-.37a.66.66,0,0,1,0-.14h0v-.23c-.07-.86-.17-1.73-.26-2.59,0,0,0-.06,0-.09l0-.12h0c-.2-1.48-.48-3-.65-4.44l-.3.56,0,0c-.27.41-.53.82-.79,1.24.06-.11.13-.21.19-.31a25.1,25.1,0,0,0-1.49,2.56,2.75,2.75,0,0,0-.47,1c-.53.74-1.08,1.47-1.61,2.21-.93,1.28-1.87,2.52-2.72,3.85-1.46,2.29-2.85,4.62-4.31,6.91a31.12,31.12,0,0,0,0,4.43c.1.66.19,1.33.26,2h0c.07.68.11,1.36.16,2,0,.17,0,.35,0,.52,0,.72.08,1.43.11,2.15l.06,1.15v.18h0c0,.08,0,.15,0,.23A2.81,2.81,0,0,0,269.61,53.44Z"/><path class="cls-6" d="M271.15,79.28c0,.1,0,.19,0,.28a27.26,27.26,0,0,1,.35,3.82c0,.66,0,1.33,0,2,0,.25.14,2.12.12,2.37.1,0,2.68-4.26,2.81-4.61.21-.52.43-1,.66-1.55s.66-1.28,1-1.89c.74-1.12,1.51-2.21,2.22-3.35s1.51-2.41,2.21-3.65a40.64,40.64,0,0,0,1.94-4q.39-.87.75-1.74c0-.27,0-.54,0-.81l0-.69c0-.08,0-.17,0-.25s0-.32,0-.47V64.6c-.09-.58-.14-1.17-.2-1.72v0h0c-.07-.64-.11-1.28-.16-1.92,0-.47-.08-.93-.11-1.4,0-.06,0-.12,0-.18s0-.29-.05-.43a.92.92,0,0,1,0-.16h0c-.06-.55-.13-1.11-.2-1.66h0c-.06-.45-.11-.91-.17-1.36a.59.59,0,0,0,0-.13h0c-.09-.62-.2-1.24-.28-1.87-.49.72-2.46,3.35-2.71,3.76s-.55.94-.8,1.43c-.75,1.43-1.51,2.84-2.37,4.21-1.25,1.83-2.66,3.55-3.94,5.36-.69,1-1.33,2-2,3l-.6,1,.09.89a2.52,2.52,0,0,1,.64,1.32l.39,2.3C271.3,77.15,271.44,78.7,271.15,79.28Z"/><path class="cls-6" d="M277.15,116c.67-1,1.38-1.86,2.11-2.76,1-1.19,2.05-2.33,3-3.55.66-.83,1.21-1.74,1.86-2.58a2.36,2.36,0,0,0,.57-1.59c.07-.1.14-.19.2-.29,0-.87,0-1.74,0-2.62,0-1.27,0-2.54-.06-3.81v0c0-.61,0-1.21,0-1.82v-.11l0-2.33c0-1.2,0-2.4.12-3.59,0-.3.06-.6.1-.89,0-.11,0-.22,0-.33l-.14.15-1,1.14c-.76.79-1.53,1.57-2.24,2.41a31.89,31.89,0,0,0-2.66,3.76c.06-.11.13-.21.19-.31a67.45,67.45,0,0,1-4.5,6.13c-.48.57-1,1.13-1.42,1.72.09,1.09.19,2.17.25,3.26,0,0,0,.09,0,.13.06,1,.11,2,.14,3h0c0,1,0,2,0,3,0,.57,0,1.14-.09,1.71a2.43,2.43,0,0,1-1.25,1.9,2,2,0,0,1-.1.42,2.55,2.55,0,0,0,1.87.84A20.78,20.78,0,0,0,277.15,116Z"/><path class="cls-6" d="M276.87,150.29c.27-.42.55-.81.84-1.21.7-.78,1.41-1.54,2.08-2.35s1.32-1.69,2-2.54,1.2-1.54,1.77-2.34c.28-.4.54-.82.8-1.23l.14-.21c.55-.54,2-4.17,2.46-4.81,0-.6,0-1.21-.06-1.82v0a2.28,2.28,0,0,1-.67-1.29,17.52,17.52,0,0,1,0-2.51c0-.95,0-1.9,0-2.85,0-.36,0-.73,0-1.09-.28.37-.55.77-.82,1.11-.44.5-.91,1-1.39,1.43s-1.16,1.22-1.7,1.86a2.22,2.22,0,0,0-.37.38c-.13.17-.24.35-.37.52-1.27,1.62-2.49,3.28-3.75,4.9-.59.77-1.22,1.52-1.8,2.3-.33.44-.64.89-1,1.34l-.47.51a2.94,2.94,0,0,0-1.14.94l0-.07c-.05.08-.11.15-.17.23l-.4.44,0,.63h0c0,.1,0,.19,0,.28,0,.55.05,1.11.08,1.66.09.33.17.67.24,1,.19.82.35,1.64.49,2.47.08.34.15.68.22,1a1.7,1.7,0,0,1,0,.22c.08.39.16.79.21,1.2a12.34,12.34,0,0,1,.12,1.34,2.52,2.52,0,0,1-.2,1.05,2.74,2.74,0,0,0,1-.32,3.32,3.32,0,0,0,1.09-1.23C276.49,150.91,276.67,150.6,276.87,150.29Z"/><path class="cls-6" d="M288,166.62a8.36,8.36,0,0,1-.46-2.81c-.05-.88-.07-1.76-.09-2.64h0c0-.61,0-1.22,0-1.84v-.07h0c-.06-1.61-.16-3.22-.25-4.83,0-.13,0-.25,0-.37a2.93,2.93,0,0,0-1.09.88c-.24.3-.43.64-.65,1s-.69.9-1.05,1.33c-.73.87-1.48,1.72-2.17,2.62s-1.42,2-2.1,3-1.25,2-2,2.89q-.48.64-1,1.26a6,6,0,0,0-.76,1,2.9,2.9,0,0,0-.15,2.44,15.82,15.82,0,0,0,2.88.82,17.84,17.84,0,0,1,2.19-.1,13.34,13.34,0,0,1,1.41.09c.85.12,4.54-.42,4.86-1.11a11.88,11.88,0,0,0,1-2.74A3.22,3.22,0,0,1,288,166.62Z"/><path class="cls-6" d="M133.53,28.42c-.06.1-1.08,1.18-1.35,1.54l-.76,1c-.56.79-1.12,1.58-1.67,2.38s-1.13,1.67-1.67,2.52A19.33,19.33,0,0,0,126.9,38a3.19,3.19,0,0,0-.32,1.09,2.51,2.51,0,0,0-.19.88,2.28,2.28,0,0,0,1.13,2l-.31.48-.8,1.24c0,.35,0,.7.08,1a2.35,2.35,0,0,1,.32.23,2.67,2.67,0,0,1,.87,2.78,2.41,2.41,0,0,1-.32.71.88.88,0,0,0,0,.17,2.45,2.45,0,0,1,.28,1.18c0,1.08-.06,2.16-.08,3.25,0-.1.09-.19.13-.29s.15-.35.23-.52c.8-1.52,1.71-3,2.64-4.44.83-1.29,1.68-2.57,2.49-3.87a22.7,22.7,0,0,0,1.41-2.49c.12-.28,3.08-4.26,3.43-4.6a2.44,2.44,0,0,1-.12-.62c-.05-.57,0-1.15-.05-1.72l0-2.11c0-1.34-.06-2.69-.06-4s0-2.73,0-4.09v-.34a3.44,3.44,0,0,0-.63.58C136.29,25.24,133.77,28,133.53,28.42Z"/><path class="cls-6" d="M126.33,79.23a1.27,1.27,0,0,0,0,.2c.09,1.88.16,3.75.21,5.63a3.06,3.06,0,0,0,.62-.91c0-.11.09-.21.14-.32.49-.94,1.1-1.82,1.64-2.73q1.19-1.93,2.46-3.82c.08-.13.17-.26.26-.38a1.92,1.92,0,0,0,.59-.55,43.37,43.37,0,0,0,2.44-4c.62-.87,1.23-1.74,1.82-2.63.38-.55.76-1.1,1.2-1.62l.57-.63c0-1.47,0-2.94-.09-4.41q-.09-1.6-.21-3.21c-.09-1.25-.21-2.51-.2-3.77a4.61,4.61,0,0,1,.72-2.74,17.42,17.42,0,0,1-.06-2.17,2.91,2.91,0,0,0-.92,1c-.12.2-.21.42-.31.63-.37.68-.79,1.32-1.2,2-.26.43-.48.88-.7,1.33l-.93,1.83c-.32.62-.68,1.22-1,1.83-.54,1-1.05,1.91-1.6,2.85-.62,1.09-1.34,2.12-2,3.21-.07.13-.15.26-.23.38l-.42.57L128,68.37c-.34.49-.72,1-1,1.49a2.8,2.8,0,0,0-.35,1c-.23.37,0,.87-.21,1.23.13,2.16-.26,4.17-.15,6.33C126.3,78.66,126.32,79,126.33,79.23Z"/><path class="cls-6" d="M137.48,89.35c0-.71,0-1.41.1-2.12v-.11c.07-.68.15-1.36.24-2,0-.15,0-.3.05-.45a3.18,3.18,0,0,1,.13-.51v-.06c-.15.2-.29.42-.43.63s-.35.54-.51.81c-.53.9-1.07,1.78-1.61,2.66-.34.58-.69,1.15-1,1.73-.59.78-1.18,1.56-1.75,2.35a39.49,39.49,0,0,0-2.32,3.7c-.64,1.15-1.27,2.3-2,3.4-.59.84-1.23,1.64-1.9,2.42,0,.46.07.91.12,1.36a5.37,5.37,0,0,1,.3.88c0,.09.05.17.07.26l0,.09c.07.33.14.66.2,1a14.87,14.87,0,0,1,.16,1.48c0,.27,0,.53,0,.8,0,.47,0,.94,0,1.41h0a.45.45,0,0,0,0,.11c0,1.18.08,2.36.11,3.54h0v0c0,.3,0,.61,0,.91a2.13,2.13,0,0,0,.61-.08,3.52,3.52,0,0,0,1.34-.81,2.46,2.46,0,0,0,.4-.39l.21-.24.12-.16a10.9,10.9,0,0,0,1.3-1.52c.59-.77,1.12-1.59,1.66-2.4.72-1.06,1.49-2.09,2.2-3.16s1.41-2.29,2.13-3.42l.35-.49c0-.37-.06-.74-.09-1.09-.07-.79-.12-1.59-.17-2.39s-.06-1.31-.07-2,0-1.17,0-1.76v-.24a2.81,2.81,0,0,0,0-.29v-.45c0-.39,0-.78,0-1.17h0c0-.76,0-1.52,0-2.27Z"/><path class="cls-6" d="M132.29,136.9a23.4,23.4,0,0,0,2.09-2.46c1.16-1.56,2.29-3.14,3.56-4.61.52-.57,1.05-1.12,1.58-1.67l-.05-.61a2.67,2.67,0,0,1,.71-2c0-.35-.06-.7-.08-1,0-.63-.07-1.26-.1-1.89s-.05-1.24-.08-1.86h0c0-.16,0-.32,0-.48h0l-.06-1.27c-.07-1.3-.14-2.6-.2-3.89,0-.67,0-1.33-.06-2,0-.31,0-.62,0-.93s0-.48,0-.73a1.34,1.34,0,0,1,0-.2,2.93,2.93,0,0,0-1,1c-.21.35-.43.7-.66,1-.49.72-1,1.44-1.49,2.13-.71,1-1.53,1.82-2.26,2.75s-1.49,2-2.17,3c-.49.76-1,1.53-1.46,2.28-.62.9-1.3,1.74-2,2.59s-1.26,1.77-1.89,2.65c-.29.43-.6.85-.89,1.27,0,1.71.09,3.41.11,5.11v.11c0,1.52,0,3.05,0,4.57,0,.07,0,.13,0,.2V140c0,.2,0,.4,0,.6h0c0,.13,0,.25,0,.38h.06a2.69,2.69,0,0,0,.81-.13,3.44,3.44,0,0,0,.45.05c.1,0,4.1-3.37,4.78-4Z"/><path class="cls-6" d="M136.85,145.05c-.56.46-1.09,1-1.64,1.44-1,.87-2,1.74-2.92,2.63a24.58,24.58,0,0,0-1.85,1.83l.09-.11c-.37.42-.75.83-1.11,1.25a3.46,3.46,0,0,0-.22.31,2.28,2.28,0,0,1,1.12.18l.26.13.3.12c.83.26,1.66.49,2.51.68a13,13,0,0,0,1.4.16c.75,0,1.5,0,2.26.09h.08a21.69,21.69,0,0,0,2.74-3c-.05-.73-.08-1.46-.08-2.18a20.79,20.79,0,0,1,.11-2.1,8.93,8.93,0,0,1,.2-1.26c0-.14,0-.28,0-.41s-.24-1.86-.24-1.86S137.78,144.29,136.85,145.05Z"/><path class="cls-6" d="M126.53,17v0c.07,1.07.09,2.14.11,3.21l0,3.54c0,.45,0,.91,0,1.36a2.88,2.88,0,0,0,.94-1,2.9,2.9,0,0,1,.19-.29,36.56,36.56,0,0,1,2.66-3.43l-.25.28c.95-1.07,1.82-2.18,2.75-3.26.65-.73,1.33-1.45,2-2.15a7.56,7.56,0,0,0,.6-.67,3.15,3.15,0,0,0,.63-1.78,4.76,4.76,0,0,1-.65.06h-.17a8.8,8.8,0,0,1-1.16-.08,11.5,11.5,0,0,1-1.22-.25,4.57,4.57,0,0,1-.62-.22l-.17-.07c-.14-.07-.29-.13-.43-.21l-.2-.11-.38-.23-.18-.12-.42-.29a2.83,2.83,0,0,0-.24.25,3.4,3.4,0,0,0-.34-.12,3,3,0,0,0-3.23,1.24c-.11.16-.23.31-.35.46a3,3,0,0,0-.34.45,7.26,7.26,0,0,1,.27,1.45C126.44,15.73,126.49,16.36,126.53,17Z"/></g><g id="レイヤー_2" data-name="レイヤー 2"><path class="cls-7" d="M195.66,167.7c0-1.47,0-2.95-.17-4.41-.07-.7-.17-1.4-.3-2.08a20.87,20.87,0,0,1-.37-2.07v0a1,1,0,0,0-.15-.66,5.4,5.4,0,0,0-.81-.79,1.78,1.78,0,0,0-.77-.3l-1-.26a3,3,0,0,1-1.54-1.57c-.07-.33-.15-.66-.22-1s-.09-.7-.14-1.05-.11-.74-.17-1.11a19.31,19.31,0,0,0-.61-2.38c-.25-.81-.52-1.62-.82-2.41s-.54-1.36-.78-2.05v0l0-.12,0,.1c-.45-1.33-.83-2.68-1.32-4s-1-2.72-1.58-4.07c-.42-1.06-.82-2.13-1.33-3.16s-1.09-2-1.66-3a30.35,30.35,0,0,0-1.92-3c-.69-.93-1.42-1.84-2.18-2.72s-1.55-1.75-2.36-2.58-1.69-1.68-2.48-2.57-1.53-1.7-2.34-2.51-1.67-1.71-2.55-2.52-1.75-1.55-2.68-2.25-1.92-1.34-2.9-2l-1.5-.94a16.62,16.62,0,0,0-1.46-.88c-.47-.24-.95-.48-1.43-.7a2.7,2.7,0,0,0-1.11-.3c-.34,0-2.84,0-3.22-.08-1.08-.12-4.58-.44-5.24-.61-1-.25-2-.49-3-.68s-2.07-.28-3.1-.4a23.83,23.83,0,0,0-2.67-.1,1.08,1.08,0,0,0-.56.17l0-.28c0-.65,0-1.31,0-2s0-1.45,0-2.18c0-1.48-.08-3-.08-4.44,0-4.51,0-9,0-13.54,0-2.28,0-4.57,0-6.85s-.08-4.64-.16-7-.12-4.6-.15-6.9c0-1.14-.07-2.29-.08-3.44s0-2.38,0-3.58V42.35c0-2.33,0-4.65,0-7,0-1.18,0-2.37-.11-3.55,0-.62-.08-1.23-.1-1.85s0-1.17,0-1.76q0-3.6,0-7.18c0-1.13,0-2.26-.06-3.38s-.15-2.34-.23-3.51c-.06-.86-.08-1.72-.08-2.58,0-.62-2.18-.68-2.24-.68-1.52,0-3,.08-4.55.12s-2.9,0-4.36,0a1.13,1.13,0,0,0-.82.36,1.15,1.15,0,0,0-.78,1.07v2.16c0,2.27,0,4.54-.05,6.81V28c0,2.25,0,4.51,0,6.77,0,1.17,0,2.34.05,3.5s.12,2.34.2,3.51a.76.76,0,0,1,0-.15c.1,1.59.22,3.19.33,4.79v-.07c.13,1.95.17,3.9.18,5.85,0,4.66,0,9.33,0,14V80.26q0,3.46,0,6.93c0,1.16,0,2.32,0,3.49s.09,2.21.12,3.31c.06,2.27.05,4.53.05,6.8v5.5a47,47,0,0,0-5.81.07c-1,0-2.05.06-3.07.11a11.53,11.53,0,0,0-2.13.63c-.76.31-1.53.62-2.28,1-1,.51-2.07,1.07-3.08,1.65s-2,1.15-3,1.75-2,1.23-3,1.89-1.84,1.38-2.72,2.12-1.83,1.54-2.69,2.37L96,120.28c-.82.81-1.63,1.62-2.42,2.45s-1.66,1.83-2.47,2.77a34.74,34.74,0,0,0-2.25,2.76A27.28,27.28,0,0,0,87,131.39a63.28,63.28,0,0,0-2.8,6.44c-.79,2.08-1.52,4.18-2.12,6.32a40,40,0,0,0-1.34,6.38,1.16,1.16,0,0,0,1,1.29h.14a1.14,1.14,0,0,0,1.14-1c.1-.9.25-1.78.43-2.66.26-1.25.58-2.48.93-3.7.1-.35.21-.69.32-1,.21-.08.42-.18.63-.28q.6-.3,1.23-.54l.54-.16.37-.05h.21l.19,0,.08,0,.18.08c.5.27,1,.6,1.49.84a6.11,6.11,0,0,0,1,.37,3.51,3.51,0,0,0,1.61-.07c.52-.13,1-.31,1.53-.45s1-.28,1.52-.39c.32-.06.64-.1,1-.13h.41l.36,0,.44.12.45.18c.38.2.74.41,1.11.63a31.64,31.64,0,0,0,3.09,1.67,12.8,12.8,0,0,0,3.32.92c.53.08,1.06.14,1.59.17a11.51,11.51,0,0,0,1.66,0,10,10,0,0,0,1.72-.21c.5-.1,1-.24,1.48-.36.31-.06.63-.1.94-.13H113l.3,0,.33.09c.38.14.74.33,1.1.49s.83.37,1.25.54a8.93,8.93,0,0,0,2.6.59c.45.05.9.08,1.36.09h.66c.23,0,.45,0,.67,0,.37,0,.73-.11,1.1-.18a9.3,9.3,0,0,1,1-.15H124a4.88,4.88,0,0,0,1.68-.59c0,.89.07,1.78.13,2.66-.34,0-.69-.06-1-.07l-.86,0a1.15,1.15,0,0,0,0,2.29c.47,0,.94,0,1.41,0l.31,0,.09,0,.17.07a7,7,0,0,1,.74.45,16.07,16.07,0,0,0,1.4.92,14.36,14.36,0,0,0,1.39.62,9.27,9.27,0,0,0,1.44.46,12.22,12.22,0,0,0,1.46.21,20.52,20.52,0,0,0,2.07.12c.27,0,.54,0,.81,0,.54,0,1.07-.13,1.6-.21s1-.13,1.48-.16a12,12,0,0,1,1.47,0l1.28.07.71,0a1.26,1.26,0,0,0,.86-.22,1.2,1.2,0,0,0,.43-.76,1.15,1.15,0,0,0-1-1.28c-.44,0-.74-.08-1.19-.11a3.13,3.13,0,0,1,0-.67c0-.7,0-1.4-.06-2.1s-.06-2.23-.06-2.23.91-.08,1.17-.44c.33-.09.68-.15,1-.22a27.23,27.23,0,0,1,2.83-.43c.16,0,.32,0,.47,0a5.41,5.41,0,0,1,.58.07c.25.06.51.14.76.22.63.24,1.24.55,1.86.82.31.14.62.26.93.39s.63.28.95.39c1.37.47,2.78,0,4.16-.17h.47c.77.07,1.53.19,2.3.32s1.62.22,2.44.31c1.62.19,3.25.28,4.88.38a13.56,13.56,0,0,1,1.56.19l.42.11.15.06c.29.16.57.34.87.49a5.52,5.52,0,0,0,1,.42,5,5,0,0,0,1.33.18,5.83,5.83,0,0,0,1-.09,10.41,10.41,0,0,0,2.23-.8c.65-.27,1.31-.54,2-.77a5.6,5.6,0,0,1,.7-.2c.32-.06.64-.11,1-.14s.65,0,1,0c1.16.09,2.3.29,3.45.49a16.06,16.06,0,0,0,2.77.19c.61,0,1.53-.1,1.71.4a29.82,29.82,0,0,1,1,3.34c.11.55.2,1.12.26,1.68,0,.27.06.53.12.8s.14.64.2,1v0a19.46,19.46,0,0,0,.61,2.39,1.19,1.19,0,0,0,.68.52c.56.2,1.13.35,1.71.5l.88.24a1,1,0,0,1,.44.29c.08.53.19,1.05.29,1.58a27.51,27.51,0,0,1,.4,3h0v0a.57.57,0,0,0,0,.13.34.34,0,0,1,0-.1c.06,1.1.16,3.74.28,3.92-.41.11-.83.2-1.25.29l-.77.17-.18,0-.29.05-2,.41c-1.85.37-3.72.63-5.58.92-1.18.18-2.37.37-3.55.52s-2.41.28-3.61.4c-2.41.26-4.83.51-7.24.69-2.13.13-4.26.27-6.38.33s-4.16.12-6.23.12c-2.46,0-4.91,0-7.36-.05s-4.71-.14-7.07-.22-4.84,0-7.26-.08-5-.13-7.5-.28c-1.4-.1-2.8-.24-4.2-.38-2.44-.26-4.9-.36-7.36-.45l-1.89-.07-1-.05c-.24,0-.51,0-.75,0H112c-1.28-.09-2.55-.22-3.83-.36a.71.71,0,0,0,0-.2c0-1.87.06-3.74.16-5.61,1,.1,2,.18,3,.25,0,.61,0,1.22,0,1.82,0,.77,0,1.53,0,2.3a1.16,1.16,0,0,0,1.15,1.15,1.15,1.15,0,0,0,1.14-1.15c0-.77,0-1.55,0-2.32,0-.55,0-1.1,0-1.65l1.57.08c1.17,0,2.34.06,3.51.08h.63c0,1.42.12,2.84.23,4.26a1.12,1.12,0,0,0,1.14,1h.14a1.16,1.16,0,0,0,1-1.29c0-.26,0-.51,0-.77v0c-.07-1.07-.14-2.14-.15-3.21l4.07,0h1.57c0,1.65,0,3.31,0,5a1.15,1.15,0,0,0,2.29,0c0-1.65,0-3.31,0-5v0c1.08,0,2.15-.07,3.23-.09.67,0,1.34,0,2,0a0,0,0,0,0,0,0c0,1.41,0,2.82,0,4.23a1.14,1.14,0,1,0,2.28,0c0-1.41,0-2.82,0-4.23,0,0,0,0,0,0h4.44v5.79a1.15,1.15,0,0,0,2.29,0v-5.81c1,0,2,0,3-.07l2.1-.12c0,1.29,0,2.58.15,3.88a1.15,1.15,0,0,0,1.15,1h.14a1.17,1.17,0,0,0,1-1.29c0-.31,0-.63-.08-.94,0-.93-.05-1.85-.05-2.78l2.53-.18h0l1.79-.12a1.13,1.13,0,0,0-.4.85c0,1.3,0,2.59.09,3.88a1.15,1.15,0,1,0,2.29,0c-.08-1.29-.09-2.58-.09-3.88a1.15,1.15,0,0,0-.53-.94l2.27-.15c.83-.05,1.67-.08,2.51-.12a1.62,1.62,0,0,0,0,.22c0,.49,0,1,0,1.47,0,1.15,0,2.29.08,3.44a1.2,1.2,0,0,0,.33.81,1.18,1.18,0,0,0,.81.33A1.15,1.15,0,0,0,164,169c-.07-1-.09-1.92-.09-2.89,0-.73,0-1.47,0-2.21a.75.75,0,0,0,0-.21h0l.77-.06,1.55-.16c0,.45,0,.9.05,1.35,0,.68.07,1.35.1,2,.07,1.28.09,2.56.12,3.84a1.14,1.14,0,0,0,2.28,0c0-1.31-.05-2.61-.11-3.92,0-.66-.07-1.33-.1-2,0-.48-.06-1-.06-1.45,0,0,0,0,0-.06l1.51-.13,1.41-.07a1.15,1.15,0,0,0-.26.68,8.65,8.65,0,0,0,.09.89c0,.32.07.64.1,1,.06.63.11,1.25.16,1.88v0c0,.48.05,1,.08,1.45a1.15,1.15,0,0,0,1.14,1.14,1.14,1.14,0,0,0,1.14-1.14c-.05-1-.1-2-.19-2.94-.06-.75-.17-1.49-.23-2.24a1.14,1.14,0,0,0-.3-.72l1.28,0c.92,0,1.85-.07,2.78-.13,0,.72,0,1.43,0,2.14,0,1,.08,2,.15,2.93a1.14,1.14,0,0,0,1.15,1h.14a1.18,1.18,0,0,0,.75-.43,1.25,1.25,0,0,0,.23-.86l0-.35c0-.82-.09-1.63-.1-2.45s0-1.4,0-2.11l1.26-.09c0,.33.06.66.09,1l.12,1.3c.08.94.2,1.88.3,2.83a1.14,1.14,0,0,0,1.14,1h.15a1.15,1.15,0,0,0,1-1.29c-.17-1.64-.35-3.28-.48-4.92,0-.05,0-.09,0-.15.43-.06.87-.11,1.3-.18l2-.34a1.09,1.09,0,0,0-.19.59,18.81,18.81,0,0,0,.24,2.7c.16,1.08.35,2.14.55,3.21a1.17,1.17,0,0,0,1.13,1h.16a1.15,1.15,0,0,0,1-1.29c-.3-1.6-.59-3.2-.74-4.82q0-.39,0-.78a1.1,1.1,0,0,0-.43-.86c.37-.07.74-.14,1.1-.23a1.14,1.14,0,1,0-.6-2.2l-.4.09c-.69.13-1.38.22-2.06.34l-2.06.35c-.71.11-1.41.22-2.12.31s-1.46.14-2.19.19l-3.08.22h-.33c-1.19.06-2.38.07-3.57.11s-2.37.09-3.55.18c-2.28.18-4.55.48-6.83.65l-2.75.14c-.92.05-1.84.12-2.76.19h0c-1.24.08-2.47.14-3.71.23l-3.42.26h.16c-1.76.11-3.53.22-5.29.24s-3.57,0-5.36,0H138c-1.92,0-3.84,0-5.76,0-1.14,0-2.27.08-3.41.1s-2.42,0-3.62,0c-2.33,0-4.65,0-7,0-1.17,0-2.33,0-3.49-.08s-2.31-.13-3.47-.21h.16c-1.55-.11-3.08-.3-4.62-.42-.73-.06-1.45-.1-2.17-.17l-2.28-.27c-1.16-.13-2.32-.25-3.48-.42l-3.37-.47c-1.13-.16-2.27-.32-3.41-.46s-2.21-.29-3.3-.5a54.45,54.45,0,0,1-5.92-1.47c-1-.36-2-.78-3-1.18-.5-.21-1-.45-1.5-.65a2.71,2.71,0,0,0-1.05-.19,1.14,1.14,0,0,0,0,2.28h.14c.51.19,1,.45,1.52.65l.23.1a1.3,1.3,0,0,0-.07.33c0,1.36,0,2.71-.08,4.06,0,.12,0,.23,0,.35s0,.15,0,.23a1.19,1.19,0,0,0,.23.86,1.11,1.11,0,0,0,.75.43h.14a1.14,1.14,0,0,0,1.15-1,7.91,7.91,0,0,0,.06-.84v-.12c.07-1.16.08-2.31.08-3.47.62.24,1.26.45,1.89.63,0,1.73,0,3.45,0,5.18a1.14,1.14,0,0,0,2.28,0c0-1.52,0-3.05,0-4.58.81.2,1.63.37,2.44.53v4.86a1.15,1.15,0,0,0,2.29,0v-4.47l.58.09,2.83.38c0,1.75,0,3.49.12,5.23a1.05,1.05,0,0,0,.55.8c-.52-.06-1-.11-1.57-.18-2.31-.3-4.62-.69-6.9-1.15-1.29-.27-2.57-.55-3.85-.85s-2.48-.63-3.7-1a21.38,21.38,0,0,1-2.3-1q-.64-.33-1.26-.72a8.47,8.47,0,0,1-.76-.58,1.49,1.49,0,0,0-.2-.15,1.21,1.21,0,0,0-.25-.08v0h0a31.58,31.58,0,0,1,.05-3.37c0-.57.11-1.14.21-1.71,0-.19.09-.37.14-.56s.16-.38.25-.57l.11-.2.12-.15a1.7,1.7,0,0,1,.19-.19,16.07,16.07,0,0,1,1.4-1.06l0,0,.07-.05,0,0h0a13.94,13.94,0,0,1,1.4-.83,5.32,5.32,0,0,1,.69-.3,1.18,1.18,0,0,0,1.08-.86,1.14,1.14,0,0,0-.29-1.11,1.23,1.23,0,0,0-.85-.35,1.79,1.79,0,0,0-.55.11,5.75,5.75,0,0,0-.86.35,16.5,16.5,0,0,0-2.85,1.77,7.51,7.51,0,0,0-1.09.94,4.71,4.71,0,0,0-.89,1.51,12,12,0,0,0-.58,3.52,26.17,26.17,0,0,0,0,3.43A4.43,4.43,0,0,0,72.62,165a12.14,12.14,0,0,0,2.58,1.64,7.53,7.53,0,0,1,0,1.72,1,1,0,0,0,.1.45c0,.09,0,.18,0,.27V169l.18,2.58v0c.08,1.19.17,2.38.28,3.57s.18,2.46.3,3.68.26,2.37.39,3.55.27,2.39.38,3.59.21,2.65.38,4,.35,2.59.53,3.88.38,2.71.53,4.07.23,2.49.34,3.73c.24,2.6.57,5.18.92,7.76.17,1.26.33,2.52.52,3.78s.45,2.49.62,3.74c.33,2.44.58,4.9.84,7.35s.48,4.89.66,7.34c0-.05,0-.1,0-.16.06,1,.11,2,.17,3,.08,1.32.21,2.64.33,4s.22,2.69.36,4,.28,2.54.41,3.81.25,2.68.38,4c.26,2.67.5,5.33.73,8s.5,5.49.7,8.24c0-.06,0-.11,0-.16l.27,4.37c.08,1.4.12,2.79.2,4.19s.16,2.74.22,4.12.11,2.75.17,4.12.15,2.62.2,3.93.12,2.63.16,4,.08,2.58.15,3.87c0,.64.06,1.28.1,1.91l.06,1c0,.06,0,.13,0,.19l.06.83c.06.6.13,1.2.24,1.8s.4,1.85.48,2a1.19,1.19,0,0,0,.6.61l-.12-.06h0l-.08-.05v0l0,0a.69.69,0,0,1,.13.11c.33.3.65.61,1,.89l.31.23s0,0,0,0a3.58,3.58,0,0,0,.09.45,13,13,0,0,1,.08,3.79c-.07.71-.12,1.41-.12,2.11a4.71,4.71,0,0,0,1.49,2.43c.66.34,1.32.69,2,1s1.61.67,2.42,1c.58.22,1.15.42,1.74.58,2.11.56,4.2,1.19,6.31,1.77a45.56,45.56,0,0,0,6.65,1.35c1.1.14,2.21.3,3.31.46s2.32.36,3.49.45q3.34.25,6.71.32h1.33c.72,0,1.45,0,2.18,0,1.09,0,2.18-.1,3.28-.16,2.11-.11,4.22-.23,6.33-.4s4.15-.47,6.22-.76c1-.15,2.1-.33,3.15-.49s2.14-.32,3.21-.5l-.15,0c.91-.15,1.82-.25,2.73-.4s2-.34,2.93-.51c.64-.09,1.29-.17,1.93-.27l2-.35c1.25-.21,2.5-.46,3.74-.77l3.33-.84a14.13,14.13,0,0,0,1.67-.54,1.47,1.47,0,0,0,1.1-1.31c0-.26.07-.51.12-.77.11-.45.21-.91.28-1.37s.14-1,.19-1.53a9.69,9.69,0,0,0,0-1.32c0-.28-.33-1.6-.07-1.85a9.68,9.68,0,0,0,1.69-2.24c0-.24.06-.49.11-.73.1-.48.22-1,.32-1.44s.23-1.17.31-1.76.13-1.07.22-1.6.2-1.11.32-1.67c0,0,0,.1,0,.15.29-1.39.54-2.79.81-4.19s.54-2.75.7-4.14.29-2.58.47-3.87.39-2.6.57-3.9.32-2.54.5-3.81.4-2.61.61-3.91c.44-2.6,1-5.18,1.35-7.78.2-1.28.38-2.56.57-3.83s.42-2.62.61-3.93c.38-2.59.69-5.19,1-7.78s.76-5.25,1.22-7.86c.22-1.27.48-2.55.71-3.83l.66-3.81c.45-2.55.81-5.12,1.32-7.66h0c.24-1.18.5-2.37.72-3.56s.41-2.52.62-3.77.43-2.61.58-3.93.24-2.55.36-3.83c.26-2.59.54-5.19.8-7.79s.56-5.24.89-7.85.64-5.18.91-7.77.43-5.28.67-7.91c.13-1.33.27-2.65.45-4,.09-.62.18-1.23.28-1.85s.2-1.18.25-1.77c0,0,0,.06,0,.08a1.94,1.94,0,0,0,0-.24,1.08,1.08,0,0,0-.2-.61l.74-.14-.07,0,1-.21.5-.1h.12l.9-.2c.52-.11,1-.22,1.55-.35S195.66,168.21,195.66,167.7Zm-54.11-58.94c.65,0,1.3.14,1.95.21s1.31.16,2,.29l1,.23h-5.15a14,14,0,0,0-1.93.2s0-.7.06-1a1.1,1.1,0,0,0,.4.08C140.39,108.73,141,108.73,141.55,108.76ZM131.33,13.28c1.48,0,2.95-.09,4.43-.11,0,.15,0,.29,0,.43,0,.86.13,1.71.19,2.56.11,1.76.13,3.54.13,5.31s0,3.6,0,5.4c0,1.18,0,2.36,0,3.54s.13,2.48.17,3.72c.05,2.31,0,4.62,0,6.93V58.79c0,1.14,0,2.29.06,3.44.06,2.3.06,4.61.13,6.92s.18,4.68.21,7,0,4.64,0,7V96.5c0,2.22.06,4.44.1,6.67,0,1,0,2.06.05,3.09,0,.81.16,1.61.24,2.41a3.35,3.35,0,0,0,.22.76s-1.86,0-2.95-.09l-1.84-.14c-1.14-.08-2.28-.23-3.42-.35-.45,0-.93-.06-.93-.06a11,11,0,0,0,.22-1.68c0-2.73,0-5.45,0-8.18,0-2.29,0-4.58-.13-6.87-.05-1.13-.05-2.25-.05-3.38s0-2.32,0-3.48c0-4.72,0-9.45,0-14.17V57.29c0-2.35,0-4.69,0-7,0-1.12-.05-2.25-.12-3.38s-.16-2.4-.25-3.6a.86.86,0,0,1,0,.16c-.06-1-.12-1.9-.19-2.86v0c0-.53-.07-1.06-.09-1.6-.08-2.26-.07-4.54-.07-6.8V25.49c0-4.08,0-8.15,0-12.23l2.82,0Zm-5.87,131.17h-.67c-.39,0-1.19.54-1.31.55a8.69,8.69,0,0,0-.88.07c-.51.08-1,.21-1.54.27s-1.19,0-1.78,0h0a14.6,14.6,0,0,1-1.48-.19c-.23-.06-.46-.12-.69-.2-.61-.23-1.21-.5-1.8-.78a5.9,5.9,0,0,0-1.89-.61,10.64,10.64,0,0,0-3.53.52,11.7,11.7,0,0,1-1.17.15,12.51,12.51,0,0,1-1.5,0,17.82,17.82,0,0,1-2.18-.29,14.29,14.29,0,0,1-1.46-.4q-.7-.27-1.38-.6c-.87-.46-1.71-1-2.56-1.47a8.13,8.13,0,0,0-1.39-.68,5.36,5.36,0,0,0-1.43-.3,8.55,8.55,0,0,0-2.75.34c-.42.1-.85.21-1.26.34s-.77.25-1.16.35a3,3,0,0,1-.42.06h-.12l-.17-.05a4.83,4.83,0,0,1-.52-.23c-.42-.22-.82-.5-1.24-.72a3.61,3.61,0,0,0-2.09-.37,5.34,5.34,0,0,0-1.45.37,70,70,0,0,1,3.19-7.72,34.62,34.62,0,0,1,1.79-3.13,48.73,48.73,0,0,1,3.12-3.77v0l0,0,0-.07,0,.05c1.18-1.33,2.42-2.59,3.68-3.84.62-.62,1.26-1.22,1.89-1.85s1.16-1.14,1.77-1.68a47.86,47.86,0,0,1,4-3.24c1.33-.89,2.7-1.73,4.07-2.54s2.7-1.59,4.09-2.3c.91-.45,1.83-.84,2.77-1.21a1.27,1.27,0,0,0,.19-.13,1.19,1.19,0,0,0,.25.13l0,0a6.79,6.79,0,0,0,1.41.44,15.18,15.18,0,0,0,1.63.33c1.07.16,2.14.28,3.21.39.85.09,1.69.2,2.54.31,0,0,0,0,0,.07,0,.93,0,1.85,0,2.79s.06,2.15.1,3.23c.08,2,.14,4.1.15,6.15v7.11c0,2.2,0,4.4,0,6.59s0,4.6,0,6.9c0,.32,0,.63,0,.94Zm13.1,7.36c-.6,0-1.19.08-1.79.16s-1.12.18-1.69.24a17.21,17.21,0,0,1-1.9,0c-.58-.05-1.15-.11-1.72-.21a5,5,0,0,1-.76-.21,14,14,0,0,1-1.5-.63,6.05,6.05,0,0,1-.55-.32l-.72-.51a1.25,1.25,0,0,0,.15-.69v-.08c-.24-3.74-.16-7.49-.17-11.24,0-2.21,0-4.41,0-6.62s0-4.69,0-7,0-4.75-.12-7.12c-.05-1.2-.11-2.4-.13-3.59,0-1,0-2,0-3l2,.23c2.28.28,4.59.45,6.89.52.55,0,.84.07,1.39.08-.17.2,0,4.59,0,6.54,0,1,0,1.93,0,2.9s.07,2,.09,3c0,1.2,0,2.4.05,3.6s.07,2.39.11,3.58c.08,2.32.09,4.65.1,7s0,4.7.1,7.05c0,1,0,2.11.07,3.16,0,.85.08,1.69.08,2.54C138.56,151.41,138.64,151.81,138.56,151.81ZM185,146.34c-.48,0-1,0-1.44,0a11.16,11.16,0,0,1-1.16-.16l-1.47-.24a15.86,15.86,0,0,0-2.92-.27,7.75,7.75,0,0,0-1.59.18,10.84,10.84,0,0,0-1.59.49c-.94.36-1.85.78-2.79,1.14a3,3,0,0,1-.43.12l-.51.07h-.38l-.27,0-.36-.1a4.89,4.89,0,0,1-.48-.2,9.81,9.81,0,0,0-1.37-.7,6.93,6.93,0,0,0-1.49-.31c-1-.12-2-.14-3-.21a53.13,53.13,0,0,1-5.48-.63l-1.33-.2a10.07,10.07,0,0,0-1.45-.08c-.83,0-1.62.26-2.44.34-.2,0-.41,0-.61,0l-.22,0-.16,0-.42-.18-1.41-.6c-.48-.21-.95-.45-1.44-.65a9.07,9.07,0,0,0-1.69-.49,6.11,6.11,0,0,0-1.81,0,28.2,28.2,0,0,0-3.29.54,7,7,0,0,0-1.26.36c0-1.28-.06-2.55-.08-3.83,0-2.34,0-4.68,0-7s-.16-4.72-.19-7.08-.15-4.77-.15-7.16,0-4.54,0-6.81c0-.28-.07-.73,0-.72h6.65c1.15,0,2.31-.09,3.46-.2l3.44-.33a20.25,20.25,0,0,0,3.32-.55c.33.14.64.3,1,.45.88.46,1.71,1,2.55,1.53s1.63,1,2.44,1.58a32.63,32.63,0,0,1,3,2.38l.23.2c.87.8,1.69,1.65,2.53,2.48s1.62,1.68,2.39,2.55,1.6,1.68,2.41,2.51,1.54,1.64,2.29,2.48a39.08,39.08,0,0,1,2.76,3.51c.51.78,1,1.58,1.45,2.4s.94,1.65,1.38,2.5c.3.61.56,1.23.81,1.86s.59,1.47.89,2.21c.5,1.23,1,2.47,1.4,3.72.34,1,.64,2,1,3.08C185.66,146.33,185.31,146.35,185,146.34Zm-80.35,17.79,1.46.12a1.15,1.15,0,0,0,0,.19c0,.28,0,.56,0,.84,0,.5,0,1-.05,1.5,0,1.07,0,2.14-.06,3.22-.89-.12-1.78-.21-2.67-.28-.59-.05-1.18-.12-1.76-.19a1.52,1.52,0,0,0,.06-.2c.11-1.21.22-2.42.28-3.63,0-.63,0-1.25,0-1.87C102.8,163.94,103.71,164.05,104.63,164.13Zm-8.49,3.54,0-.37c-.08-1.41-.08-2.82-.07-4.24.54.08,1.09.14,1.64.23l1.92.25c0,.87,0,1.74-.07,2.62s-.15,1.91-.24,2.86a1,1,0,0,0,0,.29l-2.64-.26-1.32-.16A1.16,1.16,0,0,0,96.14,167.67Zm70.72,140.55c0,.22,0,.44,0,.67a21.68,21.68,0,0,1-.36,2.26c0,.26-.12.52-.16.79v0l-.49.16c-.8.24-1.62.43-2.44.64s-1.49.39-2.24.55c-1.43.33-2.88.58-4.33.83-.86.14-1.73.24-2.6.39l-2.5.44h0c-.63.1-1.27.17-1.9.26l-2,.33-2.19.32-2.18.35c-1.43.21-2.86.42-4.3.59-2.11.27-4.24.42-6.36.54s-4.26.24-6.39.32h-.08c-1.6,0-3.21,0-4.81-.07s-3.36-.13-5-.29c-1.85-.2-3.69-.54-5.54-.77a53.43,53.43,0,0,1-5.35-.94c-1.61-.4-3.2-.88-4.78-1.33-.78-.23-1.57-.44-2.35-.65s-1.46-.39-2.18-.67l.09,0-1.14-.44c-.6-.23-1.19-.49-1.77-.76s-1.07-.53-1.61-.81a1.29,1.29,0,0,0-.21-.05.72.72,0,0,0,.05-.21c0-.63,0-1.26.1-1.89a16,16,0,0,0,.13-1.69c0-.34,0-.68,0-1a11.29,11.29,0,0,0,1,.57,30.2,30.2,0,0,0,5.76,2.14,28.79,28.79,0,0,0,3.55.77c1,.15,2.06.22,3.08.42,1.2.23,2.41.46,3.62.63s2.36.36,3.54.47c2.31.23,4.62.41,6.94.46h1.74l1.74-.08c1.14,0,2.27-.06,3.41-.07h3.56a30.3,30.3,0,0,0,3.43-.17l3.24-.42c1.08-.14,2.17-.22,3.26-.29,1.91-.13,3.83-.2,5.75-.23.92,0,1.84,0,2.76,0l1.45-.07.32,0h0l.52,0,.84-.08c1.17-.12,2.33-.26,3.49-.43s2.36-.33,3.54-.55,2.08-.42,3.12-.64c1.52-.31,3-.63,4.56-1,.31-.07.69.14.71.39C166.85,308,166.86,308.12,166.86,308.22ZM187.36,172h0V172a.38.38,0,0,0,0,.1v0c0,.37-.1.73-.15,1.08s-.12.76-.17,1.13c-.12.81-.25,1.62-.35,2.43-.32,2.6-.51,5.22-.71,7.83s-.52,5.15-.8,7.73c-.15,1.36-.34,2.71-.51,4.07s-.32,2.66-.46,4c-.28,2.56-.54,5.13-.8,7.69-.13,1.3-.26,2.6-.38,3.9s-.24,2.64-.42,3.95-.41,2.58-.61,3.87-.44,2.72-.71,4.07c-.37,1.77-.73,3.53-1,5.31s-.54,3.36-.85,5c-.23,1.26-.43,2.53-.66,3.8s-.48,2.54-.7,3.81c-.45,2.61-.86,5.22-1.19,7.85s-.65,5.24-1,7.85c-.2,1.3-.41,2.59-.61,3.89s-.36,2.51-.56,3.75c-.42,2.63-.92,5.24-1.36,7.86-.22,1.28-.42,2.55-.59,3.83s-.34,2.62-.52,3.92l-.57,3.93c-.19,1.25-.28,2.51-.45,3.76s-.42,2.52-.67,3.78-.45,2.46-.7,3.68l0-.14c-.19.92-.38,1.84-.49,2.77s-.26,1.79-.44,2.68c-.15.71-.33,1.4-.42,2.11a8,8,0,0,1-.53,1,12.33,12.33,0,0,1-1.55.77l-.32.13a19,19,0,0,1-2,.46l-2,.43c-1.07.21-2.14.44-3.21.67l.15,0c-1,.22-2.08.38-3.13.53s-2.12.31-3.19.44c-.53.07-1.06.14-1.59.19l-.8.07h-.06l-.37,0H150c-.77.05-1.53.09-2.3.1l-2.28,0c-2.36,0-4.72.13-7.08.32-1.09.09-2.17.21-3.26.36s-2.12.29-3.19.37c-.59,0-1.18,0-1.77.05-2.28,0-4.57,0-6.86.07-1.19,0-2.37.11-3.56.09s-2.2-.07-3.31-.14l-1.59-.12a70.64,70.64,0,0,1-7.12-.89c-1.11-.2-2.22-.46-3.34-.59s-2.2-.26-3.29-.47c-.7-.15-1.41-.33-2.09-.54s-1.34-.38-2-.6a29.22,29.22,0,0,1-2.84-1.17,12,12,0,0,1-1.17-.64c-.44-.32-.87-.66-1.29-1s-1.11-.81-1.64-1.26c-.15-.14-.29-.29-.45-.43a1.09,1.09,0,0,0-.08-.43q-.11-.37-.18-.75c-.09-.5-.16-1-.21-1.52,0-.27,0-.53-.07-.79,0-.1,0-.2,0-.29s0-.06,0-.08a.76.76,0,0,0,0-.15v0h0c-.15-2.3-.24-4.61-.31-6.92,0-1.25-.09-2.49-.15-3.73s-.13-2.39-.19-3.59c-.06-1.4-.11-2.79-.17-4.18s-.14-2.75-.22-4.13-.13-2.7-.2-4.05-.15-2.69-.24-4c-.18-2.75-.45-5.5-.69-8.26s-.47-5.38-.73-8.08-.5-5.22-.78-7.82c-.14-1.33-.25-2.67-.37-4s-.24-2.54-.33-3.82c-.05-.66-.08-1.33-.12-2-.14-2.52-.37-5-.61-7.55s-.49-4.88-.81-7.31c-.16-1.23-.32-2.45-.55-3.66s-.38-2.45-.55-3.68c-.37-2.65-.73-5.3-1-8-.12-1.2-.21-2.4-.32-3.6s-.29-2.65-.47-4-.35-2.56-.53-3.84c-.1-.69-.2-1.39-.27-2.09s-.13-1.38-.19-2.06c-.23-2.56-.51-5.11-.81-7.65-.15-1.28-.22-2.56-.33-3.83s-.23-2.59-.31-3.89v0c-.06-.8-.12-1.61-.17-2.41a.92.92,0,0,0,0,.16c0-.37,0-.73-.08-1.09s-.05-.77.09-.72c.57.21,1.14.4,1.72.56,1.13.32,2.26.59,3.41.84s2.37.54,3.56.76,2.34.44,3.51.63,2.41.35,3.62.5c2.49.32,5,.51,7.49.8,1.22.14,2.45.22,3.67.35s2.4.33,3.6.45,2.45.24,3.67.32h.21c2.46.16,4.93.17,7.4.32,1,.07,2,.13,2.94.23s2.12.22,3.18.31c2.09.18,4.2.27,6.3.34,2.46.08,4.93.06,7.39.09s4.75.11,7.12.19q4.35.15,8.7.15c2,0,4,0,6-.08,1.27,0,2.54-.06,3.8-.13l3.65-.22c2.52-.17,5-.43,7.56-.69,1.21-.12,2.42-.25,3.62-.4s2.38-.32,3.57-.51l3.48-.54.59-.1Z"/><path class="cls-7" d="M95.43,315.11l-.12-.05h0Z"/><path class="cls-7" d="M74.45,159.22a5.25,5.25,0,0,0,0,.56c0,.76,0,1.53.07,2.29a1.15,1.15,0,1,0,2.29,0c0-.89,0-1.78-.1-2.68v-.17a1.15,1.15,0,0,0-2.29,0Z"/><polygon class="cls-7" points="281.17 362.47 281.17 362.47 281.16 362.47 281.17 362.47"/><path class="cls-7" d="M281.31,360.18h0Z"/><polygon class="cls-7" points="229 343.31 229 343.31 229 343.31 229 343.31"/><path class="cls-7" d="M344.13,189.46c-.08-1-.14-2-.25-2.93s-.27-2-.45-3c-.09-.55-.21-1.08-.29-1.62,0-.25-.07-.49-.12-.73a1.94,1.94,0,0,1,0-.2,1.15,1.15,0,0,0-.77-1.06c-.11,0-1-.59-1.19-.64l-1.56-.88c-.67-.38-1.36-.74-2-1.1a1.11,1.11,0,0,0-.43-.12,1.55,1.55,0,0,0,.12-.22,2.91,2.91,0,0,0,0-1.68c-.2-1-.44-2.08-.68-3.13s-.5-2.18-.81-3.25c-.14-.49-.3-1-.45-1.48s-.29-1-.49-1.53c-.4-1.06-.84-2.09-1.28-3.13s-.92-2.05-1.4-3.07-.89-2-1.36-3-1-2.06-1.55-3.07c-.29-.55-.59-1.11-.92-1.64s-.67-1-1-1.49c-.55-.74-1.15-1.43-1.75-2.12l-1.8-2.09c-.62-.71-1.26-1.41-1.86-2.14s-1.19-1.46-1.79-2.18-1.37-1.75-2.11-2.57-1.67-1.68-2.52-2.5-1.63-1.53-2.45-2.29a35.08,35.08,0,0,0-2.69-2.33c-.89-.67-1.83-1.28-2.77-1.88s-1.81-1.06-2.73-1.57-1.87-1-2.84-1.46-2-.85-3-1.23c-.25-.1-1.09-.77-1.5-.92a2.23,2.23,0,0,0-.43-.1l-.69-.11-1.5-.23c-1-.15-1.94-.25-2.91-.39h0l-.12,0h0l-.91-.13.11,0c-.53-.08-1.06-.18-1.59-.28s-1.44.06-1.5-.29c-.24-1.29-.44-2.59-.57-3.9h0v-.09c-.11-1.3-.22-2.61-.29-3.92s-.11-2.72-.16-4.08c-.07-2.27-.13-4.55-.22-6.82s-.27-4.6-.48-6.89V98c-.17-1.86-.28-3.72-.38-5.59s-.21-3.8-.28-5.71c-.07-2.35-.11-4.7-.25-7s-.34-4.6-.44-6.9-.22-4.76-.41-7.13-.36-4.65-.5-7q-.1-1.74-.24-3.48c-.09-1.18-.14-2.35-.2-3.53s-.13-2.35-.23-3.52-.23-2.24-.34-3.36-.22-2.3-.28-3.45-.07-2.26-.1-3.38c-.05-2.24-.11-4.49-.17-6.73s-.11-4.56-.23-6.84c-.07-1.19-.18-2.38-.32-3.56a14.94,14.94,0,0,0-.26-1.63,3.72,3.72,0,0,0-.37-1.14,1.34,1.34,0,0,0-1.21-.64c-1.94,0-3.87.14-5.8.33-1.16.12-2.3.28-3.44.45a7.11,7.11,0,0,0-2.66.93,2.23,2.23,0,0,0-.24,1.54c0,.47.05.93.07,1.4,0,1,.07,1.94.1,2.9.06,1.91.1,3.82.15,5.72,0,1.14,0,2.28,0,3.42l.06,3.4c.05,2.28.14,4.56.16,6.84,0,1.15,0,2.3,0,3.45s0,2.28,0,3.41,0,2.24.09,3.36.17,2.31.28,3.46c0,0,0-.1,0-.15.09,1.1.17,2.2.23,3.3.14,2.34.19,4.68.31,7,.06,1.18.1,2.35.19,3.52s.17,2.28.28,3.41c0,0,0-.1,0-.15.21,2.24.24,4.49.32,6.74,0,1.1.09,2.2.16,3.3,0,.78.11,1.55.18,2.33,0,.05,0,.11,0,.16,0,.28.05.57.08.85.13,1.49.29,3,.43,4.45h0v.06l0,.37s0-.1,0-.15c0,.2,0,.41.05.61a1.1,1.1,0,0,1,0,.18c0-.05,0-.1,0-.15,0,.18,0,.36.05.53v.07c.11,1.16.21,2.32.28,3.49.31,4.68.41,9.37.52,14.06,0,1.1,0,2.21.1,3.31s.12,2.31.17,3.46.09,2.12.19,3.17c0,.47.1.93.15,1.4a1.23,1.23,0,0,0-.33,0c-.21,0-.42,0-.62.06l-.8.08-1.79.15c-1.22.09-2.43.17-3.65.24-2.27.14-4.53.21-6.8.32-1.11.06-2.22.09-3.32.17h-.06c-.05,0-6.34.65-7.19.85a21.86,21.86,0,0,0-2.4.67,27.6,27.6,0,0,0-2.8,1.18c-.88.43-1.73.92-2.59,1.39l.13-.07a37.11,37.11,0,0,0-4,2.42c-.59.43-1.18.86-1.73,1.34s-1.15,1-1.7,1.55l.05-.05-.17.16-.07.07a1.79,1.79,0,0,0-.28.27l-.11.1c-.46.44-.92.88-1.36,1.34-.82.84-1.65,1.66-2.47,2.49s-1.58,1.56-2.34,2.39-1.43,1.59-2.14,2.39a51.71,51.71,0,0,0-4.29,5.5c-.63.95-1.21,1.92-1.82,2.88s-1.18,1.9-1.71,2.89c-1,1.93-2,3.88-2.81,5.89s-1.69,4.3-2.39,6.5c-.33,1-.65,2.07-1,3.11s-.68,2.1-1,3.17c-.14.54-.23,1.1-.32,1.65s-.19,1.07-.3,1.6-.21.94-.28,1.42-.09.77-.15,1.16v.08s0,.07,0,.1a.78.78,0,0,1,0-.14c-.05.33-.12.65-.16,1,0,.16-.21.39-.35.35-.3-.09-.6-.16-.91-.23s-2.52-.32-2.74.26a9.17,9.17,0,0,0-.35,1.37l-.15.85a6.17,6.17,0,0,0-.12.75s0,.07,0,.11a.13.13,0,0,0,0,.06l0,.1q-.24,1.71-.39,3.45c-.09,1.06-.1,2.12-.23,3.17-.06.43-.15,1.92-.15,1.92a3.35,3.35,0,0,0,1.29.87l.86.2c.22,0,.46.11.69.14l.16,0,.92.21c.43.09,1.15.42,1.11.53a2.1,2.1,0,0,0-.09.83l.09,1c.15,1.54.3,3.08.4,4.63s.17,2.93.34,4.4.42,3,.67,4.44.47,3,.65,4.51.19,2.72.31,4.08.29,2.9.42,4.35.16,2.87.17,4.3.08,3,.21,4.55.29,3,.5,4.51.37,3,.55,4.57a.77.77,0,0,1,0-.15c.15,1.39.29,2.78.45,4.17l0-.15c0,.13,0,.26,0,.39a.71.71,0,0,0,0-.14c.21,1.9.49,3.79.72,5.69.13,1.29.24,2.57.32,3.85s.12,2.56.22,3.84.29,2.59.46,3.88.31,2.46.45,3.69c.16,1.58.27,3.17.41,4.76s.35,3.22.53,4.84l0-.15c0,.21,0,.41.07.62.17,1.54.29,3.08.38,4.63s.1,3,.2,4.51c.05.76.11,1.52.21,2.28s.22,1.42.33,2.13c.22,1.48.46,3,.64,4.45.11,1.09.19,2.19.29,3.28s.24,2.28.4,3.41c.31,2.17.66,4.34.91,6.51.12,1.31.16,2.62.21,3.94s.14,2.56.27,3.84c.16,1.55.35,3.09.6,4.62s.52,2.87.74,4.32.42,2.85.65,4.27.5,2.82.66,4.24a33.39,33.39,0,0,0,.79,5.38c.24.86.52,1.7.77,2.55.19.65.4,1.29.57,1.95l.24,1v0l0,.07v0a5.22,5.22,0,0,0,.32.86,1.16,1.16,0,0,0,.74.61c0,.44.15.88.2,1.32s.08,1,.11,1.47c.08,1.63.19,3.27.31,4.9,0,0-.21,1.18.26,1.53.21.16.42.3.64.44a23.89,23.89,0,0,0,2.58,1.52,27.25,27.25,0,0,0,3.12,1.28,63.7,63.7,0,0,0,6.34,1.83c2.12.49,4.25,1,6.38,1.38,1.05.2,2.11.39,3.16.6s2.25.45,3.37.65c2.25.4,4.52.62,6.79.83l3.22.28c1.09.1,2.17.17,3.26.25h.1c.83.07,1.66.14,2.49.19,2.36.12,4.72.17,7.08.23,1.11,0,2.21,0,3.32,0l1.94,0,1.43-.06h.23l.57,0c1.24-.07,2.49-.17,3.73-.26,4.48-.33,9-.63,13.42-1.08,1.15-.12,2.31-.24,3.46-.38s2.32-.33,3.48-.52,2.34-.45,3.5-.76,2.19-.6,3.3-.83c0,0,1.18-.29,1.34-.83a7.63,7.63,0,0,0,.28-.88c.07-.51,0-1,.08-1.55a18.46,18.46,0,0,1,.27-1.94c.08-.39.2-.78.29-1.17s.17-.83.25-1.25a6.19,6.19,0,0,0,.09-1.55c0-.21.57-3.8.68-4.48s.2-1.3.27-2c.15-1.42.26-2.86.46-4.29.31-2,.78-4,1.14-6.07s.69-4.24,1-6.36c.47-3,1-6.08,1.39-9.12.11-.78.22-1.57.3-2.35s.15-1.5.24-2.24c.2-1.55.4-3.1.61-4.64.33-2.23.63-4.47.95-6.7.09-.58.17-1.17.26-1.75l0-.26,0-.15c0-.05,0-.09,0-.13v0h0v0s0-.08,0-.12v.05l0-.1v.05c.55-3.72.93-7.46,1.47-11.18v0l0-.09v0c.18-1.21.4-2.41.62-3.61.29-1.54.48-3.1.76-4.64s.51-3,.74-4.45.5-3,.73-4.5.43-3,.64-4.47v-.1c.08-.56.17-1.13.26-1.69.25-1.5.58-3,.87-4.49s.56-3,.8-4.48.49-2.88.73-4.32.49-2.87.7-4.3.4-3.12.52-4.68.22-3.06.37-4.58.35-3.05.5-4.57.34-3,.44-4.47.25-2.89.43-4.33.33-3,.5-4.51.29-3.1.42-4.65.31-3,.52-4.44v-.08c.21-1.39.43-2.78.63-4.17s.32-2.6.5-3.9a55.13,55.13,0,0,1,1.25-5.81c0-.12.09-.24.13-.37a.13.13,0,0,0,0-.06h0c.64-.18,1.27-.39,1.91-.6l1.9-.58.94-.28c.2-.06.4-.14.6-.19l-.06,0c.44-.1,1.35-1.38,1.42-1.69a3.23,3.23,0,0,0,.08-.53A19,19,0,0,0,344.13,189.46Zm-44-60.35a50.33,50.33,0,0,1,5.35,2.8c.59.35,1.17.73,1.74,1.1s1.22.82,1.8,1.27c1.17.94,2.27,2,3.37,3s2.23,2.08,3.3,3.17c.33.34.64.7.94,1.06,1.44,1.76,2.85,3.55,4.35,5.26.74.85,1.47,1.71,2.22,2.56s1.45,1.64,2.1,2.52l.07.1h0a21,21,0,0,1,1.42,2.26v0a.31.31,0,0,0,.05.1c.54,1,1.05,2,1.54,3s.91,2,1.37,3.05.92,1.93,1.35,2.91l-.17-.05a5.64,5.64,0,0,0-.92,0c-.9,0-1.8,0-2.7.09a10.08,10.08,0,0,0-1.55.18,11.64,11.64,0,0,0-1.56.45,20.58,20.58,0,0,0-2.92,1.58c-.29.15-.58.29-.89.42l-.33.1-.87.13c-.47,0-.93,0-1.4,0s-.87-.08-1.31-.15-.81-.17-1.21-.29-.78-.28-1.17-.45c-.74-.36-1.47-.75-2.22-1.11a18.93,18.93,0,0,0-2.44-1.06,11.86,11.86,0,0,0-2.64-.45,5.24,5.24,0,0,0-1,0,5.17,5.17,0,0,0-.87.18c-.33.1-.66.2-1,.28s-.66.11-1,.15c-.66.05-1.32.05-2,.06s-1.22,0-1.83,0a12.66,12.66,0,0,1-1.51-.15,13.5,13.5,0,0,1-1.4-.32c-.55-.19-1.08-.43-1.6-.67a7.58,7.58,0,0,0-1.95-.7,8.87,8.87,0,0,0-2.12.06l-1.33.14h0a3.06,3.06,0,0,0-.74.09.39.39,0,0,0-.11.06c0-.21,0-.41-.06-.61-.1-.89-.24-1.77-.33-2.66-.06-.72-.11-1.44-.17-2.16-.09-1.15-.17-2.3-.19-3.45l-.09-3.5-.17-6.93c-.06-2.4-.12-4.8-.16-7.2,0-1.17,0-2.34-.05-3.5,0-.65,0-1.29,0-1.94v-.35l1.94-.15c1.07-.1,2.13-.24,3.2-.36s1.93-.15,2.9-.24c.48,0,1-.1,1.44-.16a6.1,6.1,0,0,0,1.35-.39l.07,0C298.79,128.55,299.48,128.82,300.16,129.11ZM285,169.55c-.57,0-1.13.13-1.69.18a14.4,14.4,0,0,1-1.74,0,10.83,10.83,0,0,1-1.13-.12,13.06,13.06,0,0,1-1.52-.4c-.27-.09-.54-.2-.81-.31s-.73-.41-1.09-.6l-.73-.41a1.29,1.29,0,0,0,0-.44c0-.6,0-1.2-.12-1.8s-.15-.93-.22-1.39c-.18-1.13-.32-2.27-.43-3.41s-.19-2.36-.29-3.54c0-.47-.08-.93-.1-1.39-.05-1.12-.09-2.24-.15-3.36s-.13-2.35-.18-3.52c-.12-2.32-.17-4.65-.26-7s-.18-4.77-.33-7.16c-.07-1.2-.13-2.41-.23-3.61a17.23,17.23,0,0,0-.2-1.76.24.24,0,0,1,0-.08l1.13,0c1.21,0,2.43.09,3.65.13s2.34.07,3.51.1H284l.95-.05c0,.07,0,.13,0,.2,0,.66,0,1.32,0,2,0,1.3,0,2.59,0,3.89.09,4.68.22,9.36.34,14l.08,3.48c0,1.16.13,2.32.22,3.47s.17,2.31.33,3.45.24,2,.34,3,.23,2.33.34,3.51v0c.05.55.08,1.1.13,1.65,0,.3.07.6.1.9v.05s0,0,0,.08Zm3.88-43.34c.68.12,1.36.24,2.05.34l1.42.19-2,.23c-.68.08-1.35.13-2,.19C288,127.17,288.6,126.16,288.84,126.21ZM270.59,46.26c0-2.26,0-4.51-.1-6.77s-.11-4.7-.12-7.05c0-2.2-.09-4.4-.15-6.59,0-1.14-.06-2.27-.1-3.41,0-.56-.05-1.11-.08-1.67,0-.05,0-.1,0-.15l.22,0c.6-.1,1.2-.18,1.8-.27,1-.16,2.11-.27,3.17-.37.89-.08,1.78-.14,2.67-.17.45,0,.9-.05,1.35-.06a29.19,29.19,0,0,1,.4,3.1c.16,1.84.22,3.69.28,5.54s.09,3.67.14,5.5c.06,2.32.1,4.64.18,7s.36,4.52.59,6.78h0v.08c.13,1.41.22,2.82.29,4.23s.17,3,.28,4.47c.17,2.31.29,4.62.46,6.93.09,1.17.19,2.34.27,3.51s.14,2.35.2,3.53.12,2.34.18,3.52.14,2.32.23,3.48c.17,2.32.28,4.65.35,7s.16,4.8.29,7.21c.07,1.19.14,2.37.2,3.56s.18,2.41.29,3.61a.92.92,0,0,0,0-.16l.09,1c.18,2.26.32,4.52.4,6.79l.21,6.85c.07,2.27.22,4.54.43,6.8.1,1,.25,2.06.41,3.09.09.57.21,1.14.32,1.71s.21,1.12.36,1.66c.1.38-.62.73-.78.87-.86.05-1.71.09-2.57.09-.17,0-.33,0-.5,0h-.35c-2.32,0-4.63-.17-6.95-.22a1.18,1.18,0,0,0,.09-.72c0-.18,0-.36-.05-.54h0c0-.65-.09-1.29-.16-1.93s-.16-1.48-.23-2.22c0,0,0-.1,0-.16-.09-1.09-.14-2.19-.19-3.29s-.12-2.25-.17-3.37c-.1-2.32-.13-4.65-.18-7s-.12-4.6-.23-6.89-.27-4.61-.48-6.9c0,0,0-.09,0-.13V94l-.06-.6s0,.1,0,.15,0-.12,0-.18h0c0-.26-.05-.52-.07-.78,0,0,0,.11,0,.16-.1-1.13-.23-2.25-.34-3.38,0-.4-.07-.81-.11-1.21l-.06-.65a1.5,1.5,0,0,0,0-.2v0c0-.13,0-.26,0-.39s0-.57-.07-.86c0-.59-.08-1.18-.12-1.76-.06-1.16-.1-2.32-.14-3.49s-.08-2.41-.14-3.61-.15-2.23-.25-3.35-.2-2.52-.27-3.78c-.11-2.36-.19-4.72-.3-7.08-.1-2.16-.26-4.32-.46-6.48-.15-1.69-.19-3.38-.22-5.08S270.57,48,270.59,46.26ZM265.43,126l3.55-.23,1.72-.14c.5-.06,1-.14,1.51-.15a1.25,1.25,0,0,0,.43-.07c0,.4.05.79.09,1.19a3.28,3.28,0,0,0,.08.52s0,0,0,.07c-.49,0-1-.05-1.46-.1-1.13-.11-2.25-.25-3.38-.41l-.11,0c-1.16-.17-2.31-.38-3.46-.61Zm-49.75,34a57.67,57.67,0,0,1,3.19-6.33q1.14-1.87,2.32-3.72c.79-1.22,1.66-2.38,2.56-3.52l.25-.32c.72-.88,1.47-1.73,2.23-2.57s1.44-1.66,2.21-2.43l2.33-2.33c.82-.83,1.62-1.68,2.46-2.49l.68-.65.08-.08.08-.07.07-.08.09-.08h0l.09-.09,0,0a27.3,27.3,0,0,1,2.57-2.24l-.06,0,.06,0,.06-.05-.06.05c.59-.43,1.18-.86,1.8-1.24s1.29-.77,1.95-1.14l2-1.11a29.92,29.92,0,0,1,3.21-1.47,19.81,19.81,0,0,1,2.12-.63c.88-.21,1.77-.37,2.65-.56.26,0,4.17-.29,4.3-.3,1,.21,2.07.43,3.11.63l3.34.64c2.2.43,4.39.89,6.61,1.19,1.12.16,2.24.3,3.37.41v0a1.18,1.18,0,0,0,.12.49c.08.44.13.89.17,1.34.35,4.49.51,9,.67,13.47.07,2.34.15,4.68.29,7,.07,1.12.12,2.24.16,3.36s.13,2.19.23,3.28v-.05c.1,1.12.12,1.6.23,2.72a7.91,7.91,0,0,0-1.22-.58,4.68,4.68,0,0,0-1.62-.24,8.15,8.15,0,0,0-1.62.25c-.49.12-1,.25-1.44.4-1,.3-2,.62-2.95,1s-1.66.73-2.5,1.06c-.24.08-.48.14-.72.2a12.05,12.05,0,0,1-1.7.28c-1,.09-2.08.1-3.12.13s-2.27,0-3.41.05a30.09,30.09,0,0,0-3.29,0,12.15,12.15,0,0,0-1.7.33c-.47.13-.93.33-1.41.46a15,15,0,0,1-1.64.23c-1,.08-1.94.14-2.92.19s-2.15.12-3.23.08h.15c-1.53-.07-3.05-.12-4.58-.1a19.85,19.85,0,0,0-2.44.15,10,10,0,0,0-2.21.58l-.62.24c-.56.2-1.13.37-1.7.55s-1.15.36-1.74.5a8.87,8.87,0,0,1-1,.18l-.56,0a7.52,7.52,0,0,1-.83-.09,16.44,16.44,0,0,0-1.71-.27c-.66-.06-1.33-.07-2-.07l-1.22,0c-.7,0-1.39,0-2.08,0-.32,0-.63-.06-.94-.07a6.86,6.86,0,0,0-1.11,0,6.22,6.22,0,0,0-1,.2c0-.1.07-.21.1-.31C213.94,164.25,214.78,162.09,215.68,160Zm-5.84,22.79,1.8.37c0,.16,0,.33,0,.49-.06.62-.12,1.25-.21,1.87-.18,1.4-.38,2.79-.57,4.18a1.16,1.16,0,0,0,1,1.27.75.75,0,0,0,.15,0,1.14,1.14,0,0,0,1.11-1c.16-1.17.34-2.34.49-3.51.08-.58.15-1.17.21-1.75,0-.38.07-.76.11-1.14.64.11,1.27.22,1.91.29l.48.06c0,.66,0,1.32,0,2-.05,1-.13,2-.23,3s-.27,2.14-.42,3.2a1,1,0,0,0,.06.48c-.81-.14-1.61-.29-2.42-.42-1.23-.2-2.46-.39-3.68-.65l.06,0-.13,0h0c-.5-.11-1-.22-1.5-.31l-.56-.11c.3-1.41.58-2.82.81-4.25.13-.8.24-1.6.32-2.42a8.2,8.2,0,0,0,0-1.11,1.72,1.72,0,0,0-.19-.77l1.43.29Zm13.27,9.47a1.17,1.17,0,0,0,1.12-1.17q.06-3.14.18-6.26a1.64,1.64,0,0,0,0-.22l1.76.1,2.23.13c0,.23,0,.46,0,.69s0,.65-.05,1c0,.75,0,1.51-.06,2.26,0,1.45,0,2.89-.07,4.33a1.14,1.14,0,0,0,1.17,1.11,1.16,1.16,0,0,0,1.12-1.17c.06-2.09.05-4.18.11-6.28,0-.32,0-.64.06-1a7,7,0,0,1,.06-.8l3.24.17a1,1,0,0,0-.08.44c.06,2.39,0,4.77,0,7.15a1.14,1.14,0,1,0,2.28-.05c0-2.39.07-4.77,0-7.15a.88.88,0,0,0-.06-.28c.62,0,1.25.07,1.87.12h.09l.69.06a.6.6,0,0,0,0,.19c0,.12,0,.24,0,.36.07.8.12,1.6.13,2.4s0,1.72,0,2.58c0,.69-.07,1.38-.11,2.06a1.18,1.18,0,0,0,1,1.27h.15a1.14,1.14,0,0,0,1.12-1c.07-1.39.17-2.78.16-4.17,0-.66,0-1.33-.06-2,0-.49-.05-1-.11-1.48l1.87.17c.45,0,.9.06,1.36.09a.86.86,0,0,0-.05.23h0c-.15,2.73-.15,5.46-.12,8.19a1.14,1.14,0,1,0,2.28-.06c0-2.35,0-4.69.07-7,0-.38.07-.78.06-1.16v0l1.44.09c.8,0,1.59.06,2.38.08a1,1,0,0,0,0,.23c.07,2.51.15,5,.13,7.52a1.14,1.14,0,1,0,2.28-.06c0-2.5-.06-5-.12-7.51,0,0,0-.07,0-.11l3.25.08c1.26,0,2.52,0,3.79,0h0l-.16.1a1.61,1.61,0,0,0-.37.89l-.12.78c-.06.47-.09.94-.13,1.41-.07,1-.09,2-.1,2.92a1.14,1.14,0,1,0,2.28-.06l0-1.35c.05-1.07.12-2.13.27-3.18,0-.08,0-.15,0-.22a1.15,1.15,0,0,0-.28-1.23l-.05,0,2.53.07c1.3,0,2.58.07,3.88.06h.13a.84.84,0,0,0-.13.44c-.09,1.64-.11,3.28-.13,4.92s0,3.26,0,4.89a1.12,1.12,0,0,0,.55.93l-.8-.06-2.93-.24h0l-.25,0h0l-3.41-.27h0c-2.26-.19-4.53-.4-6.79-.57s-4.29-.29-6.43-.45c-1-.08-1.92-.16-2.87-.28s-2-.26-3-.39-2.1-.29-3.15-.39-2-.16-3-.24c-1.61-.14-3.22-.3-4.83-.47s-3.31-.31-5-.47c-2.6-.25-5.19-.56-7.75-1a1.2,1.2,0,0,0,.25-.55c.21-1.56.43-3.12.55-4.68.1-1.17.1-2.33.09-3.5,1.19.13,2.38.24,3.57.32,0,.49,0,1,0,1.47s0,1-.05,1.58c0,1.2-.08,2.41-.1,3.61A1.15,1.15,0,0,0,223.11,192.21Zm53.77,4.87a1.17,1.17,0,0,0,1.17,1.12,1.15,1.15,0,0,0,1.12-1.17c-.13-3.21-.32-6.41-.4-9.61a1.15,1.15,0,0,0-.41-.83l.46,0c2,.11,4,.18,6,.23,0,1.22,0,2.44.06,3.67l.12,5a1.14,1.14,0,1,0,2.28-.06c0-1.65-.08-3.3-.11-5,0-1.19,0-2.38-.06-3.57,2,0,4,0,5.94,0,0,.36,0,.72,0,1.08,0,.69,0,1.39.05,2.08,0,1.59.07,3.18.11,4.77a1.14,1.14,0,1,0,2.28-.05l-.09-4.17c0-.67,0-1.33-.05-2s0-1.15,0-1.72h4.51c.18,2.77.4,5.54.54,8.32a1.15,1.15,0,0,0,2.29-.06c-.08-1.58-.17-3.16-.29-4.75l-.18-2.38c0-.39-.05-.77-.07-1.15,1,0,2.06,0,3.09,0l1.92,0h.36c.07,2.94.12,5.89.25,8.83a1.14,1.14,0,1,0,2.28-.06c-.13-3-.18-5.91-.25-8.87,1.7-.08,3.4-.19,5.1-.32,0,.42,0,.83,0,1.25,0,.72,0,1.44,0,2.16,0,1.43.06,2.86.17,4.28a1.14,1.14,0,1,0,2.28-.05c-.1-1.4-.13-2.79-.16-4.19,0-1.21-.06-2.41-.05-3.62l2.19-.16a1.09,1.09,0,0,0-.25.76,1.35,1.35,0,0,0,0,.28c.1,1.29.16,2.58.27,3.87.13,1.54.28,3.07.46,4.6a1.16,1.16,0,0,0,1.17,1l.14,0a1.16,1.16,0,0,0,1-1.31c-.13-1.11-.24-2.22-.35-3.33-.08-.86-.14-1.72-.2-2.58,0-.48-.07-1-.1-1.45a11.38,11.38,0,0,0-.1-1.3,1.1,1.1,0,0,0-.32-.62l3.12-.26h.15a.14.14,0,0,0,0,.06l.11,4.31c0,1.5.07,3,.15,4.49a1.15,1.15,0,0,0,1.17,1.12,1.16,1.16,0,0,0,1.12-1.17c-.09-1.52-.12-3.05-.15-4.57l-.11-4.23a.72.72,0,0,0-.05-.21l1.35-.12c.87-.09,1.73-.21,2.59-.33,0,.28,0,.56,0,.84,0,.69,0,1.37,0,2.05a38.49,38.49,0,0,0,.32,4.43,1.16,1.16,0,0,0,1.17,1h.14a1.17,1.17,0,0,0,.95-1.32c-.07-.52-.13-1-.18-1.57-.13-1.74-.15-3.48-.11-5.23,0-.08,0-.17,0-.26l0-.16s0,0,0,0c.76-.1,1.5-.23,2.24-.39.07,2.83.13,5.67.25,8.5a1.17,1.17,0,0,0,.85,1.06q-1.21.32-2.46.6c-1,.23-2.08.45-3.12.66h0c-1.34.26-2.68.48-4,.71s-2.77.51-4.15.78c-.76.14-1.52.26-2.29.37-1.37.21-2.74.39-4.12.54s-2.79.26-4.18.37c-2.78.21-5.56.44-8.34.6h-.1c-1,.05-2,.1-3,.13-1.39,0-2.79,0-4.18.07l-4.18,0c-1.43,0-2.86,0-4.29,0s-2.84-.1-4.26-.15c-2.77-.1-5.55-.05-8.31-.23l-6.28-.45a1.19,1.19,0,0,0,.66-1.06c0-3,0-6.05.1-9.07,0-.15,0-.29,0-.44a1.31,1.31,0,0,0-.18-.7h1.76l3.92,0,1.79,0a1.15,1.15,0,0,0-.49.94C276.56,190.68,276.75,193.88,276.88,197.08Zm-72-6.62-.31-.07a1.4,1.4,0,0,0,.18-.48c.13-1,.14-2.08.22-3.12s.24-2.32.4-3.47c0,.05,0,.09,0,.14s0-.08,0-.12,0-.22.05-.33c.06-.44.14-.88.23-1.32a.91.91,0,0,0,.22.11l.79.19c.08,0-.27,1.75-.28,2-.11,1.24-.31,2.45-.52,3.67-.18,1-.37,2-.58,2.92ZM310.4,356.82c-1.24.33-2.48.68-3.74.93-1,.18-2,.34-3,.49s-2,.26-3,.37c-2,.22-4,.43-6,.59-2.23.18-4.45.33-6.68.5s-4.36.35-6.54.47h-.38l-1.18.05c-2.28.06-4.57,0-6.85,0-1.2,0-2.39-.06-3.59-.12s-2.21-.09-3.32-.17H266l-2.92-.22c-2.36-.2-4.72-.39-7.08-.63s-4.44-.61-6.64-1.06-4.2-.79-6.29-1.23l.11,0c-1.76-.38-3.53-.75-5.27-1.21s-3.58-1-5.34-1.61a25.17,25.17,0,0,1-2.77-1.2,7.32,7.32,0,0,1-1.85-1.54c-.1-1.24-.19-2.49-.26-3.74h0c0-.7-.07-1.39-.12-2.09,0-.06,3.5,1.58,4.54,2l-.13-.05,2.47.88c1.11.41,2.2.87,3.33,1.23s2.23.69,3.35,1,2.36.56,3.54.82l.51.11.57.13.81.16,1.81.35c1.16.22,2.33.43,3.5.6.58.09,1.16.19,1.75.25l1.71.16c2.29.2,4.58.34,6.88.46s4.68.27,7,.37,4.43.17,6.64.22c1.08,0,2.15,0,3.23,0s2.21,0,3.31,0l1.71,0,1.63-.06c1.12-.05,2.23-.14,3.34-.23,2.25-.17,4.51-.34,6.76-.57s4.39-.46,6.58-.8c1.1-.18,2.2-.38,3.29-.58s2.34-.5,3.5-.78,2.25-.54,3.34-.92l.61-.21v.23c-.05.45-.15.9-.24,1.35v0l0,.1s0-.06,0-.09c-.11.49-.26,1-.36,1.47s-.16.93-.22,1.4c-.08.68-.1,1.35-.13,2h0C311.59,356.52,311,356.66,310.4,356.82Zm23.72-157c-.39,2-.59,4.11-.88,6.16-.16,1.1-.34,2.2-.5,3.31-.24,1.55-.44,3.11-.59,4.68s-.23,3.09-.4,4.64-.33,3-.5,4.48-.37,2.88-.46,4.34c-.2,3-.62,6.05-.93,9.08s-.42,6.05-.83,9.06v.05c-.25,1.66-.53,3.32-.81,5-.5,2.93-1,5.87-1.54,8.79-.3,1.51-.62,3-.86,4.54s-.45,3-.67,4.57c-.27,1.87-.59,3.73-.89,5.6s-.64,3.78-.95,5.67c-.13.79-.25,1.58-.37,2.38s-.26,1.51-.4,2.26c-.27,1.49-.5,3-.7,4.47-.39,2.95-.71,5.91-1.14,8.86h0c0,.23-.09.48-.1.73l0,.16,0,.23s0,.08,0,.11h0v0c0,.18,0,.35-.08.52l-.27,1.9c-.19,1.35-.37,2.7-.56,4h0c-.32,2.17-.62,4.33-.89,6.5-.14,1.07-.24,2.15-.36,3.22s-.28,2-.42,3.05v.11c-.41,2.73-.85,5.46-1.25,8.2-.23,1.52-.46,3-.72,4.56s-.55,2.91-.83,4.37-.53,2.83-.69,4.26-.26,2.82-.45,4.23c-.13.84-.32,1.68-.48,2.53,0,.25-.08.82-.17.87a13.91,13.91,0,0,1-1.55.62c-1,.31-2,.56-2.95.8s-2.05.51-3.09.71h0c-2.14.41-4.28.79-6.45,1l-3.27.37-3.48.3c-2.15.18-4.3.38-6.46.51H286c-.87,0-1.75.07-2.62.08-2.19,0-4.38,0-6.56,0-1.09,0-2.18-.05-3.27-.08l-3.27-.12c-2.29-.09-4.58-.24-6.87-.35s-4.65-.25-7-.43h0l-.35,0c-1.15-.09-2.29-.19-3.43-.36s-2.38-.38-3.57-.6l-1.71-.33-1-.19c-.18,0-.36-.09-.55-.12l-.24-.05c-1.39-.3-2.79-.61-4.17-1s-2.66-.75-4-1.2c-.72-.26-1.43-.56-2.15-.82l-2.09-.74h0l-2-.72.14.05c-.51-.18-3.47-1.79-4-2a3.43,3.43,0,0,0-1-.45h-.13l-.12-.27,0-.1-.12-.47v0l0-.1v.05c-.07-.29-.13-.58-.2-.86-.13-.46-.27-.93-.41-1.39-.31-1.07-.68-2.13-1-3.22-.2-.91-.34-1.83-.46-2.75l-.09-1c-.06-.71-.13-1.43-.24-2.14s-.26-1.52-.38-2.28c-.23-1.42-.45-2.85-.66-4.28s-.49-2.87-.73-4.31-.44-2.87-.61-4.31-.29-2.92-.36-4.39-.09-2.84-.22-4.26-.35-2.79-.56-4.18-.44-3-.61-4.44v0c-.22-2-.32-4.1-.62-6.14l-.45-3c-.14-.92-.3-1.84-.41-2.77-.25-2.33-.24-4.68-.39-7s-.43-4.67-.69-7c0,0,0,.09,0,.14-.24-2.23-.38-4.47-.61-6.7s-.56-4.47-.82-6.7v0c-.25-2.4-.31-4.81-.5-7.22s-.61-4.93-.89-7.4c0,0,0,.1,0,.15s0-.12,0-.19v-.06l0-.3a.59.59,0,0,0,0,.14c-.21-1.82-.39-3.65-.6-5.47-.11-.91-.21-1.81-.33-2.71s-.23-1.68-.33-2.53c-.19-1.86-.34-3.73-.39-5.6,0-.9,0-1.81,0-2.72s-.08-1.77-.16-2.65c-.13-1.47-.29-2.93-.41-4.4s-.16-2.87-.34-4.29-.41-3.13-.68-4.68-.49-2.88-.65-4.33c-.16-1.63-.25-3.27-.36-4.91-.06-.82-.13-1.63-.21-2.44s-.2-1.63-.22-2.44a1.13,1.13,0,0,0,0-.55c.67.13,1.34.27,2,.39,1,.15,1.91.31,2.87.48,2,.36,4.1.74,6.17,1q2.08.27,4.17.48c1.36.12,2.72.22,4.08.36,2.61.28,5.23.54,7.86.75h0l.92.08c2.8.26,5.58.75,8.38,1s5.56.38,8.34.6c2.63.22,5.27.45,7.92.66h0l1.48.12h.09l.38,0h-.16c1.74.13,3.48.29,5.21.42s3.47.24,5.2.36c1.39.09,2.77.17,4.16.2l4,.06c1.43,0,2.85.13,4.28.16s2.91.06,4.37.06c2.78,0,5.56-.05,8.34-.08l.81,0c2.53-.06,5.06-.26,7.59-.45,2.79-.2,5.59-.38,8.37-.68,1.38-.15,2.75-.33,4.12-.54s2.72-.46,4.07-.72l2.91-.52c1.38-.24,2.76-.45,4.13-.74,1.11-.23,2.23-.47,3.34-.73l-.12.47C334.51,197.88,334.31,198.84,334.12,199.81Zm7.07-7.54-1.4.42c-.83.25-1.65.52-2.47.78a1.15,1.15,0,0,0,.3-.8c-.13-2.92-.19-5.85-.26-8.78a1.31,1.31,0,0,0-.06-.27l.05,0a2.1,2.1,0,0,0,.78-.45,1.28,1.28,0,0,0,.35-1,1.15,1.15,0,0,0-1.9-.71l-.28.11a19,19,0,0,1-2.1.54c-1.57.28-3.15.47-4.73.69s-3.23.37-4.86.5c-5,.39-9.92.82-14.89,1.1-1.76.09-3.53.12-5.29.15-2.51.06-5,0-7.52.05H293.1l-3.74,0c-2.54,0-5.08-.06-7.63-.15-1.21,0-2.43-.13-3.65-.17s-2.41,0-3.62-.07c-2.64,0-5.27,0-7.91,0-1.28,0-2.56-.06-3.85-.09s-2.62-.09-3.94-.09-2.56,0-3.85-.06l-3.95-.09c-2.57-.07-5.13-.21-7.69-.4h-.1c-1.94-.16-3.88-.37-5.82-.51-1.32-.09-2.65-.13-4-.21s-2.62-.13-3.93-.21l-4.08-.25c-1.25-.07-2.5-.12-3.75-.21-1.75-.16-3.51-.34-5.25-.54s-3.27-.46-4.88-.8l-1.71-.38a5,5,0,0,0,.2-.73v0c0-.27.09-.52.13-.79s.1-.77.15-1.15.13-.67.2-1,.18-.88.26-1.33c.15-.79.25-1.6.46-2.38,0-.12.07-.24.11-.36.37-1.2.75-2.39,1.12-3.58a1.11,1.11,0,0,0,.84.08,7.1,7.1,0,0,1,.79-.22,2.25,2.25,0,0,1,.36-.06,4.28,4.28,0,0,1,.62,0c.45,0,.9.07,1.35.08s.95,0,1.43,0c.93,0,1.86,0,2.79,0,.5,0,1,.08,1.5.16a10.94,10.94,0,0,0,2.21.26h.07a9.51,9.51,0,0,0,2-.32c1.36-.36,2.71-.81,4-1.3l.07,0c.34-.12.69-.23,1-.32a8.83,8.83,0,0,1,1-.16,46.83,46.83,0,0,1,5.43,0H238c.5,0,1,0,1.52.06s.95,0,1.43,0c.91,0,1.82-.1,2.73-.16a24.94,24.94,0,0,0,2.86-.28,8.61,8.61,0,0,0,1.39-.36,9.65,9.65,0,0,1,1.16-.35c.3-.06.59-.11.89-.15.78-.05,1.56,0,2.34,0,1.14,0,2.28,0,3.42,0s2.13,0,3.2-.1a14.93,14.93,0,0,0,1.77-.17,11.17,11.17,0,0,0,1.73-.41,15.19,15.19,0,0,0,1.57-.64c.46-.2.92-.4,1.39-.58a37.21,37.21,0,0,1,4-1.24c.32-.07.64-.13,1-.17h.24l.52.05.16,0c.12.2,1,.08,1.55.49a3,3,0,0,1,.92,1.69c.08.5.17,1,.22,1.5v0l-.33-.25c-.37-.28-.75-.56-1.11-.85a8.24,8.24,0,0,0-1.19-.84,3,3,0,0,0-1-.41,5.75,5.75,0,0,0-.93-.1l-1.5,0a9.72,9.72,0,0,0-1.43.08,1.62,1.62,0,0,0-1,.55,1.23,1.23,0,0,0-.24.79,1.15,1.15,0,0,0,1.17,1.11,1.08,1.08,0,0,0,.63-.21c.81-.05,1.63,0,2.45,0l.3,0,.11,0,.12,0,.43.25c.39.26.74.57,1.12.86l1.14.87a22.08,22.08,0,0,0,2.8,1.88c.25.14.5.26.75.41s.45.27.69.38a10.48,10.48,0,0,0,1.64.63,12.33,12.33,0,0,0,1.45.37,11.23,11.23,0,0,0,1.83.18h.8q.45,0,.9-.06l1.63-.17c.85-.07,1.71-.13,2.56-.18s1.49-.11,2.23-.1l.48,0a1.14,1.14,0,1,0,.26-2.27,7.65,7.65,0,0,0-1.51,0v0c0-.41-.09-.82-.13-1.23-.1-1.25-.23-2.5-.34-3.74,0-.11,0-.22,0-.32l.11,0a3.75,3.75,0,0,0,.58,0h.11l.45,0c.35-.05.71-.08,1.07-.12s.85-.08,1.28-.08h.15l.24.07.29.11a23.91,23.91,0,0,0,3.31,1.3,16,16,0,0,0,3.15.4c.53,0,1.06,0,1.6,0s1.11,0,1.66,0a12,12,0,0,0,1.79-.22c.52-.11,1-.28,1.53-.42l.15,0h.39c.44,0,.88.07,1.32.13s.69.15,1,.25c.71.26,1.4.6,2.09.92h0a33.61,33.61,0,0,0,3.15,1.5,13.34,13.34,0,0,0,3.54.72c.33,0,.66,0,1,0s.6,0,.9-.06a6.28,6.28,0,0,0,1.77-.37,12.24,12.24,0,0,0,1.62-.81c.47-.29.93-.59,1.41-.85.21-.11.42-.2.64-.29.37-.13.74-.25,1.12-.35a6.84,6.84,0,0,1,.79-.12c.73-.06,1.46-.08,2.19-.1.52,0,1-.05,1.55,0h.15l.06,0,.12.06a1.23,1.23,0,0,0,1.15,0l.39,1c.32.85.56,1.72.82,2.59s.48,1.72.69,2.59h0c.19.81.37,1.62.55,2.43s.33,1.35.42,2v.08c-.21.59.88,2.85,1.43,3.14.71.38,1.42.75,2.11,1.14l1,.57a9.58,9.58,0,0,0,1.09.59,1.08,1.08,0,0,0,.19,0,2.56,2.56,0,0,0,.05.27c.09.59.2,1.17.31,1.76.19,1,.36,2.12.48,3.18.08.8.15,1.61.21,2.41s.16,1.49.16,2.23c0,.11,0,.22,0,.32s0,.09,0,.13a0,0,0,0,0,0,0Z"/><path class="cls-7" d="M290.91,126.55h0Z"/><polygon class="cls-7" points="207.86 178.5 207.86 178.5 207.86 178.5 207.86 178.5"/><path class="cls-7" d="M272.73,126.63v0Z"/><path class="cls-7" d="M270.44,88.37h0s0-.1,0-.15S270.43,88.32,270.44,88.37Z"/><path class="cls-7" d="M288.67,164.29h0s0,.1,0,.15A.92.92,0,0,1,288.67,164.29Z"/></g></svg>