<svg xmlns="http://www.w3.org/2000/svg" viewBox="0 0 396 396"><defs><style>.cls-1{opacity:0.29;}.cls-2{fill:#373737;}.cls-3{opacity:0.53;}.cls-4{fill:#fff;}</style></defs><g id="レイヤー_1" data-name="レイヤー 1"><g class="cls-1"><path d="M300.69,182.6c-1.42-3-4.6-4.76-7.68-5.75a3.4,3.4,0,0,0-5.25-1.16c-14-.72-27.82,2.66-41.86,1.58-15.3-7.1-36-12.39-49.53.92C187.91,198,228.78,197,240.43,198.26,252,198.5,304.12,200.64,300.69,182.6Z"/><path d="M245.7,303.65c-.54-.23-1.07-.51-1.59-.77l.39.19a151.61,151.61,0,0,0-16.88-7.39c-1.41-3.16-6.63-6-9.72-7.66-12.61-7.56-37.26-28.67-51.7-25a3.38,3.38,0,0,0,.68-4.59c-3.41-8.47-1.8-17.67-.64-26.42,16.39,12.21,36,19.92,50.72,34.43l-.23-.19c5.51,5,10.73,11,14,17.75,1.2,3.21,2.6,7.49,5.84,9.07a3.42,3.42,0,0,0,3.42-5.55c-2.28-2.83-2.84-6.47-4.6-9.57-13.09-21-35.39-32.73-55.94-45.18l0,0c-4.48-2.28-8.2-6.73-13.07-7.87-.91-9.09-8.92-16.23-17.72-17.62-6.33-4.37-13.19,1.21-19.72,1.73-10.19,9.27-21.77,7.92-32.43.26a84.06,84.06,0,0,0-27.73-12h0c.13-2.94-1-7.05-4.06-8.21a3.58,3.58,0,0,0-.22-1c1.53-1.41,3.48-2.26,5-3.74,3.06,5.35,12.06,3.63,17.35,5.9,14.77,5.6,32.1,5.76,45,15.35a3.4,3.4,0,0,0,5.91-.61c.88-7.78-15.34-12-21.42-13.58l.16,0c-4.07-1.09-8.14-2.19-12.22-3.24,12.33-5.8-13.87-12.18-18-14.15-3-.95-6-1.88-9-3-4.11-1.25-6.07,5.27-1.92,6.49l-.21-.08c9,3.06,18.18,5.93,26.8,10.06-9.8-2.77-19.69-5.67-29.73-7.24-1.61-9.1-12,2.81-15,5.57-3.76,5.3,1.24,10.37,4,14.78,3,7,21.38,17.94,28.71,21.44,14.18,4,30.82,3.12,42.4-6.4l-.42.15c3.84-1.19,7.78-2.8,11.71-3.26,21.46,4.76,15.31,16.64,14.36,33.57.6,5,0,18.79,7.5,17.27-5,4.24,2.33,9.94,6,12.19-4.75,7.54,10.23,13.29,15.42,16.18l-.39-.19a86.63,86.63,0,0,0,13.12,5.59l-.18-.06c8.92,3.68,19.19,1.39,28,5.7,5.9,1.93,11.29,5.38,17.08,7.33C248.27,310.35,249.24,304.79,245.7,303.65ZM102,187.55h0l.17.11C102.09,187.64,102,187.58,102,187.55ZM95.5,216.71c-6-1.43-11.36-5-16.17-8.85,6,2,11,5.8,16.49,8.91Zm97.25,63c-5.5-2.91-11.13-5.55-16.35-8.95,6.5,2.75,12.41,6.63,18.5,10.13C194.18,280.5,193.46,280.1,192.75,279.7Z"/></g></g><g id="レイヤー_7" data-name="レイヤー 7"><path d="M225.22,48.53h0Z"/><path d="M210.53,162.32l-.09-.28Z"/><path d="M360.06,121.62c-1.15-10.26-9.39-26.51-21.71-22a5.31,5.31,0,0,0-1.17-.25c-4.32-4.79-12.43-5-18.55-5.41.54-5.53,4-11.06,1.07-16.52,2-5.62,1.7-13-2.83-17.45-.78-9.77-14.31-9.37-21.53-11.66l.62.13c-19.22-4-39.38-4-58.89-2.66.08,1.13-1.52.85-2.26,1.12-8.21,1.32-16.78,2.6-24.47,5.7.83-.26,3.51-.22,2,1-1.39.35-2.86.4-4.29.61-2.87,2.28-6.14,4.86-6.48,8.8-3.49-.54-6.21,3.15-5.05,6.38l0-.12.15.71-.12-.61a14.41,14.41,0,0,0,.89,2.93,6.25,6.25,0,0,0-.08,3v-.16c1.23,5.79-1.18,11.48-.38,17.35,2.33,11.35,2,23.25,5.32,34.38,3.84,11.48,3.63,24.25,8.33,35.68l-.06-.17c4.5,21.65,23.55,27.33,43.3,27.74,12.3.25,40.88,4.1,48.32-6.91,3.58-.69,7.24-2.2,10.92-1.38l-.61-.13c2.44,1.29,13.48-.56,22.18-5.42,8-4.49,13.85-11.88,14.29-14C359.1,151.34,361.08,136,360.06,121.62Zm-20.61,32c-7,10.71-20.91,12.45-32.65,10.54,0-.1.07-.2.1-.3,0,.1-.07.2-.1.3h0c8.86-16.93,8.24-36.86,13.89-54.88,11-4.47,16.75,3.92,23.29,11.36,1.29,4.73.93,11.28,2.65,15.93-.52,2.31-1.08,4.62-1.51,7-2.13,2.49-3.17,5.68-4.74,8.53l.27-.55C340.28,152.23,339.86,152.93,339.45,153.63Zm-127-85.8c31-14.29,66.7-8.31,98.35-.34a3.84,3.84,0,0,1,.53,1.51c-18.65,4.16-37.9,5.26-56.91,5.79-10.15-.13-22.9,1.65-33.61-.19-5.15-.88-9.8-1.76-13.51-5.68A14.7,14.7,0,0,0,212.46,67.83Z"/></g><g id="レイヤー_6" data-name="レイヤー 6"><path class="cls-2" d="M273.26,73.87c3.55-.11,15.13-3.3,17.81-3.53l-.37,0c6.43,1.58,11.73-.7,12.54-3.34s-2.81-5.6-7.69-5.87c-4.77-4.17-21.1-2.59-28-3.15-15.71.6-32-.35-47.16,4.3-2.55.44-5.82,2.68-5.84,4.91,0,1.56,2.44,3.12,4.07,4.05,12.58,1.89,25.85,1,38.67,1.85l-.4,0A133.4,133.4,0,0,0,273.26,73.87Z"/></g><g id="レイヤー_4" data-name="レイヤー 4"><g class="cls-3"><path class="cls-4" d="M276.6,64.24c8,.89,15.49,4.91,23.29,6.08,3.05,1.48,6.06-1.23,3.92-3.87-4.71-1-9-3-13.83-4.17,0,0-12.16-1.19-24.25-1.51-13-.35-26.06.19-30.13.95-11,2-20.15,4.66-23.68,5.11-1,.12-.62,6.26,2.88,4.5,7.43-3.15,15.31-5.12,23.17-6.91A130.93,130.93,0,0,1,276.6,64.24Z"/><path class="cls-4" d="M221.27,62.74Z"/><path class="cls-4" d="M361,125.34c2.46-22-18.81-23-34.73-26.88-.5-1.88-3.43-3.23-5.44-4.15-1-.45-.76-1.55-1.78-1.15-1-5.23,2.94-28.85-3.54-28.39a3.46,3.46,0,0,0-3.38,3.81c-2.54-1.71-6,.2-6.49,3-1.38.09-2.76,0-4.14,0-3.28-.26-10.36-2.15-11.33,2.34-6.73-1.7-13.71-1-20.53-1.9-2.91-1.39-6.75,1-5.33,4.34,10.86,1.59,21.5,3.91,32.38,5.48,11.62,2.24,16,15.82,18.24,26.06a29.12,29.12,0,0,0,1.93-11.68l.23-.09c-.09,1.71,1.28,3.17,2.64,4,1.26,7.88,17.13,6,23.39,9.32,21.18,2.24,7.47,43,2.94,55.67a3.3,3.3,0,0,0,1,1.24c.52-.64,1-1.29,1.53-2h0a47.64,47.64,0,0,0,3.25-5.28.16.16,0,0,0,0,.07l1.07-2v0c1.14-1.22,2.32-6.42,4.07-5.63a2.38,2.38,0,0,1,.47-.53A88.25,88.25,0,0,0,361,125.34Z"/><path class="cls-4" d="M345.49,135c-.33,6.43-3.36,17.3-9.85,22.55-6.66,5.39-27,7.67-27.28,5.87.3-2.14,3.61-13.48,4.22-16.33,3.2-12,4.37-24.57,8.63-36.32a3.49,3.49,0,0,0-1.43-.19c-1.45,2.82-3.42,5.3-5.09,8l.2-.31c-4.63,7.52-9.05,15.45-10.51,24.26.47,7.44-2.23,14.44-2.08,21.78h0c3.71,19.09,27.06,1.73,35.87-4.57C342.42,155.06,350.38,140.26,345.49,135Z"/></g></g><g id="レイヤー_5" data-name="レイヤー 5"><path class="cls-4" d="M351.9,107.65l.11.07,0,0c.64.45,1.25.93,1.85,1.44l-.07-.06c.88,1.47,3.85,2.26,2.72-.28a25.76,25.76,0,0,0-2.86-2.46c.73-3.87-14-12.71-18.17-11.63-1.12-1.26-5.73-1.12-6.75,0-1.31-.21-3.78-1.56-4.46.14-.78-.34-2-.09-2,.92.07,1.69,3,.55,2.9,2.5-2.72,5.89,8.41,3.2,11.48,6.72,5,2.53,10.86-1.4,15.3,2.69ZM326.81,100a1.09,1.09,0,0,1,.05-.17,1.82,1.82,0,0,0,.15.23A.66.66,0,0,1,326.81,100Z"/><path class="cls-4" d="M356.73,135a1.07,1.07,0,0,0,0,2.13A1.07,1.07,0,0,0,356.73,135Z"/><path class="cls-4" d="M355.39,139.14a1,1,0,0,0,0,2.06A1,1,0,0,0,355.39,139.14Z"/><path class="cls-4" d="M354.47,142.54a1,1,0,0,0-1,.93,73.3,73.3,0,0,1-3.35,13.15,1,1,0,0,0,.89,1.55c1.4-.19,1.46-2.2,1.93-3.28C353.12,152.18,357.14,143.79,354.47,142.54Z"/><path class="cls-4" d="M318.56,84.46h0Z"/><path class="cls-4" d="M322.58,85.82c.4-4.77.32-9.57.26-14.36.42-2.62,1-5.6.13-8.15,2.5-4.16-2.52-8.56-6.51-8.92-7.52-5.68-17.32-6.31-26.2-8.61-13.83-3.32-28-1.15-42-.53h-.06c-13.47.73-27.06,2.47-39.25,8.48-2-.57-4.31,1.4-5.5,2.91-.85-.43-1.49.46-1.91,1.08-1.84,0-2.67,2.37-2.77,3.91-1.28.4-.76,1.95.37,2.13,1.47,2.25,4,3.63,6.37,4.69,1.55,2.06,4.67,2.56,7,3.27a10.86,10.86,0,0,0,3.38,1.46c1.34.82,5.2,2.5,6.38,1.21.68.06,1.44.36,2.09,0,4,.21,12.6,3.43,15.42.75,1.32-.14,2.88.78,4.05.07,5.64.22,11.63,1,17.14,0h3.59c4.06.75,8.73-.63,13-.45,2-.45,5,.57,6.39-1,5.56-.87,12.76.8,17.53-1.76a1.24,1.24,0,0,0,1.19-.78c3.93-.91,9.29-1,12.29-3.49a4.37,4.37,0,0,1,2.52-.53,1,1,0,0,0,.52,1.27c1.84,8.66-.4,17.92.32,26.47,1.07,1.14,2.8-.76,1.78-1.79l.12-1.09c2.43.51,1.16-3.31,1.63-4.69C322.5,87.16,322.57,86.41,322.58,85.82ZM318.83,60c-1.69,1.42-3.22,3.47-5,5-5.89,2.08-12.29,2.65-18.19,4.29-15,3.69-30.93,1.56-45.87,3.34H246.4a1,1,0,0,0-.86-.46h0c-4.81.35-10.65-2.09-15-.51-4.65.75-9-2-13.58-1.88-3.24-.23-6.27-3.27-9.4-2.91-1.7-.8-2.49-2.56-3.7-3.9.74-.26.7-1.06.61-1.71,5.76-9.24,19.33-8.09,29.06-11h-.07a91.15,91.15,0,0,1,10.77-1.74h0c21-2.53,42.45-2.8,62.82,3.65h0l.13,0-.08,0a23.19,23.19,0,0,1,7.15,3.71l-.11-.08c1.27,1,2.79,1.63,3.81,2.89h0a6.22,6.22,0,0,1,.84,1.29Zm.91,4.5h0l.19-.17v.2A1,1,0,0,0,319.74,64.5Zm1.06,15.55s0,0-.06.06c0-.51,0-1,0-1.51l.07.06C320.81,79.13,320.81,79.59,320.8,80.05Z"/><path d="M280.89,259.44c-.13-.26-.28-.52-.43-.78.63-1.21-6.11-9.69-7.39-10.77-.17-.28-.34-.56-.52-.83-.13-2.3-2.13-4.07-2.83-6.22-.6-1.58-.2-3.57-1.38-4.89-.67-4.59-.8-10.23-3.57-14-2.44-5.79-5.77-14.17-11.15-17.3-1.6-1.88-3.69-3.24-5.46-4.94l0,0-.35-.31h0c-1.62-1.29-3.17-3.07-5.25-3.54-4.68-3.16-9.75-8.08-15.72-7.76a42.18,42.18,0,0,0-8.86-2c-13.43-3.37-28.8,1.62-40.38,9.12-.49-2-1.37-5.51-4-4.89-3.42-3.45-8.41-5-12.8-6.86-.23-2.13-3.18-2.6-4.77-3.54-.29.26-1,.24-1-.24H155c.09,1.3-1.84.25-.69-.38-1.93-11.42-5.5-25.09-14.52-32.52-13.08-10.74-33.53-9.55-47.31-.78a45,45,0,0,0-8.5,5.2c-1.8.65-5,1.53-5.16,3.81a2.26,2.26,0,0,0-.33,3.26c-1.3,2.13-4.15,4.55-3.38,7.23-1,1.66-3.55,3.4-2.54,5.51-2,4.17-2.67,8.8-3.94,13.22-5.07-.31-9.53,4.62-3.92,7.36.37.51,1.31-.07,1.9.13-1.11,7.14,1.08,14.45,5.24,20.43,2.63,5.75,10,9.61,15.7,12.24a2,2,0,0,0,1.25,1.12l-.1,0,.24.08h0a31.36,31.36,0,0,0,16.54.16h-.05c8.85-2.21,30.15-4.89,33.81-13.85,4.21-3,8.47-7.07,10.65-11.74a2.22,2.22,0,0,0,.52-.34c5.68,2.77,13.26,5.23,16.48,10.8-4.12,8.1-5,17.59-5.77,26.56a2.46,2.46,0,0,0,0-.26c-.1,1.45-.26,2.9-.3,4.37-1.52,12.14,2.21,27.27,11.16,36.2,2.37,3.54,5.74,7.28,9.81,8.65,4,2.78,9.27,9.07,14.4,7.1,7.74,2.55,25,5.37,31.67,1a9.86,9.86,0,0,0,7.9-3.06C238,297,238,308.59,246.26,308.65c2,0,3.85-.49,4-1.69.24-2-2.36-5.36-3-7.08-1.28-2.73-1.11-6.54-3.21-8.7-.22-1.26-.85-2.5-.83-3.76,5.08-5.3,10.54-10.1,14.54-16.37,3.88-2.37,6.76-7.25,9.08-11.22,2.52,1.29,5.41,1.71,7.68,3.46.34,2.13,2.55,6.52,5,4C283.19,266.89,282.36,261.74,280.89,259.44ZM73.46,183c.47-2.63,1.38-5.3,1.57-7.93,1.08-5.52,6.22-7.41,7.65-12.49a320.86,320.86,0,0,1,38.91,18.89,1.87,1.87,0,0,0-.13,1.64c-3.06-.19-6.13-.31-9.19-.47h0c-1.06-.08-2.38-.34-3.11.62-11.94.45-23.88.62-35.75,2.13A2,2,0,0,0,73,185C73.13,184.37,73.29,183.7,73.46,183Zm66.67,13c-1.41.89-1.19,2.89-2,4.21-3.56,1.12-5.37,5.68-8.24,8.07-2.83,4-7.33,6.12-10.94,9.07-4.11,1.94-9.45,1.81-13,4.4-7.86,2.53-16.14.42-23-3.89-8.08-6.08-14-15.32-11.78-26,14.58-1.3,29.14-2.1,43.77-2.68h-.06c9.54-1.5,19.13,0,26.74,6.3a2.44,2.44,0,0,0,0,.38A2,2,0,0,0,140.13,196Zm6-11.1c-.59,1.77-1.05,3.72-2.25,5.18-9.18-5.1-18-11.8-27.47-16-10-5.19-18.87-12-29.31-16.2-.09-.14,1.42-3,2-4.81,4.21-2.89,8.27-6.35,13.27-7.76-.93-1.38,3.64-1.9,4.28-1.32.58,0,1.31-.66,1.76-.13,14.72-3.24,31.83,1.9,35.71,17.84.19,1.24,3.18,6.23,1.22,6.23a29.74,29.74,0,0,1,1.09,5.22,51.66,51.66,0,0,1,.67,9.7A4.47,4.47,0,0,0,146.08,184.89Zm4.41,9.33c1.69-1.33,4.36-1.87,5.11-4.14,2.81.28,4.53,1.63,6.86,3.07,2.58,1.58,5.72,3.36,7.59,5.78a10.86,10.86,0,0,1-.6,5.88,30.33,30.33,0,0,0-5.72-4.08C158.35,197.77,150.7,194.48,150.49,194.22ZM234.2,285.7a8.71,8.71,0,0,0-3.2,2.44c-1.5-1.13-3,.53-4.42.9-6.27,2.65-13.14,2.76-19.79,1.87-5-1-10-2.74-14.85-3.75-4.6-1.47-7.56-6.42-11.87-7.74-2-1.63-3.2-4.78-5.77-5.37-3.15-4.09-5.07-8.88-7.51-13.29-.35-1.41-.83-2.77-1.21-4.17,1.41-1.74-.06-4.23-.08-6.25-1.2-6.28-.66-12.67.48-18.91,1.37-6.44,6.33-12,6.67-18.61,13.41,6.49,27.09,13.32,39.12,22.08a64,64,0,0,1,13.58,17.35c4.76,9.69,4.42,21.93,9.07,31.15A8.06,8.06,0,0,0,234.2,285.7Zm23.44-25.88a54.71,54.71,0,0,1-2.56,5.62l0-.07a2.4,2.4,0,0,1-.11.23l0,0c-1.4,2.54-2.46,5.36-4.56,7.41-3.48,2.39-6,6.45-8.89,9.65-1.59-4.37-4.49-8.22-5.5-12.8-.06-1.28-.69-2.76-2.22-2.59-1.84-5.24-4.57-25.86-9.62-26.6-.76-.85,21.56,10.47,34,17.28C258,258.56,257.85,259.19,257.64,259.82Zm6.61-23.11c-1.54,5-.31,10.74-2.74,15.64a2.89,2.89,0,0,0-1.42,1.24c-28.19-15.54-56.85-29.5-84.74-45.66.39-.77.07-1.09.41-1.87,9.86-8.39,22.85-15.13,36.35-15.57,5.07-.16,10.75.09,15.58,2.18,15.9,6.24,24.78,15.9,32.67,30.67,1.64,4.25,2.35,9,4,13.26Zm8.82,19.59a1.49,1.49,0,0,0,0-.21,3.78,3.78,0,0,1,.27.53Z"/><path d="M183.85,281.72l.05,0Z"/></g><g id="レイヤー_3" data-name="レイヤー 3"><polygon points="162.86 198.37 162.86 198.37 162.86 198.38 162.86 198.37"/><path d="M169.45,204.81a1,1,0,0,0,.8-.4,15,15,0,0,0,.72-3.3,4.56,4.56,0,0,0-.2-2.29,4.74,4.74,0,0,0-.66-1,7,7,0,0,0-.72-.82,15,15,0,0,0-2.23-1.66l-.54-.29a7.59,7.59,0,0,1-.66-.39l-1-.65c-.75-.48-1.52-.94-2.28-1.4l-1.26-.75a11.62,11.62,0,0,0-1.28-.62c-.78-.33-1.53-.7-2.34-1a5.57,5.57,0,0,0-1.21-.27,3.65,3.65,0,0,0-.74,0,2.73,2.73,0,0,0-.87.3c-.36.19-2.11.85-2.62,1h0c-.42.15-.85.23-1.28.35a1.86,1.86,0,0,0-.76.43,1.4,1.4,0,0,0-.37,1.32,2.19,2.19,0,0,0,1.1,1.2,16.75,16.75,0,0,0,1.61.88l1.08.58c.44.22.86.48,1.28.73.86.5,1.73,1,2.63,1.42l.65.32,0,0c.25.12.5.25.75.36s.79.35,1.19.52.77.32,1.14.5l.28.14h0l0,0,.07,0,0,0,.46.23c.46.23.91.5,1.36.74s.76.42,1.13.64c.72.43,1.43.85,2.12,1.31s1.26,1.07,1.94,1.54A1.09,1.09,0,0,0,169.45,204.81Zm-16.52-11.49.12.07-.14-.07Zm13.67,7.13c-1.22-.74-2.46-1.44-3.74-2.08h0l-.1-.05h0l-.23-.12h0l-.84-.41-.85-.35c-.53-.22-1-.45-1.56-.71l.11.06-.16-.08-.14-.07-1-.48.07,0-.08,0,0,0h0c-.39-.2-.76-.42-1.14-.63s-.9-.5-1.33-.76-.81-.45-1.22-.66-.79-.43-1.19-.63l0,0-.18-.09c.37.14,1.73-.62,1.94-.75s.63-.38.95-.55l.11,0h.19l.4.05c.28.07.55.16.81.25.44.15.86.36,1.28.55s.86.36,1.27.56c.57.3,1.12.64,1.67,1s1.12.68,1.67,1,1,.63,1.49.94,1.15.64,1.7,1,.93.68,1.36,1.05l.27.26c.22.27.43.54.63.82l.06.1,0,.09s0,0,0,.06,0,.06,0,.1a8.62,8.62,0,0,1,0,.88v0c0,.24-.05.48-.09.71s-.08.26-.11.39l-.37-.3A20.34,20.34,0,0,0,166.6,200.45Z"/><path d="M206.6,186.57Z"/><path d="M223.34,190.63l-1.58-.26c-.49-.07-1-.1-1.5-.13a5.06,5.06,0,0,0-.68-.05h-.17l-.87-.06c-.53,0-1.06-.06-1.59-.06-1,0-2,0-3,0s-2,.06-3,.1-2.1.08-3.15.13c-.81,0-1.61.1-2.41.16s-1.63.08-2.44.14-1.76.16-2.64.3a30.13,30.13,0,0,0-4.9,1.42l.13,0c-.85.29-1.7.57-2.55.83-1,.32-2,.62-3,1a17.28,17.28,0,0,0-5.24,3.22,18.77,18.77,0,0,0-1.44,1.38c-.48.49-.95,1-1.46,1.46l-1.23,1-1.31,1.16c-.4.35-.82.69-1.24,1s-1,.89-1.51,1.35a14.9,14.9,0,0,0-1.24,1.27,3.18,3.18,0,0,0-.54.81,1.53,1.53,0,0,0-.13.59h0a1,1,0,0,0,0,.48c.12.44,1.21,1,1.4,1l.2.09c.65.34,1.29.71,1.93,1.08s1.13.63,1.69,1,1.1.68,1.64,1,1.09.69,1.62,1.05h0l.08.06,0,0c.86.58,1.72,1.16,2.6,1.71s1.73,1.11,2.61,1.64c1.78,1.09,3.62,2.07,5.47,3s3.64,2,5.5,3c.93.49,1.88,1,2.8,1.46s1.89,1,2.83,1.52c1.82,1,3.61,2,5.43,3s3.77,2,5.65,3l2.76,1.51c.95.5,1.89,1,2.83,1.51s1.86,1.06,2.81,1.56,1.81.94,2.72,1.4,1.92,1,2.86,1.47,1.91,1,2.88,1.53c1.88,1,3.79,1.92,5.66,2.93.93.5,1.86,1,2.77,1.55s1.83,1.06,2.76,1.55c1.81,1,3.63,1.91,5.43,2.88.92.49,1.84,1,2.75,1.47s1.67.94,2.52,1.4l2.52,1.36a5.28,5.28,0,0,0,1.87.69h.12a3.47,3.47,0,0,0,1.52-.2,2.3,2.3,0,0,0,.86-1,18.45,18.45,0,0,0,1.54-2.7c.22-.51.44-1,.61-1.54s.26-1,.37-1.53a17.26,17.26,0,0,0,.38-3.2c0-1,0-2,0-2.94s0-1.82-.14-2.74-.27-1.71-.38-2.57c-.23-1.72-.44-3.43-.78-5.13-.16-.81-.3-1.62-.52-2.41s-.53-1.73-.83-2.58v0l0-.11h0c-.3-.87-.6-1.74-.94-2.6a28.11,28.11,0,0,0-1.18-2.56c-.46-.89-.92-1.79-1.4-2.68s-.91-1.68-1.38-2.51-.93-1.72-1.44-2.56-1.07-1.71-1.62-2.56a24.69,24.69,0,0,0-1.9-2.54,26.26,26.26,0,0,0-2.09-2.13c-.79-.73-1.6-1.44-2.44-2.12s-1.5-1.13-2.25-1.7-1.57-1.22-2.36-1.81-1.63-1.19-2.46-1.76-1.79-1.19-2.72-1.74-1.85-1-2.8-1.51-1.84-1-2.77-1.42-1.79-.89-2.7-1.27a26.64,26.64,0,0,0-3.13-1C225.4,191,224.37,190.81,223.34,190.63Zm6.56,4.09,1.83.89h0l.09,0,0,0c.6.31,1.19.63,1.79.93s1.21.6,1.81.92c1.22.66,2.41,1.39,3.56,2.16,1.51,1,3,2.11,4.43,3.23.7.55,1.42,1.09,2.14,1.62s1.45,1.15,2.15,1.77a31.19,31.19,0,0,1,2.68,2.59,21.2,21.2,0,0,1,1.56,2c1.11,1.65,2.15,3.34,3.1,5.08.45.84.93,1.66,1.37,2.49l.75,1.37c.23.44.45.89.67,1.33l.44.85h0l.06.12s0-.05,0-.08c.3.61.58,1.22.84,1.85s.5,1.33.73,2l.54,1.55a23.1,23.1,0,0,1,.72,2.59c.15.74.3,1.49.44,2.24s.24,1.57.35,2.37.21,1.7.35,2.55.25,1.61.32,2.43v0c.05.85.05,1.7.06,2.55s0,1.89-.05,2.83a17.23,17.23,0,0,1-.28,1.91c-.12.55-.24,1.09-.41,1.62s-1,3.52-1.64,3.9c-.46.28-1.52-.37-1.6-.41-.83-.43-1.65-.89-2.48-1.33s-1.75-1-2.62-1.46c-1.84-1-3.71-2-5.57-3s-3.72-1.94-5.52-3-3.71-2.05-5.6-3L234,238.76c-1-.49-1.92-1-2.88-1.53-1.84-1-3.73-1.89-5.58-2.87-1-.51-1.88-1-2.81-1.56s-1.88-1-2.83-1.51c-1.86-1-3.69-2-5.56-3s-3.67-2-5.49-3-3.74-2.06-5.62-3.08c-.92-.49-1.86-1-2.8-1.44s-1.89-1-2.83-1.54c-1.78-1-3.6-1.95-5.4-2.94-1.2-.65-2.37-1.34-3.52-2.07s-2.31-1.44-3.45-2.19h0l-.1-.07.05,0c-.75-.51-1.49-1-2.25-1.49s-1.35-.87-2-1.28L178.67,208l-1.26-.7-.31-.16a23.69,23.69,0,0,1,1.78-1.69c.47-.41,1-.79,1.43-1.19s.94-.83,1.4-1.25l0,0,0,0,.07-.05,0,0c.72-.62,1.48-1.2,2.14-1.88s1.23-1.32,1.89-1.92a23.08,23.08,0,0,1,2.08-1.61h0l.08-.06-.05,0c.53-.34,1.07-.66,1.63-1a15.33,15.33,0,0,1,1.45-.61l-.06,0,.09,0,0,0h0c1.06-.35,2.13-.66,3.19-1s2-.67,3-1a23.59,23.59,0,0,1,2.84-.82,26.41,26.41,0,0,1,3.2-.41l1.87-.1,2-.15c1-.05,1.93-.08,2.89-.11l2.87-.13c.93,0,1.87,0,2.81,0s1.88,0,2.83.06l1,.07h.2l.56,0A38.55,38.55,0,0,1,225,193l-.14,0a29.43,29.43,0,0,1,3,.87A20.44,20.44,0,0,1,229.9,194.72Z"/><path d="M234.51,246.28l0,0-.07,0Z"/><path d="M258.33,257.34c-1-.68-2.13-1.13-3.14-1.77-.54-.39-1.05-.82-1.61-1.2s-1.25-.7-1.87-1-1.29-.72-1.93-1.09-1.35-.73-2-1.07h0L246,250.3l0,0h0l-.08,0,.05,0c-.88-.45-1.75-.91-2.6-1.42s-1.63-1-2.46-1.48c-1.75-1-3.56-2-5.38-2.9l0,0-.15-.08h0c-.91-.46-1.81-.94-2.73-1.39s-1.82-.89-2.75-1.31l-1.41-.61-1.46-.68a45.88,45.88,0,0,0-5.05-1.92l-.38-.18h0l-.05,0-.07,0,0,0A22,22,0,0,1,219.3,237a26.87,26.87,0,0,0-2.48-1.6c-.92-.49-1.84-1-2.74-1.49s-1.79-1-2.68-1.55-1.78-1.09-2.67-1.63c-1.16-.7-2.36-1.33-3.54-2s-2.38-1.23-3.57-1.82c-1.9-1-3.69-2.1-5.53-3.16-.89-.51-1.8-1-2.72-1.45s-2-.94-2.92-1.41l-.71-.35h0l0,0-.07,0,0,0-2.56-1.3h0c-.77-.39-1.52-.8-2.27-1.23s-1.5-.86-2.27-1.26-1.55-.81-2.34-1.19-1.63-.75-2.44-1.15h0l-1.27-.64-.71-.36h0l-.1,0-.1-.06A6.14,6.14,0,0,0,175,213a6,6,0,0,0-2.56-.7h-.09a1,1,0,0,0-1,1,5.69,5.69,0,0,0,.16,1c.07.17.13.34.19.52,0-.05,0-.09-.05-.13.09.26.17.52.24.79a.77.77,0,0,1,0,.15,9.2,9.2,0,0,1,0,1.05c0,.22,0,.44-.08.66s-.16.51-.24.76-.14.36-.22.53a7.92,7.92,0,0,1-.42.69c-.12.17-.23.34-.35.5l-.11.16a6.57,6.57,0,0,0-.4.62c-.19.3-.37.6-.54.91s-.43.82-.64,1.23l-.73,1.38c-.24.45-.48.9-.71,1.36s-.41.93-.59,1.4c-.25.66-.49,1.32-.71,2a34.82,34.82,0,0,0-1.35,4.24,29.06,29.06,0,0,0-.41,2.95c-.11,1-.24,2-.32,3s-.14,1.76-.14,2.65,0,1.82.06,2.72a24.36,24.36,0,0,0,.28,3.31l0-.13c.11.56.17,1.13.23,1.69.1.85.23,1.7.37,2.55.08.51.13,1,.21,1.54s.14.84.22,1.26c0,.19.06.39.11.58s0,.15,0,.22c.05.24.1.47.16.71.1.45.22.9.33,1.36.18.75.34,1.51.58,2.24.11.36.22.72.35,1.08s.32.82.49,1.23c.33.83.58,1.69.94,2.5a29.9,29.9,0,0,0,1.43,2.75c.49.87,1,1.73,1.55,2.57a50.91,50.91,0,0,0,3.23,4.71c.63.78,1.33,1.52,2,2.25s1.45,1.49,2.24,2.18,1.6,1.34,2.41,2,1.64,1.25,2.47,1.87,1.59,1.16,2.39,1.73l.56.38.16.11a7.23,7.23,0,0,0,.61.41l1.27.79a20.19,20.19,0,0,0,2.55,1.27c.87.37,1.76.7,2.64,1l2.74,1a30.72,30.72,0,0,0,3,1,19,19,0,0,0,3.18.53c1,.08,1.94.16,2.91.22s2.12.16,3.19.22,2,.09,3.07.11h.83c.74,0,1.47,0,2.21,0,1,0,2-.07,3-.14l1-.07,1.27-.11c.44,0,.88-.05,1.32-.1a12.29,12.29,0,0,0,1.47-.28l1.46-.34a27.64,27.64,0,0,0,2.83-.8c.94-.33,1.89-.68,2.81-1.08.62-.26,1.22-.55,1.82-.86a8.8,8.8,0,0,0,1.61-1,6.81,6.81,0,0,0,1.22-1.1,1.87,1.87,0,0,0,.34-1,3,3,0,0,0-.13-.74c-.09-.39-.18-.78-.28-1.17-.2-.81-.38-1.61-.55-2.43l0,.14c-.36-1.81-.71-3.61-1.23-5.38s-.94-3.54-1.3-5.33c-.21-1-.41-2-.64-3s-.51-2-.8-3l-.94-3c-.3-1-.61-2-1-3s-.76-1.85-1.09-2.79-.68-2-1.1-2.91a43.5,43.5,0,0,0-2.86-5.4c-.51-.82-1.06-1.61-1.56-2.43a18.73,18.73,0,0,0-1.87-2.57,24,24,0,0,0-2-2c-.77-.69-1.55-1.39-2.37-2-1.11-.89-2.27-1.72-3.36-2.65l-.1-.1,1.56.9c.66.38,1.34.74,2,1.09a17.3,17.3,0,0,1,1.72,1l0,0,.05,0,.06,0,0,0c.46.32.91.65,1.39.95s.88.52,1.34.75.91.47,1.37.69.67.29,1,.46l.28.14.22.13a10.46,10.46,0,0,1,.84.65,10.12,10.12,0,0,1,.85.88,30.34,30.34,0,0,1,2.15,2.65,11.71,11.71,0,0,1,.73,1.23l0-.05,0,.06,0,.06,0-.05a28.58,28.58,0,0,1,1.21,3l0-.05,0,.11v0h0c.15.43.31.87.43,1.31l.18.77c.06.28.14.55.21.83.09.47.18.93.28,1.4.17.86.39,1.72.61,2.57s.59,1.9.81,2.86c.11.47.22.94.37,1.4s.35,1.09.55,1.63.37.92.56,1.38.36.94.55,1.41.4,1,.57,1.51c.23.66.46,1.32.68,2,.11.34.2.7.32,1s.31.87.48,1.29c.3.76.61,1.52,1,2.25s.77,1.51,1.15,2.27l0-.07c.48,1,.93,2,1.37,2.94s.86,1.72,1.22,2.61c.14.34,1,1.47,1.52,1.47a7.57,7.57,0,0,0,2.15-1.36c.41-.37.81-.74,1.19-1.13.69-.71,1.34-1.47,2-2.19,1.37-1.42,2.74-2.86,4-4.41.61-.76,1.24-1.51,1.8-2.32s1.19-1.84,1.75-2.79,1-1.79,1.48-2.69,1-1.73,1.46-2.6l1-1.75c.35-.64.77-1.25,1.11-1.9C259.61,258.92,258.52,257.48,258.33,257.34Zm-45.81-19.12c.6.46,1.21.91,1.8,1.39s1.19,1,1.78,1.53a24.83,24.83,0,0,1,2.11,2.12,18.61,18.61,0,0,1,1.15,1.5c.32.5.62,1,.95,1.51s.69,1,1,1.54c.67,1.07,1.29,2.15,1.86,3.27l0,0,0,.05h0c.33.65.65,1.31.94,2s.59,1.45.85,2.18.51,1.45.8,2.16.57,1.42.83,2.15.48,1.5.71,2.26.5,1.6.74,2.4.48,1.58.68,2.39.37,1.53.53,2.31c.35,1.74.72,3.48,1.14,5.21.21.84.47,1.67.7,2.5s.42,1.69.6,2.54.95,4.05.95,4.65a4.94,4.94,0,0,1-.25,1.21.71.71,0,0,0,0,.14l-.21.2c-.13.11-.25.21-.38.3-.45.29-.93.54-1.4.78a35.74,35.74,0,0,1-3.92,1.59c-.79.27-1.6.49-2.41.68s-1.59.38-2.39.55a12.93,12.93,0,0,1-1.38.15l-1.37.11-1.51.11a74.32,74.32,0,0,1-9.2,0h-.08l-2.95-.21h0A36.09,36.09,0,0,1,201,289a24.49,24.49,0,0,1-2.54-.71c-1.32-.47-2.62-1-3.93-1.47a38.33,38.33,0,0,1-3.7-1.52,26.51,26.51,0,0,1-2.8-1.67l-.05,0h0c-.8-.54-1.57-1.1-2.34-1.66s-1.67-1.21-2.48-1.84-1.67-1.33-2.49-2l-.7-.6a41,41,0,0,1-3.13-3.19l0,0,0,0-.05,0,0,0a30.82,30.82,0,0,1-2.16-2.81c-.7-1-1.37-2.1-2-3.17-.76-1.23-1.48-2.49-2.14-3.78a23.28,23.28,0,0,1-.9-2.27c-.28-.76-.61-1.5-.88-2.26s-.42-1.41-.59-2.12c-.24-1-.49-1.94-.7-2.92a.2.2,0,0,0,0-.07c-.18-.88-.31-1.76-.42-2.65s-.27-1.75-.39-2.63c-.09-.65-.15-1.29-.25-1.93,0-.13-.05-.26-.07-.39a.68.68,0,0,1,0,.14,8.46,8.46,0,0,1-.11-.88v-.05a48.92,48.92,0,0,1-.13-5.93c.07-1.07.18-2.15.3-3.22s.23-2.41.47-3.59l0-.18,0,.13c.16-.72.37-1.44.6-2.14h0v0l0-.11s0,.06,0,.08l.85-2.4a25.55,25.55,0,0,1,1.11-2.78c.47-.92,1-1.82,1.45-2.74a22.18,22.18,0,0,1,1.3-2.27,12.35,12.35,0,0,0,1.22-2,8.52,8.52,0,0,0,.44-1.32,9.56,9.56,0,0,0,.17-1.93,4.23,4.23,0,0,0-.1-1.06,2.29,2.29,0,0,1-.08-.28l.18.08.54.26.1.05.16.08.14.07.12.06c.76.38,1.52.78,2.28,1.15s1.58.72,2.35,1.1l-.07,0c1.15.58,2.3,1.16,3.42,1.8s2.34,1.32,3.55,1.92h0c1,.49,1.92,1,2.89,1.46s2,.93,2.94,1.42,1.69.87,2.52,1.34,1.76,1,2.64,1.54,1.76,1,2.68,1.52c.67.36,3.93,2.85,4.3,3.1.83.57,1.63,1.16,2.41,1.79.4.32.79.66,1.19,1l1.2,1c.5.45,1,.93,1.47,1.37S211.93,237.75,212.52,238.22ZM256.06,261c-.51.91-1,1.81-1.52,2.72-1,1.79-1.95,3.63-3.06,5.37l-.3.46c-.5.73-1,1.41-1.58,2.09s-1.08,1.35-1.64,2l0,0-.05.06,0,0,0,0c-.59.67-1.2,1.34-1.82,2s-1.25,1.3-1.86,2-1.29,1.37-2,2l-.53.48c-.21-.48-.44-.95-.67-1.42s-.54-1.17-.8-1.75c-.61-1.34-1.28-2.64-1.93-3.95a36.67,36.67,0,0,1-1.53-3.6c-.21-.63-.4-1.27-.61-1.9s-.46-1.4-.73-2.09-.54-1.44-.83-2.15-.55-1.31-.79-2v0c-.21-.63-.42-1.26-.58-1.9s-.3-1.24-.49-1.85-.36-1.24-.53-1.87-.28-1-.39-1.57c-.07-.36-.15-.72-.22-1.09s-.2-1-.33-1.52-.22-1-.38-1.47c-.31-.92-.62-1.83-1-2.73a13.75,13.75,0,0,0-2.67-4.46l.16.08c.85.39,1.73.74,2.58,1.15l2.57,1.24c.63.32,1.24.66,1.87,1l.19.1h0c1.86.94,3.71,1.9,5.5,3l2.66,1.61c.94.55,1.91,1,2.89,1.52l1.07.53.17.09h0c1,.49,1.94,1,2.89,1.58l1.45.8a13.82,13.82,0,0,1,1.35.77c.36.25.7.53,1.06.8a8.37,8.37,0,0,0,1.2.76c.76.41,1.54.79,2.27,1.26h0l.06,0-.43.7C256.51,260.15,256.29,260.57,256.06,261Z"/><path d="M168,210.11h0l.1-.09a1,1,0,0,1-.24.17h0Z"/><polygon points="117.85 224.14 117.84 224.14 117.84 224.14 117.85 224.14"/><path d="M98.55,223.65h0Z"/><path d="M122.56,216l0,0-.06.05Z"/><path d="M73,185.91c.31,0,.63,0,1,0h.84c.73,0,1.46,0,2.18,0,1.59-.08,3.15-.31,4.73-.43,2-.12,4.09-.2,6.13-.26s4.15-.12,6.22-.15,4.09-.12,6.14-.19,4.13-.25,6.2-.47c1.81-.2,3.63-.34,5.45-.46,1.15-.07,2.31-.1,3.46-.12s2,0,3,0c.39,0,4.18-.22,4.37-.55a1,1,0,0,0-.37-1.41c-.83-.47-1.66-.95-2.49-1.45s-1.62-1-2.42-1.55-1.63-1.08-2.48-1.57-1.84-1.06-2.77-1.58-1.83-.94-2.75-1.4-1.82-1-2.74-1.43-2-1-3-1.52c-1.93-1-3.89-2-5.84-3-.93-.48-1.84-1-2.76-1.48s-1.88-1-2.82-1.46a34.43,34.43,0,0,0-5.86-2.34,12.67,12.67,0,0,0-2.52-.52,6,6,0,0,0-1.2,0,1.24,1.24,0,0,0-.87.52,4.43,4.43,0,0,0-.52.55,14.42,14.42,0,0,0-.89,1.17c-.53.75-1.06,1.5-1.58,2.26s-1.17,1.75-1.73,2.65-1,1.69-1.47,2.55A35.38,35.38,0,0,0,74,175.56c-.47,1.12-.86,2.26-1.26,3.41,0-.05,0-.09.05-.13a25.61,25.61,0,0,0-.89,2.82c-.1.45-.19.91-.26,1.36,0,.3-.07.61-.1.91a2.26,2.26,0,0,0,.2,1.32A1.69,1.69,0,0,0,73,185.91Zm.82-3.33a18.06,18.06,0,0,1,.6-2.15c.17-.51.35-1,.52-1.51a34.69,34.69,0,0,1,1.53-3.75A59.22,59.22,0,0,1,80.06,169c.46-.68.92-1.35,1.39-2s.89-1.32,1.4-1.92a3.43,3.43,0,0,1,.33-.33l.06-.06h.52a7,7,0,0,1,.8.13,25.63,25.63,0,0,1,2.56.72,39.64,39.64,0,0,1,4.54,2c.92.47,1.85.94,2.76,1.43s1.84,1,2.77,1.48l2.9,1.47,3,1.57c1.21.63,2.44,1.23,3.65,1.87s2.32,1.18,3.49,1.77c.93.47,1.82,1,2.73,1.53s1.74,1,2.57,1.54,1.65,1.11,2.49,1.64l.06,0c-.36,0-.71,0-1.06,0q-1.38,0-2.76,0c-2.12.05-4.23.21-6.34.4-1.9.17-3.79.39-5.69.53h-.07c-1,.06-2,.09-3,.12s-2,.09-3,.11c-2.08.06-4.16.08-6.25.14s-4.21.13-6.32.22c-1.08.05-2.15.11-3.22.21s-1.94.21-2.91.28c-.77,0-1.53.08-2.29.08h-.55l-1,0c0-.12,0-.25,0-.37C73.66,183.19,73.72,182.88,73.78,182.58Z"/><path d="M140.91,193.51l-.37-.15.07,0-.07,0h0c-.68-.35-1.32-.8-2-1.14-.9-.45-1.86-.79-2.8-1.15s-2-.76-3-1.17-1.76-.77-2.65-1.13-2-.76-3-1a15.61,15.61,0,0,0-3-.53,29.8,29.8,0,0,0-3,0l-3.16.1c-.63,0-1.25.06-1.87.1h0c-1.06.07-2.11.11-3.16.13s-2,0-3,0c-2.07,0-4.13.12-6.2.28-1.14.1-2.29.21-3.43.29l-4.55.29h0c-1.69.11-3.38.18-5.07.3l-1.25.09-.39,0-.4,0h0c-.94.06-1.89.12-2.83.23l-2.76.33c-1.86.19-3.73.33-5.57.68-1.29.25-2.56.57-3.83.85-.53.11-1.93.3-2.13.32-.9.11-1,1.1-1.06,1.82a29.75,29.75,0,0,0,.17,5.66c.12,1,.28,2,.47,3s.48,2.2.77,3.29c.13.51.27,1,.43,1.5a.42.42,0,0,0,0,.1v0a8.66,8.66,0,0,0,.7,1.51,14.06,14.06,0,0,0,.9,1.37c.3.4.65.77,1,1.14.66.73,1.36,1.41,2.07,2.09,1.42,1.36,2.87,2.7,4.29,4.05a27.83,27.83,0,0,0,2.46,2.15,41.84,41.84,0,0,0,4.51,2.87c.78.27,1.59.47,2.37.73.63.22,1.25.43,1.89.61a14.82,14.82,0,0,0,2.1.46,15.86,15.86,0,0,0,2.07.12c.66,0,1.32,0,2-.07a34.87,34.87,0,0,0,4.75-.79c1-.19,1.95-.3,2.92-.49l1.56-.29c.5-.09,1-.18,1.47-.3.82-.21,1.63-.48,2.44-.73s1.94-.52,2.87-.88c.65-.25,1.28-.55,1.91-.84s1.4-.7,2.1-1.06,1.33-.67,2-1,1.33-.81,2-1.25,1.33-.93,2-1.4,1.33-1,2-1.44a24.66,24.66,0,0,0,1.92-1.6c.58-.52,1.14-1.07,1.72-1.58l1.17-1c.36-.33.7-.68,1.05-1,.72-.72,1.4-1.48,2.09-2.23s1.29-1.52,1.93-2.28,1.24-1.45,1.81-2.22c.38-.5.72-1,1.06-1.58s.68-1.05,1-1.57.65-1,1-1.44a2.46,2.46,0,0,0,.43-1.31C141.65,195.08,141.4,193.71,140.91,193.51Zm-1.33,1.78c-.18.33-.39.62-.6.93s-.51.77-.77,1.16c-.47.73-.94,1.46-1.43,2.19s-1.06,1.38-1.63,2.05-1.14,1.4-1.73,2.08a48.51,48.51,0,0,1-3.92,4.06h0l0,0-.06.05,0,0c-.47.41-.93.81-1.39,1.23s-.89.84-1.35,1.25c-.82.71-1.66,1.37-2.55,2s-1.77,1.28-2.67,1.9l.11-.07-.25.17c-.8.53-1.6,1-2.45,1.49l-2.52,1.31.07,0-.08,0,0,0h0c-.45.22-.91.42-1.37.63s-1,.45-1.52.64c-.91.31-1.85.54-2.77.83s-1.67.53-2.53.71l-1.71.32c-.53.1-1.06.2-1.59.28l-1.71.27-1.71.37a24.56,24.56,0,0,1-3,.44h-.08a25,25,0,0,1-2.87,0,11.33,11.33,0,0,1-1.41-.18,22.84,22.84,0,0,1-2.42-.67l.12,0c-.65-.23-1.3-.44-2-.63a7.37,7.37,0,0,1-1.68-.74c-.41-.24-1.1-.73-1.26-.81a11.53,11.53,0,0,1-1.07-.63,24.87,24.87,0,0,1-2-1.54c-.74-.67-1.45-1.36-2.18-2.05l-2-1.85c-1.32-1.22-2.61-2.46-3.81-3.8h0l0,0-.07-.07,0,0c-.2-.24-.39-.47-.57-.72-.28-.42-.54-.84-.78-1.28a6.88,6.88,0,0,1-.32-.74s0-.05,0-.08c-.2-.6-.36-1.22-.53-1.83s-.35-1.33-.49-2a42.58,42.58,0,0,1-.75-5.27,32.32,32.32,0,0,1,0-3.41l.35-.15c.72-.23,1.48-.37,2.22-.54l2.29-.52a55.32,55.32,0,0,1,5.6-.73c.91-.08,1.82-.21,2.73-.31s1.86-.19,2.79-.25a4.9,4.9,0,0,0,.54,0,5.46,5.46,0,0,0,.57,0l.73-.05,1.58-.11h.09l2.81-.15c1-.05,1.93-.12,2.89-.19h0c1.26-.08,2.52-.14,3.77-.24s2.53-.22,3.8-.31c1.88-.12,3.77-.18,5.66-.18,1,0,1.92,0,2.87,0s1.92-.09,2.87-.15c1.24-.08,2.49-.1,3.74-.15s2.33-.08,3.5,0a17.5,17.5,0,0,1,1.77.24,18.49,18.49,0,0,1,2.06.57c.85.3,1.69.63,2.53,1s1.67.74,2.51,1.07l2.63,1c.81.31,1.63.61,2.42,1s1.26.76,1.92,1.09c0,0,0,0,0,.08Z"/><path d="M147.69,169.15c-.12-1-.25-2-.45-3a26.17,26.17,0,0,0-.85-3.12c-.31-1-.67-1.93-1-2.88s-.7-1.76-1.12-2.6c-.22-.43-.46-.84-.69-1.26s-.49-.88-.74-1.31c-.52-.92-1.11-1.81-1.69-2.69a25.4,25.4,0,0,0-1.75-2.37,20.87,20.87,0,0,0-2.25-2.26,17.27,17.27,0,0,0-4-2.8A14.62,14.62,0,0,0,131,144c-.54-.16-2.56-.86-2.83-.95s-.49-.16-.74-.24a11.46,11.46,0,0,0-1.4-.46c-.52-.12-1.06-.22-1.59-.31-1-.15-1.92-.25-2.88-.33s-2.07-.22-3.1-.29-2.22-.08-3.33-.07a53.47,53.47,0,0,0-5.94.31c-1,.12-2,.21-3,.35a14.9,14.9,0,0,0-2.94.74c-.94.33-1.85.74-2.77,1.11A24.33,24.33,0,0,0,97.8,145a22.17,22.17,0,0,0-2.58,1.71c-.86.63-1.74,1.25-2.55,1.94s-1.38,1.3-2,2-1.17,1.22-1.75,1.84c-.28.3-.56.6-.83.92s-.56.7-.83,1l-.62.79a3.56,3.56,0,0,0-.38.65,1,1,0,0,0-.09.57h0a1,1,0,0,0-.19.55,3.07,3.07,0,0,0,1.53,2.24c.67.51,1.4.95,2.1,1.41s1.5.86,2.25,1.27,1.52.8,2.28,1.18l0,0,.06,0,.06,0h0c.93.47,1.84,1,2.77,1.44s1.93,1,2.89,1.45l0,0,.21.11,0,0c1.86.94,3.67,2,5.46,3.05.89.54,1.77,1.08,2.68,1.6s1.86,1,2.81,1.44l4.31,2.11c1,.5,2,1,3,1.51l2.85,1.4h0l0,0,.09,0,0,0c1.79.91,3.54,1.91,5.27,2.94.89.54,1.8,1.06,2.7,1.58s1.78,1.05,2.68,1.58c2,1.19,4.05,2.38,6,3.69,1.27.85,2.46,1.81,3.64,2.77a4.38,4.38,0,0,0,1.46.68h0a2.19,2.19,0,0,0,1.06-.26,2.65,2.65,0,0,0,.87-.89,11.45,11.45,0,0,0,.68-1.24c.19-.4.39-.8.57-1.21.4-.9.68-1.85,1-2.79a28.62,28.62,0,0,0,.85-2.87,14.94,14.94,0,0,0,.35-3.2c0-1,0-1.93-.05-2.9C148.08,173.1,147.93,171.12,147.69,169.15Zm-1.55,9.78a14.62,14.62,0,0,1-.2,1.46c-.19.84-.43,1.66-.7,2.49s-.5,1.52-.76,2.28a20.63,20.63,0,0,1-.93,2.1c-.17.33-.34.66-.54,1a.76.76,0,0,1-.11.14h0a1,1,0,0,0-.22-.25c-.76-.62-1.53-1.23-2.3-1.82s-1.8-1.27-2.72-1.87c-1.72-1.11-3.49-2.12-5.25-3.16s-3.57-2.07-5.34-3.13-3.62-2.08-5.48-3l-2.88-1.42c-1.42-.72-2.83-1.44-4.25-2.13s-2.69-1.3-4-2c-1.66-.84-3.23-1.86-4.83-2.8s-3.19-1.83-4.84-2.65h0l-.1-.06h0l-2.76-1.38.06,0c-.69-.35-1.38-.73-2.08-1.1l-1.94-1c-.82-.42-1.63-.87-2.44-1.33s-1.47-.9-2.19-1.38l0,0-.08-.06h0c-.3-.22-.61-.44-.89-.68a3.07,3.07,0,0,1-.26-.25l-.08-.1s0,0,0-.06,0,0,.06-.07a1.47,1.47,0,0,0,.1-.22c.19-.26.4-.51.6-.76.3-.4.6-.8.92-1.18.62-.71,1.28-1.38,1.92-2.06.35-.37.72-.73,1.08-1.09s.77-.77,1.18-1.13,1.09-.9,1.67-1.32,1.29-1,1.95-1.41,1-.67,1.59-1c.78-.38,1.61-.67,2.41-1s1.7-.73,2.57-1l0,0,.07,0,.06,0h0a15.24,15.24,0,0,1,1.6-.45c.9-.16,1.82-.24,2.73-.34s1.89-.23,2.83-.3h.05c1.07-.06,2.14-.09,3.21-.11,1.22,0,2.45,0,3.67.05.56,0,1.11.11,1.67.17s1.19.11,1.79.16a28.44,28.44,0,0,1,3.44.47,8,8,0,0,1,1,.25l4.67,1.57a18.52,18.52,0,0,1,1.78.74,13.29,13.29,0,0,1,1.14.69,28.2,28.2,0,0,1,2.37,1.87,19.26,19.26,0,0,1,1.56,1.57,23.24,23.24,0,0,1,1.71,2.24h0c.58.85,1.14,1.73,1.66,2.62.27.45.52.91.78,1.37s.45.79.66,1.19c.35.71.66,1.46,1,2.2s.59,1.49.85,2.24a33.69,33.69,0,0,1,1.05,3.65c.2,1,.33,2,.45,3.07s.22,2,.3,2.95v.09h0c.07,1,.14,2.09.17,3.14S146.19,177.86,146.14,178.93Z"/><polygon points="86.2 155.86 86.21 155.85 86.21 155.85 86.2 155.86"/><path d="M313.77,136.82c-.21,1.05-.37,2.1-.55,3.15q-.47,2.72-1,5.41c-.41,2-.88,3.9-1.35,5.85s-.89,4-1.47,5.92c-.2.67-.42,1.35-.64,2s-.54,1.49-.81,2.23-.57,1.43-.85,2.14c-.11.27-.53,1.35-.16,1.83s1.41.24,1.63.24c1,0,2,0,3-.06s2.1-.06,3.15-.12a46.52,46.52,0,0,0,6.45-.76l.5-.1c1-.21,2.1-.4,3.15-.64s2-.5,2.95-.82a24.41,24.41,0,0,0,5.71-2.62,21.28,21.28,0,0,0,2.44-1.9q1.09-1,2.13-2c.73-.73,1.43-1.49,2.1-2.27.32-.38.64-.76.94-1.15s.58-.81.85-1.23a27,27,0,0,0,1.49-2.55,24,24,0,0,0,1.2-2.69,43.29,43.29,0,0,0,1.59-5.83c.21-.95.39-1.91.51-2.87a25.48,25.48,0,0,0,.18-3.15,61.33,61.33,0,0,0-.28-6.5,23.91,23.91,0,0,0-.62-3.12c-.27-1-.57-2-.89-3a14.36,14.36,0,0,0-.59-1.54c-.24-.51-.51-1-.79-1.5a22.86,22.86,0,0,0-1.83-2.63,22.05,22.05,0,0,0-2.25-2.38c-.82-.78-1.66-1.54-2.54-2.24a20.69,20.69,0,0,0-2.76-1.74,27,27,0,0,0-2.84-1.44,13.1,13.1,0,0,0-2.9-.86,13.31,13.31,0,0,0-2.89-.13,11.35,11.35,0,0,0-2.59.46,7.47,7.47,0,0,0-1.28.52c-.33.18-2.18,1.21-2.3,1.63l-.18.67a8.56,8.56,0,0,0-.23,1.12c-.07.37-.15.73-.22,1.09-.44,2.07-1.06,4.1-1.59,6.15s-1,4.25-1.37,6.39c-.1.53-.2,1.06-.31,1.59-.21,1-.44,2.07-.65,3.11s-.41,2.15-.61,3.22S314,135.77,313.77,136.82Zm1.42,3.83c.29-1.66.57-3.32.91-5s.63-3.37,1-5c.23-1.09.47-2.18.69-3.28s.42-2.2.63-3.3q.66-3.15,1.51-6.26c.28-1,.54-2,.78-2.93s.41-1.95.6-2.94a1.82,1.82,0,0,1,.45-.88,6.39,6.39,0,0,1,1.69-.77c.39-.13.79-.24,1.19-.34a11.08,11.08,0,0,1,1.14-.14,16.83,16.83,0,0,1,1.74,0c.43,0,.85.1,1.27.18s.7.18,1,.29c.63.23,1.25.49,1.85.77a38,38,0,0,1,3.56,2,21.46,21.46,0,0,1,1.69,1.33,38.94,38.94,0,0,1,3.11,3c.45.55.87,1.11,1.27,1.68l0,0,0,.06,0,0,0,0a20.92,20.92,0,0,1,1.19,2c.18.4.35.81.51,1.22a43.07,43.07,0,0,1,1.38,5,27.54,27.54,0,0,1,.34,2.86v0c.06,1,.09,2.05.1,3.08s0,2,0,3.07a29.17,29.17,0,0,1-.47,3.34,50.21,50.21,0,0,1-1.5,5.79,25.91,25.91,0,0,1-1.07,2.55,26.66,26.66,0,0,1-1.62,2.79c-.3.45-.6.9-.94,1.33s-.83,1-1.25,1.46a43.54,43.54,0,0,1-3.56,3.5,21,21,0,0,1-2,1.54c-.55.35-1.11.67-1.68,1a30.32,30.32,0,0,1-3.06,1.27,38.46,38.46,0,0,1-4.36,1.19l-2.58.5.14,0a47.6,47.6,0,0,1-5.95.72h-.07c-1.05.06-2.1.09-3.15.12l-2.38.06c.06-.15.13-.3.18-.46.17-.44.34-.88.5-1.32.36-1,.71-1.93,1-2.91s.6-2,.85-2.93.47-2,.71-3c.48-2,1-4,1.4-5.95S314.82,142.75,315.19,140.65Z"/><path d="M361.5,122.78c-.06-1.13-.15-2.25-.28-3.37-.05-.45-.12-.9-.2-1.34v0a.51.51,0,0,0,0-.13c0-.08,0-.16-.05-.24l0-.15c-.06-.25-.11-.51-.17-.77a16.94,16.94,0,0,0-.88-2.78c-.38-.88-.83-1.73-1.26-2.59s-.91-1.84-1.38-2.76a22.52,22.52,0,0,0-1.62-2.77,26,26,0,0,0-2-2.46c-.7-.78-1.41-1.56-2.16-2.29S350,99.72,349.29,99a20.6,20.6,0,0,0-8-4.83,22.37,22.37,0,0,0-6.41-1.36c-1.12,0-2.23-.06-3.34,0s-2.23.17-3.35.3-2,.27-3,.41-1.87.23-2.8.33A34,34,0,0,0,316.54,95a1,1,0,0,0-.72,1.27,1,1,0,0,0,1.27.72c.63-.19,1.27-.35,1.92-.49.94-.18,1.89-.33,2.83-.45s2-.21,3-.35l3.22-.45c1-.13,2.1-.22,3.15-.3a36.61,36.61,0,0,1,3.92,0,22.12,22.12,0,0,1,2.29.32c1,.24,2,.55,3,.88a29.07,29.07,0,0,1,3.1,1.31c.58.31,1.14.65,1.69,1s1.29,1,1.9,1.48c.88.77,1.71,1.59,2.55,2.4s1.69,1.72,2.5,2.63a26.45,26.45,0,0,1,1.69,2.11,35.32,35.32,0,0,1,1.77,3.12v0a.2.2,0,0,0,0,.08s0,0,0,0h0c.59,1.19,1.19,2.39,1.79,3.57a16.38,16.38,0,0,1,.71,1.69,21.8,21.8,0,0,1,.67,2.49c0,.12,0,.24.07.36l.06.32c.19,1.22.29,2.45.38,3.67.09,1.7.08,3.4.06,5.1s0,3.28-.14,4.91a40.52,40.52,0,0,1-.66,4.77c-.44,2.06-.9,4.12-1.45,6.15-.29,1.09-.62,2.16-.94,3.24s-.56,2-.9,3a31.38,31.38,0,0,1-1.34,3.23,32.81,32.81,0,0,1-2.06,3.48h0c-.54.79-1.1,1.58-1.69,2.35s-1.24,1.58-1.83,2.4c-1.21,1.68-2.42,3.37-3.7,5-.75,1-1.5,1.95-2.3,2.88a36.68,36.68,0,0,1-2.68,2.61c-.8.7-1.61,1.39-2.44,2s-1.75,1.32-2.66,1.93a23,23,0,0,1-5.66,2.86h0c-1.11.37-2.24.69-3.38,1s-2.26.57-3.4.8-2.56.53-3.84.75-2.64.45-4,.55c-1.86.11-3.72.08-5.59.09-.89,0-1.77.06-2.66.06s-1.91,0-2.87.05A2.06,2.06,0,0,0,302,182c-.28.24-1.54,2.43-1.7,2.62l0,0-.06.06,0,0,0,0a24.23,24.23,0,0,1-1.72,1.79c-.19.16-.38.31-.58.45s-.35.21-.54.31a35.15,35.15,0,0,1-6,2,15.45,15.45,0,0,1-1.9.25c-.41,0-5.75.43-7,.45-1.08,0-2.16,0-3.25.06s-2.16.07-3.23.08c-2.19,0-4.38.07-6.56.06-1.75,0-3.51,0-5.26-.09s-3.58-.18-5.36-.29h0c-2.09-.14-4.17-.29-6.24-.6-1.08-.17-2.15-.34-3.23-.48s-2.19-.27-3.28-.4-1.89-.27-2.83-.46-3-.33-3.87-.47-7.07-1.24-8.71-1.8a54.19,54.19,0,0,1-5.51-2.49c-.39-.2-.77-.43-1.15-.66s-.86-.5-1.28-.78a17,17,0,0,1-1.36-1.05c-.49-.44-1-.88-1.47-1.34s-.64-.69-1-1a22.1,22.1,0,0,1-1.39-1.8c-.59-.81-1.19-1.6-1.75-2.42-.34-.52-.65-1-.94-1.6-.55-1.12-1-2.28-1.51-3.44s-1-2.47-1.42-3.72c-.81-2.37-1.52-4.77-2.19-7.18-.32-1.18-.65-2.35-.94-3.54s-.54-2.35-.83-3.52c-.6-2.44-1.13-4.9-1.63-7.36s-.94-4.89-1.39-7.35c-.23-1.23-.46-2.46-.68-3.69s-.41-2.45-.59-3.68c-.38-2.5-.77-5-1.14-7.49-.18-1.24-.36-2.48-.55-3.71s-.39-2.41-.56-3.62-.35-2.47-.52-3.7-.33-2.44-.48-3.66c-.28-2.47-.4-5-.66-7.43l-.45-4.47c-.14-1.4-.3-2.81-.41-4.22v-.06h0c-.09-1.42-.17-2.84-.29-4.25s-.22-2.71-.32-4.07c-.15-2.39-.11-4.78-.1-7.17,0-1.25,0-2.5.07-3.74s.1-2.31.1-3.47V65.91c0-.25,0-1,0-1.26V64.5s0-.07,0-.1a1.25,1.25,0,0,0,.26.56l.1.1c.34.39.68.78,1,1.16s.8.76,1.21,1.13.89.71,1.36,1,1,.66,1.49,1a51.06,51.06,0,0,0,6,3,38.39,38.39,0,0,0,6.7,2c2.21.49,4.43,1,6.68,1.22,2.43.3,4.87.5,7.3.75,1.18.13,2.35.27,3.53.39s2.22.19,3.34.25c.57,0,1.15,0,1.73,0h5.62c1.18,0,2.36,0,3.54,0s2.38-.12,3.58-.16l7.35-.31c1.25,0,2.5,0,3.74-.09s2.44-.09,3.66-.16c2.48-.13,5-.17,7.42-.26,1.2,0,2.39-.12,3.59-.17s2.44-.08,3.65-.15l3.76-.2c1.27-.07,2.54-.16,3.81-.31s2.4-.34,3.6-.55,2.47-.39,3.71-.59,2.34-.43,3.52-.62,2.37-.39,3.56-.63,2.43-.47,3.64-.75,2.46-.62,3.69-1a31.55,31.55,0,0,0,3.4-1.14c1.08-.44,2.14-.95,3.17-1.48a32.48,32.48,0,0,0,3.14-1.82,8.2,8.2,0,0,0,2.23-2,1,1,0,1,0-1.63-1.25c-.08.12-.17.23-.26.35s-.28.28-.43.42c-.32.27-.66.53-1,.77a30.65,30.65,0,0,1-3.43,2A36.24,36.24,0,0,1,312,68.54c-1.18.41-2.39.73-3.59,1s-2.42.6-3.64.85-2.33.49-3.5.69-2.4.38-3.6.6-2.42.42-3.64.61-2.39.41-3.6.6c-1.39.21-2.78.36-4.18.47h-.06l-3.62.2c-1.21.07-2.42.14-3.63.18s-2.39.09-3.58.15-2.43.08-3.64.13l-3.89.13c-1.21,0-2.41.13-3.62.17s-2.46.09-3.69.1-2.57.1-3.85.15l-7.11.3c-2.41.11-4.81.1-7.22.1h-2.73c-.89,0-1.77,0-2.65,0-1.07-.07-2.14-.14-3.2-.26s-2.35-.27-3.53-.39l-3.75-.38c-1.17-.11-2.33-.22-3.49-.38-1.31-.17-2.61-.41-3.9-.68a56.85,56.85,0,0,1-6.42-1.61,44.12,44.12,0,0,1-4.91-2.09A37.83,37.83,0,0,1,203.9,67,18.4,18.4,0,0,1,202,65.58c-.27-.23-.53-.47-.77-.72l-.78-.86h0l0,0-.07-.08,0,0L200,63.5c-.38-.42-1.08-1.67-.95-2.08,0-.13.11-.26.17-.39a22.08,22.08,0,0,1,1.1-2,6.31,6.31,0,0,1,.44-.58c.13-.14.27-.28.41-.41.65-.55,1.35-1,2-1.52.35-.23.7-.45,1.07-.65.95-.46,1.95-.81,2.9-1.25s2.1-1,3.19-1.36h0l.07,0,.05,0h0c1.82-.62,3.7-1.07,5.55-1.56L218.9,51c.92-.24,1.84-.48,2.77-.68,1.22-.24,2.45-.43,3.68-.6s2.48-.37,3.72-.58c2.43-.4,4.85-.87,7.29-1.23,1.26-.19,2.54-.33,3.81-.49s2.53-.27,3.79-.39,2.46-.25,3.69-.36,2.58-.22,3.87-.31,2.37-.1,3.56-.13l3.79-.12c2.57-.07,5.14-.26,7.71-.33s5.16-.05,7.73-.05,5.15,0,7.72.16h-.14c2.2.15,4.41.28,6.6.59,1.07.15,2.14.33,3.2.5s2.17.35,3.24.57l-.13,0,2.38.48c.75.13,1.49.26,2.23.41q1.92.39,3.84.84a39.58,39.58,0,0,1,3.83,1.07,43.25,43.25,0,0,1,4.33,1.84l-.05,0,.06,0,.06,0-.05,0c1.22.62,2.41,1.31,3.6,2,.55.33,1.11.67,1.68,1s1.32.61,2,.94h0a16.41,16.41,0,0,1,1.65.9l.35.28a9.61,9.61,0,0,1,.79.77c.18.21.35.43.51.65a5,5,0,0,1,.37.63c.09.18.18.37.25.55s.09.35.13.53.06.32.08.48,0,.21,0,.31.06,1,.09,1.2a22.32,22.32,0,0,1-.09,2.58h0V65c-.08,1-.18,2-.28,3s-.2,2.08-.32,3.12-.24,2-.34,3-.16,2.07-.23,3.11c-.14,2.1-.36,4.18-.57,6.27q-.15,1.53-.33,3.06c-.12,1-.29,2.07-.43,3.1s-.31,2-.51,3a1,1,0,0,0,.88,1.16h.14a1,1,0,0,0,.63-.21,1.08,1.08,0,0,0,.39-.68c.19-.93.35-1.87.48-2.81s.31-2,.43-3c.24-2.08.43-4.17.66-6.26s.31-4.17.49-6.25c.08-1,.22-2,.33-3s.21-2.06.32-3.08c.13-1.26.26-2.51.34-3.77,0-.65.07-1.29.08-1.94,0-.23,0-.46,0-.69s-.07-.78-.07-.94a6.56,6.56,0,0,0-.26-1.75A6.68,6.68,0,0,0,324,58a7.63,7.63,0,0,0-.94-1.31,10.69,10.69,0,0,0-1.19-1.14,8.22,8.22,0,0,0-1.38-.87L319.19,54l-1.4-.64c-1-.52-1.93-1.12-2.9-1.68s-2.17-1.21-3.29-1.75-2.46-1.09-3.72-1.55a36.91,36.91,0,0,0-3.86-1.1c-.61-.15-1.21-.27-1.82-.4s-1.3-.3-1.94-.43c-1.35-.28-2.71-.5-4.07-.77l.14,0c-1.26-.26-2.52-.5-3.79-.71l-3.87-.6c-1.27-.18-2.55-.29-3.83-.38s-2.74-.21-4.12-.27c-2.59-.13-5.2-.09-7.79-.09s-5.21,0-7.82.1c-1.3.05-2.6.12-3.9.19s-2.47.1-3.71.13l-3.76.11c-1.29,0-2.58.12-3.87.22s-2.61.21-3.92.35-2.51.23-3.77.36c-2.59.25-5.19.58-7.76,1-2.42.41-4.84.84-7.26,1.24s-5,.67-7.44,1.29-4.84,1.24-7.25,1.89a34.13,34.13,0,0,0-3.47,1.1c-.51.19-1,.41-1.5.63s-1,.49-1.53.7A26.82,26.82,0,0,0,203,54.29a17.5,17.5,0,0,0-1.56,1c-.46.33-.92.65-1.36,1a7.57,7.57,0,0,0-1.18,1.22,12.12,12.12,0,0,0-1,1.57,13.18,13.18,0,0,0-.69,1.35,6.82,6.82,0,0,0-.32,1.09,11.88,11.88,0,0,0-.68,3.09c0,.25,0,1,0,1.26,0,.93,0,1.87,0,2.8,0,1.16-.1,2.31-.13,3.47q-.08,3.67,0,7.37c0,1.51.12,3,.24,4.51s.24,2.9.34,4.36v.09c.08,1.23.14,2.45.26,3.68s.26,2.51.38,3.77c.24,2.53.53,5.05.71,7.58.08,1.23.2,2.46.35,3.69s.33,2.46.49,3.7c.32,2.46.71,4.92,1.09,7.38s.74,5,1.12,7.46.73,5,1.17,7.47.89,4.81,1.34,7.21,1,5,1.52,7.54c.27,1.22.57,2.44.87,3.66s.56,2.37.84,3.56.64,2.41,1,3.61.69,2.44,1.06,3.66.72,2.32,1.13,3.47.84,2.29,1.3,3.42.9,2.18,1.4,3.25a17.72,17.72,0,0,0,1.74,3c.62.87,1.26,1.74,1.89,2.61a21.46,21.46,0,0,0,1.56,1.87c.24.26.49.52.75.77.42.39.85.78,1.29,1.16a13.74,13.74,0,0,0,1.33,1.06c.44.32.92.59,1.39.88a12.69,12.69,0,0,0,2.25,1.18c1,.38,5.1,2,5.3,2.21-.68-.21-2.58-.8-3.26-1-1-.28-2-.47-3-.66-2-.38-4.09-.74-6.16-.94-1-.1-2-.24-3-.33s-2-.07-3-.06c-1.91,0-3.82.07-5.72.2h0c-1.89.12-3.79.19-5.67.36-.49,0-1,.11-1.46.17l-1.37.14-1.38.18c-.48.08-1,.2-1.44.31a19.27,19.27,0,0,0-2,.57c-.63.21-1.25.46-1.87.68-.89.31-1.78.61-2.66.94l-1.28.49c-.46.18-.9.4-1.35.61s-.89.43-1.32.68-.7.42-1.06.63-.83.48-1.23.74-.78.63-1.17.95-.86.69-1.32,1c-.18.12-.34.26-.52.39a1.09,1.09,0,0,0-.33.27c-.24-.52-.45-1.05-.68-1.57a5.71,5.71,0,0,0-1.1-2,8.66,8.66,0,0,0-1.7-1c-.61-.35-1.23-.7-1.82-1.08a24.34,24.34,0,0,0-2.25-1.49c-.88-.47-1.76-.91-2.64-1.37L166,183.84c-.87-.45-1.73-.89-2.59-1.36s-1.71-.95-2.59-1.4a12.56,12.56,0,0,0-1.29-.6,8.48,8.48,0,0,0-1.09-.32,17.24,17.24,0,0,0-3.29-.16.66.66,0,0,0-.15,0,1.48,1.48,0,0,0,0-.19c0-1-.14-2-.26-3s-.28-2-.45-3-.44-2-.68-3.06-.47-1.95-.73-2.92-.54-1.94-.81-2.91-.6-2-.91-2.93a45.2,45.2,0,0,0-2.32-5.84,24.14,24.14,0,0,0-1.44-2.7c-.54-.85-1.1-1.69-1.7-2.5a33.37,33.37,0,0,0-4.19-4.7,21.31,21.31,0,0,0-2.23-1.79,22.84,22.84,0,0,0-2.57-1.7c-.92-.48-1.87-.91-2.82-1.32a30.16,30.16,0,0,0-3-1.11c-.93-.29-1.85-.6-2.8-.84s-1.94-.45-2.92-.68-2.09-.47-3.15-.66a24.14,24.14,0,0,0-2.93-.35c-.68-.05-1.36-.11-2-.11-.39,0-2.6.19-2.8.19-.9,0-1.81,0-2.71.1s-1.86.24-2.79.39-1.89.22-2.82.43a21.93,21.93,0,0,0-2.58.8c-.88.3-1.74.63-2.6,1s-1.84.71-2.74,1.1-1.93.87-2.87,1.35a27.46,27.46,0,0,0-2.38,1.45c-.82.52-1.66,1-2.49,1.51s-1.72,1.13-2.57,1.71-1.54,1-2.27,1.62c-.34.26-.68.54-1,.82s-.64.56-1,.8l-.15.09-.13.05c-.38.12-.78.21-1.16.33a13.13,13.13,0,0,0-1.38.46,6.84,6.84,0,0,0-2.33,1.62,4.64,4.64,0,0,0-.94,1.31,3.86,3.86,0,0,0-.31,1.43,5.16,5.16,0,0,0,.08,1.36,7.46,7.46,0,0,0,.37,1.13l0,.08,0,.08c0,.1,0,.19-.05.28-.06.26-.13.52-.21.77s-.19.48-.3.72c-.41.81-.91,1.57-1.39,2.34s-1.09,1.65-1.6,2.49-1,1.78-1.43,2.69S71.7,170,71.32,171s-.79,2-1.19,3-.73,1.95-1.12,2.92-.74,2-1.09,3c-.2.55-.39,1.09-.56,1.65A14.81,14.81,0,0,0,67,183a6.11,6.11,0,0,0-.08.86,4.64,4.64,0,0,0-1.23.13c-.49.13-1,.31-1.43.48a4.26,4.26,0,0,0-2.6,1.62,3.16,3.16,0,0,0-.26,1.58,6.83,6.83,0,0,0,.2,1.68,4.55,4.55,0,0,0,.79,1.34,8.53,8.53,0,0,0,1,1.08,5.43,5.43,0,0,0,1.31.87c.26.13.53.24.8.35,0,.28,0,.55,0,.83,0,.46,0,.92,0,1.37q.06,1.43.24,2.85c.06.49.13,1,.22,1.47,0,.25.09.49.14.73a5,5,0,0,0,.13.65c.14.7.27,1.4.41,2.09a35.92,35.92,0,0,0,1.83,5.72,16.65,16.65,0,0,0,1.32,2.55c.51.84,1,1.67,1.58,2.47a21.08,21.08,0,0,0,1.3,1.69,23.42,23.42,0,0,0,2,1.9c.66.59,1.41,1.07,2.11,1.61S78.28,220,79,220.61q.5.38,1,.78c.37.32.75.65,1.15.94.24.17,1.69,1.28,1.84,1.39a16.49,16.49,0,0,0,2.43,1.52,17.39,17.39,0,0,0,2.82,1c1,.27,1.91.49,2.87.69s1.9.4,2.86.52a27.23,27.23,0,0,0,3.12.13h.31c.91,0,1.81,0,2.72,0s2-.12,3-.21a25.19,25.19,0,0,0,3-.55c1.14-.27,2.27-.57,3.42-.81s2.28-.46,3.42-.72,2.29-.54,3.44-.78l1.46-.3c1-.21,2.07-.47,3.1-.7l3-.65a23.85,23.85,0,0,0,5.88-1.93c1-.48,1.9-1,2.82-1.6s1.67-1.07,2.5-1.6,1.82-1.14,2.69-1.76a23.87,23.87,0,0,0,2.34-1.92c.77-.71,1.5-1.47,2.21-2.25a6.91,6.91,0,0,0,.51-.57L143,211c.18-.2.35-.4.52-.61l1.06-1.22c.68-.8,1.31-1.63,2-2.43.42-.5.86-1,1.29-1.48s.87-1.06,1.29-1.61a15.39,15.39,0,0,0,1.09-1.55c.14-.22.25-.45.37-.68.43.28.86.55,1.32.79s1.14.56,1.71.84c1.1.53,2.2,1.06,3.29,1.61.42.21.83.44,1.25.66l1.23.65c.84.46,1.69.9,2.52,1.39s1.57.94,2.36,1.4l1.14.66c.31.17.15.85,0,1.27s-.16.76-.24,1.15c-.05.22-.11.43-.18.64a10.11,10.11,0,0,1-.42,1c-.19.37-.39.74-.56,1.12s-.37.84-.54,1.27c-.38.94-.76,1.89-1.06,2.86s-.6,2.13-.84,3.2c-.11.48-.21,1-.32,1.44-.06.22-.11.45-.16.67s-.11.44-.14.66,0,.23-.07.34c0,.3-.11.59-.17.88l0-.13c0,.08,0,.17-.05.25-.19,1-.33,1.9-.49,2.84s-.37,2.09-.54,3.13-.32,2.07-.42,3.12c-.05.56-.1,1.12-.12,1.68s0,.93,0,1.39c0,1.87.06,3.75.07,5.62,0,2.08,0,4.16.1,6.24,0,1,.05,1.94.12,2.9s.27,1.93.42,2.89.31,1.93.48,2.89c.09.47.16.94.26,1.4s.26.91.41,1.36c.31.95.68,1.88,1,2.81s.72,1.79,1.12,2.67.87,1.83,1.35,2.72.94,1.64,1.42,2.46.92,1.63,1.43,2.42a23.94,23.94,0,0,0,2,2.63l2,2.28c.65.75,1.31,1.5,2,2.22A43.09,43.09,0,0,0,178,286c.83.65,1.67,1.28,2.53,1.89s1.73,1.2,2.6,1.8a35.77,35.77,0,0,0,5.43,3.22,21.75,21.75,0,0,0,3,1.1c1,.29,2.07.56,3.11.84s2,.58,3,.83,2.08.44,3.13.61l3.14.52q1.54.27,3.09.45c1,.11,2,.19,3,.26s2.11.14,3.17.14,2,0,2.93,0,2-.09,3-.15,1.95-.14,2.92-.24l1.32-.16,1.51-.19a19.3,19.3,0,0,0,3-.64,21.7,21.7,0,0,0,2.47-.95c1-.43,1.92-.93,2.9-1.34.49-.2,1-.42,1.46-.65.25-.12.49-.25.73-.39,0,0,0,.06,0,.09h0a36.55,36.55,0,0,0,.87,4.26c.25.93.53,1.87.86,2.78s.77,1.92,1.17,2.87.85,2,1.33,2.91a11.28,11.28,0,0,0,1.54,2.36,12.46,12.46,0,0,0,1.21,1.2,5.07,5.07,0,0,0,1.44.88,4.72,4.72,0,0,0,1.57.4,5.06,5.06,0,0,0,.55,0,10.88,10.88,0,0,0,1.14-.06,7.29,7.29,0,0,0,3.15-.9,3.48,3.48,0,0,0,1.23-1.27,3.19,3.19,0,0,0,.19-2.11,20.27,20.27,0,0,0-2.1-6l-.08-.15-.06-.12v0c-.42-.86-.84-1.71-1.25-2.57s-.79-1.75-1.17-2.63-.72-1.79-1.09-2.68-.75-1.76-1.08-2.66c-.2-.6-.41-1.2-.62-1.8.17-.12,1.26-1.24,1.77-1.69h0l0,0,0,0c1.43-1.26,2.85-2.53,4.25-3.83a51.77,51.77,0,0,0,4.12-4.38c1.25-1.48,2.48-3,3.73-4.45.61-.71,1.18-1.45,1.77-2.18l1.95-2.42c.93-1.18,1.84-2.39,2.75-3.59s1.69-2.13,2.58-3.16l.26-.25s.15-.25.17-.26,2.08,1,2.35,1.15a17.14,17.14,0,0,1,1.77.76c.61.31,1.25.62,1.83,1l.08.06,0,.15a7.48,7.48,0,0,0,.9,2.81,4.93,4.93,0,0,0,1,1.11,5.58,5.58,0,0,0,1.12.68,4.34,4.34,0,0,0,1.41.34,3.52,3.52,0,0,0,.56,0,4,4,0,0,0,1-.13,4,4,0,0,0,1.32-.6,4.21,4.21,0,0,0,1.05-1.14,8.7,8.7,0,0,0,1.12-2.51,9.08,9.08,0,0,0,.19-3,8,8,0,0,0-.31-1.53c-.12-.44-.23-.87-.35-1.3a9.68,9.68,0,0,0-.46-1.41c-.19-.41-.4-.81-.61-1.21-.41-.77-.93-1.49-1.41-2.22s-1.12-1.69-1.73-2.49c-1.24-1.64-2.43-3.32-3.6-5l-.11-.16h0l-3-4.58c-.11-.17-.22-.34-.32-.52-.33-.52-.62-1.07-.9-1.62a28.57,28.57,0,0,1-1.22-2.92c-.27-.8-.51-1.6-.71-2.42s-.35-1.6-.51-2.4c-.19-1-.36-1.89-.53-2.83-.09-.52-.2-1-.3-1.54s-.18-1.07-.28-1.6c-.18-1-.39-2-.65-3.06s-.58-2-.93-3a43.1,43.1,0,0,0-2.49-5.5,41.54,41.54,0,0,0-3-4.91,39,39,0,0,0-2.56-3.17c-.88-1-1.83-2-2.72-3-.64-.73-1.27-1.49-1.94-2.2a27.73,27.73,0,0,0-2.33-2.14c-.75-.64-1.5-1.27-2.28-1.87s-1.63-1.28-2.46-1.89S244,194.6,243.24,194s-1.6-1.19-2.44-1.74a27.31,27.31,0,0,0-2.78-1.59c-.89-.44-1.82-.84-2.74-1.26s-1.86-.78-2.79-1.17c-.72-.29-1.43-.6-2.16-.87,1.75.42,3.51.83,5.28,1.16,2.19.4,4.41.65,6.6,1.09,1,.21,2.07.41,3.13.55l3.36.41c2.14.26,4.27.66,6.41.86s4.27.32,6.4.42c1.09,0,2.17.14,3.25.18s2.15,0,3.23,0h1.49c1.69,0,3.38,0,5.06,0,2.15,0,4.29-.12,6.44-.14l3.36-.06c1,0,2.09,0,3.14-.08.59,0,2.36-.34,2.69-.37a16.1,16.1,0,0,0,2.77-.51c1-.27,1.9-.6,2.84-.93a17,17,0,0,0,2.83-1.16,11.11,11.11,0,0,0,2.58-2.21,14.87,14.87,0,0,0,1.21-1.42c.22-.32,1.05-1.43,1.07-1.55.71,0,1.43,0,2.15,0l2.73-.06c1.9,0,3.79,0,5.68-.08a45.21,45.21,0,0,0,6.13-.86c1-.21,2.08-.41,3.11-.63s2-.46,3-.71,2.06-.56,3.08-.89a23.54,23.54,0,0,0,2.92-1.14c.94-.46,1.86-1,2.75-1.51s1.89-1.26,2.81-1.94,1.63-1.28,2.42-2,1.64-1.42,2.43-2.17a27.57,27.57,0,0,0,2.24-2.47c.66-.82,1.31-1.65,2-2.49s1.25-1.67,1.87-2.51,1.2-1.69,1.82-2.53,1.23-1.56,1.81-2.36,1.21-1.69,1.78-2.56a28.65,28.65,0,0,0,2.84-5.5c.38-1,.7-2,1-3s.61-2.08.92-3.12c.61-2.09,1.08-4.22,1.56-6.34a40.54,40.54,0,0,0,1-6.57c.13-2.07.14-4.16.15-6.23C361.56,124.9,361.56,123.84,361.5,122.78ZM233.29,190.83c.69.29,1.36.6,2,.91s1.37.62,2,.95a30.78,30.78,0,0,1,2.92,1.74c.74.52,1.45,1.08,2.19,1.61s1.55,1.07,2.3,1.64l1.25,1c.41.31.82.62,1.22,1,.76.62,1.52,1.24,2.26,1.88.39.34.78.69,1.15,1s.77.78,1.13,1.19c.61.7,1.21,1.41,1.84,2.1s1.39,1.46,2.06,2.22a37.07,37.07,0,0,1,2.87,3.62c.49.74,1,1.48,1.41,2.25s.92,1.67,1.35,2.52l0-.06.06.11h0c.34.69.68,1.39,1,2.09a26.19,26.19,0,0,1,1,2.45,36.19,36.19,0,0,1,1.23,4.33c.2,1,.36,2,.56,3.06s.37,2,.55,3a51.88,51.88,0,0,0,1.38,5.92,25.92,25.92,0,0,0,1.64,4c.31.61.65,1.21,1,1.79s2.78,4.24,3.37,5.11,1.21,1.72,1.81,2.58,1.17,1.62,1.78,2.42c.3.4.61.81.89,1.22.45.67.88,1.34,1.32,2,.2.3.4.6.59.9s.32.59.47.88l0-.07.05.09v0c.13.26.26.52.37.8.15.45.26.92.39,1.38s.26.93.37,1.4a6.31,6.31,0,0,1,.1.76,11.41,11.41,0,0,1,0,1.17c0,.2,0,.4-.08.6s-.12.47-.19.71-.24.58-.38.87a7,7,0,0,1-.4.7l-.2.27-.2.2-.12.09-.15.09-.25.1a1.81,1.81,0,0,1-.31.09l-.27,0h-.22l-.66-.09-.29-.08-.17-.07c-.14-.08-.28-.16-.41-.25l-.23-.17-.13-.13c-.13-.16-.26-.32-.38-.49l-.1-.18-.09-.22c-.13-.42-.22-.85-.31-1.28v0l0-.08v0a2.66,2.66,0,0,0-.58-1.43,6.1,6.1,0,0,0-1.62-1c-.61-.33-1.22-.64-1.85-.92-.33-.15-.66-.27-1-.39s-1.25-.58-1.5-.73a7.6,7.6,0,0,0-1.79-.68,10.74,10.74,0,0,0-2.29,1.94c-.59.69-1.2,1.37-1.75,2.1l-1.83,2.41c-.59.8-1.21,1.57-1.83,2.35s-1.29,1.58-1.92,2.38-1.16,1.44-1.76,2.14-1.24,1.48-1.87,2.23-1.2,1.45-1.82,2.16c-1,1.13-2,2.26-3.1,3.3s-2.2,2.05-3.32,3.05c-.58.5-1.17,1-1.73,1.52-.28.26-.56.53-.83.81s-1.3,1.21-1.3,1.66a1.9,1.9,0,0,0,.12.63c.09.29.19.57.3.86h0c.33.94.65,1.9,1,2.82s.8,1.9,1.17,2.86c.76,1.92,1.64,3.78,2.55,5.63.26.53.52,1.06.79,1.58v0l0,0,0,.08,0-.05a22.36,22.36,0,0,1,1,2.25,17.23,17.23,0,0,1,.56,2c.07.37.13.75.17,1.13v.24l0,.06,0,0-.06.08-.2.2-.17.12L249,308l-.4.17c-.25.08-.5.15-.76.21a12.7,12.7,0,0,1-1.38.18c-.25,0-.49,0-.74,0a4.46,4.46,0,0,1-.51-.07,2.72,2.72,0,0,1-.38-.11l-.43-.18A3.64,3.64,0,0,1,244,308l-.46-.37c-.23-.21-.45-.42-.66-.65s-.47-.58-.68-.89a14.69,14.69,0,0,1-.87-1.48v0l0,0,0-.07,0,.05c-.45-.94-.86-1.89-1.26-2.84s-.78-1.86-1.12-2.81a39.29,39.29,0,0,1-1.19-4.41c-.07-.38-.12-.77-.19-1.15s-.46-2.91-1-2.91a6.58,6.58,0,0,0-2.52.83c-1,.51-2.14.93-3.18,1.44a30.6,30.6,0,0,1-3,1.31l0,0-.08,0,0,0h0a18.13,18.13,0,0,1-1.92.52c-1,.21-2.07.33-3.11.44s-1.89.24-2.84.31c-1.58.1-3.16.19-4.74.22l-2.27,0c-.79,0-1.57-.05-2.35-.1-1.87-.13-3.73-.31-5.58-.61s-3.78-.59-5.65-1c-1.38-.29-2.73-.69-4.1-1.06s-2.81-.72-4.19-1.19c-.77-.29-1.52-.63-2.26-1a34.59,34.59,0,0,1-3.52-2.08c-.71-.48-1.41-1-2.11-1.46s-1.52-1-2.25-1.58q-2.15-1.59-4.16-3.35a39.17,39.17,0,0,1-3.09-3.09l-2.07-2.4a30.67,30.67,0,0,1-2.13-2.69c-.66-1-1.24-2-1.84-3.07s-1.22-2.09-1.78-3.17a59.85,59.85,0,0,1-2.77-6.68v0c-.18-.53-.35-1.08-.48-1.64q-.32-1.65-.57-3.33c-.18-1.19-.41-2.37-.51-3.57v0c0-.42,0-.83,0-1.25s0-1.05-.06-1.57c0-1-.06-2.07-.07-3.11,0-2,0-4-.05-5.93,0-1.41-.09-2.82,0-4.23a51,51,0,0,1,.67-5.09c.14-.84.3-1.67.43-2.5s.24-1.54.39-2.3l0,.13a1.77,1.77,0,0,1,0-.2c.08-.39.15-.79.23-1.18h0a1.55,1.55,0,0,1,.05-.23c.21-1.06.45-2.12.71-3.17s.53-2.11.88-3.14c.22-.64.47-1.27.72-1.9s.46-1.13.73-1.68l.45-.87c.15-.33.28-.66.4-1a7,7,0,0,0,.31-1.08c0-.19.07-.39.11-.58a12.11,12.11,0,0,0,1.06-2.53,1.07,1.07,0,0,0-.93-.9c-.37-.2-.74-.42-1.11-.63s-.78-.46-1.18-.68l-2.29-1.36c-.83-.5-1.69-.94-2.54-1.4-.42-.23-.84-.44-1.26-.66l-1.32-.71c-1.55-.77-3.11-1.5-4.66-2.27a16.75,16.75,0,0,1-1.58-.93,4.65,4.65,0,0,0-1.46-.33,1.09,1.09,0,0,0-.73.3,1.29,1.29,0,0,0-.25.36c-.08.13-.16.25-.23.39-.22.37-.4.75-.63,1.11s-.53.71-.79,1.06-.62.81-.95,1.21c-.66.77-1.36,1.52-2,2.31s-1.32,1.63-2,2.42l-1,1.2-.15.17-.16.18a37.13,37.13,0,0,1-2.85,2.9,24.27,24.27,0,0,1-2.05,1.58c-1.2.8-2.42,1.56-3.62,2.35s-2.46,1.52-3.74,2.19a19,19,0,0,1-2.08.87c-.73.25-1.48.48-2.23.66s-1.55.33-2.33.5l-2.26.51c-.81.18-1.6.39-2.41.55l.1,0-.26.06c-1.13.22-2.25.46-3.37.72s-2.34.54-3.51.79-2.17.43-3.24.69-2,.5-3,.71a25.83,25.83,0,0,1-3.17.35c-1,.06-2.07.08-3.1.09s-2,0-3-.05a19.51,19.51,0,0,1-2.28-.31,45.92,45.92,0,0,1-5.32-1.32c-.44-.16-.87-.33-1.29-.53s-.68-.39-1-.6l-.84-.6c-.15-.11-1.28-1-1.76-1.33s-1-.84-1.55-1.26-1.05-.86-1.58-1.27L77.63,217c-.53-.4-1.08-.76-1.58-1.19s-1.22-1.11-1.77-1.71l0,0h0A21.93,21.93,0,0,1,72.72,212c-.34-.51-.65-1-1-1.57s-.63-1-.91-1.57a31.27,31.27,0,0,1-1.33-3.41v0l0-.1v.06a28,28,0,0,1-.79-2.81l0-.2a.68.68,0,0,0,0,.14c-.13-.68-.26-1.36-.4-2v0h0v0a.36.36,0,0,1,0-.1v0h0a37.41,37.41,0,0,1-.62-4.48c0-1-.08-1.91-.08-2.86a3,3,0,0,0-.07-.74,1.51,1.51,0,0,0-.67-1,4.73,4.73,0,0,0-.62-.25l-.61-.27,0,0,0,0-.09,0,.07,0-.45-.26c-.09-.07-.18-.13-.27-.21a5.78,5.78,0,0,1-.5-.49,8,8,0,0,1-.62-.79l-.12-.2,0-.05,0-.1a4.07,4.07,0,0,1-.07-.61q0-.44,0-.87c0-.05,0-.09,0-.14h0l0,0h0l.06,0,.18-.1a15.61,15.61,0,0,1,1.53-.59,8.72,8.72,0,0,1,1.1-.34l.28,0h.42a2,2,0,0,0,1.31-.45A1.86,1.86,0,0,0,69,184.2c0-.16,0-.32,0-.48s0-.36.08-.54a17,17,0,0,1,.53-1.85c.34-1,.67-2,1-3,.18-.5.39-1,.58-1.47s.36-1,.55-1.46c.37-1,.8-2,1.19-3s.76-1.89,1.19-2.82c.16-.34.32-.68.49-1,.43-.85.87-1.7,1.38-2.5s1.08-1.65,1.59-2.49A18.12,18.12,0,0,0,79,161.2a7.82,7.82,0,0,0,.45-1.34,3.32,3.32,0,0,0,.12-1.29,6.73,6.73,0,0,0-.36-1.07c0-.08,0-.15-.07-.23s0-.26,0-.39v0a5.8,5.8,0,0,1,0-.59c0-.12,0-.23,0-.34l0-.14c0-.07.06-.13.08-.19l.11-.19.2-.25c.2-.21.4-.42.62-.62a5.32,5.32,0,0,1,.47-.36l.42-.25.66-.27,1-.31c.4-.11.8-.2,1.18-.33a6.7,6.7,0,0,0,1.82-1.27c.63-.53,1.28-1,2-1.52s1.41-1,2.11-1.45h0c.54-.36,1.08-.72,1.64-1.07s1.13-.67,1.7-1c1.08-.66,2.12-1.39,3.25-2l0,0,.07,0,0,0h0c.66-.32,1.32-.63,2-.93s1.4-.59,2.1-.87c1.28-.51,2.57-1,3.87-1.45a18.65,18.65,0,0,1,2.09-.63c.87-.17,1.77-.25,2.64-.39s1.84-.31,2.77-.38,3.64-.29,3.88-.28.49,0,.73,0c.76,0,1.5,0,2.26.08a29.66,29.66,0,0,1,3.85.52c1.45.3,2.9.63,4.34,1s2.82.78,4.21,1.24a39,39,0,0,1,4.15,1.79l.17.08.19.1a9.94,9.94,0,0,1,.89.53,36.91,36.91,0,0,1,3.27,2.43,32.06,32.06,0,0,1,2.52,2.56h0l0,0,.07.08,0,0a32.1,32.1,0,0,1,2.42,3.15,27.3,27.3,0,0,1,1.67,2.73c.43.88.84,1.76,1.22,2.66s.82,1.95,1.17,2.94a115.71,115.71,0,0,1,3.22,11.7.52.52,0,0,0,0,.11,47.61,47.61,0,0,1,.8,5.82l0,.6a2.72,2.72,0,0,0,.5,1.71,2.57,2.57,0,0,0,1.68.51c.77,0,1.54,0,2.31,0l.43.05.23,0c.18,0,.36.1.53.15s.52.21.77.33c1.65.84,3.25,1.75,4.89,2.6.85.44,1.7.9,2.54,1.35s1.74.91,2.62,1.36c.47.25.94.49,1.38.78s.73.53,1.11.78a14.54,14.54,0,0,0,1.25.78c.41.23.8.49,1.21.7s.65.35,1,.54l.07.05,0,0,0,0,.12.2c.12.27.23.55.35.83s.26.59.38.89c.19.46.39.91.61,1.35v0c0,.06.05.13.08.19s0,.05,0,.08a1,1,0,0,0,1,.94,7.31,7.31,0,0,0,2.22-1.16c.22-.18.44-.34.67-.5.8-.57,1.5-1.27,2.31-1.82.44-.29.9-.53,1.35-.8s.88-.53,1.33-.76l0,0,.06,0,.06,0-.05,0c.7-.34,1.42-.68,2.15-1s1.41-.53,2.12-.78h0l.1,0h0l1.4-.48c.46-.16.92-.35,1.39-.51s1-.37,1.58-.51l1.38-.31c1-.2,2.1-.27,3.15-.4s2.2-.24,3.31-.31h.08c1.34-.08,2.68-.14,4-.23h0c1.26-.08,2.51-.1,3.77-.13s2.62-.05,3.93,0c.85.06,1.7.19,2.55.27s1.77.17,2.65.31q2.73.41,5.43,1c.77.16,1.52.37,2.28.59s1.4.4,2.09.63h0l.1,0-.1,0c.65.23,1.27.51,1.9.77S232.6,190.54,233.29,190.83Z"/><path d="M205.14,60.67a3.93,3.93,0,0,1,.18-.43l.11-.19.12-.15a3.43,3.43,0,0,1,.33-.33c.29-.25.58-.47.89-.69a20.52,20.52,0,0,1,2-1.18,15.55,15.55,0,0,1,1.5-.67c.55-.19,1.09-.38,1.62-.62,1.35-.6,2.71-1.15,4.08-1.69a1,1,0,0,0,.54-1.35,1,1,0,0,0-1.35-.55c-1.21.48-2.41,1-3.61,1.49-.47.2-.92.41-1.4.58s-.9.31-1.34.51a16.46,16.46,0,0,0-1.57.79c-.42.25-.85.5-1.26.77a12,12,0,0,0-1.23.89,4.65,4.65,0,0,0-1.14,1.28,5.35,5.35,0,0,0-.58,1.61A6.15,6.15,0,0,0,203,62.4a4.65,4.65,0,0,0,.33,1.51,4.23,4.23,0,0,0,1.08,1.43,16.14,16.14,0,0,0,2.76,1.87,16.7,16.7,0,0,0,3.3,1.38c1,.31,2,.56,3,.78s2,.46,3,.7l1.53.32a6.4,6.4,0,0,0,.66.14l.25,0,.94.19q3.38.69,6.8,1.07c1.19.12,2.39.25,3.59.32s2.26.11,3.4.14c2.25.07,4.51.24,6.77.27s4.56.12,6.84.12h20.4c2.25,0,4.5,0,6.74-.22,1.11-.08,2.21-.18,3.31-.28s2.26-.16,3.38-.28,2.06-.29,3.09-.46,1.93-.32,2.89-.5c2.24-.43,4.49-.79,6.75-1.14,1.14-.18,2.29-.26,3.43-.43s2.2-.48,3.3-.73,2.1-.44,3.15-.66,2.22-.55,3.32-.85,2.08-.55,3.12-.85,2.08-.63,3.11-1a13.93,13.93,0,0,0,1.66-.65c.56-.29,1.1-.6,1.63-.94a11.16,11.16,0,0,0,1.39-1.07A3.37,3.37,0,0,0,319,60.77c.27-1.39-.67-2.66-1.58-3.6a18.42,18.42,0,0,0-2.77-2.29c-1.45-1-3-1.93-4.46-2.88a1,1,0,0,0-1.41.37,1,1,0,0,0,.37,1.41c1.37.88,2.76,1.73,4.11,2.64a23.1,23.1,0,0,1,1.94,1.48c.34.31.68.62,1,1,.14.17.28.34.41.52s.16.26.23.4a.72.72,0,0,1,.09.2c0,.05,0,.1.05.15s0,.07,0,.1v.09a.78.78,0,0,1,0,.14s0,.06,0,.08l-.06.14,0,.08-.14.17-.32.32q-.37.31-.78.6-.66.43-1.35.81a15.51,15.51,0,0,1-1.46.61c-1,.34-2,.66-3,.95s-2.11.59-3.16.88c-.84.22-1.68.45-2.53.66-.2-.12-.42-.23-.63-.34-.45-.22-.91-.44-1.37-.64a26.7,26.7,0,0,0-3-1.1c-2.13-.67-4.3-1.16-6.48-1.65s-4.13-.9-6.23-1.19l-3.27-.43c-1.06-.13-2.13-.23-3.19-.34-2.18-.23-4.37-.36-6.56-.48s-4.3-.24-6.46-.26-4.25,0-6.37,0c-1.08,0-2.15,0-3.23,0l-3.21,0c-2.11,0-4.22,0-6.32.06s-4.3.26-6.45.42c-1.77.14-3.53.38-5.3.59-.84.11-1.68.21-2.51.34s-1.8.32-2.69.51l.14,0c-1,.21-2.07.38-3.09.59l-3.14.7c-1,.23-2,.46-3,.74s-2,.6-2.91,1-1.83.74-2.73,1.17-1.58.69-2.39,1a7.93,7.93,0,0,1-3.26.1c-.55-.2-1.09-.41-1.62-.66a21.13,21.13,0,0,1-2-1.22,12.52,12.52,0,0,1-1-.76l-.24-.23-.13-.17-.12-.2-.07-.18a2.58,2.58,0,0,1-.08-.26c0-.22-.06-.43-.07-.65a3.85,3.85,0,0,1,0-.59A3.62,3.62,0,0,1,205,61C205.07,60.91,205.1,60.79,205.14,60.67Zm12.25,6.27c1.07-.5,2.18-.92,3.29-1.32a37,37,0,0,1,3.71-1c1.31-.31,2.63-.6,4-.88s2.42-.46,3.62-.71c2.06-.41,4.16-.63,6.24-.9s4.28-.41,6.43-.57l.51,0h0c2.15-.13,4.3-.21,6.45-.21l3,0c1.07,0,2.14,0,3.21,0h2.78c3.38,0,6.77,0,10.14.15,1.61.08,3.21.17,4.82.27h-.14c1.09.08,2.19.15,3.28.26l3.09.31c2.14.23,4.28.52,6.4.88.49.08,1,.18,1.45.27A89.8,89.8,0,0,1,300,66.15c.27.1.54.22.81.33l-.63.13c-.88.19-1.76.43-2.64.62-1.13.21-2.27.29-3.41.44-.58.07-1.15.17-1.72.27l-1.82.28c-2.06.35-4.11.75-6.17,1.09-.85.14-1.7.31-2.56.42s-2,.22-3,.3c-1.89.14-3.79.33-5.69.46-2.25.14-4.52.13-6.78.13h-6.75c-4.56,0-9.12,0-13.68,0-1.11,0-2.23,0-3.34-.07s-2.3,0-3.44-.08-2.23-.11-3.35-.16-2.25-.08-3.37-.12l-2.28-.1A79,79,0,0,1,220,68.7l-1.43-.29h-.08c-1-.2-1.92-.42-2.88-.64l.33-.13C216.4,67.41,216.89,67.16,217.39,66.94Z"/></g></svg>