<svg xmlns="http://www.w3.org/2000/svg" viewBox="0 0 1000 1000"><defs><style>.cls-1{opacity:0.25;}.cls-2{fill:#fff;}.cls-3{fill:#625a57;}.cls-4{fill:#f0ecec;}.cls-5{fill:#d1c6c6;}.cls-6{fill:#e0d9d9;}</style></defs><g id="レイヤー_1" data-name="レイヤー 1"><path class="cls-1" d="M440.15,663c-7.06,0-14.11-.65-21.14-1.31a297.22,297.22,0,0,1-33.56-5.42c-5.2-1.13-10.57-1-15.86-1s-10.87-.06-16.28-.49c-7.29-.68-14.61-1.46-21.87-2.48-7.51-1.15-15-3.14-22.63-3a151,151,0,0,0-16.32,1.13c-3.17.31-6.37.39-9.54.7-5.57.51-11.13,1.34-16.7,1.85-4.55.43-9.14.55-13.69,1-5.91.45-11.82,1-17.73,1.43-6.69.23-13.43.23-20.12-.21a59.18,59.18,0,0,1-14.26-3.16c-2.15-.72-4.22-1.67-6.37-2.38a11.72,11.72,0,0,0-2.92-.58,24.8,24.8,0,0,0-3.94.48c-1.56.27-3.11.61-4.69.74a34.32,34.32,0,0,1-5.17-.06,23,23,0,0,1-3.88-.58,6.52,6.52,0,0,1-3.06-1.44c-.71-.69-1.31-1.49-2-2.18a11.12,11.12,0,0,0-3.7-2.47,22.23,22.23,0,0,0-4.87-.81c-5.1-.61-10.25-.73-15.36-1.29a51.16,51.16,0,0,1-7.66-1.53c-2.93-.82-6.07-1.7-8.3-3.89a16.89,16.89,0,0,1-3.88-14.66c2.34-7.47,8.51-12.82,14.39-17.6,5-4.25,10.93-7.36,16.82-10.27a30.15,30.15,0,0,0,5.28-2.77c16.11.19,32.66.74,48.66,0,23.1-1.26,46.05-5,69-7.58,27-2.54,54.22-4.32,81.26-6.83,42.46-4.74,85-9.79,127.26-16.1,39.17-5,78.52-9.59,117.71-14.49,30.48-4.21,61.06-8.59,91.55-12.72,31.14-4.27,62.42-8,93.61-11.94,16.63-2.31,33.49-1.73,50.22-2.36,12.54-.64,25.17-1.37,37.68-2.49,9.66-.75,19.43-1.51,29.13-1.33,5.13.17,10.45.22,15.46,1.48,3,.71,7.06,3,5.49,6.64a15.8,15.8,0,0,1-2.07,2.88,40.6,40.6,0,0,1-5,4.68,24.21,24.21,0,0,1-6.19,4,69.42,69.42,0,0,1-13.69,3.82c-8.31,1.2-16.71,1.91-24.92,3.74-2.57.51-5.13,1.13-7.72,1.58a64.65,64.65,0,0,0-8.27,1.63,36.75,36.75,0,0,0-8,3.64,23.06,23.06,0,0,0-7.84,6.88C841.25,560.1,841.27,566,843,571a15.51,15.51,0,0,0,4.5,6.11c3,2.67,6.21,5,9.24,7.56,3.18,2.76,7.54,6.08,7.69,10.59-.1,3.2-1.74,6.54-4.69,8a9,9,0,0,1-3.58.34,62,62,0,0,1-7-.78c-2.15-.44-4.29-1-6.44-1.43-7.61-1.68-15.18-3.56-22.89-4.76a41.18,41.18,0,0,0-17,.54c-4.8,1.24-9.41,3.17-14.28,4.2-4,.94-8.11,1.83-12.22,2.45-4.39.62-8.86.9-13.28,1.3a107,107,0,0,0-14.71,2.24,82.83,82.83,0,0,0-18.53,7.77,67.66,67.66,0,0,0-5.94,4.13,26.94,26.94,0,0,1-7.95,3.88c-12.39,3.36-24.94,6.21-37.42,9.23a97.08,97.08,0,0,1-14.08,2.23c-4,.31-8,.3-11.94.58-9,.78-17.94,1.56-26.91,2.25a231.08,231.08,0,0,0-25,3c-8.65,1.51-17.07,4.09-25.49,6.52-8.46,2.25-17,4.26-25.62,5.92-17,3.18-33.85,7.87-51.24,8.19-5.5.21-11,.07-16.55-.22-3.87-.22-7.77-.66-11.65-.5-4.76.19-9.53.67-14.26,1.23A111.63,111.63,0,0,1,440.15,663Z"/></g><g id="レイヤー_6" data-name="レイヤー 6"><path class="cls-2" d="M180.56,654.18A2.72,2.72,0,0,1,178.3,653a6.86,6.86,0,0,1-1-3.51c-.19-2-.29-4.07-.53-6.1s-.65-4.08-1-6.11c-.87-4.47-1.22-9-2.49-13.42a49.39,49.39,0,0,0-3.2-8c-.75-1.31-1.69-2.49-2.54-3.74A115,115,0,0,1,161,601.49c-1.53-3.15-2.74-6.46-4.31-9.6s-3.37-6.15-5-9.27a72.12,72.12,0,0,1-4.7-12.36,21,21,0,0,1-.8-4,27,27,0,0,1,0-3.71,40.27,40.27,0,0,1,2.35-12.09c.68-2.05,1.66-4,2.43-6a49.65,49.65,0,0,0,2.16-7.36c.89-4.14,1.7-8.31,2.79-12.4a122.49,122.49,0,0,1,5.05-15.2c1.05-2.35,1.6-4.93,2.92-7.16A26.28,26.28,0,0,1,169.8,496a94.82,94.82,0,0,1,8.68-6.19c3.47-2.05,7.16-4.12,11.28-4.27.23.07,9.76-2.34,10-2.37.07,0,.26,0,.35,0a4.78,4.78,0,0,1,1.67.3,28.48,28.48,0,0,0,4.66,1.35,55.63,55.63,0,0,1,8.11,1.38,94.26,94.26,0,0,0,10.39,2,21.58,21.58,0,0,0,5-.26c.53-.23,1.14-.28,1.66-.55a12.26,12.26,0,0,0,2.05-1.34c1.15-.92,2.33-1.81,3.52-2.67a94.09,94.09,0,0,1,9.44-5.81c4.44-2.8,9.27-4.91,13.71-7.71,4.95-3.05,9.28-7.08,14.48-9.72,5.72-2.86,11.55-5.51,17.15-8.61a79.64,79.64,0,0,1,8.53-3.58c2.63-1,5.27-2,8-2.77,3.79-.92,7.14-3,10.81-4.3a66.54,66.54,0,0,1,7.05-2c1.91-.53,3.83-1.06,5.73-1.63,3.91-1.15,7.92-2,11.9-2.82,2.23-.43,4.46-.94,6.7-1.35,2-.31,4.11-.56,6.16-.81,2.75-.25,5.52-.11,8.28-.17,3.58,0,7.16-.22,10.73-.47a90.17,90.17,0,0,1,9.15.15c2,.1,4,.37,6,.33a34.93,34.93,0,0,0,4.57-.39c2.58-.3,5.19-.53,7.78-.71,6.51-.61,13.13-.67,19.51-2.22,6.91-1.66,13.61-4.13,20.63-5.34a57.16,57.16,0,0,1,7.94-1.06c2.16-.25,4.32-.58,6.5-.72,4.84-.26,9.7,0,14.54,0,4.51,0,9-.44,13.52-.59,2.46,0,4.93.07,7.39.19,1.82.06,3.67.28,5.5.24a5.44,5.44,0,0,0,2.09-.54,8.21,8.21,0,0,1,2.05-.87c.74,0,1,.95,1.52,1.34l.06.13.14,0a9.36,9.36,0,0,0,3.65-.08c1.59-.24,3.2-.47,4.81-.61A20.93,20.93,0,0,0,518,420c.65-.23,1.25-.58,1.91-.81,1-.38,2.15-.65,3.23-1a37.55,37.55,0,0,1,5.53-1.18c3-.35,6.07-.45,9.09-.85a53.3,53.3,0,0,0,9.37-2.34c2.46-.68,4.95-1.31,7.44-1.91a88.49,88.49,0,0,1,9-1.48c2.46-.5,4.85-1.31,7.25-2,2-.61,4-1.18,6-1.63a54.5,54.5,0,0,0,6.58-1.63c3.27-1.08,6.56-2.36,10-2.67a25.4,25.4,0,0,1,4.92.48,25.29,25.29,0,0,0,4.4.67c3-.21,6-1.11,9-1.58a20.23,20.23,0,0,1,10.29.76c1.91.58,3.71,1.48,5.63,2a46.69,46.69,0,0,0,7.24,1.27,115.93,115.93,0,0,0,12.08.3A118.91,118.91,0,0,0,665,403.71c5.77-1.26,11.65,0,17.48,0,3.77.17,7.67,0,11.32,1.15a41.21,41.21,0,0,1,6.26,3.15,47.74,47.74,0,0,1,5.61,3.6,41.84,41.84,0,0,1,6,5,101.51,101.51,0,0,1,7.45,9,39.79,39.79,0,0,1,3.48,4.79c1.41,2.33,2.48,4.87,4,7.14a29.14,29.14,0,0,0,4.24,4.71c2.41,2.54,5,4.93,7.61,7.23,1.8,1.51,3.56,3.1,5.4,4.56,1.35.94,2.8,1.76,4.22,2.58,3.27,2,7,2.95,10.35,4.71a79.14,79.14,0,0,1,9.42,6.39c2,1.52,4.2,2.86,6.29,4.3,4.93,3.38,10.78,4.93,16.65,5.67a56.39,56.39,0,0,0,8-.18,145.2,145.2,0,0,1,23.5-.33c3.46.24,6.89.91,10.35,1.06,4,.2,7.93.11,11.86.65,5.32.75,10.52,2.14,15.78,3.15,3.58.76,7.19,1.35,10.77,2.1,5.47,1.18,11,2.35,16.45,3.4,7.47,1.63,14.87,3.62,22.26,5.57a115.81,115.81,0,0,1,11.78,3.08,55,55,0,0,1,9.49,4.59c2.31,1.28,4.77,2.27,7.13,3.44a11.24,11.24,0,0,1,3.57,2.52A6.17,6.17,0,0,1,943.3,512s0,.1,0,.1a8,8,0,0,1-1.22,2.85L942,515l-.06.09s-.07.08-.07.09a14.82,14.82,0,0,1-5,4.25,36.27,36.27,0,0,1-7.29,2.95c-1.54.48-3.08,1-4.63,1.45-1.8.5-3.62.9-5.43,1.35-5.09,1.29-10,3.07-15.23,3.94a71,71,0,0,1-9.76,1,124.93,124.93,0,0,1-15.48.18,37.77,37.77,0,0,0-5.53.18,11.1,11.1,0,0,0-5,1.48c-1.14.62-2.39,1.83-2,3.24a9.5,9.5,0,0,0,2.36,2.78c1.71,1.6,3.58,3,5.39,4.48a31.08,31.08,0,0,1,4.89,5.23c1.75,2.25,3.71,4.57,4.29,7.44a38.9,38.9,0,0,1,.08,4.71,17.28,17.28,0,0,0,.68,4.51,9.65,9.65,0,0,1,.56,3,9.34,9.34,0,0,1-1.7,4.34,21.28,21.28,0,0,1-4.45,4.92,14.42,14.42,0,0,1-3.75,2h0a23,23,0,0,0-2.77,1,8.65,8.65,0,0,0-2.27,1.67,20.39,20.39,0,0,1-2.12,2.14,19.63,19.63,0,0,1-5.76,2.9,17.65,17.65,0,0,1-5.31.89c-5.44,0-10.89.13-16.32-.32-2-.19-4-.29-6-.46a92.07,92.07,0,0,0-9.81-.72c-4.47,0-8.94-.06-13.41-.08a61.76,61.76,0,0,1-11.29-.76,16.89,16.89,0,0,0-5.94.75c-1.82.57-3.48,1.54-5.26,2.22a50.56,50.56,0,0,1-8.21,2.23,3.14,3.14,0,0,0,1.41-5.07c-1-1.27-2.65-1.79-4-2.64-1.51-.89-3-1.91-4.45-2.82a55.29,55.29,0,0,0-6-2.93c-2.94-1.31-6.13-2.13-8.89-3.81-2.9-1.85-4.18-5.25-6-8a61.23,61.23,0,0,0-3.93-5.28,23.16,23.16,0,0,0-8.68-7.28c-1.83-.87-3.71-1.66-5.61-2.36a15,15,0,0,1-3.51-1.63h-.12c1.35,3,5.19,9.62,6.8,12.42,1.95,3.36,3.86,7,3.9,11a24.32,24.32,0,0,1-2.29,10.57c-.78,1.84-1.65,3.66-2.41,5.51-.69,1.66-1.36,3.53-.69,5.3a2.89,2.89,0,0,0,2.1,2.23c1.65.22,3.33.32,5,.55a31.29,31.29,0,0,0,7.23.43,51.43,51.43,0,0,1-9.61-.1c-2.39-.27-5-.5-7.18.62h-.13l-.05.12c-3.33,2.15-6.35,4.78-9.63,7-2.85,1.9-6,3.3-8.95,5-3.6,2-7.09,4.3-10.84,6.07a74.64,74.64,0,0,1-9.32,3.4c-3.57,1.07-7.09,2.35-10.69,3.3-2.23.52-4.48.94-6.71,1.46-1.61.38-3.19.93-4.78,1.39a67.51,67.51,0,0,1-8.71,1.76c-7.09,1.27-14.23,2.34-21.36,3.39-7.62,1.11-15.28,2-22.91,3-5.28.6-10.6,1-15.89,1.52-4.37.5-8.72,1.29-13.08,1.86-4.65.52-9.29,1.15-13.87,2.09-8.18,1.62-16.25,3.92-24.59,4.57-10.32.86-20.49,2.86-30.76,4.1a89.94,89.94,0,0,0-14.39,2.53c-4.43,1.16-8.71,2.87-13.14,4a28.52,28.52,0,0,1-6.46.43c-3.13,0-6.28-.23-9.41-.22-6.89,0-13.79.06-20.67-.14-4.11-.12-8.21-.57-12.31-.73-11.23-.07-22.47-.24-33.66-1.24-3-.3-5.95-.6-8.9-1s-6.1-1-9.18-1.22c-2.63-.22-5.28-.33-7.91-.6s-5.49-.6-8.24-.8c-6.31-.34-12.64-.06-18.93-.7-8.72-1-17.63-1.46-25.89-4.62-6-2.44-12.63-1.86-19-1.44-2.84.18-5.71.07-8.55.17-4.05.16-8.1.19-12.14.3A120.82,120.82,0,0,0,277,643.88c-3.51.69-7,1.68-10.46,2.41-4.28.77-8.58,1.4-12.89,2-3.33.4-6.7.54-10.06.7-4.1.2-8.14,1-12.22,1.33a29.23,29.23,0,0,1-8.75-.69,112.17,112.17,0,0,1-12.34-3.55,46,46,0,0,1-4.7-2.38,24.34,24.34,0,0,0-4-2,4,4,0,0,0-2.09-.21,7.53,7.53,0,0,0-2.6,1.32c-1.19.86-2.31,1.81-3.43,2.77a70.08,70.08,0,0,1-8,6.32C183.94,652.87,182.41,654.07,180.56,654.18Z"/><path class="cls-3" d="M758.82,595c2.08-.67,4-1.66,6.15-2.26a65.94,65.94,0,0,1,7-1.4c1.8-.26,3.63-.32,5.43-.52-3.37.68-6.67,1.74-10,2.59-2.84.66-5.73,1.16-8.61,1.62Z"/></g><g id="レイヤー_5" data-name="レイヤー 5"><path class="cls-4" d="M233.19,589.61A15,15,0,0,1,224,587a25.77,25.77,0,0,1-5.24-5.64,15.17,15.17,0,0,1-1.83-4.69c-.76-2.86-1.24-5.79-2.12-8.62a26.67,26.67,0,0,0-3.35-7.22,13.68,13.68,0,0,0-6.32-5.62,10.17,10.17,0,0,0-4.72-.2c-3.07.29-5.94,1.46-8.89,2.28-2.15.49-4.34,1.28-6.58,1.08-.79-.09-2-.46-1.89-1.46a7.51,7.51,0,0,1,1.31-2.38,35.54,35.54,0,0,1,5-5.54,30,30,0,0,0,5.26-7.4A18.67,18.67,0,0,0,196,531.48c-.69-4.43-2.73-8.51-3.47-12.92a31.42,31.42,0,0,1-.29-4.55,12.86,12.86,0,0,0,0-2.06c-.49-2.54-.79-5.29.38-7.68a8.88,8.88,0,0,1,3.65-3.66,11.21,11.21,0,0,1,6.62-2.35c4.71.11,9.17,2.42,12.59,5.56,2,1,4.1,1.82,6.14,2.71a88.13,88.13,0,0,1,12.17,5.71c2.08,1.23,4,2.76,6,4.11,1.55,1.09,3.21,2,4.83,3l0,.11a7.14,7.14,0,0,1,1.93,1.26c1,.77,1.87,1.61,2.78,2.43a54.07,54.07,0,0,1,4.21,4.22,14.18,14.18,0,0,1,2.91,4.14c.91,2.43.91,5.06,1,7.62a46.7,46.7,0,0,1-2.7,16.64,88.43,88.43,0,0,1-3.51,8.21c-.74,1.71-1.26,3.49-1.83,5.25-.72,2.12-1.34,4.26-1.9,6.42a21.15,21.15,0,0,1-2.1,5.46c-1.15,1.67-2.59,3.12-3.79,4.74l-.16.07,0,.15C239.22,588.91,236.67,589.59,233.19,589.61Z"/><path class="cls-5" d="M798.23,499.39c-.06-1.9.24-3.82,0-5.72a26,26,0,0,0-2.07-6.06,33.36,33.36,0,0,0-2-4.05,17.58,17.58,0,0,0-1.19-1.64c-.16-.37-5.06-4.08-5.46-4.36l-.1-.06a3,3,0,0,0-3.65,1.39,4.51,4.51,0,0,0-.39,2.83c.33,2.21.52,4.57,1.58,6.58l.06.09a16,16,0,0,0,2.58,2.2c2,1.53,2.11,4.17,2.18,6.46a17.13,17.13,0,0,1-.61,4.78,20,20,0,0,1-2.44,4.86q-1.21,1.9-2.44,3.8c-.87,1.18-1.79,2.37-2.64,3.58a27.43,27.43,0,0,1-2.6,3.09,37.52,37.52,0,0,0-2.84,2.8,24.49,24.49,0,0,0-1.75,2.55,3.33,3.33,0,0,0-.49,3.42c.88,1.76,2.49,3.4,4.58,3.37a8.26,8.26,0,0,0,4.23-1.45,24.73,24.73,0,0,0,5.39-4.23,30,30,0,0,0,4.67-4.48,42.71,42.71,0,0,0,3.54-4.8,18.89,18.89,0,0,0,1.93-4.27,16.06,16.06,0,0,0,.51-4.83C798.69,503.28,798.26,501.35,798.23,499.39Z"/><path class="cls-5" d="M883,553.06a14.54,14.54,0,0,0-4.87-9.11c-1.45-1.17-5.95-3.24-7.56-4.35-.22.2-.11.62-.22.89-.11.65-.24,1.31-.41,1.94a38.2,38.2,0,0,0-1.59,6.47c-.29,3.25,1,6.34,1.52,9.49.38,2.11-.45,4.16-1.16,6.11a53.9,53.9,0,0,0-2.3,6.42c-.3,1-.67,1.94-1.05,2.89a4.81,4.81,0,0,1-.89,1.67c-.83.79-1.8,1.45-2.57,2.31a12.66,12.66,0,0,0-3.08,5.09l0,.11a2.29,2.29,0,0,0,.38,1.91,4.41,4.41,0,0,0,2.59,1.07,3.81,3.81,0,0,0,2.05-1.21,36.74,36.74,0,0,0,3.23-3.59,7.13,7.13,0,0,1,2.8-2.12c1.94-.64,4-1.12,5.88-1.8,1.43-.56,2.92-1,4.33-1.54,3.8-1.45,5.17-5,5.13-8.84-.05-2.07-.85-4-1.17-6C883.64,558.25,883.55,555.62,883,553.06Z"/><path class="cls-5" d="M398.92,473.23a1.73,1.73,0,0,1,.1.24c.71.2-.44-1.47-.58-1.71-1.26-2.14-4.16-4.45-5.87-6.27a49.78,49.78,0,0,0,.14,8.71c.08.91.17,1.82.27,2.72a10,10,0,0,1,.09,2.83c-.13,1.88-1.67,3.05-2.93,4.25a22.56,22.56,0,0,0-3.53,4.71c-1.46,2.22-1.72,4.91-2.22,7.46a11.43,11.43,0,0,1-1.09,3.25c-.32.72-.67,1.44-1,2.16a2.61,2.61,0,0,0,0,2.62l.05.1a2.74,2.74,0,0,0,2.41,1.18c2.38-.25,4.43-1.69,6.47-2.82,1.05-.63,2.14-1.2,3.2-1.82a23.6,23.6,0,0,0,3.13-2.4c3.63-3.16,4.1-8.31,3.91-12.82C401.42,481.36,400.17,477.26,398.92,473.23Z"/><path class="cls-5" d="M443.38,517.32a18.24,18.24,0,0,0-3.34-4.6,15.57,15.57,0,0,0-3-2.33c0-.42-9.86-2.74-10.29-2.92l-.09.12a60.37,60.37,0,0,1,.8,10.58c0,3.62,0,7.25-.09,10.87-.08,3.32-.4,6.62-.65,9.92-.08,1.19-.12,2.38-.14,3.57a11,11,0,0,0,.23,2.92c1.07,3.58,4.6,4,7.82,4.11h0a5.89,5.89,0,0,0,1.59-.92,9.46,9.46,0,0,0,1.26-1.49c.77-1,1.53-2.12,2.23-3.21a53.73,53.73,0,0,0,3.62-6.56,23.49,23.49,0,0,0,2.49-7.67c.33-2.66.56-5.46-.37-8A30.91,30.91,0,0,0,443.38,517.32Z"/><path class="cls-5" d="M940.22,504.36a21.82,21.82,0,0,0-4.78-2.63c-.41-.18-.85-.34-1.27-.5-.13-.19-6,.16-6.16.11a20.63,20.63,0,0,1,.37,6.33c-.15,2.43-.36,4.87-.43,7.31-.08,2.94-.48,7.38,3.52,7.63a11,11,0,0,0,4-1.13,26.74,26.74,0,0,0,4.5-2.58,17.75,17.75,0,0,0,3-2.28,4.08,4.08,0,0,0,1.32-2C945.31,511,943,506.63,940.22,504.36Z"/></g><g id="レイヤー_4" data-name="レイヤー 4"><path class="cls-6" d="M149.46,544.11c-7.08-2.06-15.25-1-22.61-.4h0l0,.15c7.72,7,15.83,14.84,21.79,22.73.24.1.23-.34.31-.48l.43-1.4a24.67,24.67,0,0,0,.92-4.89c.2-2.24.31-4.49.35-6.73,0-.26,0-.56,0-.81-.45-.62-1.14-1.24-1.11-2.07C149.31,548.12,149.52,546,149.46,544.11Z"/><path class="cls-6" d="M182.94,628.05c-2.3-1.71-4.5-3.59-6.8-5.31l-.09.1c.8,9.49,0,18.17,2.31,27h0l0,.12a1.84,1.84,0,0,0,.65.17c6.85-.92,12.22-7.07,15.34-12.89-.45-.36-.9-.74-1.33-1.12C189.83,633.28,186.4,630.64,182.94,628.05Z"/><path class="cls-6" d="M515,641.31c-6.07-.12-12.16.19-18.21-.44a25.27,25.27,0,0,1-3.56-.63A15.22,15.22,0,0,1,488,637.4c-1.12-1-2.05-2.12-3.08-3.17a5,5,0,0,0-2.65-1.67,2.1,2.1,0,0,0-1.37.23c-.12.05-.2.18-.3.26a.08.08,0,0,0,0,.14l-.16,0c-.95,1.11-1.74,2.36-2.76,3.41-1.35,1.39-2,.26-2.6-1.06-.47-1.08-.92-2.18-1.43-3.24s-1.18-2.59-2.54-2.93-2,.9-2.74,1.69l0,.1-.09,0a24.41,24.41,0,0,1-5.16,4.23c-3.95,2.67-8.59,4.07-13.18,5.18A65.36,65.36,0,0,1,433.26,642c-3.56-.09-7.13-.61-10.69-.7a96.28,96.28,0,0,1-12.11-1.23c-3.15-.55-6.23-1.56-9.33-2.37a113.28,113.28,0,0,1-25.85-10.46c-5.37-3.14-10.7-6.59-14.92-11.23a45.82,45.82,0,0,1-5.62-8,42.34,42.34,0,0,1-4.68-11.72c-1.54-5.78-2.75-11.66-4.45-17.4-.3-1.07-.63-2.16-.93-3.23-10.76-15.24-15.2-31-3.05-47.22l0-.14a4.64,4.64,0,0,0-3.22.39c-1.12.45-2.24.94-3.36,1.41a15.92,15.92,0,0,0-3.73,1.82,29.88,29.88,0,0,0-5.76,6.86,20.64,20.64,0,0,0-2.66,7.14c-.52,2.45-.65,5-1.59,7.38-1.36,2.71-3.23,3-5.51,1-3.46-3.12-5.82-7.23-8.23-11.17a10.18,10.18,0,0,0-4.91-4.39c-.95-.47-2.31-.37-1.91,1a32.67,32.67,0,0,0,1.72,3.76c1.8,3.71,4,7.21,5.85,10.87,2.77,5.43,4.47,11.31,6.05,17.17,1.09,4.18,1.7,8.46,2.46,12.71a40,40,0,0,1,.92,6.16c.08,2.36,0,4.73-.14,7.09-.09,1.69-.26,3.39-.39,5.08a39.86,39.86,0,0,1-.59,5.23,47.91,47.91,0,0,1-2.75,8.66,35,35,0,0,1-4.53,6.88c-2.32,2.88-4.37,6-6.92,8.69a14.06,14.06,0,0,1-3.81,3.2c-.08.08-1.49.54-1,.64a95.13,95.13,0,0,1,13.59.45c8.63,1.22,17.26,3.51,26,4.15C380,644,422,649.16,465.31,649.14,468.1,650.84,531.3,640.74,515,641.31Z"/><path class="cls-6" d="M286.29,518.36c-2.37-4.5-3.53-9.5-5.49-14.18-1.06-2.73-3,.36-3.7,1.65-1,1.63-1.55,3.63-3.92,3.17a14.4,14.4,0,0,1-5.13-2.53c-2-1.38-3.87-2.93-5.78-4.41a42,42,0,0,0-4.35-3c-1.7-.95-9.28-4.29-11.22-5.21h-.12l0,.16c3.22,3,17.13,18.78,9.31,21.2-.4.07.16.81.22,1.06a16.38,16.38,0,0,0,2,3,27.58,27.58,0,0,0,2.37,2.7,56.2,56.2,0,0,0,5.9,4.52.08.08,0,0,0,0,.1h.1c2.7-2.07,5,1.17,6.5,3.14a30.38,30.38,0,0,0,4.45-.54,8.57,8.57,0,0,1,3.27-.09,12.16,12.16,0,0,1,5.49,2.92c1.23,1,2.42,2.06,3.58,3.13.66.6,1.31,1.23,2,1.8a4.71,4.71,0,0,0,1.8,1.09c3.55-.86,1.13-6.28.08-8.43C291.4,525.75,288.15,522.49,286.29,518.36Z"/><path class="cls-6" d="M309.19,492.43c2.64,5.07,6.8,11.95,12.24,14.23a54.18,54.18,0,0,0,6.53,1.88,39.69,39.69,0,0,1,6.94,2.6c2.46,1.17,4.42,3.1,6.55,4.76,2.61,2,5.62,3.85,9,4.12a5.81,5.81,0,0,0,1,0c6.36-4.2,13.86-7.24,20.36-10.71-15.89-1.55-33.69-5.21-45.44-16.91-2.65-3.89,3.58-7,5.5-2.84,13.52,10.56,31.47,13.75,48.12,14,.27,0,.63.11.83,0,.13-3.29,9.1-1.87,6.76-3a64.38,64.38,0,0,1-9.49-5.14,95.68,95.68,0,0,1-9.53-7.13c-1.75-1.5-3.43-3.09-5.26-4.5a42.35,42.35,0,0,0-4.59-2.92c-3.11-1.8-6.3-3.48-9.43-5.24a61.5,61.5,0,0,1-6.62-4A144,144,0,0,1,329,461c-2.33-2.11-4.09-4.75-6.37-6.9a11.28,11.28,0,0,0-6.22-3.28,10.9,10.9,0,0,0-9.13,3.49,11.53,11.53,0,0,0-1.93,3.61c-1.32,3.48-1.61,7.24-2,10.91-.56,1.36,1.21,10.49,1.35,12A70.58,70.58,0,0,0,309.19,492.43Z"/><path class="cls-6" d="M378,521.18c-2.57.76-5.14,1.57-7.63,2.55-3.09,1.2-6.35,1.95-9.42,3.24a50.71,50.71,0,0,0-7.3,3.25A20.09,20.09,0,0,0,350,532.9a25.58,25.58,0,0,0-2.55,3.22,18.88,18.88,0,0,0-2.7,5.31,21.73,21.73,0,0,0-1.35,8.1,22.09,22.09,0,0,0,2.6,8.92,13,13,0,0,0,3.24,4.82,32.65,32.65,0,0,0,14.84,6c3.62.09,5.12-2.77,6.53-5.61,1.15-2.39,2.12-4.88,3.2-7.3a20,20,0,0,1,3.07-5.25,26.76,26.76,0,0,1,5-4.51,16.85,16.85,0,0,1,6.69-3.09c5-.94,10.05-.87,15.06-1.44,2.49-.27,5-.15,7.5-.62a5.41,5.41,0,0,0,2.72-1.25c2.25-2.74,1.7-6.83.19-9.8a29.86,29.86,0,0,0-5.89-7.48,21.61,21.61,0,0,0-3.54-2.44c.23-.21-10.23-3.22-10.52-3.27a33.26,33.26,0,0,1-3.71.58c-2.2.41-4.38,1-6.56,1.51C381.84,519.85,379.9,520.58,378,521.18Z"/><path class="cls-6" d="M752.9,505.44c3.92,1.48,6.24,10.62,11.53,13.85h0s.1-.09.12-.13a24.68,24.68,0,0,1-3.5-7.84c-.56-2.07-.8-4.22-1.27-6.31-.42-1.68-.77-3.56-2.24-4.67a18.21,18.21,0,0,0-2.6-1.52c-3-1.91-4.36-5.33-5.9-8.35-1.24-2.61-2.72-5.12-3.71-7.84a26,26,0,0,1-1-5.73,6.38,6.38,0,0,0-.11-1.74,1.62,1.62,0,0,0-2-.88c-1.19.16-2.39,1.15-3.52.44a2,2,0,0,1-1.08-1.53,19.77,19.77,0,0,1-.41-2.3c-.18-1.53-.27-3.07-.36-4.61a11.39,11.39,0,0,0-.31-2.54c-1.23-2.32-4.6,1.5-5.76,2.46-1.85,1.71-1.85-2.47-2.11-3.51a46.34,46.34,0,0,0-1.3-6.17c-.89-2.52-3.77-1.31-4.84.41-1.89,2.83-1.7,6.44-1.87,9.71,0,3.58.09,7.17.13,10.75a30.67,30.67,0,0,0,.53,6.2,14,14,0,0,0,3.48,6,11.82,11.82,0,0,0,2.6,2.19c4.36-2.51,7.69,4.91,12.15,6.7A66.32,66.32,0,0,0,752.9,505.44Z"/><path class="cls-6" d="M826.36,578.44a23.87,23.87,0,0,1-2.83-6.51,22.27,22.27,0,0,1-.41-7.19c.27-3.51,1.75-6.79,2.17-10.27.07-1.8.29-3.89-.86-5.41a1.51,1.51,0,0,0-1.74-.69,28.44,28.44,0,0,0-3.26,2.56c-.64.58-1.9,1.09-2.41.09a5.32,5.32,0,0,1-.1-2.18c0-2.61,2.32-6.62-.37-8.49a4.51,4.51,0,0,0-3.49.17,8.52,8.52,0,0,0-3.84,2.66c-1.2,1.25-2.26,2.65-3.33,4s-2.59,2.4-3.82,3.66a20.34,20.34,0,0,0-3.18,5.09c3.64,7.12,3,16.59,2,24.37,8.66-.77,16.88,1.34,25.3,2.7,1.13,0,2.31.16,3.57.08h0l0-.13C828.76,581.37,827.35,580.06,826.36,578.44Z"/><path class="cls-6" d="M871.27,526.19c-1.86-.64-3.74-1.21-5.62-1.8a44.07,44.07,0,0,1-5.34-2.41,95.45,95.45,0,0,0-9.55-3.6,74.21,74.21,0,0,1-10.36-4.79c-4.77-2.82-9.24-6.13-14.17-8.67a34.54,34.54,0,0,0-9.07-3.06c-3.24-.71-6.52-1.32-9.69-2.31a15.55,15.55,0,0,1-4.76-2.6l-.08.07-.68,2.39c1.34,3.68,1.14,8.29.26,12.12-.3.41,1,1,1.28,1.38h0a21,21,0,0,1,3.14,3.72c10.28,6,20.07,14,32.45,15.64,6.66.16,13.15-1.28,19.78-.95,1.34-1.84,3.88-1.21,5.76-2.16,2.69-1.08,6.21-1.3,8.64-2.2C872.63,526.65,871.93,526.44,871.27,526.19Z"/><path class="cls-6" d="M779.62,583.37c-.83-.44-1.66-.9-2.46-1.4-1.6-1-3.13-2.1-4.8-3a83.61,83.61,0,0,0-10.19-4.42c-2.34-.89-4.73-2-6.17-4.17-1.28-1.77-2.32-3.72-3.5-5.56a56.23,56.23,0,0,0-3.57-4.83C745,554.9,742,552.94,736,550.6c-1.75-.75-3.69-1.19-5.26-2.3h-.12c1.32,3,5.21,9.63,6.8,12.42,1.9,3.27,3.78,6.8,3.88,10.67a24,24,0,0,1-2.27,10.86c-.72,1.69-1.52,3.38-2.23,5.08a11.07,11.07,0,0,0-1.15,4.23c.11,1.33.56,3,1.89,3.59a38.46,38.46,0,0,0,4.36.55,54.69,54.69,0,0,0,6.25.64A56.89,56.89,0,0,0,759,594.9c2.11-.7,4.12-1.71,6.26-2.29s4.32-1,6.5-1.29c2.67-.38,5.4-.35,8-1.05a3.06,3.06,0,0,0,2.69-4.1A4.94,4.94,0,0,0,779.62,583.37Z"/></g><g id="レイヤー_3" data-name="レイヤー 3"><path d="M245.64,558.69a25.72,25.72,0,0,0-2-4.48,51.22,51.22,0,0,0-5.22-7.66,57.25,57.25,0,0,0-6.57-7c-1-.91-2.09-1.84-3.2-2.67a9.48,9.48,0,0,0,.87-.81,9.09,9.09,0,0,0,2-3.79,31.52,31.52,0,0,0,.78-8,12,12,0,0,0-.72-4,32.21,32.21,0,0,0-1.61-4.05,26,26,0,0,0-2.27-3.75c-.88-1.2-1.73-2.43-2.66-3.59a18,18,0,0,0-2.73-2.79c-1-.86-2.14-1.65-3.21-2.48a52.89,52.89,0,0,0-7.21-4.81,24.64,24.64,0,0,0-4.26-1.83c-1.12-.34-2.25-.62-3.38-.93a3.05,3.05,0,0,0-1.62,5.89c1.19.33,2.39.62,3.57,1a20.35,20.35,0,0,1,2.11.87,44.64,44.64,0,0,1,4.16,2.47c1.19.82,2.3,1.73,3.45,2.59s2,1.52,3,2.35c.27.25.53.51.78.79,1.27,1.52,2.43,3.14,3.56,4.77a20.56,20.56,0,0,1,1.06,1.82A32.4,32.4,0,0,1,225.7,522c.14.41.27.82.37,1.24,0,.18.05.35.07.53,0,1.28,0,2.57-.1,3.85a21.91,21.91,0,0,1-.3,2.42c-.08.36-.17.71-.28,1.07l-.21.48-.12.21-.08.1-.23.23-.51.38c-.12.08-.24.16-.37.23l-.57.25c-.7.21-1.42.33-2.13.51-.54.14-1.05.33-1.59.48s-1.08.27-1.62.39c-1.17.23-2.36.43-3.54.6a20.4,20.4,0,0,0-3.56-3.19c-.39-.34-.78-.68-1.13-1a3.05,3.05,0,0,0-5.3,2.52,2.77,2.77,0,0,0-.16,1.49,11,11,0,0,0,.52,2,11.3,11.3,0,0,0,.67,1.35,26,26,0,0,1,1.11,2.6,24.76,24.76,0,0,1,.69,2.56,4.44,4.44,0,0,0,1.81,3.2,3.14,3.14,0,0,0,1.58.42,3.07,3.07,0,0,0,1.56-.42,3.69,3.69,0,0,0,1.58-2.16c.25-.76.53-1.53.75-2.3.09-.31.16-.62.23-.93l1.75-.26a39.57,39.57,0,0,0,4.46-.9c.23-.06,1.81.8,2.56.93l.56.34c1.07.76,2.08,1.6,3.08,2.46a56.82,56.82,0,0,1,4.53,4.52,65.34,65.34,0,0,1,4.63,6,44.48,44.48,0,0,1,2.35,3.91,22.93,22.93,0,0,1,1,2.34c.19.58.35,1.16.48,1.75a31.42,31.42,0,0,1,.45,3.49c0,.66.05,1.31,0,2s-.13,1-.22,1.5-.26,1-.42,1.54a22.42,22.42,0,0,1-.89,2.08,32.86,32.86,0,0,1-1.89,3.18,54.52,54.52,0,0,1-3.27,4.44c-.31.34-.63.67-1,1s-.49.4-.75.59l-.54.32-.65.29-.09,0a3.1,3.1,0,0,0-2.13,3.76,3.14,3.14,0,0,0,2.94,2.26,2.54,2.54,0,0,0,.81-.13,12,12,0,0,0,3.9-2.07,20.19,20.19,0,0,0,3-3.1c.74-.92,1.41-1.9,2.08-2.88s1.52-2.16,2.16-3.3a23.65,23.65,0,0,0,2.78-7.09,22,22,0,0,0,0-7.19A25.75,25.75,0,0,0,245.64,558.69Z"/><path d="M256.37,526.75a27.41,27.41,0,0,0-3.06-3.22,42.36,42.36,0,0,0-3.76-2.91c-2.2-1.54-4.55-2.84-6.79-4.32a1.33,1.33,0,0,1-.19-.14l0,0a3.05,3.05,0,0,0-4.87,3.17,3.91,3.91,0,0,0,1.92,2.21c.68.44,1.37.86,2.05,1.29,1.41.89,2.83,1.75,4.22,2.67,1.12.8,2.22,1.62,3.27,2.51.58.52,1.14,1.07,1.67,1.64s1.13,1.39,1.64,2.12.73,1.2,1.06,1.82a15.23,15.23,0,0,1,.62,1.44c.12.38.22.77.31,1.16.13.7.23,1.41.3,2.12s0,1.21,0,1.81-.14,1.29-.26,1.94c-.11.47-.23.93-.38,1.39s-.37.94-.58,1.4c-.35.65-.73,1.28-1.14,1.9-.24.34-.48.68-.73,1a3.1,3.1,0,0,0,.56,4.29,3.09,3.09,0,0,0,4.28-.55,22.24,22.24,0,0,0,3.59-6.7,20,20,0,0,0,.38-9.7A19.47,19.47,0,0,0,256.37,526.75Z"/><path d="M181.83,529.71c-1.32-1.17-2.63-2.36-3.91-3.58s-2.33-2.67-4.17-2.67a3.05,3.05,0,0,0-1.38,5.77c.91.87,1.8,1.77,2.73,2.63,1.22,1.14,2.48,2.25,3.75,3.35q3.32,2.91,6.71,5.75a2.77,2.77,0,0,0,1.81.64,3.17,3.17,0,0,0,2.48-1.19,3.09,3.09,0,0,0-.56-4.28Q185.53,533,181.83,529.71Z"/><path d="M202.55,557a4,4,0,0,0-3.29,2.22c-.69,1.1-1.29,2.26-1.89,3.41-1.21,2.29-2.41,4.58-3.65,6.86a3.1,3.1,0,0,0,1.1,4.19,3,3,0,0,0,1.53.4,3,3,0,0,0,2.64-1.5q1.44-2.64,2.83-5.29c.86-1.63,1.68-3.29,2.64-4.87h0a3,3,0,0,0-1.91-5.42Z"/><path d="M291.57,584c-.25-3.11-.7-6.21-1.08-9.31-.35-2.83-.67-5.67-1.18-8.47-.55-3.06-1.14-6.11-1.79-9.15a45.47,45.47,0,0,0-2.6-8.88,60.15,60.15,0,0,0-4.32-7.82c-1.77-2.77-3.67-5.46-5.64-8.09-.63-.85-1.29-1.67-2-2.5h0l-.66-.82-.31-.38a10.08,10.08,0,0,0-1.81-1.93l-.31-.22a3.06,3.06,0,0,0-1.56-.43,2.73,2.73,0,0,0-.41,0,3,3,0,0,0-1.44.61h0a3,3,0,0,0-1.14,2.8,3.22,3.22,0,0,0,1.16,2l.1.11a107.18,107.18,0,0,1,7.24,9.6,79.91,79.91,0,0,1,4.84,8c.48,1,.91,2,1.29,3a64.28,64.28,0,0,1,1.95,7.76c.85,4.13,1.67,8.28,2.18,12.47.54,4.41,1.2,8.82,1.52,13.25,0,.09,0,.18,0,.26,0-.08,0-.17,0-.25.19,3.2.21,6.41.23,9.61,0,1.53,0,3.06,0,4.59s0,3,0,4.52c-.08.88-.19,1.75-.35,2.61-.35,1.63-.85,3.23-1.33,4.82q-.8,2.65-1.68,5.28c-.53,1.51-1.12,3-1.78,4.47a3.08,3.08,0,0,0,1.62,4,2.89,2.89,0,0,0,1.17.24,3.13,3.13,0,0,0,2.84-1.86,70.63,70.63,0,0,0,2.78-7.48c.77-2.41,1.59-4.85,2.16-7.32a26.93,26.93,0,0,0,.63-4c.11-1.4.1-2.79.1-4.18,0-2.63,0-5.27-.05-7.9C291.87,590,291.81,587,291.57,584Z"/><path d="M948.37,508.15a11,11,0,0,0-3-4.56,34.52,34.52,0,0,0-6.37-4.84,54.62,54.62,0,0,0-7.9-3.7c-2.69-1-5.4-2-8.15-2.89-2.9-.9-5.85-1.64-8.79-2.42s-6.09-1.63-9.17-2.31-6-1.47-8.94-2.3-6.12-1.63-9.22-2.29c-2.89-.62-5.8-1.1-8.69-1.69l.4.09q-4.32-.89-8.66-1.66c-3-.54-6-1.17-9-1.67l-8.39-1.37c-3-.47-6-.74-9-1s-5.76-.57-8.64-.78c-3.06-.24-6.11-.42-9.17-.41-6.08,0-12.16,0-18.23.3-5.68.24-11.38.76-17.07.47-1.15-.88-2.35-1.73-3.57-2.52-2.37-1.54-4.84-2.93-7.29-4.34-2.62-1.51-5.27-3-8-4.4s-5.37-2.67-8-4-5.49-2.91-8.19-4.47c-2.44-1.41-4.87-2.8-7.23-4.34a61.09,61.09,0,0,1-5.13-3.93,98.31,98.31,0,0,1-7.88-8.19l.09.11a77.26,77.26,0,0,1-5.82-7.2l.15.23-.16-.24-.06-.08.05.07c-2.7-4.07-5.26-8.24-8.24-12.13a54.4,54.4,0,0,0-6.51-7.38,57.78,57.78,0,0,0-7.75-6.1,69.59,69.59,0,0,0-8.05-4.48A34,34,0,0,0,690.2,399a78.76,78.76,0,0,0-9.71-.91c-1.5-.06-3-.11-4.52-.1-1.67,0-3.33.14-5,.28a66.55,66.55,0,0,0-8.65,1.27c-2.88.6-5.73,1.32-8.6,1.92a56.86,56.86,0,0,1-6.49.89l.29,0-.3,0h0a36.48,36.48,0,0,1-4.18.07c-.54,0-1.08-.09-1.62-.16-2.67-.33-5.32-.91-8-1.41-2.89-.55-5.79-1-8.71-1.41a103,103,0,0,0-18.82-.79c-3,.17-6,.65-9,1s-6,.67-9,1.17c-6,1-12,2-17.82,3.57-2.75.75-5.52,1.51-8.24,2.37s-5.63,1.81-8.47,2.66c-5.22,1.55-16.49,4.48-16.92,4.56-.88.17-1.76.3-2.63.43-1.19.18-2.36.4-3.54.57-2.48.35-5,.49-7.46.72-2.74.25-5.46.67-8.19,1s-5.45.57-8.18.78l.21,0-.27,0h-.05c-3,.19-6,.32-9,.35-3.84,0-7.67,0-11.51,0H476c-5,0-10.06,0-15.08.24-3.1.15-6.21.35-9.28.79s-6.07,1-9.06,1.71-6,1.63-9,2.4-5.76,1.42-8.66,2a81,81,0,0,1-10.16,1.35l-1.27.07c-3.22.17-6.44.28-9.66.44q-4.39.21-8.79.35c-3,.09-6.08.22-9.12.25-2.89,0-5.77.16-8.65.24s-5.85.12-8.77.35-5.72.53-8.58.85-5.91.67-8.86,1.14c-3.2.49-6.39,1.11-9.55,1.81-5.91,1.32-11.69,3.23-17.48,5-2.92.9-5.85,1.74-8.76,2.69q-4.62,1.5-9.21,3.1a160.63,160.63,0,0,0-17.22,6.58c-5.47,2.6-10.73,5.61-16.13,8.37-2.48,1.23-5,2.39-7.51,3.57s-5.13,2.47-7.66,3.78c-2.79,1.45-5.65,2.79-8.34,4.43s-5.45,3.48-8.06,5.4c-2.35,1.73-4.56,3.64-6.84,5.48-1.75,1.41-3.62,2.69-5.36,4.13-.7-.24-1.4-.46-2.1-.68-1.37-.43-2.76-.86-4.16-1.19a50.08,50.08,0,0,0-7.77-1.33c-2.65-.18-5.3-.17-8-.15s-5.09,0-7.61.27a41.57,41.57,0,0,0-8.18,1.69c-1.59.48-3.18,1-4.74,1.54-1.22.45-2.41.94-3.6,1.46-.61.26-5.93,1.94-9.79,4.85-3.29,2.49-12,12.87-13.2,14.92a42.92,42.92,0,0,0-2.92,6.17q-1.32,3.39-2.47,6.82a71.07,71.07,0,0,0-2.18,8c-.62,3-1.14,6-1.68,9-.13.75-.27,1.5-.4,2.26-.91-.25-1.82-.47-2.75-.63a32.89,32.89,0,0,0-3.84-.41,73.79,73.79,0,0,0-7.73-.05c-2.64.11-5.28.32-7.92.57-1.27.13-2.54.25-3.81.4-1.09.13-2.18.3-3.28.4h-.43a3.08,3.08,0,0,0-3,3.05c0,.95,2.52,4.79,3.55,5.61s1.88,1.53,2.8,2.33c3.18,2.9,6.22,6,9.27,9s5.68,6.06,8.69,8.91a12.25,12.25,0,0,1,1.37,1.18,19,19,0,0,0,1.06,5q.78,2.79,1.61,5.55c1.16,3.85,2.45,7.64,3.95,11.36,1.11,2.76,2.32,5.47,3.7,8.11a78.7,78.7,0,0,0,4.27,7.11c1.6,2.4,3.18,4.83,4.92,7.13.91,1.2,1.89,2.35,2.88,3.48l1.57,1.79a10.91,10.91,0,0,0,1.77,1.76,3.8,3.8,0,0,0,.94.48c0,.28.07.55.09.83.28,4.43.42,8.86.65,13.29s.45,8.64,1,12.92a18.16,18.16,0,0,0,1,4.57,6.76,6.76,0,0,0,4.36,4.14,8.82,8.82,0,0,0,2.44.34,17.06,17.06,0,0,0,8.17-2.67,29.17,29.17,0,0,0,7-5.83,39.62,39.62,0,0,0,4.24-5.58,17.85,17.85,0,0,0,1.51,1.12,48.8,48.8,0,0,0,5.09,3.12,34.53,34.53,0,0,0,6.8,2.32c2.31.62,4.66,1.08,7,1.48a111.11,111.11,0,0,0,15.21,1.69c2.41.07,4.84.14,7.26,0s4.93-.34,7.39-.59c2.11-.22,4.23-.41,6.33-.75,2.41-.4,4.82-.83,7.22-1.27,2.12-.38,4.23-.79,6.31-1.3,1.65-.4,3.28-.88,4.92-1.3s3.4-.78,5.09-1.23c1.23-.32,2.44-.7,3.66-1.07,2.08-.64,4.16-1.31,6.29-1.78a30.23,30.23,0,0,1,3.4-.48c2.15-.13,4.3-.17,6.46-.18,2.79,0,5.61-.11,8.41,0,2.13.17,4.26.44,6.36.81,1.6.28,3.21.52,4.81.83,2.2.45,4.41.84,6.61,1.27a41.72,41.72,0,0,0,4.57.84c1.83.19,3.67.36,5.5.58,2,.23,4,.5,5.95.7s4,.27,6,.39h.11l.27,0H347c2.53.19,5.05.53,7.58.81l7.87.83c2.69.26,5.39.48,8.09.62s5.29.21,7.94.36c5.33.37,10.65.91,16,1.42,5.16.49,10.34.84,15.51,1.27s10.47.79,15.71,1.22c2.73.22,5.46.49,8.2.66,2.55.15,5.11.25,7.66.33,5,.14,9.93.25,14.89.26l7.61,0h3.79c1.45,0,2.9,0,4.35-.06a73.73,73.73,0,0,0,7.42-.62c2.4-.32,4.77-.76,7.15-1.15,4.58-.76,9.17-1.37,13.74-2.13q3.87-.63,7.72-1.34c2.42-.44,4.86-.87,7.25-1.44,4.72-1.11,9.36-2.51,14.09-3.55,5.77-1.17,11.61-2,17.43-2.91,2.85-.44,5.7-.92,8.56-1.27s5.78-.67,8.67-1c4.93-.59,9.86-1.29,14.79-1.93s9.61-1.12,14.38-1.89c5.17-.85,10.37-1.45,15.58-2,5-.55,10-1.2,15-1.85,5.28-.7,10.58-1.3,15.88-1.85s10.35-1.15,15.54-1.65c2.7-.26,5.41-.49,8.1-.83s5.18-.68,7.77-1.06c5.21-.76,10.47-1.47,15.6-2.69a95.44,95.44,0,0,0,13.95-4.73,110.48,110.48,0,0,0,11.44-5.53c2.13-1.18,4.25-2.39,6.29-3.73a69.79,69.79,0,0,0,6.12-4.55c2.06-1.69,4.14-3.34,6.17-5,1.08-.92,2.14-1.85,3.14-2.84.92.16,1.84.28,2.77.36s2.12.17,3.18.24c.28,0,.57.06.86.07l.67,0,2.21.12c2.36.11,4.74.17,7.11.17h2a59,59,0,0,0,9.09-.83c3-.51,6-1.21,9-2s5.62-1.56,8.47-2.2c2.57-.58,5.14-1.13,7.69-1.81,1.29-.34,2.59-.71,3.88-1.07a28,28,0,0,0,3.06-1,10.3,10.3,0,0,0,4.3-2.75,3.81,3.81,0,0,0,.24-.32c.71,0,1.43-.05,2.14-.1h.22c1.5-.09,3-.09,4.49-.1s3.24,0,4.86,0a51.21,51.21,0,0,1,5.78.82c1.49.32,2.94.78,4.44,1.09a40.44,40.44,0,0,0,5.7.76c2,.12,4.09.11,6.13.12h.52c2,0,4.07-.05,6.11-.12,2.64-.09,5.27-.3,7.92-.34s5.27,0,7.91,0a42.89,42.89,0,0,0,8.08-.62A13.86,13.86,0,0,0,866.1,587c1.52-.72,3.22-1.44,4.07-3a3.11,3.11,0,0,0,.29-2.36,27.2,27.2,0,0,0,5.81-.94,23.3,23.3,0,0,0,8.46-4.15,11.16,11.16,0,0,0,3.26-4,15.58,15.58,0,0,0,1.15-4.63,9.9,9.9,0,0,0-.37-4.65,7.29,7.29,0,0,0-1.66-2.57,7.7,7.7,0,0,0,1.69-3.84A16.74,16.74,0,0,0,889,554a7.9,7.9,0,0,0-.35-2.12,19.76,19.76,0,0,0-.76-1.84,25.43,25.43,0,0,0-1.94-3.69,21.45,21.45,0,0,0-2.68-3.11c-.92-.92-1.91-1.77-2.91-2.6s-2-1.63-3-2.4a46.91,46.91,0,0,0-6.68-4.39l.09,0c3.6-.71,7.24-1.22,10.88-1.67,3.91-.47,7.83-1,11.76-1.3h0c5.85-.37,11.74-.38,17.58-1,2.89-.32,5.8-.59,8.69-.92s5.71-.83,8.54-1.43a61,61,0,0,0,8.33-2.16,27.42,27.42,0,0,0,7.39-3.81,15.68,15.68,0,0,0,3.57-3.7,9.47,9.47,0,0,0,1.53-5.5A14.47,14.47,0,0,0,948.37,508.15Zm-70.5,38.38a28.81,28.81,0,0,1,2.13,2.15c.36.42.71.86,1,1.31.15.23.28.47.41.7.45.94.92,1.89,1.3,2.86,0,.11.06.21.08.32a.59.59,0,0,1,0,.13c0,.41,0,.82,0,1.22s-.06.65-.11,1l0,.14a.36.36,0,0,0,0,.09l-.1.17c-.07.09-.14.19-.22.28l-.36.36c-.2.16-.41.31-.62.46-.42.26-.84.5-1.28.73a22.16,22.16,0,0,1-2.25.93c-.86.28-1.74.51-2.63.71a45.74,45.74,0,0,1-4.66.63,66.38,66.38,0,0,1-7.33,0,2.9,2.9,0,0,0-1.14-.23,3.09,3.09,0,0,0-3,3.06,3.31,3.31,0,0,0,3.09,3.21c1.09.09,2.19.11,3.28.13l2.28,0c1.44,0,2.89,0,4.34-.17a35.9,35.9,0,0,0,6.89-1.28,25,25,0,0,0,3.16-1.16,2.79,2.79,0,0,0,.84.76c0,.09.1.17.14.26a.77.77,0,0,1,.07.16l0,.12,0,.24c0,.2,0,.39,0,.59a20.58,20.58,0,0,1-.28,2.23c-.08.32-.17.63-.27.94a5.55,5.55,0,0,1-.24.56c-.07.14-.15.27-.23.4s-.21.29-.33.43l-.55.54q-.57.48-1.17.9a20.64,20.64,0,0,1-1.83,1.05c-.74.34-1.49.66-2.26.95s-1.7.5-2.57.7a29.62,29.62,0,0,1-3.12.43c-1.16.06-2.31,0-3.48,0s-2.49-.21-3.73-.42c-.49-.11-1-.23-1.47-.38a4.67,4.67,0,0,1-.51-.23l.35.18a3.78,3.78,0,0,0-1.76-.51,3.05,3.05,0,0,0-1.07,5.91h0l0,0a14.56,14.56,0,0,0,4,1.13l1.07.13c-.43.2-.86.4-1.3.56-.14.05-.28.08-.42.12a36.73,36.73,0,0,1-4,.51c-1.77.1-3.55.09-5.32.08h-1.86c-2.71,0-5.42,0-8.12.18s-5.52.31-8.28.31h-4.62l0,0c-1.27,0-2.38,0-3.5-.11a42.46,42.46,0,0,1-4.57-.62c-.72-.16-1.44-.35-2.14-.53-1.11-.29-2.16-.56-3.21-.73a54.39,54.39,0,0,0-6.46-.82c-.77,0-1.54,0-2.3,0l-2,0h-1.25c-1,0-2,0-3.24.09h-.11s0,0,0-.07,0-.09,0-.1a36.24,36.24,0,0,0,.65-5.9c.08-1.67.11-3.06.11-4.38,0-1.77-.07-3.3-.2-4.69a31,31,0,0,0-.82-4.57c-.19-.76-.4-1.53-.63-2.29-.14-.45-.29-.9-.46-1.34a5.1,5.1,0,0,0-.63-1.09v0a10.2,10.2,0,0,0-.78-.92,3.07,3.07,0,0,0-4.33,0,3.12,3.12,0,0,0,0,4.32l.06.06,0,.07.06.09s0,.07,0,.11c.41,1.34.77,2.7,1.06,4.08.17,1,.3,2,.4,2.95a82.37,82.37,0,0,1-.09,8.89,31.57,31.57,0,0,1-.44,3.5c-.13.57-2.26,4.43-2.27,4.44-.56.27-1.13.51-1.71.73-2,.66-4,1.15-6,1.69-2.24.59-4.52,1.08-6.78,1.58-5.11,1.14-10.1,2.72-15.23,3.78a64.26,64.26,0,0,1-7.16,1c-2.51.14-5,.12-7.54.08q-3.53,0-7.05-.27l-.25,0h-.06l-1.23-.09-1.22-.09c.66-1,1.27-2.13,1.85-3.21a51.11,51.11,0,0,0,3.31-7.72,32.72,32.72,0,0,0,1.64-7,19.57,19.57,0,0,0-.13-6.48,28,28,0,0,0-1-3.22,33.89,33.89,0,0,0-1.33-3.24,32.08,32.08,0,0,0-4.27-6.47,53.53,53.53,0,0,0-10.54-10.13,3.15,3.15,0,0,0-2.28-.61,3.05,3.05,0,0,0-1.45,5.44,37.73,37.73,0,0,1,3.53,2.77,60.16,60.16,0,0,1,4.71,4.87,54,54,0,0,1,3.44,4.39c.37.58.71,1.16,1,1.75a44.9,44.9,0,0,1,1.81,4.44c.15.49.3,1,.42,1.48.05.32.09.64.12,1,0,.78,0,1.56,0,2.35-.1,1-.25,2.08-.45,3.11-.3,1.3-.68,2.59-1.1,3.85a54.58,54.58,0,0,1-2.3,5.53,56.75,56.75,0,0,1-3.21,5.42c-.22.3-3.8,4.15-4,4.35-2.12,1.85-4.33,3.59-6.51,5.38-2,1.65-4,3.22-6.16,4.69A114.85,114.85,0,0,1,704.13,611l.13-.07-.18.09-.1.05.06,0-.08,0-.05,0,0,0a109,109,0,0,1-11.55,4.81,77.19,77.19,0,0,1-8.47,2.41c-4.48.91-9,1.61-13.53,2.25s-8.88,1.25-13.34,1.66c-4.64.43-9.26,1-13.89,1.46-4.33.46-8.67.85-13,1.38-5.1.62-10.2,1.32-15.31,2s-10.11,1.15-15.15,1.78c-4.86.61-9.67,1.49-14.53,2-5.21.62-10.4,1.29-15.6,2-4.78.65-9.59,1.18-14.38,1.76S545.73,636,541,636.78s-9.74,1.47-14.52,2.6c-2.77.66-5.5,1.42-8.25,2.13l0,0-1.44.38c-1.54.4-3.08.77-4.54,1.07-5.94,1.19-12.29,2.28-20,3.43-2.86.42-5.92.88-9,1.41-3.32.57-6.27.95-9,1.17-2.47.14-4.91.16-7.18.16h-3.46c-3.36,0-6.73,0-10.09,0-7.64-.05-13.91-.24-19.73-.59-1.24-.08-2.47-.18-3.71-.29-5-.44-10-.82-15.51-1.23-5.69-.42-10.81-.81-16-1.26-2.65-.23-5.28-.48-7.93-.73s-5.37-.51-8-.74c-2.89-.26-5.83-.39-8.68-.52-1.77-.08-3.53-.15-5.28-.26-4-.29-8.19-.74-11.86-1.14l-1.09-.12-1.87-.22-.63-.07c-1.21-.15-2.51-.31-3.77-.42-1.41-.12-2.82-.21-4.23-.29l-.36,0-1.61-.09c-2-.16-3.93-.4-5.84-.63l-.26,0-1.91-.23c-.71-.09-1.41-.16-2.12-.22l-.32,0c-1.4-.12-3-.27-4.5-.55l-.86-.18c-.9-.2-1.8-.39-2.7-.56l-1.51-.27-.12,0c-.78-.14-1.48-.26-2.17-.4-1.71-.35-3.38-.65-4.95-.92l-.86-.15-.23,0c-1.22-.21-2.48-.43-3.73-.58a56.21,56.21,0,0,0-7.26-.47H302c-1.48,0-3,0-4.41,0l-.06,0h-.3a54.21,54.21,0,0,0-7.95.47,56.55,56.55,0,0,0-6.56,1.61c-2.66.78-5.29,1.61-8,2.25-3.43.79-6.81,1.79-10.25,2.53-1.89.38-3.79.71-5.69,1s-3.65.66-5.49.91c-3.64.49-7.3.81-11,1.07a88.28,88.28,0,0,1-10.79-.09c-2.65-.19-5.28-.53-7.9-.92-2.27-.34-4.53-.7-6.77-1.14h0a69.64,69.64,0,0,1-7.11-1.91c-.58-.22-1.14-.45-1.7-.72a40.93,40.93,0,0,1-3.9-2.37c-.49-.32-1-.66-1.43-1a3.09,3.09,0,0,0-2.76-1.75c-.63,0-4.7.32-5.51,1.53,0,0,0,0,0,0a1.24,1.24,0,0,0-.1.17c-.43.78-.9,1.56-1.39,2.3-.72,1-1.47,2-2.31,3a43.59,43.59,0,0,1-3.27,3.33c-.53.43-1.05.84-1.6,1.24-.79.51-1.6,1-2.47,1.44-.71.33-1.37.61-2,.85l-1,.28c-.28.05-.56.1-.84.13h-.33l-.14,0h-.15l-.14,0a1,1,0,0,1-.22-.09h0a.86.86,0,0,1-.07-.1l-.05-.08,0,0c-.08-.18-.12-.28-.16-.38s-.14-.5-.19-.75a82.05,82.05,0,0,1-1-9.49c-.19-3-.36-6.21-.53-10.38-.07-1.75-.15-3.51-.25-5.27l0-.65h0c-.06-1.21-.09-2.44-.27-3.64s-2.63-3.93-3.25-4.35c0,0-1.48-1.59-2.15-2.34.09.09.17.19.26.29-1-1.17-2.05-2.33-3-3.57s-1.68-2.28-2.48-3.45c-1.24-1.84-2.5-3.68-3.7-5.56s-2.27-3.84-3.29-5.83a109.85,109.85,0,0,1-4.86-11.79c-.82-2.39-1.56-4.81-2.27-7.23-.64-2.2-1.33-4.4-1.84-6.63a2.34,2.34,0,0,1,0-.26v-.12a3,3,0,0,0-.56-1.74h0a38.13,38.13,0,0,0-2.58-3.74c-1.44-1.36-2.82-2.82-4.15-4.23l-1.26-1.32c-1.91-2-3.87-3.95-5.71-5.77l-.87-.87c-1.57-1.55-3.19-3.17-4.84-4.67-.79-.72-1.58-1.44-2.38-2.13h0l-.14-.12.19,0h0c2.07-.22,4.18-.4,6.46-.57s4.28-.2,6.17-.2c1.46,0,2.89,0,4.25.12a27.19,27.19,0,0,1,3.27.41c.95.22,1.74.43,2.46.64a.1.1,0,0,1,.07.09,40.31,40.31,0,0,0,0,6,2.68,2.68,0,0,0,1.09,1.94s0,0,0,0a3.27,3.27,0,0,0,1.93.65,2.48,2.48,0,0,0,.38,0,3.08,3.08,0,0,0,2-1.16,3.15,3.15,0,0,0,.62-2.13v-.11h0a51.91,51.91,0,0,1,0-6.11,64.76,64.76,0,0,1,1-6.77c.46-2.6.91-5.21,1.43-7.8h0c.37-1.82.79-3.62,1.31-5.41s1.09-3.43,1.67-5.13a70.46,70.46,0,0,1,3.3-8.05c.46-.86.94-1.7,1.47-2.52s1.07-1.48,1.66-2.18c.35-.38.71-.74,1.09-1.09s3.26-4.69,6.93-7.71c3.28-2.7,12-6.1,14-6.81a66.28,66.28,0,0,1,7.6-2.11,35.52,35.52,0,0,1,3.71-.49c2.16-.12,4.32-.15,6.47-.16s4.49,0,6.73.09a51.56,51.56,0,0,1,6.16,1l-.12,0a65.34,65.34,0,0,1,7.26,2.08h0a66.21,66.21,0,0,1,7.21,3,48.93,48.93,0,0,1,4.68,2.65,32.62,32.62,0,0,1,2.78,2.19,40.83,40.83,0,0,1,3,3A48.44,48.44,0,0,1,248,505c.72,1,1.45,2,2.16,3.06a13.84,13.84,0,0,1,.87,1.42,9.19,9.19,0,0,1,.36.86c.36,1,.74,2.06,1.18,3.07a3.11,3.11,0,0,0,2.84,1.87l.35,0,0,0,.12,0h0a2,2,0,0,0,.65-.16,3.07,3.07,0,0,0,1.63-1.69,3,3,0,0,0,.22-1.16,2.94,2.94,0,0,0-.23-1.14c-.3-.69-.59-1.39-.85-2.1s-.4-1.21-.66-1.78a19,19,0,0,0-1.63-2.75l-1.22-1.74-.32-.45-.68-.95-.46-.65c-.73-1-1.49-2.09-2.3-3.06a33.38,33.38,0,0,0-3-3.17l-.43-.4h0l0,0a36.35,36.35,0,0,0-7.12-5.06c-1.26-.68-2.54-1.32-3.84-1.93l.36-.27c1.48-1.12,2.93-2.29,4.35-3.48,2.76-2.29,5.62-4.41,8.57-6.43a71.16,71.16,0,0,1,7.5-4.41c2.39-1.22,4.78-2.46,7.19-3.67,4.35-2.14,8.8-4.08,13.11-6.31,4-2.06,7.95-4.29,12-6.33,2.9-1.42,5.81-2.81,8.83-3.95s6.12-2.2,9.19-3.26h-.05l.11,0,.26-.09-.07,0,3.08-1.06c3-1,6-2,9-3s5.91-1.78,8.87-2.69c5.81-1.77,11.62-3.56,17.58-4.81,4.17-.82,8.35-1.48,12.57-2,3.95-.47,7.91-.91,11.87-1.21,1.35-.08,2.71-.15,4.07-.18,2.9-.08,5.8-.21,8.7-.27s5.93-.06,8.89-.18,6.06-.16,9.08-.31,6.28-.32,9.42-.44,6.44-.28,9.64-.64a93.89,93.89,0,0,0,9.28-1.66c2.95-.65,5.88-1.4,8.8-2.2s5.93-1.62,8.94-2.26a94.7,94.7,0,0,1,11.86-1.62q4.17-.24,8.34-.3c6.17-.08,12.35-.07,18.51-.07h3.33c5.11,0,10.21,0,15.32-.22,6.13-.29,12.2-1.11,18.29-1.81,2.7-.31,5.42-.42,8.12-.77,1.31-.17,2.61-.41,3.93-.61.82-.13,1.64-.25,2.46-.4.58.22,5.9-1.21,7.93-1.85,2.7-.83,5.44-1.55,8.16-2.33s5.26-1.56,7.87-2.42a163.29,163.29,0,0,1,16.94-4.66l-.07,0c4.78-1,9.61-1.85,14.45-2.5,2.37-.31,4.76-.55,7.13-.85s4.5-.61,6.76-.79a101.5,101.5,0,0,1,11.57.09c4.22.32,8.41.9,12.58,1.62,2.78.47,5.54,1.07,8.32,1.55a36.7,36.7,0,0,0,8.31.48,58.11,58.11,0,0,0,9.09-1.25c2.81-.62,5.62-1.3,8.44-1.88,1.39-.28,2.77-.53,4.16-.71s3.07-.31,4.61-.43a83,83,0,0,1,9.72.1h-.18l.25,0h0a64.29,64.29,0,0,1,7.2.86c.94.21,1.87.46,2.79.76a43.82,43.82,0,0,1,4.24,1.8,75.91,75.91,0,0,1,7.31,4.24c1.68,1.18,3.27,2.46,4.83,3.79a48.11,48.11,0,0,1,3.73,3.69,85.33,85.33,0,0,1,6,7.79c1.32,2,2.63,3.92,3.9,5.91a57.14,57.14,0,0,0,4.35,6.1c3,3.58,6.17,7.12,9.51,10.43a52.15,52.15,0,0,0,6.86,5.72c2.46,1.72,5,3.23,7.65,4.73,2.77,1.6,5.54,3.19,8.39,4.64,2.69,1.36,5.4,2.68,8.1,4l0,0c3,1.5,5.86,3.12,8.73,4.78,2.68,1.56,5.39,3.08,8,4.8.05,0,6.34,5.12,7.1,5.92.56.66,1.07,1.35,1.57,2.06s.93,1.5,1.34,2.29a19.27,19.27,0,0,1,.77,1.81c.19.57.36,1.13.51,1.71-.72-.47-1.46-.92-2.21-1.35-1.26-.74-2.53-1.48-3.83-2.15s-2.5-1.28-3.78-1.88a23.6,23.6,0,0,0-4.1-1.57,3.05,3.05,0,1,0-1.62,5.89l.89.26A47.39,47.39,0,0,1,786,493.6h0a70,70,0,0,1,7.12,4.12c.51.36,1,.73,1.48,1.13l.53.51.29.39c.15.24.29.48.43.73s.31.7.45,1.06a12,12,0,0,1,.33,1.21c.09.5.15,1,.19,1.52,0,.83.06,1.65,0,2.47a22.23,22.23,0,0,1-.29,2.3,48,48,0,0,1-2.74,5.09c-.33.35-.67.7-1,1s-.45.36-.68.54a13.36,13.36,0,0,0-1.74-3.93,21.18,21.18,0,0,0-3.06-3.74,27.22,27.22,0,0,0-3.76-2.92,34.57,34.57,0,0,0-8.37-4,3.06,3.06,0,0,0-1.63,5.89l.69.23c.89.33,1.77.69,2.63,1.1a44.44,44.44,0,0,1,3.89,2.28c.64.45,1.25.92,1.85,1.42.4.38.79.78,1.18,1.19s.8,1,1.18,1.5.52.84.75,1.27c.11.25.21.49.31.74s.22.77.32,1.17.15.92.19,1.39,0,.7,0,1-.07.67-.13,1-.13.55-.21.82-.17.45-.27.67-.27.47-.41.7l-.3.38-.34.33-.38.3-.46.26c-.31.14-.62.26-.93.38s-.79.22-1.18.31-.85.12-1.27.16-1,0-1.52,0a33.3,33.3,0,0,1-3.45-.49c-.72-.17-1.42-.37-2.12-.59-1-.38-1.94-.81-2.9-1.28a47.24,47.24,0,0,1-4.15-2.37c-.69-.48-1.35-1-2-1.54h0l0,0-.25-.19c-1.11-1-2.23-2.17-3.4-3.47a35.51,35.51,0,0,1-2.31-3c-.65-1-1.39-2.17-2-3.43-.3-.6-.67-1.3-1.09-2l-.07-.12a3,3,0,0,0-2.29-1.59h0l0,0h0a3,3,0,0,0-1.05-.52,14,14,0,0,1-1.45-.43,18.83,18.83,0,0,1-2.17-.9c-1.26-.64-2.41-1.34-3.63-2.09l-.27-.17c-.54-.33-1.09-.64-1.63-1l-.27-.16c-1-.55-1.91-1.1-2.82-1.7a78.87,78.87,0,0,1-6.68-5.08c-.36-.33-.72-.66-1.06-1a3,3,0,0,0-4.41-.62h0a3.05,3.05,0,0,0-1.12,2.35c0,1.63,1.3,2.67,2.41,3.68s2.17,1.83,3.31,2.69a66.72,66.72,0,0,0,7,4.78c1,.56,2,1.11,2.91,1.72s1.64,1,2.49,1.46a26,26,0,0,0,5.81,2.32,1.11,1.11,0,0,0,.17,0c.17.29.33.58.49.88l-.18-.35a39.79,39.79,0,0,0,5.28,8.05,35.54,35.54,0,0,0,6.67,6.24,39.17,39.17,0,0,0,4.22,2.52,36.33,36.33,0,0,0,4.1,1.91,23.94,23.94,0,0,0,4.41,1.19,26.69,26.69,0,0,0,4.28.47h.23c3.21,0,6.68-.83,9.1-3.05a11.36,11.36,0,0,0,3.36-6.23.35.35,0,0,0,.11,0,7.41,7.41,0,0,0,2.21-1,18.21,18.21,0,0,0,2.93-2.39,16.63,16.63,0,0,0,1.56-1.8l.12.11c.43.39.83.81,1.23,1.24.18.22,9.32,7.3,11,8.54a53.77,53.77,0,0,0,7.28,4.21l-.35-.17c1.13.57,2.19,1.26,3.31,1.83a37.05,37.05,0,0,0,4.74,2l0,0h.11l.27.1c4.12,1.48,8.27,3.21,12.71,3.3s8.88-.57,13.31-.91c1.49-.08,3-.06,4.47,0s2.94,0,4.4.11c.86.07,1.71.16,2.55.31.4.1.78.2,1.17.32.69.27,1.36.57,2,.9.83.43,1.64.89,2.41,1.39A86.59,86.59,0,0,1,877.87,546.53Zm65.06-33.64c0,.17,0,.35-.07.52l-.09.33c-.06.13-.11.25-.17.37l-.3.49-.43.56c-.26.28-.54.56-.83.82-.51.42-1,.82-1.58,1.19s-1.25.75-1.89,1.09c-1.08.51-2.18,1-3.31,1.38a74,74,0,0,1-8.84,2.17c-3,.6-6.09,1-9.17,1.3s-6,.68-8.93.9c-3.73.23-7.47.35-11.2.54-3.22.16-6.41.45-9.61.85-2.81.34-5.63.64-8.44,1-1.6.22-3.2.45-4.79.71l0,0-.68.11c-.81.15-1.62.29-2.41.46a43.92,43.92,0,0,0-4.32,1.06l-1.21.38c-.88.27-1.8.56-2.69.77-.34.06-.67.1-1,.13-.8.07-3.28,1.26-3.82,1.26h-1.71c-.7,0-1.61,0-2.54.07-1.5.09-3,.24-4.49.39l-.21,0c-1.36.14-2.7.27-4,.37-1.09.06-2.37.14-3.65.14-.46,0-.91,0-1.37,0-.67-.07-1.27-.15-1.84-.26a43.34,43.34,0,0,1-4.69-1.37c-.53-.18-1-.37-1.57-.57l-1.35-.49-.87-.3-.15,0-.18-.07-.14,0a34.22,34.22,0,0,1-3.41-1.41c-.55-.28-1.08-.59-1.62-.9l-.38-.22c-.76-.44-1.58-.84-2.24-1.17l-.46-.23a49.52,49.52,0,0,1-4.48-2.62c-.82-.57-1.62-1.18-2.4-1.77l-.1-.08c-.6-.45-1.18-.9-1.78-1.34l-.33-.24c-1.2-.87-6.51-5.24-7.53-6.15l-.07-.07h0l-.1-.08c-.41-.37-.83-.75-1.28-1.09h0a.09.09,0,0,1,0-.13.17.17,0,0,1,.06-.06l0-.05a.31.31,0,0,1,0-.08,20.29,20.29,0,0,0,.7-5c0-.27,0-.55,0-.84a20.38,20.38,0,0,0-.39-4.25,16.77,16.77,0,0,0-.56-1.94v0c-.13-.37-.28-.73-.44-1.08a7.18,7.18,0,0,0,.2-.83,22.87,22.87,0,0,0,.36-3.6,12.19,12.19,0,0,0-.49-3.39,25.55,25.55,0,0,0-3-6.89c-.52-.8-1.08-1.57-1.67-2.31,2.91-.09,5.81-.26,8.71-.4s5.81-.23,8.72-.29c6-.12,12-.25,18,.12h0l.24,0h-.2c2.77.2,5.54.46,8.31.74s5.74.41,8.59.79,5.6.86,8.39,1.33c1.52.25,3.05.48,4.57.77s3.12.6,4.68.9c3,.56,6,1.06,9,1.67l-.4-.08c1.75.36,3.49.7,5.24,1l2.5.47c.67.12,1.4.34,2.12.41l2.22.49c3,.69,6,1.55,9,2.39,1.48.41,3,.82,4.47,1.17s3,.67,4.56,1c3.06.73,6.09,1.58,9.14,2.39,2.78.74,5.58,1.47,8.3,2.41a99,99,0,0,1,11.17,4.49,30.07,30.07,0,0,1,2.91,1.68,36.44,36.44,0,0,1,3.34,2.6c.42.38.82.76,1.2,1.17l.45.58.21.36.14.33c.09.27.16.53.23.81.09.49.16,1,.21,1.49C942.94,512.39,942.94,512.64,942.93,512.89Z"/><path d="M448.53,520.52a2.54,2.54,0,0,0-.68.09c-.05-.47-.12-.93-.17-1.4s-.11-1.13-.2-1.69a15.43,15.43,0,0,0-.89-3.21,15.24,15.24,0,0,0-2.72-4.42,12.65,12.65,0,0,0-4-3c-1.09-.54-2.24-.92-3.36-1.35-1.92-.73-3.91-1.3-5.87-1.92s-4-1.16-6.07-1.63a47,47,0,0,0-8.09-1.21c-2.61-.14-5.24-.08-7.85,0a61.83,61.83,0,0,0-8.38.63l-1.13.2a27.39,27.39,0,0,0,4.46-4.91,24.92,24.92,0,0,0,2.28-3.67,10.65,10.65,0,0,0,1.09-5.48,10.49,10.49,0,0,0-1-3.39,9.49,9.49,0,0,0,.5-3.23,11.88,11.88,0,0,0-.46-3.35,30.5,30.5,0,0,0-1.1-3.35,21.64,21.64,0,0,0-3-5.3,37.71,37.71,0,0,0-4.56-4.64,36.7,36.7,0,0,0-3.83-3.09c-1.32-.89-2.67-1.75-4-2.6a55.87,55.87,0,0,0-8-3.88,85.68,85.68,0,0,0-8.24-3.06,60.26,60.26,0,0,0-8.24-2.19,3.06,3.06,0,0,0-.84,6.06c.41.06.81.13,1.21.21,1.43.33,2.85.76,4.26,1.2s3,.93,4.43,1.43a107.37,107.37,0,0,1,10,4.19,60.48,60.48,0,0,1,5.37,3.31,33.76,33.76,0,0,1,2.81,2.11,59.58,59.58,0,0,1,4.35,4.21c.37.45.71.9,1,1.37s.72,1.19,1,1.8.57,1.3.82,2c.14.44.28.88.41,1.32a30.85,30.85,0,0,0-7.21-2.73,3.05,3.05,0,1,0-1.62,5.89c.79.19,1.58.41,2.36.67a35.51,35.51,0,0,1,3.49,1.49c.6.32,1.21.66,1.79,1l.72.53.44.42.28.36c.08.12.14.24.21.36s.19.45.28.67l.12.44c0,.14,0,.28,0,.42v.32c0,.16,0,.3-.06.45-.07.3-.15.59-.24.88s-.17.44-.27.66c-.32.6-.67,1.16-1,1.72a35.06,35.06,0,0,1-2.22,2.92c-.54.58-1.1,1.13-1.68,1.66s-1.47,1.22-2.26,1.78c-.58.37-1.17.71-1.77,1s-1.25.57-1.89.82c-.48.16-1.47.45-1.48.45l-.19.05-.2.05-.55.16c-1.73.57-6.24,2.41-6.24,2.41h0l-.83,0h-2c-1.2,0-2.48,0-3.74-.11s-2.47-.25-3.67-.41l-.14,0c-.89-.12-1.78-.23-2.67-.32l-1.48-.16-.48,0c-1.7-.16-3.62-.34-5.43-.68a99.51,99.51,0,0,1-11.58-3.27,69.3,69.3,0,0,1-6.88-2.71c-1.38-.72-2.75-1.52-4-2.22l-.21-.12c-1.55-.9-2.83-1.65-4.11-2.49-.43-.29-.85-.6-1.25-.92a6.75,6.75,0,0,1-.53-.54c-.24-.27-.47-.56-.69-.85a3,3,0,0,0-2.4-1.17,3,3,0,0,0-1.85.62,3.07,3.07,0,0,0-.56,4.25,14.12,14.12,0,0,0,3.31,3.25c1.78,1.21,3.67,2.31,5.61,3.44a56.09,56.09,0,0,0,5.9,3.08c1.88.8,3.86,1.48,5.77,2.15l.14.05.41.14c3.09,1.07,5.68,1.84,8.16,2.45l.33.08c1.38.33,2.82.68,4.22.91,1.23.2,2.48.33,3.86.47l.74.07.55.05.31,0c1.15.12,2.3.24,3.44.39l.78.1c.64.09,1.28.18,1.91.25l0,0,.29,0-.26.11,0,0-1.28.55c-1.55.69-3.05,1.39-4.47,2.07-2.85,1.39-5.65,2.82-8.34,4.25l-.4.22c-1.31.7-2.48,1.33-3.63,2-.7.41-1.45.88-2.27,1.42h0c-.53.34-1,.7-1.57,1.06a37.85,37.85,0,0,0-6.94,5.94c-.66.75-1.31,1.52-1.91,2.33-.45.64-.85,1.23-1.2,1.82-.71,1.19-1.38,2.43-2,3.79-.53,1.07-1,2.24-1.58,3.67a29,29,0,0,0-1.26,4,22.22,22.22,0,0,0-.55,4.83c0,1.51,0,3.13.14,4.7a28.38,28.38,0,0,0,.41,3.92,25.59,25.59,0,0,0,1.35,4.54,55.09,55.09,0,0,0,3.27,6.35l.59,1,.45.8a51.41,51.41,0,0,0,3.41,5.48c.16.23.33.45.5.66l0,.06c.69.85,1.43,1.67,2.2,2.45.92.94,1.82,1.93,3.26,1.93a3,3,0,0,0,1.78-5.52c-.64-.61-1.25-1.27-1.84-1.93a22.45,22.45,0,0,1-1.46-1.88c-1-1.49-1.88-3-2.76-4.59-1-1.81-2.06-3.6-3-5.43-.39-.81-.75-1.63-1.06-2.47s-.48-1.48-.66-2.24a27.27,27.27,0,0,1-.37-3.13,51.4,51.4,0,0,1-.12-5.82c.07-.7.18-1.4.3-2.09a24.22,24.22,0,0,1,.73-2.52,45.42,45.42,0,0,1,2-4.66,38,38,0,0,1,2-3.47c.54-.77,1.1-1.5,1.71-2.21a32.1,32.1,0,0,1,2.4-2.41,51.68,51.68,0,0,1,4.58-3.49,113,113,0,0,1,11.59-6.46l-.35.18c2.71-1.36,5.44-2.68,8.23-3.87,2.54-1.09,5.13-2.09,7.74-3,2.82-.95,5.7-1.75,8.59-2.48s5.54-1.37,8.33-2a59.57,59.57,0,0,1,7-1c2-.12,4.07-.14,6.11-.16,1.79,0,3.59,0,5.38.09a52.13,52.13,0,0,1,5.56.83A100.67,100.67,0,0,1,433.75,511a35.15,35.15,0,0,1,3.49,1.38c.33.17.64.35,1,.55l.48.37.44.45c.34.4.66.81,1,1.24s.37.64.55,1,.29.66.42,1,.23.73.33,1.11.1.72.14,1.08c-1-.32-2.06-.64-3.1-.92-1.8-.5-3.63-.93-5.45-1.35l-2.65-.62c-.59-.13-1.21-.23-1.79-.4l.37.13h0l.35.17a3.19,3.19,0,0,0-2.36-.3,3.06,3.06,0,0,0-.73,5.58A7.27,7.27,0,0,0,428,522l2.67.62c1.76.41,3.52.8,5.27,1.27s3.35,1,5,1.5c1.4.42,2.79.86,4.18,1.32-.06.38-.11.75-.18,1.12s-.15.58-.24.87-.34.8-.54,1.19c-1,1.87-2,3.72-3,5.58a3.27,3.27,0,0,0-.69-.3c-2-.58-4.08-1-6.15-1.52-.94-.21-1.89-.44-2.83-.67s-1.62-.37-2.42-.6a3.06,3.06,0,0,0-2.19,5.71,9.43,9.43,0,0,0,1.38.39l3.54.86c2.1.5,4.19,1,6.27,1.51l-.53.88c-.65.93-1.33,1.82-2.06,2.69a34.84,34.84,0,0,1-2.8,2.77c-.67.57-1.37,1.1-2.09,1.61s-1.17.72-1.78,1.05a28.51,28.51,0,0,1-2.68,1.11c-4.58,1.56-9.28,2.77-13.88,4.29-2.31.76-4.62,1.5-6.93,2.28s-4.42,1.53-6.63,2.31c-1.17.41-2.36.86-3.55,1.18a3.06,3.06,0,0,0,.69,6l.35,0a8.47,8.47,0,0,0,1.56-.46l2.17-.71,4.86-1.72c5.24-1.81,10.53-3.47,15.83-5.08,2.64-.79,5.3-1.56,7.9-2.48a24.59,24.59,0,0,0,7.66-4.36,33.29,33.29,0,0,0,5.67-6,67.26,67.26,0,0,0,4.61-7.7c.76-1.41,1.54-2.8,2.28-4.22a27.26,27.26,0,0,0,1.8-3.83,18.41,18.41,0,0,0,.7-3.36,23.05,23.05,0,0,0,.34-3.52A3.08,3.08,0,0,0,448.53,520.52Z"/><path d="M141.78,287.68c-.89-2.7-1.78-5.41-2.58-8.14-.47-1.58-.91-3.15-1.33-4.75-.32-1.21-.58-2.44-.85-3.67s-.4-2.45-.53-3.69c0-.38,0-.75,0-1.13a3.06,3.06,0,0,0-6.11,0v.19a33,33,0,0,0,.58,5.24c.25,1.5.6,3,1,4.45.88,3.32,1.87,6.59,2.9,9.86s2.13,6.29,3.29,9.41a95.85,95.85,0,0,0,4,9.31,3.16,3.16,0,0,0,1.62,1.62,2.92,2.92,0,0,0,1.19.25,2.86,2.86,0,0,0,1.19-.25,3.07,3.07,0,0,0,1.63-4A127.53,127.53,0,0,1,141.78,287.68Z"/><path d="M157.71,266.37l1.13-.74a3.06,3.06,0,1,0-3.08-5.28,74.85,74.85,0,0,0-6.16,4.41c-1,.81-2,1.62-3,2.49a7.26,7.26,0,0,0-2,2.44,3.25,3.25,0,0,0,0,2.45,3.11,3.11,0,0,0,2.86,1.94,3,3,0,0,0,2.81-1.92l.82-.76Q154.31,268.73,157.71,266.37Z"/><path d="M144.67,272.19s0,0,0-.05h0Z"/><path d="M163.94,308.7a6.91,6.91,0,0,0,2.45-.46,9,9,0,0,0,5.67-6.54,12.84,12.84,0,0,0,0-4,28.41,28.41,0,0,0-1.13-4.65c-.08-.28-.16-.56-.25-.83l.47.08a3.06,3.06,0,1,0,.83-6.06,11.55,11.55,0,0,0-3.47-.1c-.92-2.32-1.93-4.6-3-6.87l-.54-1.14a3.07,3.07,0,0,0,.19-3.93,3.12,3.12,0,0,0-2.73-1.16l-1.11-2.17h0c0,.07.07.14.11.2a2.12,2.12,0,0,1-.11-.21,2.19,2.19,0,0,0,0-.36,3.07,3.07,0,0,0-3.44-2.61,3.19,3.19,0,0,0-2.5,1.95c-.58,1.36,0,2.74.62,4,.47.92,1,1.85,1.44,2.77l-.71.61c-.37.33-.76.64-1.11,1-.5.36-1,.84-1.41,1.22s-1.19,1-1.82,1.49a3.06,3.06,0,0,0,1.11,5.94,3,3,0,0,0,.42,0,7.45,7.45,0,0,0,3.44-2.06c.77-.65,1.52-1.31,2.27-2l.05,0,.5-.43q1.41,3.09,2.67,6.25a21,21,0,0,0-4,4c-2,2.69-3.49,6.17-2.32,9.54a13.25,13.25,0,0,0,1.62,3.37,7.59,7.59,0,0,0,3.79,3A7,7,0,0,0,163.94,308.7Zm-1.64-9.46,0-.27c0-.13.07-.25.1-.38.12-.31.26-.62.4-.93l.33-.57c.46-.65.93-1.27,1.44-1.89l.46-.48c.3,1,.58,2,.82,3.06.09.49.17,1,.23,1.47,0,.27,0,.54,0,.81s0,.37-.07.55,0,.13-.05.19-.07.18-.11.26a3.21,3.21,0,0,1-.19.31c0,.08-.11.15-.16.22l-.39.39-.25.19-.48.28-.25.1-.13,0-.09,0h-.08l0,0-.11-.09-.24-.24-.33-.41-.3-.52-.27-.64a6.65,6.65,0,0,1-.23-.76,3.78,3.78,0,0,1-.06-.47A.74.74,0,0,1,162.3,299.24Z"/><path d="M167.88,330.91a3.06,3.06,0,1,0-.82-6.06c-.79.12-1.57.22-2.35.29h-.66a3.06,3.06,0,1,0,0,6.11A25.72,25.72,0,0,0,167.88,330.91Z"/><path d="M183.47,347.94a13.09,13.09,0,0,0-.06-4.19,9,9,0,0,0-1.17-2.95,8.08,8.08,0,0,0-4.92-3.59c-3-.78-6,1-8.37,2.7a44.32,44.32,0,0,0-3.83,3.42A3.07,3.07,0,0,0,163.5,346a3.12,3.12,0,0,0,1.52,2.67,3.22,3.22,0,0,0,3.22-.05,8.74,8.74,0,0,0,1.76-1.52l1.23-1.18a29.72,29.72,0,0,1,2.35-1.84l.81-.48.67-.29.59-.16.14,0h.09l.14,0,.19.08.28.16.18.13.17.17.16.2.21.36c0,.09.08.18.11.27l.12.4c0,.17.05.34.07.51s0,.48,0,.71c0,.45-.1.89-.17,1.33a22.29,22.29,0,0,1-.67,2.29c-.38,1-.77,2-1.19,3a3.09,3.09,0,0,0,1.62,4,3,3,0,0,0,1.17.23,3.08,3.08,0,0,0,2.84-1.86A28.74,28.74,0,0,0,183.47,347.94Zm-7.09-4.59-.09,0,.08,0-.19-.13.21.14.1.05-.09-.05.06.05Z"/><path d="M187.61,373.44c-.28-.88-.57-1.75-.78-2.64a2.74,2.74,0,0,1-.05-.28v-.08a3.06,3.06,0,1,0-6.11,0,15.49,15.49,0,0,0,1.05,4.63,3.15,3.15,0,0,0,2.95,2.24,3.29,3.29,0,0,0,.81-.11A3.08,3.08,0,0,0,187.61,373.44Z"/><circle cx="190.45" cy="389.62" r="3.06"/><path d="M193.84,397a3.06,3.06,0,1,0,3.06,3.05A3.08,3.08,0,0,0,193.84,397Z"/></g></svg>