<svg width="473" height="567" viewBox="0 0 473 567" fill="none" xmlns="http://www.w3.org/2000/svg">
<path fill-rule="evenodd" clip-rule="evenodd" d="M242.041 75.2596C298.822 75.2596 357.552 119.272 378.365 147.357C402.432 179.832 421.417 335.729 412.511 388.628C403.605 441.527 359.365 499.184 282.567 499.184C205.768 499.184 159.031 489.724 157.157 475.984C155.908 466.825 139.023 436.751 106.503 385.765C73.243 376.41 56.5475 360.56 56.4166 338.214C56.2876 315.868 65.1995 300.63 83.1524 292.5C76.7513 204.314 81.6114 148.741 97.7325 125.782C121.914 91.3424 185.261 75.2596 242.041 75.2596Z" fill="white"/>
<path fill-rule="evenodd" clip-rule="evenodd" d="M213.132 62.0007L214.144 62.0051C276.969 62.411 340.864 91.3199 378.241 141.82L379.365 143.357C379.426 143.437 380.544 145.102 380.809 145.576C382.358 148.356 384.183 150.958 385.583 153.785C386.765 156.185 387.551 158.866 388.42 161.422L388.683 162.185C390.914 168.565 392.793 175.005 394.454 181.555C397.673 194.305 400.183 207.255 402.624 220.175C411.345 266.439 417.047 313.365 419.92 360.351L420.487 369.798C421.066 379.597 421.505 389.438 420.404 399.205C419.133 410.575 415.864 421.245 410.914 431.545C406.353 441.045 400.473 449.845 393.744 457.935C390.144 462.265 386.324 466.475 381.624 469.644C377.883 472.165 373.513 473.825 369.303 475.425C362.454 482.265 353.664 487.435 345.074 491.565C330.914 498.355 315.564 502.105 300.034 503.985C284.154 505.894 268.114 505.435 252.364 502.705C237.314 500.105 221.183 493.455 211.914 480.785C211.114 479.695 212.603 478.665 213.583 479.115C240.484 491.565 270.713 494.815 300.034 490.885C313.713 489.055 327.173 485.275 339.664 479.405C350.204 474.455 359.093 467.255 368.553 460.735C370.394 458.285 372.253 455.875 374.374 453.635L377.683 450.165C380.156 447.559 382.585 444.917 384.793 442.065C391.614 433.275 397.263 423.305 400.994 412.815C408.25 392.396 406.287 370.23 405.005 348.95L404.894 347.075C403.574 324.315 401.423 301.635 398.444 279.035C395.463 256.405 391.673 233.865 387.194 211.485C384.984 200.455 382.503 189.495 380.314 178.465C379.183 172.775 378.394 167.005 377.534 161.255C377.013 157.755 377.023 154.385 377.013 150.965C376.914 151.125 376.793 151.275 376.673 151.425C377.034 152.275 376.784 153.365 375.904 153.865C372.574 155.765 368.734 155.125 364.984 155.135C361.003 155.155 357.023 155.165 353.043 155.175C348.898 155.19 344.753 155.19 340.608 155.184L328.173 155.155L278.433 155.005C245.859 154.907 212.732 156.203 180.262 153.132L177.783 152.887C175.232 152.593 146.437 149.072 138.651 148.163L138.414 148.135C124.183 146.495 110.154 144.065 96.3241 140.425C100.843 142.235 105.194 144.675 109.673 146.525C115.454 148.905 121.383 150.985 127.314 152.975C139.484 157.065 151.673 161.035 163.793 165.255C167.268 166.463 175.164 196.231 177.155 200.94L177.213 201.075C178.223 203.345 179.614 205.835 178.843 208.415C177.144 214.115 168.133 218.335 163.664 221.555L159.069 224.871L153.059 229.219C150.594 230.985 148.318 232.336 145.093 231.325C145.083 231.315 145.074 231.315 145.064 231.315C147.824 244.125 149.164 285.555 149.574 292.825C149.933 299.155 151.793 307.265 148.833 313.035C148.133 314.405 146.314 315.485 144.763 315.375C138.003 314.865 131.244 314.365 124.484 313.865C122.673 313.725 121.023 312.695 120.523 310.855L120.503 310.755C120.284 310.815 120.034 310.775 119.824 310.555C119.454 310.185 119.074 309.825 118.683 309.475C109.784 301.535 95.8641 299.575 84.8831 303.705C79.1241 305.865 72.5741 309.505 68.5131 314.225C64.0031 319.465 63.0341 326.785 63.0231 333.475C63.0031 346.375 67.6641 359.435 77.1731 368.385C85.911 376.601 97.1855 378.992 108.529 381.343L109.744 381.595C112.333 382.135 113.154 385.995 111.204 387.615C116.394 392.695 120.874 398.755 125.244 404.345C131.047 411.761 136.596 419.471 141.995 427.198L144.601 430.935C153.888 444.189 167.331 462.446 161.484 479.015C160.704 481.245 157.444 482.045 156.173 479.705C152.003 472.005 149.673 463.525 145.713 455.735C141.824 448.095 136.984 441.015 132.183 433.935L129.414 429.832C124.804 422.98 120.236 416.053 116.003 408.995L113.055 404.108C110.286 399.493 107.544 394.724 105.503 389.765C91.8531 393.055 77.0131 385.735 67.4231 375.985C55.3641 363.705 49.6941 345.615 51.2531 328.605C52.0741 319.705 54.7041 311.095 61.2231 304.695C61.8831 304.055 62.5741 303.445 63.2841 302.835C63.0341 302.705 62.8241 302.505 62.7231 302.265C58.3531 291.885 57.4231 279.515 57.0531 268.335C56.6641 256.775 56.9141 245.185 57.7931 233.645C59.4041 212.485 63.2231 191.435 69.2841 171.095C78.2531 141.035 93.6641 111.605 118.284 91.4351C144.538 69.9224 179.712 61.9449 213.132 62.0007ZM82.4444 324.925C86.152 323.243 91.9363 326.24 95.2371 328.149L95.4534 328.275C105.203 333.945 112.144 343.605 115.353 354.305C117.413 361.205 105.843 363.955 104.863 357.195C104.064 351.685 102.223 346.525 99.1944 341.915C98.4734 342.155 97.7734 342.465 97.1444 342.865C94.7344 344.425 93.3334 347.105 89.9844 346.705C87.5034 346.415 84.9634 344.695 85.1334 341.855C85.4044 337.165 89.1834 335.295 93.2344 335.055C92.6561 334.538 92.0728 334.026 91.4756 333.532L90.8217 333.007C90.0805 332.471 82.156 327.006 81.9281 328.412L81.9234 328.495C81.9334 329.055 81.1834 329.375 80.8034 328.955C79.2734 327.315 80.6944 325.725 82.4444 324.925Z" fill="black"/>
<path fill-rule="evenodd" clip-rule="evenodd" d="M296.587 437.926C289.864 435.184 283.866 430.61 279.481 424.766C277.957 422.735 277.561 420.589 277.881 418.627C278.241 416.421 279.546 414.422 281.326 413.08C283.112 411.735 285.345 411.072 287.504 411.41C289.381 411.704 291.248 412.731 292.727 414.862L293.035 415.288C295.642 418.815 299.04 421.708 302.91 423.574C306.641 425.371 310.814 426.211 315.132 425.723C323.356 424.794 329.024 420.346 335.049 414.306C335.796 413.544 336.543 412.757 337.294 411.958C337.768 411.234 338.426 410.768 339.157 410.524C339.968 410.253 340.886 410.268 341.726 410.562C342.537 410.845 343.262 411.381 343.747 412.094C344.209 412.772 344.471 413.61 344.386 414.574C343.835 420.833 340.562 426.419 335.914 430.805C330.752 435.677 323.908 439.047 317.466 440.229C310.368 441.531 303.136 440.598 296.587 437.926ZM320.814 341.367C328.366 345.957 339.872 356.66 331.748 368.039C322.186 378.073 308.418 366.569 301.634 361.366C295.343 357.334 288.275 367.704 294.112 372.413C343.136 408.708 363.031 342.567 324.634 335.97C320.406 335.243 318.836 339.947 320.814 341.367ZM232.963 299.146C233.798 288.79 249.57 286.438 251.139 296.686C252.544 305.866 250.89 314.299 246.755 322.564C242.804 330.46 232.874 326.776 232.123 319.586C231.116 309.948 232.444 305.588 232.963 299.146ZM353.027 294.561C355.226 291.681 358.401 289.715 362.205 290.826C374.09 294.299 370.587 311.172 366.413 319.385C364.145 323.845 356.814 324.976 353.501 321.049C348.101 314.645 345.515 301.856 352.38 295.548C352.566 295.222 352.773 294.893 353.027 294.561ZM246.588 253.83L248.465 253.502C254.273 252.497 261.494 251.532 265.603 256.201C267.782 258.677 268.532 263.279 265.603 265.649C260.451 269.819 254.755 268.203 248.581 268.556C243.493 268.848 238.603 269.69 233.702 271.091C222.95 274.164 214.189 279.774 205.006 285.934C203.801 286.742 202.571 285.201 203.146 284.074C208.447 273.691 218.72 265.162 229.01 259.963C234.502 257.188 240.512 254.886 246.588 253.83ZM342.193 249.179L343.63 249.473C359.267 252.742 379.583 259.271 386.988 274.631C387.271 276.802 386.972 277.268 386.73 277.572L386.649 277.673C386.45 277.933 386.29 278.291 385.349 278.587C385.088 278.524 384.824 278.458 384.557 278.389C381.163 277.499 378.477 276.274 375.877 275.002L373.058 273.613C369.788 272.01 366.488 270.464 362.992 269.324C355.53 266.89 347.854 265.175 340.06 264.259C338.37 264.061 336.744 263.491 335.46 262.514C334.242 261.586 333.311 260.302 332.887 258.595C332.337 256.386 332.495 254.714 333.68 252.721C334.572 251.224 335.847 250.187 337.311 249.591C338.804 248.984 340.503 248.841 342.193 249.179Z" fill="black"/>
</svg>
